<?xml version="1.0" encoding="UTF-8" standalone="no"?>
<!-- Created with Inkscape (http://www.inkscape.org/) -->
<svg
   xmlns:dc="http://purl.org/dc/elements/1.1/"
   xmlns:cc="http://web.resource.org/cc/"
   xmlns:rdf="http://www.w3.org/1999/02/22-rdf-syntax-ns#"
   xmlns:svg="http://www.w3.org/2000/svg"
   xmlns="http://www.w3.org/2000/svg"
   xmlns:xlink="http://www.w3.org/1999/xlink"
   xmlns:sodipodi="http://sodipodi.sourceforge.net/DTD/sodipodi-0.dtd"
   xmlns:inkscape="http://www.inkscape.org/namespaces/inkscape"
   width="744.09448819"
   height="1052.3622047"
   id="svg8488"
   sodipodi:version="0.32"
   inkscape:version="0.44"
   sodipodi:docbase="/home/schmu20mol/TU-Berlin/job/script/MI1/figures/svg"
   sodipodi:docname="section2_fig12.svg">
  <defs
     id="defs8490">
    <marker
       inkscape:stockid="Arrow1Mstart"
       orient="auto"
       refY="0.0"
       refX="0.0"
       id="Arrow1Mstart"
       style="overflow:visible">
      <path
         id="path3027"
         d="M 0.0,0.0 L 5.0,-5.0 L -12.5,0.0 L 5.0,5.0 L 0.0,0.0 z "
         style="fill-rule:evenodd;stroke:#000000;stroke-width:1.0pt;marker-start:none"
         transform="scale(0.4) translate(10,0)" />
    </marker>
    <marker
       inkscape:stockid="Arrow1Lstart"
       orient="auto"
       refY="0.0"
       refX="0.0"
       id="Arrow1Lstart"
       style="overflow:visible">
      <path
         id="path3033"
         d="M 0.0,0.0 L 5.0,-5.0 L -12.5,0.0 L 5.0,5.0 L 0.0,0.0 z "
         style="fill-rule:evenodd;stroke:#000000;stroke-width:1.0pt;marker-start:none"
         transform="scale(0.8) translate(12.5,0)" />
    </marker>
    <marker
       inkscape:stockid="Arrow2Lend"
       orient="auto"
       refY="0.0"
       refX="0.0"
       id="Arrow2Lend"
       style="overflow:visible;">
      <path
         id="path4806"
         style="font-size:12.0;fill-rule:evenodd;stroke-width:0.62500000;stroke-linejoin:round;"
         d="M 8.7185878,4.0337352 L -2.2072895,0.016013256 L 8.7185884,-4.0017078 C 6.9730900,-1.6296469 6.9831476,1.6157441 8.7185878,4.0337352 z "
         transform="scale(1.1) rotate(180) translate(1,0)" />
    </marker>
    <marker
       inkscape:stockid="Arrow1Mend"
       orient="auto"
       refY="0.0"
       refX="0.0"
       id="Arrow1Mend"
       style="overflow:visible;">
      <path
         id="path4818"
         d="M 0.0,0.0 L 5.0,-5.0 L -12.5,0.0 L 5.0,5.0 L 0.0,0.0 z "
         style="fill-rule:evenodd;stroke:#000000;stroke-width:1.0pt;marker-start:none;"
         transform="scale(0.4) rotate(180) translate(10,0)" />
    </marker>
    <marker
       inkscape:stockid="Arrow1Lend"
       orient="auto"
       refY="0.0"
       refX="0.0"
       id="Arrow1Lend"
       style="overflow:visible;">
      <path
         id="path4824"
         d="M 0.0,0.0 L 5.0,-5.0 L -12.5,0.0 L 5.0,5.0 L 0.0,0.0 z "
         style="fill-rule:evenodd;stroke:#000000;stroke-width:1.0pt;marker-start:none;"
         transform="scale(0.8) rotate(180) translate(12.5,0)" />
    </marker>
  </defs>
  <sodipodi:namedview
     id="base"
     pagecolor="#ffffff"
     bordercolor="#666666"
     borderopacity="1.0"
     gridtolerance="10000"
     guidetolerance="10"
     objecttolerance="10"
     inkscape:pageopacity="0.0"
     inkscape:pageshadow="2"
     inkscape:zoom="2.5714906"
     inkscape:cx="492.73724"
     inkscape:cy="756.7985"
     inkscape:document-units="px"
     inkscape:current-layer="layer1"
     inkscape:window-width="1398"
     inkscape:window-height="975"
     inkscape:window-x="0"
     inkscape:window-y="25" />
  <metadata
     id="metadata8493">
    <rdf:RDF>
      <cc:Work
         rdf:about="">
        <dc:format>image/svg+xml</dc:format>
        <dc:type
           rdf:resource="http://purl.org/dc/dcmitype/StillImage" />
      </cc:Work>
    </rdf:RDF>
  </metadata>
  <g
     inkscape:label="Layer 1"
     inkscape:groupmode="layer"
     id="layer1">
    <path
       style="fill:none;fill-rule:evenodd;stroke:black;stroke-width:1;stroke-linecap:butt;stroke-linejoin:miter;marker-end:url(#Arrow2Lend);stroke-miterlimit:4;stroke-dasharray:none;stroke-opacity:1"
       d="M 274.57366,290.00771 C 705.18911,290.00771 705.18911,290.00771 705.18911,290.00771"
       id="path12056" />
    <path
       style="fill:none;fill-rule:evenodd;stroke:black;stroke-width:1;stroke-linecap:butt;stroke-linejoin:miter;marker-end:url(#Arrow2Lend);stroke-miterlimit:4;stroke-dasharray:none;stroke-opacity:1"
       d="M 286.23081,299.41093 C 286.23081,82.256998 286.23081,82.256998 286.23081,82.256998"
       id="path12058" />
    <path
       style="fill:none;fill-rule:evenodd;stroke:black;stroke-width:1px;stroke-linecap:butt;stroke-linejoin:miter;stroke-opacity:1"
       d="M 295.15955,85.607725 C 353.88035,167.07798 487.5671,237.01972 564.72596,264.18849 C 602.36221,277.44077 661.40125,284.11514 672.89333,284.63485"
       id="path2136"
       sodipodi:nodetypes="css" />
    <path
       style="fill:none;fill-rule:evenodd;stroke:black;stroke-width:0.98709637px;stroke-linecap:butt;stroke-linejoin:miter;stroke-opacity:1"
       d="M 665.63962,69.87561 C 588.9442,185.96499 511.65497,227.40781 422.902,259.74644 C 385.43368,273.39865 319.70025,285.11763 308.50356,285.63737"
       id="path2138"
       sodipodi:nodetypes="css" />
    <path
       style="fill:none;fill-rule:evenodd;stroke:black;stroke-width:1;stroke-linecap:butt;stroke-linejoin:miter;marker-end:url(#Arrow1Mend);stroke-miterlimit:4;stroke-dasharray:1,1;stroke-dashoffset:0;stroke-opacity:1"
       d="M 660.22716,152.9684 C 638.05677,135.79956 614.94558,135.91738 614.94558,135.91738"
       id="path3916" />
    <path
       sodipodi:type="arc"
       style="fill:none;fill-opacity:1;stroke:black;stroke-width:1;stroke-miterlimit:4;stroke-dasharray:none;stroke-dashoffset:0;stroke-opacity:1"
       id="path3003"
       sodipodi:cx="480.07175"
       sodipodi:cy="216.85455"
       sodipodi:rx="177.91237"
       sodipodi:ry="44.915585"
       d="M 657.98412 216.85455 A 177.91237 44.915585 0 1 1  302.15938,216.85455 A 177.91237 44.915585 0 1 1  657.98412 216.85455 z"
       transform="translate(-1.24987,140.9689)" />
    <path
       sodipodi:type="arc"
       style="fill:none;fill-opacity:1;stroke:black;stroke-width:1.37742186;stroke-miterlimit:4;stroke-dasharray:none;stroke-dashoffset:0;stroke-opacity:1"
       id="path3890"
       sodipodi:cx="480.07175"
       sodipodi:cy="216.85455"
       sodipodi:rx="177.91237"
       sodipodi:ry="44.915585"
       d="M 657.98412 216.85455 A 177.91237 44.915585 0 1 1  302.15938,216.85455 A 177.91237 44.915585 0 1 1  657.98412 216.85455 z"
       transform="matrix(0.725994,0,0,0.725994,112.2113,197.8606)" />
    <path
       sodipodi:type="arc"
       style="fill:none;fill-opacity:1;stroke:black;stroke-width:1.6855675;stroke-miterlimit:4;stroke-dasharray:none;stroke-dashoffset:0;stroke-opacity:1"
       id="path3892"
       sodipodi:cx="480.07175"
       sodipodi:cy="216.85455"
       sodipodi:rx="177.91237"
       sodipodi:ry="44.915585"
       d="M 657.98412 216.85455 A 177.91237 44.915585 0 1 1  302.15938,216.85455 A 177.91237 44.915585 0 1 1  657.98412 216.85455 z"
       transform="matrix(0.593272,0,0,0.593272,192.1918,226.4475)" />
    <path
       sodipodi:type="arc"
       style="fill:none;fill-opacity:1;stroke:black;stroke-width:2.82311225;stroke-miterlimit:4;stroke-dasharray:none;stroke-dashoffset:0;stroke-opacity:1"
       id="path3894"
       sodipodi:cx="480.07175"
       sodipodi:cy="216.85455"
       sodipodi:rx="177.91237"
       sodipodi:ry="44.915585"
       d="M 657.98412 216.85455 A 177.91237 44.915585 0 1 1  302.15938,216.85455 A 177.91237 44.915585 0 1 1  657.98412 216.85455 z"
       transform="matrix(0.354219,0,0,0.354219,299.2594,278.5137)" />
    <path
       sodipodi:type="arc"
       style="fill:none;fill-opacity:1;stroke:black;stroke-width:5.240376;stroke-miterlimit:4;stroke-dasharray:none;stroke-dashoffset:0;stroke-opacity:1"
       id="path3896"
       sodipodi:cx="480.07175"
       sodipodi:cy="216.85455"
       sodipodi:rx="177.91237"
       sodipodi:ry="44.915585"
       d="M 657.98412 216.85455 A 177.91237 44.915585 0 1 1  302.15938,216.85455 A 177.91237 44.915585 0 1 1  657.98412 216.85455 z"
       transform="matrix(0.190826,0,0,0.190826,366.8811,313.5254)" />
    <path
       style="fill:none;fill-rule:evenodd;stroke:black;stroke-width:0.95985425;stroke-linecap:butt;stroke-linejoin:miter;marker-end:url(#Arrow1Mend);stroke-miterlimit:4;stroke-dasharray:0.95985423, 0.95985423;stroke-dashoffset:0;stroke-opacity:1"
       d="M 427.39865,350.84362 C 356.53001,319.22619 356.15103,291.65284 356.15103,291.65284"
       id="path4912" />
    <path
       style="fill:none;fill-rule:evenodd;stroke:black;stroke-width:1;stroke-linecap:butt;stroke-linejoin:miter;stroke-opacity:1;stroke-miterlimit:4;stroke-dasharray:1,1;stroke-dashoffset:0;marker-end:url(#Arrow1Mend)"
       d="M 452.65575,338.37941 C 444.1004,302.21361 447.98919,291.71386 447.98919,291.71386"
       id="path5799" />
    <path
       style="fill:none;fill-rule:evenodd;stroke:black;stroke-width:1;stroke-linecap:butt;stroke-linejoin:miter;stroke-opacity:1;stroke-miterlimit:4;stroke-dasharray:1,1;stroke-dashoffset:0;marker-end:url(#Arrow1Mend)"
       d="M 509.82104,323.60198 C 517.20975,299.49145 524.20958,291.71386 524.20958,291.71386"
       id="path6686" />
    <path
       style="fill:none;fill-rule:evenodd;stroke:black;stroke-width:1;stroke-linecap:butt;stroke-linejoin:miter;stroke-opacity:1;stroke-miterlimit:4;stroke-dasharray:1,1;stroke-dashoffset:0;marker-end:url(#Arrow1Mend)"
       d="M 564.26417,316.99103 C 573.98615,291.32498 607.42979,290.93611 607.42979,290.93611"
       id="path7573" />
    <image
       y="302.54636"
       x="588.8692"
       id="image3622"
       height="16.169344"
       width="159.5844"
       sodipodi:absref="/home/schmu20mol/TU-Berlin/job/script/MI1/figures/png/section2_fig12_00.png"
       xlink:href="/home/schmu20mol/TU-Berlin/job/script/MI1/figures/png/section2_fig12_00.png" />
    <image
       y="146.88354"
       x="661.03912"
       id="image3680"
       height="16.353439"
       width="15.944602"
       sodipodi:absref="/home/schmu20mol/TU-Berlin/job/script/MI1/figures/png/standards/C.png"
       xlink:href="/home/schmu20mol/TU-Berlin/job/script/MI1/figures/png/standards/C.png" />
    <image
       y="238.02237"
       x="657.78271"
       id="image4113"
       height="32.406418"
       width="63.372555"
       sodipodi:absref="/home/schmu20mol/TU-Berlin/job/script/MI1/figures/png/section2_fig1_02.png"
       xlink:href="/home/schmu20mol/TU-Berlin/job/script/MI1/figures/png/section2_fig1_02.png" />
    <image
       y="279.75684"
       x="708.76764"
       id="image4186"
       height="19.624126"
       width="32.706879"
       sodipodi:absref="/home/schmu20mol/TU-Berlin/job/script/MI1/figures/png/standards/dvc.png"
       xlink:href="/home/schmu20mol/TU-Berlin/job/script/MI1/figures/png/standards/dvc.png" />
    <path
       style="fill:none;fill-rule:evenodd;stroke:black;stroke-width:1;stroke-linecap:butt;stroke-linejoin:miter;marker-end:url(#Arrow1Mend);stroke-miterlimit:4;stroke-dasharray:1, 1;stroke-dashoffset:0;stroke-opacity:1"
       d="M 667.00025,260.52082 C 644.82986,277.68966 621.71867,277.57184 621.71867,277.57184"
       id="path3468" />
    <path
       style="fill:none;fill-rule:evenodd;stroke:black;stroke-width:1;stroke-linecap:butt;stroke-linejoin:miter;stroke-opacity:1;marker-end:url(#Arrow1Mend);stroke-miterlimit:4;stroke-dasharray:4,4;stroke-dashoffset:0"
       d="M 286.6042,260.21462 C 550.65338,260.21462 550.65338,260.21462 550.65338,260.21462 L 550.65338,288.99171"
       id="path4189" />
  </g>
</svg>
