<?xml version="1.0" encoding="UTF-8" standalone="no"?>
<!-- Created with Inkscape (http://www.inkscape.org/) -->
<svg
   xmlns:dc="http://purl.org/dc/elements/1.1/"
   xmlns:cc="http://web.resource.org/cc/"
   xmlns:rdf="http://www.w3.org/1999/02/22-rdf-syntax-ns#"
   xmlns:svg="http://www.w3.org/2000/svg"
   xmlns="http://www.w3.org/2000/svg"
   xmlns:xlink="http://www.w3.org/1999/xlink"
   xmlns:sodipodi="http://sodipodi.sourceforge.net/DTD/sodipodi-0.dtd"
   xmlns:inkscape="http://www.inkscape.org/namespaces/inkscape"
   width="744.09448819"
   height="1052.3622047"
   id="svg8488"
   sodipodi:version="0.32"
   inkscape:version="0.44"
   sodipodi:docbase="/home/schmu20mol/TU-Berlin/job/script/MI1/figures/svg"
   sodipodi:docname="section1_fig44.svg">
  <defs
     id="defs8490">
    <marker
       inkscape:stockid="Arrow2Lend"
       orient="auto"
       refY="0.0"
       refX="0.0"
       id="Arrow2Lend"
       style="overflow:visible;">
      <path
         id="path4806"
         style="font-size:12.0;fill-rule:evenodd;stroke-width:0.62500000;stroke-linejoin:round;"
         d="M 8.7185878,4.0337352 L -2.2072895,0.016013256 L 8.7185884,-4.0017078 C 6.9730900,-1.6296469 6.9831476,1.6157441 8.7185878,4.0337352 z "
         transform="scale(1.1) rotate(180) translate(1,0)" />
    </marker>
    <marker
       inkscape:stockid="Arrow1Mend"
       orient="auto"
       refY="0.0"
       refX="0.0"
       id="Arrow1Mend"
       style="overflow:visible;">
      <path
         id="path4818"
         d="M 0.0,0.0 L 5.0,-5.0 L -12.5,0.0 L 5.0,5.0 L 0.0,0.0 z "
         style="fill-rule:evenodd;stroke:#000000;stroke-width:1.0pt;marker-start:none;"
         transform="scale(0.4) rotate(180) translate(10,0)" />
    </marker>
    <marker
       inkscape:stockid="Arrow1Lend"
       orient="auto"
       refY="0.0"
       refX="0.0"
       id="Arrow1Lend"
       style="overflow:visible;">
      <path
         id="path4824"
         d="M 0.0,0.0 L 5.0,-5.0 L -12.5,0.0 L 5.0,5.0 L 0.0,0.0 z "
         style="fill-rule:evenodd;stroke:#000000;stroke-width:1.0pt;marker-start:none;"
         transform="scale(0.8) rotate(180) translate(12.5,0)" />
    </marker>
  </defs>
  <sodipodi:namedview
     id="base"
     pagecolor="#ffffff"
     bordercolor="#666666"
     borderopacity="1.0"
     gridtolerance="10000"
     guidetolerance="10"
     objecttolerance="10"
     inkscape:pageopacity="0.0"
     inkscape:pageshadow="2"
     inkscape:zoom="2.5714906"
     inkscape:cx="484.83885"
     inkscape:cy="839.97436"
     inkscape:document-units="px"
     inkscape:current-layer="layer1"
     inkscape:window-width="1398"
     inkscape:window-height="975"
     inkscape:window-x="0"
     inkscape:window-y="25" />
  <metadata
     id="metadata8493">
    <rdf:RDF>
      <cc:Work
         rdf:about="">
        <dc:format>image/svg+xml</dc:format>
        <dc:type
           rdf:resource="http://purl.org/dc/dcmitype/StillImage" />
      </cc:Work>
    </rdf:RDF>
  </metadata>
  <g
     inkscape:label="Layer 1"
     inkscape:groupmode="layer"
     id="layer1">
    <path
       style="fill:none;fill-rule:evenodd;stroke:black;stroke-width:1;stroke-linecap:butt;stroke-linejoin:miter;marker-end:url(#Arrow2Lend);stroke-miterlimit:4;stroke-dasharray:none;stroke-opacity:1"
       d="M 274.57366,290.00771 C 705.18911,290.00771 705.18911,290.00771 705.18911,290.00771"
       id="path12056" />
    <path
       style="fill:none;fill-rule:evenodd;stroke:black;stroke-width:1;stroke-linecap:butt;stroke-linejoin:miter;marker-end:url(#Arrow2Lend);stroke-miterlimit:4;stroke-dasharray:none;stroke-opacity:1"
       d="M 286.23081,299.41093 C 286.23081,82.256998 286.23081,82.256998 286.23081,82.256998"
       id="path12058" />
    <image
       y="58.85918"
       x="278.81454"
       id="image14098"
       height="21.706398"
       width="17.184231"
       sodipodi:absref="/home/schmu20mol/TU-Berlin/job/script/MI1/figures/png/standards/y.png"
       xlink:href="/home/schmu20mol/TU-Berlin/job/script/MI1/figures/png/standards/y.png" />
    <image
       y="281.07425"
       x="707.17792"
       id="image14246"
       height="20.801964"
       width="18.993097"
       sodipodi:absref="/home/schmu20mol/TU-Berlin/job/script/MI1/figures/png/standards/vecX.png"
       xlink:href="/home/schmu20mol/TU-Berlin/job/script/MI1/figures/png/standards/vecX.png" />
    <path
       style="fill:none;fill-rule:evenodd;stroke:black;stroke-width:1px;stroke-linecap:butt;stroke-linejoin:miter;stroke-opacity:1"
       d="M 276.88221,260.99238 C 322.76999,258.65911 327.04767,222.10443 369.04665,212.77132 C 411.04564,203.43822 437.10057,230.2709 459.2667,223.65995 C 481.43283,217.049 520.70966,169.21682 545.98683,166.88354 C 571.264,164.55027 596.15229,187.88304 620.26282,181.66096 C 644.37335,175.43889 659.53965,168.82794 675.09483,158.32819 C 690.65001,147.82845 690.65001,147.82845 690.65001,147.82845"
       id="path24609" />
    <path
       style="fill:none;fill-rule:evenodd;stroke:black;stroke-width:1px;stroke-linecap:butt;stroke-linejoin:miter;stroke-opacity:1"
       d="M 296.71506,298.7137 C 314.9924,242.71505 323.54775,209.66029 341.82509,206.93813 C 360.10242,204.21598 372.15769,220.16003 400.54589,225.99323 C 428.9341,231.82642 454.98902,211.21581 465.09989,209.66029 C 475.21076,208.10477 511.76543,208.10477 542.48691,196.04951 C 573.2084,183.99424 590.31909,152.495 605.09651,138.88422 C 619.87394,125.27343 631.54032,98.829628 651.37318,121.77352 C 671.20603,144.71741 669.26163,169.6057 686.37233,173.49449 C 703.48303,177.38329 703.48303,176.99441 703.48303,176.99441"
       id="path24611" />
    <path
       sodipodi:type="arc"
       style="fill:black;fill-opacity:1;stroke:black;stroke-width:1;stroke-miterlimit:4;stroke-dasharray:none;stroke-dashoffset:0;stroke-opacity:1"
       id="path24613"
       sodipodi:cx="373.7132"
       sodipodi:cy="94.357513"
       sodipodi:rx="3.1110361"
       sodipodi:ry="2.9165964"
       d="M 376.82423 94.357513 A 3.1110361 2.9165964 0 1 1  370.60216,94.357513 A 3.1110361 2.9165964 0 1 1  376.82423 94.357513 z"
       transform="matrix(0.82314,0,0,0.82314,5.957617,170.4133)" />
    <path
       sodipodi:type="arc"
       style="fill:black;fill-opacity:1;stroke:black;stroke-width:1;stroke-miterlimit:4;stroke-dasharray:none;stroke-dashoffset:0;stroke-opacity:1"
       id="path25500"
       sodipodi:cx="373.7132"
       sodipodi:cy="94.357513"
       sodipodi:rx="3.1110361"
       sodipodi:ry="2.9165964"
       d="M 376.82423 94.357513 A 3.1110361 2.9165964 0 1 1  370.60216,94.357513 A 3.1110361 2.9165964 0 1 1  376.82423 94.357513 z"
       transform="matrix(0.82314,0,0,0.82314,59.87286,135.4908)" />
    <path
       sodipodi:type="arc"
       style="fill:black;fill-opacity:1;stroke:black;stroke-width:1;stroke-miterlimit:4;stroke-dasharray:none;stroke-dashoffset:0;stroke-opacity:1"
       id="path25502"
       sodipodi:cx="373.7132"
       sodipodi:cy="94.357513"
       sodipodi:rx="3.1110361"
       sodipodi:ry="2.9165964"
       d="M 376.82423 94.357513 A 3.1110361 2.9165964 0 1 1  370.60216,94.357513 A 3.1110361 2.9165964 0 1 1  376.82423 94.357513 z"
       transform="matrix(0.82314,0,0,0.82314,128.3156,144.8238)" />
    <path
       sodipodi:type="arc"
       style="fill:black;fill-opacity:1;stroke:black;stroke-width:1;stroke-miterlimit:4;stroke-dasharray:none;stroke-dashoffset:0;stroke-opacity:1"
       id="path25504"
       sodipodi:cx="373.7132"
       sodipodi:cy="94.357513"
       sodipodi:rx="3.1110361"
       sodipodi:ry="2.9165964"
       d="M 376.82423 94.357513 A 3.1110361 2.9165964 0 1 1  370.60216,94.357513 A 3.1110361 2.9165964 0 1 1  376.82423 94.357513 z"
       transform="matrix(0.82314,0,0,0.82314,176.9256,130.0465)" />
    <path
       sodipodi:type="arc"
       style="fill:black;fill-opacity:1;stroke:black;stroke-width:1;stroke-miterlimit:4;stroke-dasharray:none;stroke-dashoffset:0;stroke-opacity:1"
       id="path25506"
       sodipodi:cx="373.7132"
       sodipodi:cy="94.357513"
       sodipodi:rx="3.1110361"
       sodipodi:ry="2.9165964"
       d="M 376.82423 94.357513 A 3.1110361 2.9165964 0 1 1  370.60216,94.357513 A 3.1110361 2.9165964 0 1 1  376.82423 94.357513 z"
       transform="matrix(0.82314,0,0,0.82314,267.9234,95.04729)" />
    <path
       sodipodi:type="arc"
       style="fill:black;fill-opacity:1;stroke:black;stroke-width:1;stroke-miterlimit:4;stroke-dasharray:none;stroke-dashoffset:0;stroke-opacity:1"
       id="path25508"
       sodipodi:cx="373.7132"
       sodipodi:cy="94.357513"
       sodipodi:rx="3.1110361"
       sodipodi:ry="2.9165964"
       d="M 376.82423 94.357513 A 3.1110361 2.9165964 0 1 1  370.60216,94.357513 A 3.1110361 2.9165964 0 1 1  376.82423 94.357513 z"
       transform="matrix(0.82314,0,0,0.82314,364.7544,82.60315)" />
  </g>
</svg>
