<svg xmlns="http://www.w3.org/2000/svg" xmlns:xlink="http://www.w3.org/1999/xlink" viewBox="0 0 411.65 281.07"><defs><style>.cls-1,.cls-7{fill:none;}.cls-2{clip-path:url(#clip-path);}.cls-3{clip-path:url(#clip-path-2);}.cls-4{clip-path:url(#clip-path-3);}.cls-5{clip-path:url(#clip-path-4);}.cls-6{clip-path:url(#clip-path-5);}.cls-7{stroke:#000;stroke-miterlimit:10;stroke-width:2px;}.cls-8{clip-path:url(#clip-path-6);}.cls-9{clip-path:url(#clip-path-7);}.cls-10{clip-path:url(#clip-path-8);}</style><clipPath id="clip-path" transform="translate(-0.84)"><rect class="cls-1" x="283.5" y="84.18" width="129" height="37"/></clipPath><clipPath id="clip-path-2" transform="translate(-0.84)"><rect class="cls-1" x="24.5" y="84.18" width="80" height="37"/></clipPath><clipPath id="clip-path-3" transform="translate(-0.84)"><rect class="cls-1" y="244.49" width="129" height="37"/></clipPath><clipPath id="clip-path-4" transform="translate(-0.84)"><rect class="cls-1" x="303" y="244.49" width="90" height="37"/></clipPath><clipPath id="clip-path-5" transform="translate(-0.84)"><rect class="cls-1" x="51.5" y="19.53" width="26" height="26"/></clipPath><clipPath id="clip-path-6" transform="translate(-0.84)"><rect class="cls-1" x="51.5" y="178.36" width="26" height="26"/></clipPath><clipPath id="clip-path-7" transform="translate(-0.84)"><rect class="cls-1" x="329.5" y="19.53" width="37" height="26"/></clipPath><clipPath id="clip-path-8" transform="translate(-0.84)"><rect class="cls-1" x="329.5" y="179.84" width="37" height="26"/></clipPath></defs><title>Element 1</title><g id="Ebene_2" data-name="Ebene 2"><g id="svg1889"><g class="cls-2"><path d="M296.37,89.73c.32-1.26.4-1.36,1.94-1.36h3.45c3,0,4.88,1,4.88,3.45,0,1.4-.72,4.49-2.12,5.78A8,8,0,0,1,299,99.5h-5.06l2.44-9.77m-2.59,10.7h6.11c5.1,0,10.09-3.74,10.09-7.76,0-2.77-2.37-5.42-7.08-5.42H291.27c-.68,0-1.08,0-1.08.68,0,.43.32.43,1,.43.47,0,1.11,0,1.54.07s.79.18.79.57a3.14,3.14,0,0,1-.14.68L288.61,109c-.36,1.4-.43,1.69-3.27,1.69-.61,0-1,0-1,.68,0,.43.43.43.54.43,1,0,3.56-.11,4.56-.11.75,0,1.55,0,2.3,0s1.58.07,2.33.07c.25,0,.72,0,.72-.72,0-.4-.32-.4-1-.4-1.33,0-2.33,0-2.33-.65a3.63,3.63,0,0,1,.11-.61Z" transform="translate(-0.84)"/><path d="M322.79,120.4c0-.11,0-.18-.61-.79-4.49-4.53-5.64-11.31-5.64-16.81,0-6.25,1.36-12.5,5.78-17,.47-.43.47-.5.47-.61a.32.32,0,0,0-.36-.36c-.36,0-3.59,2.44-5.71,7a27.66,27.66,0,0,0,.11,22.16c2.15,4.42,5.24,6.75,5.6,6.75a.32.32,0,0,0,.36-.36" transform="translate(-0.84)"/><path d="M357.84,91.42c.9-1.58,1.76-2.87,4-3.05.32,0,.68,0,.68-.72a.43.43,0,0,0-.43-.4c-.86,0-1.87.11-2.77.11-1.22,0-2.55-.11-3.74-.11-.22,0-.68,0-.68.68,0,.4.32.43.54.43.86,0,2.12.32,2.12,1.4a2.39,2.39,0,0,1-.47,1.19l-9.7,16.92-1.33-17.81c0-.72-.11-1.65,2.51-1.69.61,0,1,0,1-.72,0-.36-.4-.4-.54-.4-1.44,0-2.95.11-4.38.11-.83,0-2.95-.11-3.77-.11-.22,0-.68,0-.68.72,0,.4.36.4.86.4,1.58,0,1.83.22,1.9.9l.22,2.77-9.09,15.84-1.36-18.21c0-.43,0-1.26,2.73-1.29.36,0,.75,0,.75-.72,0-.4-.43-.4-.5-.4-1.44,0-2.95.11-4.42.11-1.26,0-2.55-.11-3.77-.11-.18,0-.65,0-.65.68,0,.43.32.43.9.43,1.8,0,1.83.32,1.9,1.33l1.62,21.94c0,.65.07.93.58.93s.54-.22.86-.75L343.29,93.5l1.33,18.14c.07.75.14.93.58.93s.68-.36.86-.68l11.78-20.47" transform="translate(-0.84)"/><path d="M369.41,86.14c0-.65,0-1.29-.72-1.29s-.72.65-.72,1.29v33.33c0,.65,0,1.29.72,1.29s.72-.65.72-1.29V86.14" transform="translate(-0.84)"/><path d="M396.51,91c.36-1.47,1-2.55,3.88-2.66.18,0,.61,0,.61-.72,0,0,0-.4-.47-.4-1.19,0-2.44.11-3.66.11s-2.55-.11-3.73-.11c-.22,0-.65,0-.65.72,0,.4.36.4.65.4,2,0,2.44.79,2.44,1.58a5.44,5.44,0,0,1-.11.75l-3.23,12.82c-1.22,4.81-5.35,7.94-8.94,7.94-2.44,0-4.38-1.58-4.38-4.67a12.33,12.33,0,0,1,.4-2.8l3.48-14c.32-1.29.4-1.65,3-1.65.94,0,1.22,0,1.22-.72,0-.4-.39-.4-.5-.4-1,0-3.59.11-4.6.11s-3.59-.11-4.63-.11c-.29,0-.68,0-.68.72,0,.4.32.4,1,.4a13.1,13.1,0,0,1,1.37.07c.65.07,1,.11,1,.57,0,.22-.39,1.73-.61,2.55l-.79,3.16c-.32,1.4-2,8.19-2.19,8.87a7.39,7.39,0,0,0-.25,2.08,6.69,6.69,0,0,0,7,6.9c4.52,0,9-4.06,10.16-8.8L396.51,91" transform="translate(-0.84)"/><path d="M412.48,102.8a26.18,26.18,0,0,0-2.37-11.21c-2.15-4.42-5.24-6.75-5.6-6.75a.34.34,0,0,0-.36.36c0,.11,0,.18.68.83,3.52,3.55,5.57,9.27,5.57,16.77,0,6.14-1.33,12.46-5.78,17-.47.43-.47.5-.47.61a.34.34,0,0,0,.36.36c.36,0,3.59-2.44,5.71-7a26.11,26.11,0,0,0,2.26-11" transform="translate(-0.84)"/></g><g class="cls-3"><path d="M36.57,89.73c.32-1.26.4-1.36,1.94-1.36H42c3,0,4.88,1,4.88,3.45,0,1.4-.72,4.49-2.12,5.78a8,8,0,0,1-5.53,1.9H34.13l2.44-9.77M34,100.43h6.11c5.1,0,10.09-3.74,10.09-7.76,0-2.77-2.37-5.42-7.07-5.42H31.47c-.68,0-1.08,0-1.08.68,0,.43.32.43,1,.43.47,0,1.11,0,1.54.07s.79.18.79.57a3.15,3.15,0,0,1-.14.68L28.81,109c-.36,1.4-.43,1.69-3.27,1.69-.61,0-1,0-1,.68,0,.43.43.43.54.43,1,0,3.56-.11,4.56-.11.75,0,1.55,0,2.3,0s1.58.07,2.33.07c.25,0,.72,0,.72-.72,0-.4-.32-.4-1-.4-1.33,0-2.33,0-2.33-.65a3.63,3.63,0,0,1,.11-.61Z" transform="translate(-0.84)"/><path d="M63.09,120.4c0-.11,0-.18-.61-.79-4.49-4.53-5.64-11.31-5.64-16.81,0-6.25,1.36-12.5,5.78-17,.47-.43.47-.5.47-.61a.32.32,0,0,0-.36-.36c-.36,0-3.59,2.44-5.71,7A27.66,27.66,0,0,0,57.13,114c2.15,4.42,5.24,6.75,5.6,6.75a.32.32,0,0,0,.36-.36" transform="translate(-0.84)"/><path d="M87.91,91c.36-1.47,1-2.55,3.88-2.66.18,0,.61,0,.61-.72,0,0,0-.4-.47-.4-1.19,0-2.44.11-3.66.11s-2.55-.11-3.73-.11c-.22,0-.65,0-.65.72,0,.4.36.4.65.4,2,0,2.44.79,2.44,1.58a5.46,5.46,0,0,1-.11.75l-3.23,12.82c-1.22,4.81-5.35,7.94-8.94,7.94-2.44,0-4.38-1.58-4.38-4.67a12.33,12.33,0,0,1,.4-2.8l3.48-14c.32-1.29.4-1.65,3-1.65.93,0,1.22,0,1.22-.72,0-.4-.39-.4-.5-.4-1,0-3.59.11-4.6.11s-3.59-.11-4.63-.11c-.29,0-.68,0-.68.72,0,.4.32.4,1,.4a13.1,13.1,0,0,1,1.37.07c.65.07,1,.11,1,.57,0,.22-.39,1.72-.61,2.55l-.79,3.16c-.32,1.4-2,8.19-2.19,8.87a7.39,7.39,0,0,0-.25,2.08,6.69,6.69,0,0,0,7,6.9c4.53,0,9-4.06,10.16-8.8L87.91,91" transform="translate(-0.84)"/><path d="M103.88,102.8a26.18,26.18,0,0,0-2.37-11.21c-2.15-4.42-5.24-6.75-5.6-6.75a.34.34,0,0,0-.36.36c0,.11,0,.18.68.83,3.52,3.55,5.57,9.27,5.57,16.77,0,6.14-1.33,12.46-5.78,17-.47.43-.47.5-.47.61a.34.34,0,0,0,.36.36c.36,0,3.59-2.44,5.71-7a26.1,26.1,0,0,0,2.26-11" transform="translate(-0.84)"/></g><g class="cls-4"><path d="M12.87,250c.32-1.26.4-1.36,1.94-1.36h3.45c3,0,4.88,1,4.88,3.45,0,1.4-.72,4.49-2.12,5.78a8,8,0,0,1-5.53,1.9H10.42L12.87,250m-2.59,10.7h6.11c5.1,0,10.09-3.74,10.09-7.76,0-2.77-2.37-5.42-7.08-5.42H7.77c-.68,0-1.08,0-1.08.68,0,.43.32.43,1,.43.47,0,1.11,0,1.54.07s.79.18.79.57a3.14,3.14,0,0,1-.14.68L5.11,269.29c-.36,1.4-.43,1.69-3.27,1.69-.61,0-1,0-1,.68,0,.43.43.43.54.43,1,0,3.56-.11,4.56-.11.75,0,1.55,0,2.3,0s1.58.07,2.33.07c.25,0,.72,0,.72-.72,0-.4-.32-.4-1-.4-1.33,0-2.33,0-2.33-.65a3.63,3.63,0,0,1,.11-.61Z" transform="translate(-0.84)"/><path d="M39.29,280.71c0-.11,0-.18-.61-.79C34.19,275.4,33,268.61,33,263.11c0-6.25,1.36-12.5,5.78-17,.47-.43.47-.5.47-.61a.32.32,0,0,0-.36-.36c-.36,0-3.59,2.44-5.71,7a27.66,27.66,0,0,0,.11,22.16c2.15,4.42,5.24,6.75,5.6,6.75a.32.32,0,0,0,.36-.36" transform="translate(-0.84)"/><path d="M64.21,251.33c.36-1.47,1-2.55,3.88-2.66.18,0,.61,0,.61-.72,0,0,0-.4-.47-.4-1.19,0-2.44.11-3.66.11s-2.55-.11-3.73-.11c-.22,0-.65,0-.65.72,0,.4.36.4.65.4,2,0,2.44.79,2.44,1.58a5.46,5.46,0,0,1-.11.75l-3.23,12.82c-1.22,4.81-5.35,7.94-8.94,7.94-2.44,0-4.38-1.58-4.38-4.67a12.33,12.33,0,0,1,.4-2.8l3.48-14c.32-1.29.4-1.65,3-1.65.93,0,1.22,0,1.22-.72,0-.4-.39-.4-.5-.4-1,0-3.59.11-4.6.11s-3.59-.11-4.63-.11c-.29,0-.68,0-.68.72,0,.4.32.4,1,.4a13.1,13.1,0,0,1,1.37.07c.65.07,1,.11,1,.57,0,.22-.39,1.73-.61,2.55L46.25,255c-.32,1.4-2,8.19-2.19,8.87a7.39,7.39,0,0,0-.25,2.08,6.69,6.69,0,0,0,7,6.9c4.53,0,9-4.06,10.16-8.8l3.2-12.75" transform="translate(-0.84)"/><path d="M75.51,246.45c0-.65,0-1.29-.72-1.29s-.72.65-.72,1.29v33.33c0,.65,0,1.29.72,1.29s.72-.65.72-1.29V246.45" transform="translate(-0.84)"/><path d="M112.73,251.73c.9-1.58,1.76-2.87,4-3.05.32,0,.68,0,.68-.72a.43.43,0,0,0-.43-.4c-.86,0-1.87.11-2.77.11-1.22,0-2.55-.11-3.74-.11-.22,0-.68,0-.68.68,0,.4.32.43.54.43.86,0,2.12.32,2.12,1.4a2.39,2.39,0,0,1-.46,1.19l-9.7,16.92L101,250.36c0-.72-.11-1.65,2.51-1.69.61,0,1,0,1-.72,0-.36-.4-.4-.54-.4-1.44,0-2.94.11-4.38.11-.83,0-2.95-.11-3.77-.11-.22,0-.68,0-.68.72,0,.4.36.4.86.4,1.58,0,1.83.22,1.9.9l.22,2.77L89,268.18,87.63,250c0-.43,0-1.26,2.73-1.29.36,0,.75,0,.75-.72,0-.4-.43-.4-.5-.4-1.44,0-2.95.11-4.42.11-1.26,0-2.55-.11-3.77-.11-.18,0-.65,0-.65.68,0,.43.32.43.9.43,1.8,0,1.83.32,1.9,1.33l1.62,21.94c0,.65.07.93.57.93s.54-.22.86-.75l10.56-18.32,1.33,18.14c.07.75.14.93.57.93s.68-.36.86-.68l11.78-20.47" transform="translate(-0.84)"/><path d="M129,263.11a26.18,26.18,0,0,0-2.37-11.21c-2.15-4.42-5.24-6.75-5.6-6.75a.34.34,0,0,0-.36.36c0,.11,0,.18.68.83,3.52,3.55,5.57,9.27,5.57,16.77,0,6.14-1.33,12.46-5.78,17-.47.43-.47.5-.47.61a.34.34,0,0,0,.36.36c.36,0,3.59-2.44,5.71-7a26.11,26.11,0,0,0,2.26-11" transform="translate(-0.84)"/></g><g class="cls-5"><path d="M315.07,250c.32-1.26.4-1.36,1.94-1.36h3.45c3,0,4.88,1,4.88,3.45,0,1.4-.72,4.49-2.12,5.78a8,8,0,0,1-5.53,1.9h-5.06l2.44-9.77m-2.59,10.7h6.11c5.1,0,10.09-3.74,10.09-7.76,0-2.77-2.37-5.42-7.08-5.42H310c-.68,0-1.08,0-1.08.68,0,.43.32.43,1,.43.47,0,1.11,0,1.54.07s.79.18.79.57a3.15,3.15,0,0,1-.14.68l-4.81,19.29c-.36,1.4-.43,1.69-3.27,1.69-.61,0-1,0-1,.68,0,.43.43.43.54.43,1,0,3.56-.11,4.56-.11.75,0,1.55,0,2.3,0s1.58.07,2.33.07c.25,0,.72,0,.72-.72,0-.4-.32-.4-1-.4-1.33,0-2.33,0-2.33-.65a3.63,3.63,0,0,1,.11-.61Z" transform="translate(-0.84)"/><path d="M341.49,280.71c0-.11,0-.18-.61-.79-4.49-4.53-5.64-11.31-5.64-16.81,0-6.25,1.36-12.5,5.78-17,.47-.43.47-.5.47-.61a.32.32,0,0,0-.36-.36c-.36,0-3.59,2.44-5.71,7a27.66,27.66,0,0,0,.11,22.16c2.15,4.42,5.24,6.75,5.6,6.75a.32.32,0,0,0,.36-.36" transform="translate(-0.84)"/><path d="M376.54,251.73c.9-1.58,1.76-2.87,4-3.05.32,0,.68,0,.68-.72a.43.43,0,0,0-.43-.4c-.86,0-1.87.11-2.77.11-1.22,0-2.55-.11-3.74-.11-.22,0-.68,0-.68.68,0,.4.32.43.54.43.86,0,2.12.32,2.12,1.4a2.39,2.39,0,0,1-.47,1.19l-9.7,16.92-1.33-17.81c0-.72-.11-1.65,2.51-1.69.61,0,1,0,1-.72,0-.36-.4-.4-.54-.4-1.44,0-2.95.11-4.38.11-.83,0-2.95-.11-3.77-.11-.22,0-.68,0-.68.72,0,.4.36.4.86.4,1.58,0,1.83.22,1.9.9l.22,2.77-9.09,15.84L351.43,250c0-.43,0-1.26,2.73-1.29.36,0,.75,0,.75-.72,0-.4-.43-.4-.5-.4-1.44,0-2.95.11-4.42.11-1.26,0-2.55-.11-3.77-.11-.18,0-.65,0-.65.68,0,.43.32.43.9.43,1.8,0,1.83.32,1.9,1.33L350,271.95c0,.65.07.93.58.93s.54-.22.86-.75L362,253.81l1.33,18.14c.07.75.14.93.58.93s.68-.36.86-.68l11.78-20.47" transform="translate(-0.84)"/><path d="M392.78,263.11a26.18,26.18,0,0,0-2.37-11.21c-2.15-4.42-5.24-6.75-5.6-6.75a.34.34,0,0,0-.36.36c0,.11,0,.18.68.83,3.52,3.55,5.57,9.27,5.57,16.77,0,6.14-1.33,12.46-5.78,17-.47.43-.47.5-.47.61a.34.34,0,0,0,.36.36c.36,0,3.59-2.44,5.71-7a26.1,26.1,0,0,0,2.26-11" transform="translate(-0.84)"/></g><g class="cls-6"><path d="M72.11,24c.36-1.47,1-2.55,3.88-2.66.18,0,.61,0,.61-.72,0,0,0-.4-.47-.4-1.19,0-2.44.11-3.66.11s-2.55-.11-3.73-.11c-.22,0-.65,0-.65.72,0,.4.36.4.65.4,2,0,2.44.79,2.44,1.58a5.46,5.46,0,0,1-.11.75L67.83,36.46c-1.22,4.81-5.35,7.94-8.94,7.94-2.44,0-4.38-1.58-4.38-4.67a12.33,12.33,0,0,1,.4-2.8l3.48-14c.32-1.29.4-1.65,3-1.65.93,0,1.22,0,1.22-.72,0-.4-.39-.4-.5-.4-1,0-3.59.11-4.6.11s-3.59-.11-4.63-.11c-.29,0-.68,0-.68.72,0,.4.32.4,1,.4a13.1,13.1,0,0,1,1.37.07c.65.07,1,.11,1,.57,0,.22-.39,1.73-.61,2.55l-.79,3.16c-.32,1.4-2,8.19-2.19,8.87a7.39,7.39,0,0,0-.25,2.08,6.69,6.69,0,0,0,7,6.9c4.52,0,9-4.06,10.16-8.8L72.11,24" transform="translate(-0.84)"/></g><circle class="cls-7" cx="63.66" cy="32.53" r="31.53"/><g class="cls-8"><path d="M72.11,182.8c.36-1.47,1-2.55,3.88-2.66.18,0,.61,0,.61-.72,0,0,0-.4-.47-.4-1.19,0-2.44.11-3.66.11s-2.55-.11-3.73-.11c-.22,0-.65,0-.65.72,0,.4.36.4.65.4,2,0,2.44.79,2.44,1.58a5.46,5.46,0,0,1-.11.75L67.83,195.3c-1.22,4.81-5.35,7.94-8.94,7.94-2.44,0-4.38-1.58-4.38-4.67a12.33,12.33,0,0,1,.4-2.8l3.48-14c.32-1.29.4-1.65,3-1.65.93,0,1.22,0,1.22-.72,0-.4-.39-.4-.5-.4-1,0-3.59.11-4.6.11s-3.59-.11-4.63-.11c-.29,0-.68,0-.68.72,0,.4.32.4,1,.4a13.1,13.1,0,0,1,1.37.07c.65.07,1,.11,1,.57,0,.22-.39,1.73-.61,2.55l-.79,3.16c-.32,1.4-2,8.19-2.19,8.87a7.39,7.39,0,0,0-.25,2.08,6.69,6.69,0,0,0,7,6.9c4.52,0,9-4.06,10.16-8.8l3.2-12.75" transform="translate(-0.84)"/></g><circle class="cls-7" cx="63.66" cy="191.36" r="31.53"/><g class="cls-9"><path d="M361.24,24.36c.9-1.58,1.76-2.87,4-3.05.32,0,.68,0,.68-.72a.43.43,0,0,0-.43-.4c-.86,0-1.87.11-2.77.11-1.22,0-2.55-.11-3.74-.11-.22,0-.68,0-.68.68,0,.4.32.43.54.43.86,0,2.12.32,2.12,1.4a2.39,2.39,0,0,1-.47,1.19l-9.7,16.92L349.49,23c0-.72-.11-1.65,2.51-1.69.61,0,1,0,1-.72,0-.36-.4-.4-.54-.4-1.44,0-2.95.11-4.38.11-.83,0-2.95-.11-3.77-.11-.22,0-.68,0-.68.72,0,.4.36.4.86.4,1.58,0,1.83.22,1.9.9l.22,2.77L337.5,40.81,336.13,22.6c0-.43,0-1.26,2.73-1.29.36,0,.75,0,.75-.72,0-.4-.43-.4-.5-.4-1.44,0-2.95.11-4.42.11-1.26,0-2.55-.11-3.77-.11-.18,0-.65,0-.65.68,0,.43.32.43.9.43,1.8,0,1.83.32,1.9,1.33l1.62,21.94c0,.65.07.93.58.93s.54-.22.86-.75l10.56-18.32L348,44.58c.07.75.14.93.57.93s.68-.36.86-.68l11.78-20.47" transform="translate(-0.84)"/></g><circle class="cls-7" cx="347.17" cy="32.53" r="31.53"/><g class="cls-10"><path d="M361.24,184.67c.9-1.58,1.76-2.87,4-3.05.32,0,.68,0,.68-.72a.43.43,0,0,0-.43-.4c-.86,0-1.87.11-2.77.11-1.22,0-2.55-.11-3.74-.11-.22,0-.68,0-.68.68,0,.4.32.43.54.43.86,0,2.12.32,2.12,1.4a2.39,2.39,0,0,1-.47,1.19l-9.7,16.92-1.33-17.81c0-.72-.11-1.65,2.51-1.69.61,0,1,0,1-.72,0-.36-.4-.4-.54-.4-1.44,0-2.95.11-4.38.11-.83,0-2.95-.11-3.77-.11-.22,0-.68,0-.68.72,0,.4.36.4.86.4,1.58,0,1.83.22,1.9.9l.22,2.77-9.09,15.84-1.36-18.21c0-.43,0-1.26,2.73-1.29.36,0,.75,0,.75-.72,0-.4-.43-.4-.5-.4-1.44,0-2.95.11-4.42.11-1.26,0-2.55-.11-3.77-.11-.18,0-.65,0-.65.68,0,.43.32.43.9.43,1.8,0,1.83.32,1.9,1.33l1.62,21.94c0,.65.07.93.58.93s.54-.22.86-.75l10.56-18.32L348,204.89c.07.75.14.93.57.93s.68-.36.86-.68l11.78-20.47" transform="translate(-0.84)"/></g><circle class="cls-7" cx="347.17" cy="192.84" r="31.53"/><line class="cls-7" x1="95.19" y1="32.53" x2="303.57" y2="32.53"/><path d="M316.48,32.53c-5.68,2.11-12.73,5.7-17.09,9.51l3.44-9.51L299.38,23C303.75,26.82,310.8,30.42,316.48,32.53Z" transform="translate(-0.84)"/><line class="cls-7" x1="315.64" y1="192.84" x2="107.26" y2="192.84"/><path d="M96,192.84c5.68-2.11,12.73-5.7,17.09-9.51l-3.44,9.51,3.44,9.51C108.75,198.54,101.71,194.94,96,192.84Z" transform="translate(-0.84)"/></g></g></svg>