<?xml version="1.0" encoding="UTF-8" standalone="no"?>
<!-- Created with Inkscape (http://www.inkscape.org/) -->

<svg
   xmlns:dc="http://purl.org/dc/elements/1.1/"
   xmlns:cc="http://creativecommons.org/ns#"
   xmlns:rdf="http://www.w3.org/1999/02/22-rdf-syntax-ns#"
   xmlns:svg="http://www.w3.org/2000/svg"
   xmlns="http://www.w3.org/2000/svg"
   xmlns:sodipodi="http://sodipodi.sourceforge.net/DTD/sodipodi-0.dtd"
   xmlns:inkscape="http://www.inkscape.org/namespaces/inkscape"
   id="svg2"
   version="1.1"
   inkscape:version="0.48.4 r9939"
   width="225.33749"
   height="176.06251"
   xml:space="preserve"
   sodipodi:docname="section1_fig83.pdf"><metadata
     id="metadata8"><rdf:RDF><cc:Work
         rdf:about=""><dc:format>image/svg+xml</dc:format><dc:type
           rdf:resource="http://purl.org/dc/dcmitype/StillImage" /><dc:title></dc:title></cc:Work></rdf:RDF></metadata><defs
     id="defs6" /><sodipodi:namedview
     pagecolor="#ffffff"
     bordercolor="#666666"
     borderopacity="1"
     objecttolerance="10"
     gridtolerance="10"
     guidetolerance="10"
     inkscape:pageopacity="0"
     inkscape:pageshadow="2"
     inkscape:window-width="1323"
     inkscape:window-height="744"
     id="namedview4"
     showgrid="false"
     inkscape:zoom="1.340433"
     inkscape:cx="112.66875"
     inkscape:cy="88.031258"
     inkscape:window-x="43"
     inkscape:window-y="306"
     inkscape:window-maximized="1"
     inkscape:current-layer="g10" /><g
     id="g10"
     inkscape:groupmode="layer"
     inkscape:label="section1_fig83"
     transform="matrix(1.25,0,0,-1.25,0,176.06251)"><g
       id="g12"><path
         d="m 91.488,40.33 -10.426,-6.015 0,10.426 10.426,6.019 0,-10.43"
         style="fill:#888687;fill-opacity:1;fill-rule:nonzero;stroke:none"
         id="path14" /><path
         d="m 101.918,46.354 -10.43,-6.024 0,10.43 10.43,6.02 0,-10.426"
         style="fill:#7b7879;fill-opacity:1;fill-rule:nonzero;stroke:none"
         id="path16" /><path
         d="m 91.488,29.905 -10.426,-6.02 0,10.43 10.426,6.015 0,-10.425"
         style="fill:#5f5c5d;fill-opacity:1;fill-rule:nonzero;stroke:none"
         id="path18" /><path
         d="m 101.918,35.924 -10.43,-6.019 0,10.425 10.43,6.024 0,-10.43"
         style="fill:#383435;fill-opacity:1;fill-rule:nonzero;stroke:none"
         id="path20" /><path
         d="m 81.062,34.315 10.426,0 0,16.445 -10.449,-5.984 0.023,-10.461 z"
         style="fill:#dbdada;fill-opacity:1;fill-rule:nonzero;stroke:none"
         id="path22" /><path
         d="m 91.488,40.33 0,10.43 10.43,6.02 0,-10.426 -10.43,-6.024"
         style="fill:#d6d6d6;fill-opacity:1;fill-rule:nonzero;stroke:none"
         id="path24" /><path
         d="m 81.062,23.885 0,10.43 10.426,6.015 0,-10.425 -10.426,-6.02"
         style="fill:#cfcece;fill-opacity:1;fill-rule:nonzero;stroke:none"
         id="path26" /><path
         d="m 136.531,47.729 -10.426,-6.024 0,10.43 10.426,6.024 0,-10.43"
         style="fill:#c5c4c4;fill-opacity:1;fill-rule:nonzero;stroke:none"
         id="path28" /><path
         d="m 146.961,53.748 -10.43,-6.019 0,10.43 10.43,6.019 0,-10.43"
         style="fill:#ececec;fill-opacity:1;fill-rule:nonzero;stroke:none"
         id="path30" /><path
         d="m 157.387,59.772 -10.426,-6.024 0,10.43 10.426,6.016 0,-10.422"
         style="fill:#ececec;fill-opacity:1;fill-rule:nonzero;stroke:none"
         id="path32" /><path
         d="m 167.816,65.788 -10.429,-6.016 0,10.422 10.429,6.019 0,-10.425"
         style="fill:#514e4f;fill-opacity:1;fill-rule:nonzero;stroke:none"
         id="path34" /><path
         d="m 178.246,71.815 -10.43,-6.027 0,10.425 10.43,6.024 0,-10.422"
         style="fill:#9b9a9a;fill-opacity:1;fill-rule:nonzero;stroke:none"
         id="path36" /><path
         d="m 136.531,37.303 -10.426,-6.023 0,10.425 10.426,6.024 0,-10.426"
         style="fill:#9d9b9c;fill-opacity:1;fill-rule:nonzero;stroke:none"
         id="path38" /><path
         d="m 146.961,43.323 -10.43,-6.02 0,10.426 10.43,6.019 0,-10.425"
         style="fill:#b6b5b5;fill-opacity:1;fill-rule:nonzero;stroke:none"
         id="path40" /><path
         d="m 157.387,49.342 -10.426,-6.019 0,10.425 10.426,6.024 0,-10.43"
         style="fill:#b0afaf;fill-opacity:1;fill-rule:nonzero;stroke:none"
         id="path42" /><path
         d="m 167.816,55.362 -10.429,-6.02 0,10.43 10.429,6.016 0,-10.426"
         style="fill:#5f5c5d;fill-opacity:1;fill-rule:nonzero;stroke:none"
         id="path44" /><path
         d="m 178.246,61.385 -10.43,-6.023 0,10.426 10.43,6.027 0,-10.43"
         style="fill:#b9b8b8;fill-opacity:1;fill-rule:nonzero;stroke:none"
         id="path46" /><path
         d="m 136.531,26.873 -10.426,-6.019 0,10.426 10.426,6.023 0,-10.43"
         style="fill:#edeced;fill-opacity:1;fill-rule:nonzero;stroke:none"
         id="path48" /><path
         d="m 146.961,32.897 -10.43,-6.024 0,10.43 10.43,6.02 0,-10.426"
         style="fill:#898788;fill-opacity:1;fill-rule:nonzero;stroke:none"
         id="path50" /><path
         d="m 157.387,38.913 -10.426,-6.016 0,10.426 10.426,6.019 0,-10.429"
         style="fill:#959394;fill-opacity:1;fill-rule:nonzero;stroke:none"
         id="path52" /><path
         d="m 167.816,44.936 -10.429,-6.023 0,10.429 10.429,6.02 0,-10.426"
         style="fill:#c0bfbf;fill-opacity:1;fill-rule:nonzero;stroke:none"
         id="path54" /><path
         d="m 178.246,50.955 -10.43,-6.019 0,10.426 10.43,6.023 0,-10.43"
         style="fill:#8f8d8e;fill-opacity:1;fill-rule:nonzero;stroke:none"
         id="path56" /><path
         d="m 136.531,16.444 -10.426,-6.02 0,10.43 10.426,6.019 0,-10.429"
         style="fill:#adabac;fill-opacity:1;fill-rule:nonzero;stroke:none"
         id="path58" /><path
         d="m 146.961,22.467 -10.43,-6.023 0,10.429 10.43,6.024 0,-10.43"
         style="fill:#b9b8b8;fill-opacity:1;fill-rule:nonzero;stroke:none"
         id="path60" /><path
         d="m 157.387,28.483 -10.426,-6.016 0,10.43 10.426,6.016 0,-10.43"
         style="fill:#979596;fill-opacity:1;fill-rule:nonzero;stroke:none"
         id="path62" /><path
         d="m 167.816,34.502 -10.429,-6.019 0,10.43 10.429,6.023 0,-10.434"
         style="fill:#312d2e;fill-opacity:1;fill-rule:nonzero;stroke:none"
         id="path64" /><path
         d="m 178.246,40.526 -10.43,-6.024 0,10.434 10.43,6.019 0,-10.429"
         style="fill:#4e4b4c;fill-opacity:1;fill-rule:nonzero;stroke:none"
         id="path66" /><path
         d="m 136.531,6.022 -10.426,-6.024 0,10.426 10.426,6.02 0,-10.422"
         style="fill:#706d6e;fill-opacity:1;fill-rule:nonzero;stroke:none"
         id="path68" /><path
         d="m 146.961,12.038 -10.43,-6.016 0,10.422 10.43,6.023 0,-10.429"
         style="fill:#c4c3c3;fill-opacity:1;fill-rule:nonzero;stroke:none"
         id="path70" /><path
         d="m 157.387,18.065 -10.426,-6.027 0,10.429 10.426,6.016 0,-10.418"
         style="fill:#949292;fill-opacity:1;fill-rule:nonzero;stroke:none"
         id="path72" /><path
         d="m 167.816,24.08 -10.429,-6.015 0,10.418 10.429,6.019 0,-10.422"
         style="fill:#383536;fill-opacity:1;fill-rule:nonzero;stroke:none"
         id="path74" /><path
         d="m 178.246,30.096 -10.43,-6.016 0,10.422 10.43,6.024 0,-10.43"
         style="fill:#383536;fill-opacity:1;fill-rule:nonzero;stroke:none"
         id="path76" /><path
         d="m 126.105,41.705 0,10.43 10.426,6.024 0,-10.43 -10.426,-6.024"
         style="fill:#eeedee;fill-opacity:1;fill-rule:nonzero;stroke:none"
         id="path78" /><path
         d="m 136.531,47.729 0,10.43 10.43,6.019 0,-10.43 -10.43,-6.019"
         style="fill:#f9f9f9;fill-opacity:1;fill-rule:nonzero;stroke:none"
         id="path80" /><path
         d="m 146.961,53.748 0,10.43 10.426,6.016 0,-10.422 -10.426,-6.024"
         style="fill:#f9f9f9;fill-opacity:1;fill-rule:nonzero;stroke:none"
         id="path82" /><path
         d="m 157.387,59.772 0,10.422 10.429,6.019 0,-10.425 -10.429,-6.016"
         style="fill:#cac9ca;fill-opacity:1;fill-rule:nonzero;stroke:none"
         id="path84" /><path
         d="m 167.816,65.788 0,10.425 10.43,6.024 0,-10.422 -10.43,-6.027"
         style="fill:#e1e0e0;fill-opacity:1;fill-rule:nonzero;stroke:none"
         id="path86" /><path
         d="m 126.105,31.28 0,10.425 10.426,6.024 0,-10.426 -10.426,-6.023"
         style="fill:#e2e1e1;fill-opacity:1;fill-rule:nonzero;stroke:none"
         id="path88" /><path
         d="m 136.531,37.303 0,10.426 10.43,6.019 0,-10.425 -10.43,-6.02"
         style="fill:#e9e9e9;fill-opacity:1;fill-rule:nonzero;stroke:none"
         id="path90" /><path
         d="m 146.961,43.323 0,10.425 10.426,6.024 0,-10.43 -10.426,-6.019"
         style="fill:#e8e7e7;fill-opacity:1;fill-rule:nonzero;stroke:none"
         id="path92" /><path
         d="m 157.387,49.342 0,10.43 10.429,6.016 0,-10.426 -10.429,-6.02"
         style="fill:#cfcece;fill-opacity:1;fill-rule:nonzero;stroke:none"
         id="path94" /><path
         d="m 167.816,55.362 0,10.426 10.43,6.027 0,-10.43 -10.43,-6.023"
         style="fill:#eaeaea;fill-opacity:1;fill-rule:nonzero;stroke:none"
         id="path96" /><path
         d="m 126.105,20.854 0,10.426 10.426,6.023 0,-10.43 -10.426,-6.019"
         style="fill:#fafafa;fill-opacity:1;fill-rule:nonzero;stroke:none"
         id="path98" /><path
         d="m 136.531,26.873 0,10.43 10.43,6.02 0,-10.426 -10.43,-6.024"
         style="fill:#dcdbdb;fill-opacity:1;fill-rule:nonzero;stroke:none"
         id="path100" /><path
         d="m 126.105,10.424 0,10.43 10.426,6.019 0,-10.429 -10.426,-6.02"
         style="fill:#e6e6e6;fill-opacity:1;fill-rule:nonzero;stroke:none"
         id="path102" /><path
         d="m 136.531,16.444 0,10.429 10.43,6.024 0,-10.43 -10.43,-6.023"
         style="fill:#eaeaea;fill-opacity:1;fill-rule:nonzero;stroke:none"
         id="path104" /><path
         d="m 126.105,-0.002 0,10.426 10.426,6.02 0,-10.422 -10.426,-6.024"
         style="fill:#d4d3d3;fill-opacity:1;fill-rule:nonzero;stroke:none"
         id="path106" /><path
         d="m 136.531,6.022 0,10.422 10.43,6.023 0,-10.429 -10.43,-6.016"
         style="fill:#ededed;fill-opacity:1;fill-rule:nonzero;stroke:none"
         id="path108" /><path
         d="m 178.246,30.096 -0.289,0.5 -30.422,-17.558 0,29.953 30.133,17.394 0,-30.289 0.578,0 -0.289,0.5 0.289,-0.5 0.574,0 0,31.289 c 0,0.203 -0.109,0.395 -0.289,0.5 -0.176,0.102 -0.394,0.102 -0.574,0 L 146.672,43.819 c -0.18,-0.102 -0.289,-0.293 -0.289,-0.496 l 0,-31.285 c 0,-0.208 0.109,-0.399 0.289,-0.5 0.176,-0.098 0.398,-0.098 0.574,0 l 31.285,18.066 c 0.18,0.098 0.289,0.293 0.289,0.492 l -0.574,0"
         style="fill:#00a650;fill-opacity:1;fill-rule:nonzero;stroke:none"
         id="path110" /><path
         d="m 178.133,61.952 -0.567,-0.114 0.227,-1.133 0.562,0.114"
         style="fill:#00a650;fill-opacity:1;fill-rule:nonzero;stroke:none"
         id="path112" /><path
         d="m 176.445,61.616 -1.121,-0.219 0.223,-1.133 1.121,0.223 -0.223,1.129 z m -2.242,-0.442 -1.125,-0.219 0.223,-1.132 1.125,0.222 -0.223,1.129 z m -2.246,-0.441 -1.125,-0.219 0.227,-1.133 1.121,0.223 -0.223,1.129 z m -2.246,-0.442 -1.121,-0.222 0.222,-1.129 1.122,0.219 -0.223,1.132 z m -2.246,-0.437 -1.121,-0.227 0.222,-1.132 1.125,0.222 -0.226,1.137 z m -2.242,-0.445 -1.125,-0.219 0.226,-1.137 1.121,0.223 -0.222,1.133 z m -2.246,-0.442 -1.122,-0.222 0.223,-1.133 1.121,0.222 -0.222,1.133 z m -2.243,-0.445 -1.125,-0.219 0.223,-1.133 1.125,0.227 -0.223,1.125 z m -2.246,-0.442 -1.121,-0.218 0.223,-1.133 1.121,0.219 -0.223,1.132 z m -2.242,-0.441 -1.125,-0.223 0.223,-1.128 1.125,0.218 -0.223,1.133 z M 154,57.198 l -1.121,-0.219 0.223,-1.133 1.121,0.219 -0.223,1.133 z m -2.246,-0.442 -1.121,-0.222 0.222,-1.133 1.122,0.222 -0.223,1.133 z m -2.242,-0.441 -1.125,-0.223 0.222,-1.133 1.125,0.227 -0.222,1.129 z m -2.246,-0.445 -1.121,-0.219 0.222,-1.129 1.121,0.219 -0.222,1.129 z m -2.246,-0.442 -1.122,-0.219 0.223,-1.132 1.121,0.218 -0.222,1.133 z m -2.243,-0.441 -1.125,-0.215 0.223,-1.137 1.125,0.219 -0.223,1.133 z m -2.246,-0.442 -1.121,-0.222 0.223,-1.133 1.121,0.223 -0.223,1.132 z m -2.246,-0.441 -1.121,-0.223 0.223,-1.133 1.121,0.223 -0.223,1.133 z m -2.242,-0.441 -1.125,-0.223 0.227,-1.129 1.121,0.219 -0.223,1.133 z m -2.246,-0.446 -1.121,-0.219 0.222,-1.132 1.122,0.222 -0.223,1.129 z m -2.242,-0.441 -1.125,-0.215 0.222,-1.137 1.125,0.223 -0.222,1.129 z m -2.246,-0.442 -1.121,-0.222 0.222,-1.129 1.121,0.219 -0.222,1.132 z m -2.247,-0.437 -1.121,-0.227 0.223,-1.129 1.121,0.219 -0.223,1.137 z m -2.242,-0.445 -1.125,-0.223 0.223,-1.133 1.125,0.223 -0.223,1.133 z m -2.246,-0.442 -1.121,-0.222 0.223,-1.133 1.121,0.222 -0.223,1.133 z m -2.246,-0.445 -1.121,-0.219 0.223,-1.133 1.121,0.227 -0.223,1.125 z m -2.242,-0.442 -1.125,-0.218 0.223,-1.133 1.125,0.219 -0.223,1.132 z m -2.246,-0.437 -1.121,-0.227 0.222,-1.129 1.121,0.219 -0.222,1.137 z m -2.246,-0.445 -1.121,-0.219 0.222,-1.133 1.121,0.219 -0.222,1.133 z m -2.242,-0.442 -1.122,-0.222 0.223,-1.133 1.121,0.222 -0.222,1.133 z m -2.247,-0.441 -1.121,-0.223 0.223,-1.133 1.121,0.227 -0.223,1.129 z m -2.242,-0.445 -1.125,-0.219 0.223,-1.129 1.125,0.219 -0.223,1.129 z m -2.246,-0.442 -1.121,-0.219 0.223,-1.132 1.121,0.218"
         style="fill:#00a650;fill-opacity:1;fill-rule:nonzero;stroke:none"
         id="path114" /><path
         d="m 102.371,47.03 -0.566,-0.114 0.226,-1.128 0.563,0.109"
         style="fill:#00a650;fill-opacity:1;fill-rule:nonzero;stroke:none"
         id="path116" /><path
         d="m 147.137,12.588 -0.551,0.176 -0.352,-1.098 0.547,-0.179"
         style="fill:#00a650;fill-opacity:1;fill-rule:nonzero;stroke:none"
         id="path118" /><path
         d="m 145.477,13.12 -1.11,0.359 -0.351,-1.098 1.109,-0.359 0.352,1.098 z m -2.219,0.714 -1.11,0.36 -0.355,-1.098 1.113,-0.359 0.352,1.097 z m -2.219,0.715 -1.109,0.36 -0.356,-1.094 1.114,-0.363 0.351,1.097 z m -2.219,0.715 -1.109,0.359 -0.356,-1.097 1.11,-0.36 0.355,1.098 z m -2.218,0.715 -1.11,0.359 -0.355,-1.097 1.109,-0.36 0.356,1.098 z m -2.219,0.715 -1.11,0.359 -0.355,-1.098 1.109,-0.359 0.356,1.098 z m -2.219,0.715 -1.113,0.363 -0.352,-1.102 1.11,-0.355 0.355,1.094 z m -2.223,0.714 -1.109,0.36 -0.352,-1.098 1.11,-0.359 0.351,1.097 z m -2.218,0.715 -1.11,0.36 -0.351,-1.094 1.109,-0.363 0.352,1.097 z m -2.219,0.715 -1.109,0.36 -0.352,-1.098 1.105,-0.36 0.356,1.098 z m -2.219,0.719 -1.109,0.355 -0.356,-1.097 1.11,-0.36 0.355,1.102 z m -2.219,0.711 -1.109,0.359 -0.355,-1.101 1.109,-0.356 0.355,1.098 z m -2.218,0.715 -1.11,0.363 -0.355,-1.102 1.109,-0.355 0.356,1.094 z m -2.219,0.715 -1.109,0.359 -0.356,-1.102 1.109,-0.355 0.356,1.098 z m -2.223,0.714 -1.105,0.36 -0.356,-1.098 1.11,-0.359 0.351,1.097 z m -2.218,0.715 -1.11,0.36 -0.351,-1.098 1.109,-0.359 0.352,1.097 z m -2.219,0.719 -1.11,0.355 -0.351,-1.097 1.109,-0.36 0.352,1.102 z m -2.219,0.711 -1.109,0.359 -0.356,-1.097 1.113,-0.36 0.352,1.098 z m -2.219,0.715 -1.109,0.359 -0.356,-1.098 1.11,-0.359 0.355,1.098 z m -2.219,0.715 -1.109,0.363 -0.355,-1.106 1.109,-0.355 0.355,1.098 z m -2.218,0.714 -1.11,0.36 -0.355,-1.098 1.109,-0.359 0.356,1.097 z m -2.219,0.715 -1.113,0.36 -0.352,-1.102 1.11,-0.355 0.355,1.097 z m -2.219,0.715 -1.113,0.359 -0.352,-1.097 1.11,-0.36 0.355,1.098 z m -2.222,0.719 -1.11,0.355 -0.351,-1.101 1.109,-0.356"
         style="fill:#00a650;fill-opacity:1;fill-rule:nonzero;stroke:none"
         id="path120" /><path
         d="m 92.215,30.276 -0.547,0.176 -0.356,-1.098 0.551,-0.176"
         style="fill:#00a650;fill-opacity:1;fill-rule:nonzero;stroke:none"
         id="path122" /><path
         d="m 146.996,33.541 -0.574,0.039 -0.078,-1.152 0.578,-0.039"
         style="fill:#00a650;fill-opacity:1;fill-rule:nonzero;stroke:none"
         id="path124" /><path
         d="m 145.297,33.651 -1.125,0.078 -0.078,-1.152 1.125,-0.075 0.078,1.149 z m -2.25,0.148 -1.129,0.074 -0.074,-1.152 1.125,-0.074 0.078,1.152 z m -2.254,0.149 -1.125,0.074 -0.074,-1.152 1.125,-0.075 0.074,1.153 z m -2.25,0.148 -1.125,0.074 -0.074,-1.148 1.125,-0.078 0.074,1.152 z m -2.25,0.149 -1.125,0.074 -0.074,-1.153 1.125,-0.074 0.074,1.153 z m -2.25,0.152 -1.125,0.066 -0.078,-1.148 1.125,-0.074 0.078,1.156 z m -2.254,0.141 -1.125,0.078 -0.074,-1.153 1.125,-0.074 0.074,1.149 z m -2.25,0.152 -1.125,0.07 -0.074,-1.148 1.125,-0.074 0.074,1.152 z m -2.25,0.144 -1.125,0.075 -0.074,-1.153 1.125,-0.07 0.074,1.148 z m -2.25,0.149 -1.125,0.078 -0.078,-1.156 1.129,-0.075 0.074,1.153 z m -2.25,0.148 -1.125,0.074 -0.078,-1.152 1.125,-0.074 0.078,1.152 z m -2.25,0.149 -1.129,0.074 -0.074,-1.152 1.125,-0.075 0.078,1.153 z m -2.254,0.144 -1.125,0.078 -0.074,-1.148 1.125,-0.078 0.074,1.148 z m -2.25,0.153 -1.125,0.07 -0.074,-1.149 1.125,-0.074 0.074,1.153 z m -2.25,0.144 -1.125,0.074 -0.078,-1.148 1.125,-0.074 0.078,1.148 z m -2.25,0.149 -1.125,0.074 -0.078,-1.153 1.125,-0.074 0.078,1.153 z m -2.254,0.152 -1.125,0.07 -0.074,-1.152 1.125,-0.074 0.074,1.156 z m -2.25,0.144 -1.125,0.075 -0.074,-1.153 1.125,-0.074 0.074,1.152 z m -2.25,0.149 -1.125,0.074 -0.074,-1.152 1.125,-0.074"
         style="fill:#00a650;fill-opacity:1;fill-rule:nonzero;stroke:none"
         id="path126" /><path
         d="m 102.531,36.459 -0.574,0.039 -0.078,-1.152 0.578,-0.031"
         style="fill:#00a650;fill-opacity:1;fill-rule:nonzero;stroke:none"
         id="path128" /><path
         d="m 101.918,35.924 -10.43,-6.019 0,10.425 10.43,6.024 0,-10.43"
         style="fill:#383435;fill-opacity:1;fill-rule:nonzero;stroke:none"
         id="path130" /><path
         d="m 101.918,35.924 -0.289,0.5 -9.563,-5.519 0,9.093 9.274,5.356 0,-9.43 0.578,0 -0.289,0.5 0.289,-0.5 0.578,0 0,10.43 c 0,0.207 -0.109,0.394 -0.289,0.5 -0.18,0.101 -0.398,0.101 -0.578,0 L 91.203,40.83 c -0.18,-0.101 -0.289,-0.292 -0.289,-0.5 l 0,-10.425 c 0,-0.207 0.109,-0.399 0.289,-0.5 0.176,-0.102 0.399,-0.102 0.574,0 l 10.43,6.019 c 0.18,0.102 0.289,0.293 0.289,0.5 l -0.578,0"
         style="fill:#00a650;fill-opacity:1;fill-rule:nonzero;stroke:none"
         id="path132" /><path
         d="m 146.93,43.897 -0.578,-0.031 0.062,-1.153 0.578,0.032"
         style="fill:#00a650;fill-opacity:1;fill-rule:nonzero;stroke:none"
         id="path134" /><path
         d="m 145.195,43.803 -1.152,-0.062 0.059,-1.153 1.156,0.063 -0.063,1.152 z m -2.308,-0.125 -1.157,-0.062 0.063,-1.153 1.152,0.063 -0.058,1.152 z m -2.313,-0.117 -1.156,-0.066 0.062,-1.157 1.157,0.063 -0.063,1.16 z m -2.312,-0.125 -1.157,-0.066 0.063,-1.153 1.156,0.063 -0.062,1.156 z m -2.309,-0.125 -1.156,-0.066 0.062,-1.153 1.153,0.063 -0.059,1.156 z m -2.312,-0.125 -1.157,-0.066 0.063,-1.153 1.156,0.063 -0.062,1.156 z m -2.313,-0.125 -1.156,-0.066 0.062,-1.153 1.157,0.063 -0.063,1.156 z m -2.312,-0.125 -1.157,-0.066 0.063,-1.153 1.156,0.063 -0.062,1.156 z m -2.309,-0.125 -1.156,-0.066 0.062,-1.153 1.157,0.063 -0.063,1.156 z m -2.312,-0.125 -1.157,-0.066 0.063,-1.153 1.156,0.063 -0.062,1.156 z m -2.313,-0.125 -1.156,-0.066 0.062,-1.153 1.157,0.063 -0.063,1.156 z m -2.312,-0.125 -1.153,-0.066 0.063,-1.153 1.152,0.063 -0.062,1.156 z m -2.309,-0.121 -1.156,-0.067 0.062,-1.152 1.156,0.063 -0.062,1.156 z m -2.313,-0.125 -1.156,-0.067 0.063,-1.152 1.156,0.063 -0.063,1.156 z m -2.312,-0.125 -1.156,-0.067 0.062,-1.152 1.156,0.063 -0.062,1.156 z m -2.309,-0.125 -1.156,-0.067 0.063,-1.152 1.152,0.063 -0.059,1.156 z m -2.312,-0.125 -1.156,-0.067 0.062,-1.152 1.156,0.063 -0.062,1.156 z m -2.313,-0.125 -1.156,-0.067 0.063,-1.152 1.156,0.063 -0.063,1.156 z m -2.312,-0.125 -1.152,-0.067 0.058,-1.152 1.156,0.063 -0.062,1.156 z m -2.309,-0.125 -1.156,-0.067 0.063,-1.152 1.156,0.063 -0.063,1.156 z m -2.312,-0.125 -1.157,-0.067 0.063,-1.144 1.156,0.055 -0.062,1.156 z m -2.309,-0.125 -1.156,-0.067 0.058,-1.144 1.157,0.059 -0.059,1.152 z m -2.312,-0.125 -1.157,-0.063 0.063,-1.148 1.156,0.059"
         style="fill:#00a650;fill-opacity:1;fill-rule:nonzero;stroke:none"
         id="path136" /><path
         d="m 92.035,40.94 -0.578,-0.031 0.063,-1.153 0.578,0.032"
         style="fill:#00a650;fill-opacity:1;fill-rule:nonzero;stroke:none"
         id="path138" /><path
         d="m 89.738,62.936 c 0,0.375 -0.066,0.695 -0.203,0.965 -0.133,0.262 -0.351,0.472 -0.648,0.621 -0.149,0.074 -0.301,0.125 -0.457,0.152 -0.157,0.028 -0.395,0.039 -0.711,0.039 l -0.371,0 0,-3.562 0.371,0 c 0.347,0 0.605,0.019 0.769,0.051 0.164,0.031 0.321,0.089 0.477,0.171 0.269,0.153 0.465,0.36 0.59,0.614 0.125,0.258 0.183,0.574 0.183,0.949 z m 1.52,-0.008 c 0,-0.531 -0.121,-1.008 -0.363,-1.426 C 90.652,61.084 90.348,60.76 89.98,60.538 89.699,60.37 89.395,60.252 89.066,60.186 88.734,60.12 88.34,60.088 87.887,60.088 l -2.004,0 0,5.688 2.062,0 c 0.465,0 0.864,-0.039 1.2,-0.117 0.335,-0.079 0.621,-0.188 0.847,-0.329 0.395,-0.242 0.703,-0.566 0.93,-0.968 0.223,-0.407 0.336,-0.891 0.336,-1.434"
         style="fill:#231f20;fill-opacity:1;fill-rule:nonzero;stroke:none"
         id="path140" /><path
         d="m 94.926,62.784 c -0.008,0.289 -0.078,0.504 -0.215,0.644 -0.137,0.152 -0.344,0.223 -0.629,0.223 -0.266,0 -0.484,-0.067 -0.652,-0.207 -0.172,-0.141 -0.27,-0.356 -0.289,-0.66 l 1.785,0 z m 1.367,-0.805 -3.148,0 c 0.019,-0.34 0.148,-0.594 0.386,-0.774 0.235,-0.179 0.582,-0.265 1.039,-0.265 0.289,0 0.571,0.051 0.844,0.156 0.274,0.106 0.488,0.215 0.645,0.332 l 0.156,0 0,-1.101 c -0.313,-0.125 -0.606,-0.215 -0.879,-0.274 -0.277,-0.055 -0.582,-0.082 -0.914,-0.082 -0.863,0 -1.52,0.195 -1.981,0.582 -0.457,0.387 -0.687,0.938 -0.687,1.652 0,0.711 0.215,1.266 0.652,1.684 0.434,0.414 1.028,0.621 1.785,0.621 0.696,0 1.223,-0.176 1.575,-0.527 0.351,-0.356 0.527,-0.86 0.527,-1.524 l 0,-0.48"
         style="fill:#231f20;fill-opacity:1;fill-rule:nonzero;stroke:none"
         id="path142" /><path
         d="m 99.266,59.971 c -0.375,0 -0.719,0.043 -1.028,0.137 -0.308,0.086 -0.578,0.222 -0.808,0.406 -0.227,0.191 -0.403,0.426 -0.528,0.707 -0.125,0.285 -0.187,0.613 -0.187,0.996 0,0.399 0.07,0.742 0.199,1.031 0.137,0.293 0.324,0.532 0.563,0.723 0.23,0.18 0.5,0.317 0.8,0.399 0.305,0.085 0.618,0.125 0.946,0.125 0.293,0 0.562,-0.032 0.808,-0.094 0.25,-0.063 0.481,-0.149 0.696,-0.25 l 0,-1.172 -0.196,0 -0.195,0.16 c -0.074,0.063 -0.168,0.121 -0.277,0.18 -0.102,0.058 -0.219,0.105 -0.34,0.14 -0.125,0.036 -0.27,0.055 -0.438,0.055 -0.363,0 -0.648,-0.117 -0.843,-0.348 -0.196,-0.238 -0.297,-0.55 -0.297,-0.949 0,-0.414 0.101,-0.726 0.304,-0.941 0.203,-0.215 0.489,-0.321 0.86,-0.321 0.172,0 0.328,0.016 0.468,0.059 0.137,0.039 0.254,0.082 0.344,0.137 l 0.231,0.164 0.183,0.156 0.196,0 0,-1.168 c -0.219,-0.101 -0.446,-0.183 -0.68,-0.242 -0.235,-0.059 -0.496,-0.09 -0.781,-0.09"
         style="fill:#231f20;fill-opacity:1;fill-rule:nonzero;stroke:none"
         id="path144" /><path
         d="m 104.094,61.186 c 0.09,0.109 0.156,0.242 0.199,0.398 0.047,0.153 0.066,0.368 0.066,0.637 0,0.25 -0.019,0.465 -0.066,0.637 -0.047,0.168 -0.109,0.305 -0.191,0.406 -0.082,0.106 -0.18,0.18 -0.293,0.223 -0.118,0.043 -0.239,0.066 -0.371,0.066 -0.133,0 -0.25,-0.019 -0.356,-0.055 -0.102,-0.035 -0.203,-0.109 -0.297,-0.214 -0.082,-0.098 -0.148,-0.235 -0.199,-0.407 -0.051,-0.172 -0.074,-0.394 -0.074,-0.656 0,-0.234 0.019,-0.437 0.062,-0.609 0.047,-0.172 0.11,-0.309 0.196,-0.414 0.078,-0.102 0.175,-0.172 0.289,-0.215 0.113,-0.047 0.242,-0.07 0.386,-0.07 0.129,0 0.246,0.015 0.36,0.058 0.113,0.043 0.211,0.117 0.289,0.215 z m 1.691,1.043 c 0,-0.703 -0.203,-1.258 -0.617,-1.668 -0.41,-0.402 -0.988,-0.609 -1.73,-0.609 -0.747,0 -1.325,0.207 -1.735,0.609 -0.41,0.41 -0.617,0.965 -0.617,1.668 0,0.711 0.207,1.269 0.621,1.676 0.414,0.398 0.992,0.605 1.731,0.605 0.746,0 1.328,-0.207 1.734,-0.609 0.41,-0.406 0.613,-0.965 0.613,-1.672"
         style="fill:#231f20;fill-opacity:1;fill-rule:nonzero;stroke:none"
         id="path146" /><path
         d="m 110.848,60.088 -1.379,0 0,2.129 c 0,0.172 -0.008,0.344 -0.028,0.516 -0.019,0.172 -0.046,0.297 -0.089,0.379 l -0.227,0.207 c -0.098,0.043 -0.234,0.066 -0.41,0.066 -0.125,0 -0.25,-0.023 -0.379,-0.062 -0.129,-0.039 -0.27,-0.106 -0.418,-0.196 l 0,-3.039 -1.379,0 0,4.289 1.379,0 0,-0.472 c 0.242,0.191 0.477,0.336 0.703,0.437 0.227,0.102 0.477,0.153 0.75,0.153 0.465,0 0.824,-0.133 1.086,-0.403 0.262,-0.273 0.391,-0.676 0.391,-1.211 l 0,-2.793"
         style="fill:#231f20;fill-opacity:1;fill-rule:nonzero;stroke:none"
         id="path148" /><path
         d="m 116.199,64.377 -1.652,-4.289 -1.559,0 -1.644,4.289 1.453,0 0.996,-2.953 0.98,2.953 1.426,0"
         style="fill:#231f20;fill-opacity:1;fill-rule:nonzero;stroke:none"
         id="path150" /><path
         d="m 119.426,61.186 c 0.086,0.109 0.152,0.242 0.199,0.398 0.043,0.153 0.066,0.368 0.066,0.637 0,0.25 -0.023,0.465 -0.07,0.637 -0.043,0.168 -0.109,0.305 -0.187,0.406 -0.082,0.106 -0.18,0.18 -0.297,0.223 -0.114,0.043 -0.239,0.066 -0.371,0.066 -0.133,0 -0.25,-0.019 -0.352,-0.055 -0.105,-0.035 -0.203,-0.109 -0.297,-0.214 -0.086,-0.098 -0.152,-0.235 -0.199,-0.407 -0.051,-0.172 -0.074,-0.394 -0.074,-0.656 0,-0.234 0.019,-0.437 0.062,-0.609 0.043,-0.172 0.106,-0.309 0.192,-0.414 0.082,-0.102 0.179,-0.172 0.293,-0.215 0.113,-0.047 0.242,-0.07 0.386,-0.07 0.125,0 0.243,0.015 0.36,0.058 0.113,0.043 0.207,0.117 0.289,0.215 z m 1.691,1.043 c 0,-0.703 -0.207,-1.258 -0.617,-1.668 -0.414,-0.402 -0.988,-0.609 -1.734,-0.609 -0.743,0 -1.321,0.207 -1.731,0.609 -0.414,0.41 -0.617,0.965 -0.617,1.668 0,0.711 0.207,1.269 0.621,1.676 0.41,0.398 0.988,0.605 1.727,0.605 0.75,0 1.328,-0.207 1.738,-0.609 0.41,-0.406 0.613,-0.965 0.613,-1.672"
         style="fill:#231f20;fill-opacity:1;fill-rule:nonzero;stroke:none"
         id="path152" /><path
         d="m 121.867,66.034 1.383,0 0,-5.945 -1.383,0 0,5.945 z"
         style="fill:#231f20;fill-opacity:1;fill-rule:nonzero;stroke:none"
         id="path154" /><path
         d="m 128.586,60.088 -1.383,0 0,0.473 c -0.254,-0.195 -0.484,-0.34 -0.695,-0.441 -0.211,-0.106 -0.465,-0.153 -0.758,-0.153 -0.473,0 -0.836,0.137 -1.094,0.41 -0.254,0.274 -0.383,0.676 -0.383,1.207 l 0,2.793 1.379,0 0,-2.129 c 0,-0.214 0.008,-0.402 0.024,-0.539 0.012,-0.144 0.043,-0.265 0.097,-0.363 l 0.219,-0.207 c 0.098,-0.043 0.235,-0.059 0.41,-0.059 0.118,0 0.246,0.016 0.391,0.059 0.145,0.051 0.281,0.113 0.41,0.195 l 0,3.043 1.383,0 0,-4.289"
         style="fill:#231f20;fill-opacity:1;fill-rule:nonzero;stroke:none"
         id="path156" /><path
         d="m 132.391,60.123 c -0.145,-0.035 -0.301,-0.07 -0.469,-0.089 -0.164,-0.02 -0.367,-0.032 -0.606,-0.032 -0.535,0 -0.933,0.11 -1.195,0.325 -0.262,0.218 -0.391,0.589 -0.391,1.113 l 0,2.004 -0.566,0 0,0.933 0.566,0 0,1.227 1.379,0 0,-1.227 1.282,0 0,-0.933 -1.282,0 0,-1.52 c 0,-0.152 0,-0.285 0.004,-0.398 0,-0.11 0.024,-0.211 0.059,-0.305 l 0.191,-0.207 c 0.09,-0.055 0.219,-0.078 0.395,-0.078 0.07,0 0.164,0.016 0.277,0.047 0.117,0.027 0.199,0.058 0.242,0.082 l 0.114,0 0,-0.942"
         style="fill:#231f20;fill-opacity:1;fill-rule:nonzero;stroke:none"
         id="path158" /><path
         d="m 134.359,60.088 -1.379,0 0,4.289 1.379,0 0,-4.289 z m 0.039,4.903 -1.457,0 0,1.043 1.457,0 0,-1.043"
         style="fill:#231f20;fill-opacity:1;fill-rule:nonzero;stroke:none"
         id="path160" /><path
         d="m 138.113,61.186 c 0.09,0.109 0.157,0.242 0.203,0.398 0.043,0.153 0.067,0.368 0.067,0.637 0,0.25 -0.024,0.465 -0.071,0.637 -0.042,0.168 -0.109,0.305 -0.191,0.406 -0.082,0.106 -0.18,0.18 -0.293,0.223 -0.113,0.043 -0.238,0.066 -0.371,0.066 -0.133,0 -0.25,-0.019 -0.355,-0.055 -0.102,-0.035 -0.2,-0.109 -0.293,-0.214 -0.086,-0.098 -0.153,-0.235 -0.204,-0.407 -0.046,-0.172 -0.074,-0.394 -0.074,-0.656 0,-0.234 0.024,-0.437 0.067,-0.609 0.043,-0.172 0.109,-0.309 0.191,-0.414 0.082,-0.102 0.18,-0.172 0.293,-0.215 0.113,-0.047 0.242,-0.07 0.387,-0.07 0.125,0 0.242,0.015 0.355,0.058 0.114,0.043 0.211,0.117 0.289,0.215 z m 1.696,1.043 c 0,-0.703 -0.207,-1.258 -0.618,-1.668 -0.414,-0.402 -0.992,-0.609 -1.734,-0.609 -0.746,0 -1.32,0.207 -1.734,0.609 -0.411,0.41 -0.618,0.965 -0.618,1.668 0,0.711 0.211,1.269 0.622,1.676 0.414,0.398 0.992,0.605 1.73,0.605 0.75,0 1.328,-0.207 1.738,-0.609 0.407,-0.406 0.614,-0.965 0.614,-1.672"
         style="fill:#231f20;fill-opacity:1;fill-rule:nonzero;stroke:none"
         id="path162" /><path
         d="m 144.867,60.088 -1.379,0 0,2.129 c 0,0.172 -0.008,0.344 -0.027,0.516 -0.016,0.172 -0.047,0.297 -0.09,0.379 l -0.223,0.207 c -0.097,0.043 -0.238,0.066 -0.41,0.066 -0.125,0 -0.254,-0.023 -0.383,-0.062 -0.128,-0.039 -0.265,-0.106 -0.417,-0.196 l 0,-3.039 -1.379,0 0,4.289 1.379,0 0,-0.472 c 0.246,0.191 0.48,0.336 0.703,0.437 0.226,0.102 0.476,0.153 0.754,0.153 0.46,0 0.824,-0.133 1.082,-0.403 0.261,-0.273 0.39,-0.676 0.39,-1.211 l 0,-2.793"
         style="fill:#231f20;fill-opacity:1;fill-rule:nonzero;stroke:none"
         id="path164" /><path
         d="m 92.027,97.932 -10.425,-6.019 0,10.429 10.425,6.02 0,-10.43"
         style="fill:#888687;fill-opacity:1;fill-rule:nonzero;stroke:none"
         id="path166" /><path
         d="m 102.457,103.955 -10.43,-6.023 0,10.43 10.43,6.019 0,-10.426"
         style="fill:#7b7879;fill-opacity:1;fill-rule:nonzero;stroke:none"
         id="path168" /><path
         d="m 92.027,87.506 -10.425,-6.019 0,10.426 10.425,6.019 0,-10.426"
         style="fill:#5f5c5d;fill-opacity:1;fill-rule:nonzero;stroke:none"
         id="path170" /><path
         d="m 102.457,93.526 -10.43,-6.02 0,10.426 10.43,6.023 0,-10.429"
         style="fill:#383435;fill-opacity:1;fill-rule:nonzero;stroke:none"
         id="path172" /><path
         d="m 81.602,91.913 0,10.429 10.425,6.02 0,-10.43 -10.425,-6.019"
         style="fill:#dbdada;fill-opacity:1;fill-rule:nonzero;stroke:none"
         id="path174" /><path
         d="m 92.027,97.932 0,10.43 10.43,6.019 0,-10.426 -10.43,-6.023"
         style="fill:#d6d6d6;fill-opacity:1;fill-rule:nonzero;stroke:none"
         id="path176" /><path
         d="m 81.602,81.487 0,10.426 10.425,6.019 0,-10.426 -10.425,-6.019"
         style="fill:#cfcece;fill-opacity:1;fill-rule:nonzero;stroke:none"
         id="path178" /><path
         d="m 13.625,105.327 -10.426,-6.02 0,10.43 10.426,6.023 0,-10.433"
         style="fill:#c5c4c4;fill-opacity:1;fill-rule:nonzero;stroke:none"
         id="path180" /><path
         d="m 24.055,111.35 -10.43,-6.023 0,10.433 10.43,6.02 0,-10.43"
         style="fill:#ececec;fill-opacity:1;fill-rule:nonzero;stroke:none"
         id="path182" /><path
         d="m 34.48,117.37 -10.425,-6.02 0,10.43 10.425,6.015 0,-10.425"
         style="fill:#ececec;fill-opacity:1;fill-rule:nonzero;stroke:none"
         id="path184" /><path
         d="m 44.91,123.389 -10.43,-6.019 0,10.425 10.43,6.02 0,-10.426"
         style="fill:#514e4f;fill-opacity:1;fill-rule:nonzero;stroke:none"
         id="path186" /><path
         d="m 55.34,129.413 -10.43,-6.024 0,10.426 10.43,6.023 0,-10.425"
         style="fill:#9b9a9a;fill-opacity:1;fill-rule:nonzero;stroke:none"
         id="path188" /><path
         d="m 13.625,94.905 -10.426,-6.024 0,10.426 10.426,6.02 0,-10.422"
         style="fill:#9d9b9c;fill-opacity:1;fill-rule:nonzero;stroke:none"
         id="path190" /><path
         d="m 24.055,100.924 -10.43,-6.019 0,10.422 10.43,6.023 0,-10.426"
         style="fill:#b6b5b5;fill-opacity:1;fill-rule:nonzero;stroke:none"
         id="path192" /><path
         d="m 34.48,106.944 -10.425,-6.02 0,10.426 10.425,6.02 0,-10.426"
         style="fill:#b0afaf;fill-opacity:1;fill-rule:nonzero;stroke:none"
         id="path194" /><path
         d="m 44.91,112.963 -10.43,-6.019 0,10.426 10.43,6.019 0,-10.426"
         style="fill:#5f5c5d;fill-opacity:1;fill-rule:nonzero;stroke:none"
         id="path196" /><path
         d="m 55.34,118.987 -10.43,-6.024 0,10.426 10.43,6.024 0,-10.426"
         style="fill:#b9b8b8;fill-opacity:1;fill-rule:nonzero;stroke:none"
         id="path198" /><path
         d="m 13.625,84.475 -10.426,-6.02 0,10.426 10.426,6.024 0,-10.43"
         style="fill:#edeced;fill-opacity:1;fill-rule:nonzero;stroke:none"
         id="path200" /><path
         d="m 24.055,90.495 -10.43,-6.02 0,10.43 10.43,6.019 0,-10.429"
         style="fill:#898788;fill-opacity:1;fill-rule:nonzero;stroke:none"
         id="path202" /><path
         d="m 34.48,96.514 -10.425,-6.019 0,10.429 10.425,6.02 0,-10.43"
         style="fill:#959394;fill-opacity:1;fill-rule:nonzero;stroke:none"
         id="path204" /><path
         d="m 44.91,102.534 -10.43,-6.02 0,10.43 10.43,6.019 0,-10.429"
         style="fill:#c0bfbf;fill-opacity:1;fill-rule:nonzero;stroke:none"
         id="path206" /><path
         d="m 55.34,108.557 -10.43,-6.023 0,10.429 10.43,6.024 0,-10.43"
         style="fill:#8f8d8e;fill-opacity:1;fill-rule:nonzero;stroke:none"
         id="path208" /><path
         d="m 13.625,74.045 -10.426,-6.019 0,10.429 10.426,6.02 0,-10.43"
         style="fill:#adabac;fill-opacity:1;fill-rule:nonzero;stroke:none"
         id="path210" /><path
         d="m 24.055,80.069 -10.43,-6.024 0,10.43 10.43,6.02 0,-10.426"
         style="fill:#b9b8b8;fill-opacity:1;fill-rule:nonzero;stroke:none"
         id="path212" /><path
         d="m 34.48,86.084 -10.425,-6.015 0,10.426 10.425,6.019 0,-10.43"
         style="fill:#979596;fill-opacity:1;fill-rule:nonzero;stroke:none"
         id="path214" /><path
         d="m 44.91,92.104 -10.43,-6.02 0,10.43 10.43,6.02 0,-10.43"
         style="fill:#312d2e;fill-opacity:1;fill-rule:nonzero;stroke:none"
         id="path216" /><path
         d="m 55.34,98.127 -10.43,-6.023 0,10.43 10.43,6.023 0,-10.43"
         style="fill:#4e4b4c;fill-opacity:1;fill-rule:nonzero;stroke:none"
         id="path218" /><path
         d="M 13.625,63.62 3.199,57.6 l 0,10.426 10.426,6.019 0,-10.425"
         style="fill:#706d6e;fill-opacity:1;fill-rule:nonzero;stroke:none"
         id="path220" /><path
         d="m 24.055,69.639 -10.43,-6.019 0,10.425 10.43,6.024 0,-10.43"
         style="fill:#c4c3c3;fill-opacity:1;fill-rule:nonzero;stroke:none"
         id="path222" /><path
         d="m 34.48,75.663 -10.425,-6.024 0,10.43 10.425,6.015 0,-10.421"
         style="fill:#949292;fill-opacity:1;fill-rule:nonzero;stroke:none"
         id="path224" /><path
         d="m 44.91,81.682 -10.43,-6.019 0,10.421 10.43,6.02 0,-10.422"
         style="fill:#383536;fill-opacity:1;fill-rule:nonzero;stroke:none"
         id="path226" /><path
         d="m 55.34,87.698 -10.43,-6.016 0,10.422 10.43,6.023 0,-10.429"
         style="fill:#383536;fill-opacity:1;fill-rule:nonzero;stroke:none"
         id="path228" /><path
         d="m 3.199,99.307 0,10.43 10.426,6.023 0,-10.433 -10.426,-6.02"
         style="fill:#eeedee;fill-opacity:1;fill-rule:nonzero;stroke:none"
         id="path230" /><path
         d="m 13.625,105.327 0,10.433 10.43,6.02 0,-10.43 -10.43,-6.023"
         style="fill:#f9f9f9;fill-opacity:1;fill-rule:nonzero;stroke:none"
         id="path232" /><path
         d="m 24.055,111.35 0,10.43 10.425,6.015 0,-10.425 -10.425,-6.02"
         style="fill:#f9f9f9;fill-opacity:1;fill-rule:nonzero;stroke:none"
         id="path234" /><path
         d="m 34.48,117.37 0,10.425 10.43,6.02 0,-10.426 -10.43,-6.019"
         style="fill:#cac9ca;fill-opacity:1;fill-rule:nonzero;stroke:none"
         id="path236" /><path
         d="m 44.91,123.389 0,10.426 10.43,6.023 0,-10.425 -10.43,-6.024"
         style="fill:#e1e0e0;fill-opacity:1;fill-rule:nonzero;stroke:none"
         id="path238" /><path
         d="m 3.199,88.881 0,10.426 10.426,6.02 0,-10.422 -10.426,-6.024"
         style="fill:#e2e1e1;fill-opacity:1;fill-rule:nonzero;stroke:none"
         id="path240" /><path
         d="m 13.625,94.905 0,10.422 10.43,6.023 0,-10.426 -10.43,-6.019"
         style="fill:#e9e9e9;fill-opacity:1;fill-rule:nonzero;stroke:none"
         id="path242" /><path
         d="m 24.055,100.924 0,10.426 10.425,6.02 0,-10.426 -10.425,-6.02"
         style="fill:#e8e7e7;fill-opacity:1;fill-rule:nonzero;stroke:none"
         id="path244" /><path
         d="m 34.48,106.944 0,10.426 10.43,6.019 0,-10.426 -10.43,-6.019"
         style="fill:#cfcece;fill-opacity:1;fill-rule:nonzero;stroke:none"
         id="path246" /><path
         d="m 44.91,112.963 0,10.426 10.43,6.024 0,-10.426 -10.43,-6.024"
         style="fill:#eaeaea;fill-opacity:1;fill-rule:nonzero;stroke:none"
         id="path248" /><path
         d="m 3.199,78.455 0,10.426 10.426,6.024 0,-10.43 -10.426,-6.02"
         style="fill:#fafafa;fill-opacity:1;fill-rule:nonzero;stroke:none"
         id="path250" /><path
         d="m 13.625,84.475 0,10.43 10.43,6.019 0,-10.429 -10.43,-6.02"
         style="fill:#dcdbdb;fill-opacity:1;fill-rule:nonzero;stroke:none"
         id="path252" /><path
         d="m 3.199,68.026 0,10.429 10.426,6.02 0,-10.43 -10.426,-6.019"
         style="fill:#e6e6e6;fill-opacity:1;fill-rule:nonzero;stroke:none"
         id="path254" /><path
         d="m 13.625,74.045 0,10.43 10.43,6.02 0,-10.426 -10.43,-6.024"
         style="fill:#eaeaea;fill-opacity:1;fill-rule:nonzero;stroke:none"
         id="path256" /><path
         d="m 3.199,57.6 0,10.426 10.426,6.019 0,-10.425 L 3.199,57.6"
         style="fill:#d4d3d3;fill-opacity:1;fill-rule:nonzero;stroke:none"
         id="path258" /><path
         d="m 13.625,63.62 0,10.425 10.43,6.024 0,-10.43 -10.43,-6.019"
         style="fill:#ededed;fill-opacity:1;fill-rule:nonzero;stroke:none"
         id="path260" /><path
         d="m 55.34,87.698 -0.289,0.5 -30.422,-17.559 0,29.953 30.133,17.395 0,-30.289 0.578,0 -0.289,0.5 0.289,-0.5 0.574,0 0,31.289 c 0,0.203 -0.109,0.394 -0.285,0.5 -0.18,0.101 -0.399,0.101 -0.578,0 L 23.766,101.42 c -0.18,-0.101 -0.289,-0.293 -0.289,-0.496 l 0,-31.285 c 0,-0.207 0.109,-0.398 0.289,-0.5 0.175,-0.101 0.398,-0.101 0.574,0 l 31.289,18.063 c 0.176,0.101 0.285,0.293 0.285,0.496 l -0.574,0"
         style="fill:#00a650;fill-opacity:1;fill-rule:nonzero;stroke:none"
         id="path262" /><path
         d="m 55.164,118.436 0.551,-0.176 0.351,1.098 -0.55,0.176"
         style="fill:#00a650;fill-opacity:1;fill-rule:nonzero;stroke:none"
         id="path264" /><path
         d="m 56.836,117.905 1.121,-0.36 0.352,1.098 -1.121,0.359 -0.352,-1.097 z m 2.246,-0.719 1.121,-0.356 0.352,1.098 -1.125,0.36 -0.348,-1.102 z m 2.242,-0.715 1.125,-0.359 0.348,1.101 -1.121,0.356 -0.352,-1.098 z m 2.246,-0.715 1.121,-0.359 0.352,1.098 -1.121,0.359 -0.352,-1.098 z m 2.246,-0.718 1.122,-0.356 0.351,1.098 -1.125,0.359 -0.348,-1.101 z m 2.243,-0.715 1.125,-0.36 0.347,1.102 -1.121,0.355 -0.351,-1.097 z m 2.246,-0.715 1.121,-0.36 0.351,1.098 -1.121,0.359 -0.351,-1.097 z m 2.246,-0.719 1.121,-0.355 0.351,1.097 -1.125,0.36 -0.347,-1.102 z m 2.242,-0.715 1.125,-0.359 0.348,1.101 -1.121,0.356 -0.352,-1.098 z m 2.246,-0.715 1.121,-0.359 0.352,1.098 -1.121,0.359 -0.352,-1.098 z m 2.246,-0.718 1.121,-0.356 0.352,1.098 -1.125,0.359 -0.348,-1.101 z m 2.242,-0.715 1.125,-0.36 0.348,1.102 -1.121,0.355 -0.352,-1.097 z m 2.246,-0.715 1.122,-0.359 0.351,1.097 -1.121,0.36 -0.352,-1.098 z m 2.247,-0.719 1.121,-0.355 0.351,1.097 -1.125,0.36 -0.347,-1.102 z m 2.242,-0.715 1.125,-0.359 0.347,1.102 -1.121,0.355 -0.351,-1.098 z m 2.246,-0.714 1.121,-0.36 0.351,1.098 -1.121,0.359 -0.351,-1.097 z m 2.246,-0.719 1.121,-0.36 0.352,1.102 -1.125,0.359 -0.348,-1.101 z m 2.242,-0.715 1.125,-0.359 0.348,1.101 -1.121,0.356 -0.352,-1.098 z m 2.246,-0.715 1.121,-0.359 0.352,1.097 -1.121,0.36 -0.352,-1.098 z m 2.246,-0.719 1.121,-0.355 0.352,1.098 -1.125,0.359"
         style="fill:#00a650;fill-opacity:1;fill-rule:nonzero;stroke:none"
         id="path266" /><path
         d="m 101.73,103.58 0.551,-0.175 0.352,1.097 -0.551,0.176"
         style="fill:#00a650;fill-opacity:1;fill-rule:nonzero;stroke:none"
         id="path268" /><path
         d="m 24.027,100.346 0.578,-0.023 0.051,1.152 -0.578,0.023"
         style="fill:#00a650;fill-opacity:1;fill-rule:nonzero;stroke:none"
         id="path270" /><path
         d="m 25.777,100.268 1.172,-0.051 0.051,1.153 -1.172,0.05 -0.051,-1.152 z m 2.344,-0.102 1.172,-0.05 0.051,1.152 -1.172,0.051 -0.051,-1.153 z m 2.344,-0.101 1.172,-0.055 0.051,1.153 -1.172,0.054 -0.051,-1.152 z m 2.344,-0.106 1.175,-0.05 0.051,1.152 -1.176,0.051 -0.05,-1.153 z m 2.347,-0.101 1.172,-0.051 0.051,1.152 -1.172,0.051 -0.051,-1.152 z m 2.344,-0.106 1.172,-0.05 0.051,1.152 -1.172,0.055 -0.051,-1.157 z m 2.344,-0.101 1.172,-0.051 0.05,1.152 -1.171,0.051 -0.051,-1.152 z m 2.344,-0.102 1.171,-0.054 0.055,1.152 -1.176,0.055 -0.05,-1.153 z m 2.347,-0.105 1.172,-0.051 0.051,1.152 -1.172,0.051 -0.051,-1.152 z m 2.344,-0.102 1.172,-0.051 0.051,1.153 -1.172,0.051 -0.051,-1.153 z m 2.344,-0.101 1.172,-0.055 0.05,1.152 -1.172,0.055 -0.05,-1.152 z m 2.343,-0.106 1.172,-0.051 0.051,1.153 -1.172,0.051 -0.051,-1.153 z m 2.348,-0.101 1.172,-0.055 0.051,1.156 -1.172,0.051 -0.051,-1.152 z m 2.344,-0.106 1.172,-0.051 0.05,1.153 -1.171,0.05 -0.051,-1.152 z m 2.344,-0.101 1.171,-0.055 0.051,1.156 -1.172,0.051 -0.05,-1.152 z m 2.343,-0.102 1.172,-0.055 0.051,1.153 -1.172,0.054 -0.051,-1.152 z m 2.344,-0.105 1.176,-0.051 0.051,1.152 -1.172,0.051 -0.055,-1.152 z m 2.348,-0.102 1.172,-0.055 0.05,1.153 -1.171,0.054 -0.051,-1.152 z m 2.343,-0.105 1.172,-0.051 0.051,1.152 -1.172,0.051 -0.051,-1.152 z m 2.344,-0.102 1.172,-0.051 0.051,1.153 -1.172,0.05 -0.051,-1.152 z m 2.344,-0.106 1.176,-0.05 0.051,1.152 -1.176,0.055 -0.051,-1.157 z m 2.348,-0.101 1.172,-0.051 0.05,1.152 -1.172,0.051 -0.05,-1.152 z m 2.343,-0.102 1.172,-0.054 0.051,1.152 -1.172,0.055 -0.051,-1.153 z m 2.344,-0.105 1.172,-0.051 0.051,1.152 -1.172,0.051 -0.051,-1.152 z m 2.344,-0.102 1.172,-0.054 0.054,1.156 -1.175,0.051 -0.051,-1.153 z m 2.348,-0.105 1.171,-0.051 0.051,1.152 -1.172,0.055 -0.05,-1.156 z m 2.343,-0.102 1.172,-0.05 0.051,1.152 -1.172,0.051 -0.051,-1.153 z m 2.344,-0.101 1.172,-0.055 0.051,1.152 -1.172,0.055"
         style="fill:#00a650;fill-opacity:1;fill-rule:nonzero;stroke:none"
         id="path272" /><path
         d="m 91.426,97.381 0.578,-0.023 0.051,1.152 -0.578,0.024"
         style="fill:#00a650;fill-opacity:1;fill-rule:nonzero;stroke:none"
         id="path274" /><path
         d="m 24.199,69.08 0.559,0.149 -0.293,1.113 -0.559,-0.144"
         style="fill:#00a650;fill-opacity:1;fill-rule:nonzero;stroke:none"
         id="path276" /><path
         d="m 25.891,69.526 1.132,0.297 -0.293,1.117 -1.132,-0.301 0.293,-1.113 z m 2.265,0.594 1.133,0.3 -0.293,1.114 -1.133,-0.297 0.293,-1.117 z m 2.266,0.597 1.137,0.297 -0.293,1.117 -1.137,-0.297 0.293,-1.117 z m 2.269,0.594 1.133,0.301 -0.293,1.113 -1.133,-0.297 0.293,-1.117 z m 2.266,0.598 1.133,0.296 -0.293,1.118 -1.133,-0.297 0.293,-1.117 z m 2.266,0.597 1.132,0.297 -0.293,1.113 -1.132,-0.296 0.293,-1.114 z m 2.265,0.594 1.133,0.297 -0.293,1.117 -1.133,-0.297 0.293,-1.117 z m 2.27,0.594 1.133,0.301 -0.293,1.113 -1.133,-0.297 0.293,-1.117 z m 2.265,0.597 1.133,0.297 -0.293,1.117 -1.133,-0.296 0.293,-1.118 z m 2.266,0.594 1.133,0.301 -0.293,1.113 -1.133,-0.297 0.293,-1.117 z m 2.266,0.598 1.133,0.297 -0.293,1.117 -1.133,-0.297 0.293,-1.117 z m 2.265,0.597 1.133,0.297 -0.293,1.114 -1.133,-0.297 0.293,-1.114 z m 2.27,0.594 1.133,0.297 -0.293,1.117 -1.133,-0.297 0.293,-1.117 z m 2.265,0.594 1.133,0.301 -0.293,1.113 -1.133,-0.297 0.293,-1.117 z m 2.266,0.598 1.133,0.297 -0.293,1.117 -1.133,-0.297 0.293,-1.117 z m 2.266,0.597 1.133,0.297 -0.293,1.113 -1.133,-0.296 0.293,-1.114 z m 2.265,0.594 1.137,0.297 -0.297,1.117 -1.133,-0.297 0.293,-1.117 z m 2.27,0.594 1.133,0.301 -0.293,1.113 -1.133,-0.297 0.293,-1.117 z m 2.266,0.597 1.132,0.297 -0.293,1.118 -1.132,-0.297 0.293,-1.118 z m 2.265,0.594 1.133,0.301 -0.293,1.113 -1.133,-0.297 0.293,-1.117 z m 2.266,0.598 1.133,0.297 -0.293,1.117 -1.133,-0.297 0.293,-1.117 z m 2.265,0.598 1.137,0.296 -0.297,1.118 -1.133,-0.301 0.293,-1.113 z m 2.27,0.593 1.133,0.297 -0.293,1.117 -1.133,-0.297 0.293,-1.117 z m 2.266,0.598 1.132,0.297 -0.293,1.117 -1.132,-0.301 0.293,-1.113 z m 2.265,0.594 1.133,0.297 -0.293,1.117 -1.133,-0.297 0.293,-1.117 z m 2.266,0.597 1.133,0.297 -0.293,1.113 -1.133,-0.296 0.293,-1.114 z m 2.265,0.594 1.137,0.297 -0.297,1.117 -1.133,-0.297 0.293,-1.117 z m 2.27,0.594 1.133,0.301 -0.293,1.117 -1.133,-0.301 0.293,-1.117 z m 2.266,0.597 1.132,0.297 -0.293,1.118 -1.132,-0.297"
         style="fill:#00a650;fill-opacity:1;fill-rule:nonzero;stroke:none"
         id="path278" /><path
         d="m 91.617,86.803 0.559,0.145 -0.293,1.117 -0.559,-0.149"
         style="fill:#00a650;fill-opacity:1;fill-rule:nonzero;stroke:none"
         id="path280" /><path
         d="m 55.41,87.127 0.574,0.071 -0.144,1.144 -0.574,-0.07"
         style="fill:#00a650;fill-opacity:1;fill-rule:nonzero;stroke:none"
         id="path282" /><path
         d="m 57.102,87.338 1.121,0.137 -0.141,1.145 -1.121,-0.137 0.141,-1.145 z m 2.246,0.278 1.121,0.136 -0.145,1.145 -1.121,-0.137 0.145,-1.144 z m 2.242,0.273 1.121,0.141 -0.145,1.144 -1.121,-0.136 0.145,-1.149 z m 2.242,0.281 1.121,0.137 -0.144,1.145 -1.121,-0.137 0.144,-1.145 z m 2.242,0.278 1.121,0.136 -0.14,1.145 -1.121,-0.137 0.14,-1.144 z m 2.242,0.273 1.122,0.141 -0.141,1.144 -1.121,-0.136 0.14,-1.149 z m 2.243,0.281 1.121,0.137 -0.141,1.145 -1.121,-0.137 0.141,-1.145 z m 2.242,0.274 1.121,0.14 -0.141,1.145 -1.121,-0.137 0.141,-1.148 z m 2.242,0.277 1.121,0.141 -0.141,1.144 -1.121,-0.136 0.141,-1.149 z m 2.242,0.281 1.121,0.137 -0.14,1.145 -1.121,-0.137 0.14,-1.145 z m 2.242,0.274 1.121,0.14 -0.14,1.145 -1.121,-0.137 0.14,-1.148 z m 2.246,0.277 1.118,0.141 -0.141,1.144 -1.121,-0.136 0.144,-1.149 z m 2.243,0.278 1.121,0.14 -0.145,1.145 -1.121,-0.137 0.145,-1.148 z m 2.242,0.277 1.121,0.14 -0.145,1.145 -1.121,-0.141 0.145,-1.144 z m 2.242,0.277 1.121,0.141 -0.144,1.144 -1.118,-0.136 0.141,-1.149 z m 2.242,0.278 1.121,0.14 -0.14,1.145 -1.121,-0.137 0.14,-1.148 z m 2.242,0.277 1.121,0.141 -0.14,1.144 -1.121,-0.141 0.14,-1.144 z m 2.243,0.277 1.121,0.141 -0.141,1.144 -1.121,-0.14 0.141,-1.145 z m 2.242,0.278 1.121,0.14 -0.141,1.145 -1.121,-0.137 0.141,-1.148 z m 2.242,0.277 1.121,0.141 -0.141,1.144 -1.121,-0.141"
         style="fill:#00a650;fill-opacity:1;fill-rule:nonzero;stroke:none"
         id="path284" /><path
         d="m 101.953,92.881 0.574,0.071 -0.14,1.144 -0.575,-0.07"
         style="fill:#00a650;fill-opacity:1;fill-rule:nonzero;stroke:none"
         id="path286" /><path
         d="m 102.457,93.526 -10.43,-6.02 0,10.426 10.43,6.023 0,-10.429"
         style="fill:#383435;fill-opacity:1;fill-rule:nonzero;stroke:none"
         id="path288" /><path
         d="m 102.457,93.526 -0.289,0.5 -9.563,-5.52 0,9.094 9.274,5.355 0,-9.429 0.578,0 -0.289,0.5 0.289,-0.5 0.574,0 0,10.429 c 0,0.204 -0.109,0.395 -0.285,0.497 -0.18,0.105 -0.398,0.105 -0.578,0 l -10.43,-6.02 c -0.176,-0.102 -0.285,-0.293 -0.285,-0.5 l 0,-10.426 c 0,-0.207 0.109,-0.398 0.285,-0.5 0.18,-0.101 0.399,-0.101 0.578,0 l 10.43,6.02 c 0.176,0.101 0.285,0.293 0.285,0.5 l -0.574,0"
         style="fill:#00a650;fill-opacity:1;fill-rule:nonzero;stroke:none"
         id="path290" /><path
         d="m 26.242,59.971 c -0.422,0 -0.812,0.067 -1.172,0.192 -0.355,0.125 -0.664,0.308 -0.922,0.558 -0.257,0.246 -0.457,0.555 -0.597,0.926 -0.141,0.367 -0.211,0.793 -0.211,1.281 0,0.449 0.066,0.86 0.207,1.223 0.129,0.363 0.324,0.683 0.582,0.945 0.25,0.25 0.555,0.449 0.918,0.582 0.367,0.141 0.765,0.207 1.199,0.207 0.238,0 0.457,-0.012 0.649,-0.039 0.195,-0.027 0.371,-0.062 0.531,-0.105 0.172,-0.047 0.328,-0.102 0.465,-0.161 0.14,-0.058 0.261,-0.117 0.367,-0.167 l 0,-1.379 -0.168,0 c -0.074,0.062 -0.164,0.132 -0.27,0.214 -0.109,0.086 -0.23,0.168 -0.371,0.25 -0.14,0.082 -0.289,0.149 -0.453,0.204 -0.16,0.058 -0.34,0.086 -0.523,0.086 -0.207,0 -0.403,-0.036 -0.59,-0.098 -0.184,-0.067 -0.36,-0.176 -0.516,-0.324 -0.148,-0.145 -0.273,-0.336 -0.363,-0.575 -0.094,-0.238 -0.141,-0.527 -0.141,-0.871 0,-0.355 0.051,-0.656 0.153,-0.89 0.097,-0.239 0.226,-0.426 0.379,-0.563 0.156,-0.14 0.328,-0.246 0.519,-0.301 0.191,-0.058 0.383,-0.089 0.566,-0.089 0.176,0 0.36,0.027 0.528,0.078 0.176,0.054 0.336,0.125 0.484,0.218 0.125,0.075 0.238,0.153 0.348,0.235 0.105,0.086 0.195,0.156 0.262,0.219 l 0.156,0 0,-1.364 c -0.145,-0.062 -0.281,-0.121 -0.41,-0.179 -0.129,-0.055 -0.262,-0.106 -0.41,-0.145 -0.184,-0.051 -0.36,-0.094 -0.524,-0.125 -0.16,-0.023 -0.387,-0.043 -0.672,-0.043"
         style="fill:#231f20;fill-opacity:1;fill-rule:nonzero;stroke:none"
         id="path292" /><path
         d="m 31.715,61.186 c 0.09,0.109 0.156,0.242 0.207,0.398 0.039,0.153 0.062,0.368 0.062,0.637 0,0.25 -0.023,0.465 -0.07,0.637 -0.047,0.168 -0.109,0.305 -0.191,0.406 -0.082,0.106 -0.176,0.18 -0.293,0.223 -0.114,0.043 -0.239,0.066 -0.371,0.066 -0.133,0 -0.25,-0.019 -0.348,-0.055 -0.109,-0.035 -0.207,-0.109 -0.301,-0.214 -0.086,-0.098 -0.152,-0.235 -0.199,-0.407 -0.051,-0.172 -0.078,-0.394 -0.078,-0.656 0,-0.234 0.023,-0.437 0.066,-0.609 0.043,-0.172 0.106,-0.309 0.192,-0.414 0.082,-0.102 0.179,-0.172 0.293,-0.215 0.113,-0.047 0.242,-0.07 0.386,-0.07 0.125,0 0.242,0.015 0.356,0.058 0.113,0.043 0.211,0.117 0.289,0.215 z m 1.695,1.043 c 0,-0.703 -0.207,-1.258 -0.613,-1.668 -0.418,-0.402 -0.992,-0.609 -1.738,-0.609 -0.743,0 -1.321,0.207 -1.735,0.609 -0.41,0.41 -0.613,0.965 -0.613,1.668 0,0.711 0.203,1.269 0.617,1.676 0.414,0.398 0.992,0.605 1.731,0.605 0.75,0 1.328,-0.207 1.738,-0.609 0.406,-0.406 0.613,-0.965 0.613,-1.672"
         style="fill:#231f20;fill-opacity:1;fill-rule:nonzero;stroke:none"
         id="path294" /><path
         d="m 38.469,60.088 -1.379,0 0,2.129 c 0,0.172 -0.004,0.344 -0.028,0.516 -0.015,0.172 -0.046,0.297 -0.089,0.379 l -0.227,0.207 c -0.098,0.043 -0.234,0.066 -0.406,0.066 -0.129,0 -0.25,-0.023 -0.379,-0.062 -0.133,-0.039 -0.273,-0.106 -0.422,-0.196 l 0,-3.039 -1.379,0 0,4.289 1.379,0 0,-0.472 c 0.242,0.191 0.481,0.336 0.703,0.437 0.227,0.102 0.477,0.153 0.75,0.153 0.469,0 0.824,-0.133 1.086,-0.403 0.262,-0.273 0.391,-0.676 0.391,-1.211 l 0,-2.793"
         style="fill:#231f20;fill-opacity:1;fill-rule:nonzero;stroke:none"
         id="path296" /><path
         d="m 43.82,64.377 -1.656,-4.289 -1.559,0 -1.64,4.289 1.457,0 0.992,-2.953 0.981,2.953 1.425,0"
         style="fill:#231f20;fill-opacity:1;fill-rule:nonzero;stroke:none"
         id="path298" /><path
         d="m 47.047,61.186 c 0.086,0.109 0.152,0.242 0.195,0.398 0.047,0.153 0.067,0.368 0.067,0.637 0,0.25 -0.02,0.465 -0.067,0.637 -0.047,0.168 -0.109,0.305 -0.191,0.406 -0.082,0.106 -0.18,0.18 -0.293,0.223 -0.117,0.043 -0.238,0.066 -0.371,0.066 -0.133,0 -0.25,-0.019 -0.356,-0.055 -0.101,-0.035 -0.195,-0.109 -0.297,-0.214 -0.082,-0.098 -0.144,-0.235 -0.199,-0.407 -0.051,-0.172 -0.074,-0.394 -0.074,-0.656 0,-0.234 0.023,-0.437 0.066,-0.609 0.043,-0.172 0.106,-0.309 0.192,-0.414 0.078,-0.102 0.176,-0.172 0.289,-0.215 0.113,-0.047 0.246,-0.07 0.39,-0.07 0.125,0 0.243,0.015 0.356,0.058 0.113,0.043 0.211,0.117 0.293,0.215 z m 1.687,1.043 c 0,-0.703 -0.203,-1.258 -0.617,-1.668 -0.406,-0.402 -0.988,-0.609 -1.73,-0.609 -0.746,0 -1.325,0.207 -1.735,0.609 -0.41,0.41 -0.617,0.965 -0.617,1.668 0,0.711 0.207,1.269 0.621,1.676 0.414,0.398 0.992,0.605 1.731,0.605 0.746,0 1.328,-0.207 1.734,-0.609 0.41,-0.406 0.613,-0.965 0.613,-1.672"
         style="fill:#231f20;fill-opacity:1;fill-rule:nonzero;stroke:none"
         id="path300" /><path
         d="m 49.484,66.034 1.379,0 0,-5.945 -1.379,0 0,5.945 z"
         style="fill:#231f20;fill-opacity:1;fill-rule:nonzero;stroke:none"
         id="path302" /><path
         d="m 56.203,60.088 -1.383,0 0,0.473 c -0.254,-0.195 -0.48,-0.34 -0.691,-0.441 -0.215,-0.106 -0.469,-0.153 -0.762,-0.153 -0.472,0 -0.836,0.137 -1.094,0.41 -0.253,0.274 -0.382,0.676 -0.382,1.207 l 0,2.793 1.379,0 0,-2.129 c 0,-0.214 0.007,-0.402 0.027,-0.539 0.008,-0.144 0.043,-0.265 0.094,-0.363 l 0.218,-0.207 c 0.102,-0.043 0.235,-0.059 0.411,-0.059 0.117,0 0.246,0.016 0.39,0.059 0.141,0.051 0.278,0.113 0.41,0.195 l 0,3.043 1.383,0 0,-4.289"
         style="fill:#231f20;fill-opacity:1;fill-rule:nonzero;stroke:none"
         id="path304" /><path
         d="m 60.008,60.123 c -0.149,-0.035 -0.305,-0.07 -0.469,-0.089 -0.168,-0.02 -0.367,-0.032 -0.609,-0.032 -0.535,0 -0.934,0.11 -1.192,0.325 -0.261,0.218 -0.394,0.589 -0.394,1.113 l 0,2.004 -0.567,0 0,0.933 0.567,0 0,1.227 1.383,0 0,-1.227 1.281,0 0,-0.933 -1.281,0 0,-1.918 c 0.003,-0.11 0.027,-0.211 0.062,-0.305 l 0.188,-0.207 c 0.089,-0.055 0.222,-0.078 0.394,-0.078 0.07,0 0.164,0.016 0.281,0.047 0.118,0.027 0.196,0.058 0.243,0.082 l 0.113,0 0,-0.942"
         style="fill:#231f20;fill-opacity:1;fill-rule:nonzero;stroke:none"
         id="path306" /><path
         d="m 61.973,60.088 -1.379,0 0,4.289 1.379,0 0,-4.289 z m 0.039,4.903 -1.453,0 0,1.043 1.453,0 0,-1.043"
         style="fill:#231f20;fill-opacity:1;fill-rule:nonzero;stroke:none"
         id="path308" /><path
         d="m 65.727,61.186 c 0.089,0.109 0.156,0.242 0.203,0.398 0.043,0.153 0.066,0.368 0.066,0.637 0,0.25 -0.023,0.465 -0.07,0.637 -0.047,0.168 -0.11,0.305 -0.192,0.406 -0.082,0.106 -0.179,0.18 -0.293,0.223 -0.113,0.043 -0.238,0.066 -0.371,0.066 -0.132,0 -0.25,-0.019 -0.351,-0.055 -0.106,-0.035 -0.203,-0.109 -0.297,-0.214 -0.082,-0.098 -0.152,-0.235 -0.203,-0.407 -0.047,-0.172 -0.074,-0.394 -0.074,-0.656 0,-0.234 0.027,-0.437 0.066,-0.609 0.043,-0.172 0.105,-0.309 0.191,-0.414 0.082,-0.102 0.184,-0.172 0.293,-0.215 0.114,-0.047 0.243,-0.07 0.391,-0.07 0.125,0 0.238,0.015 0.352,0.058 0.117,0.043 0.21,0.117 0.289,0.215 z m 1.695,1.043 c 0,-0.703 -0.207,-1.258 -0.617,-1.668 -0.414,-0.402 -0.993,-0.609 -1.735,-0.609 -0.742,0 -1.316,0.207 -1.73,0.609 -0.414,0.41 -0.621,0.965 -0.621,1.668 0,0.711 0.207,1.269 0.621,1.676 0.414,0.398 0.996,0.605 1.73,0.605 0.75,0 1.328,-0.207 1.739,-0.609 0.406,-0.406 0.613,-0.965 0.613,-1.672"
         style="fill:#231f20;fill-opacity:1;fill-rule:nonzero;stroke:none"
         id="path310" /><path
         d="m 72.48,60.088 -1.378,0 0,2.129 c 0,0.172 -0.008,0.344 -0.028,0.516 -0.015,0.172 -0.047,0.297 -0.09,0.379 l -0.226,0.207 c -0.098,0.043 -0.235,0.066 -0.41,0.066 -0.125,0 -0.25,-0.023 -0.379,-0.062 -0.129,-0.039 -0.27,-0.106 -0.418,-0.196 l 0,-3.039 -1.379,0 0,4.289 1.379,0 0,-0.472 c 0.246,0.191 0.48,0.336 0.703,0.437 0.226,0.102 0.476,0.153 0.75,0.153 0.465,0 0.824,-0.133 1.086,-0.403 0.262,-0.273 0.39,-0.676 0.39,-1.211 l 0,-2.793"
         style="fill:#231f20;fill-opacity:1;fill-rule:nonzero;stroke:none"
         id="path312" /></g></g></svg>