<?xml version="1.0" encoding="UTF-8" standalone="no"?>
<!-- Created with Inkscape (http://www.inkscape.org/) -->

<svg
   xmlns:dc="http://purl.org/dc/elements/1.1/"
   xmlns:cc="http://creativecommons.org/ns#"
   xmlns:rdf="http://www.w3.org/1999/02/22-rdf-syntax-ns#"
   xmlns:svg="http://www.w3.org/2000/svg"
   xmlns="http://www.w3.org/2000/svg"
   xmlns:sodipodi="http://sodipodi.sourceforge.net/DTD/sodipodi-0.dtd"
   xmlns:inkscape="http://www.inkscape.org/namespaces/inkscape"
   id="svg2"
   version="1.1"
   inkscape:version="0.48.4 r9939"
   width="122.48"
   height="100"
   xml:space="preserve"
   sodipodi:docname="section1_fig68.pdf"><metadata
     id="metadata8"><rdf:RDF><cc:Work
         rdf:about=""><dc:format>image/svg+xml</dc:format><dc:type
           rdf:resource="http://purl.org/dc/dcmitype/StillImage" /><dc:title></dc:title></cc:Work></rdf:RDF></metadata><defs
     id="defs6" /><sodipodi:namedview
     pagecolor="#ffffff"
     bordercolor="#666666"
     borderopacity="1"
     objecttolerance="10"
     gridtolerance="10"
     guidetolerance="10"
     inkscape:pageopacity="0"
     inkscape:pageshadow="2"
     inkscape:window-width="640"
     inkscape:window-height="480"
     id="namedview4"
     showgrid="false"
     inkscape:zoom="2.36"
     inkscape:cx="61.240002"
     inkscape:cy="50"
     inkscape:window-x="1409"
     inkscape:window-y="24"
     inkscape:window-maximized="0"
     inkscape:current-layer="g10" /><g
     id="g10"
     inkscape:groupmode="layer"
     inkscape:label="section1_fig68"
     transform="matrix(1.25,0,0,-1.25,0,100)"><g
       id="g12"><path
         d="m 38.152,39.664 c 0,-4.34 -3.515,-7.855 -7.855,-7.855 -4.336,0 -7.856,3.515 -7.856,7.855 0,4.336 3.52,7.856 7.856,7.856 4.34,0 7.855,-3.52 7.855,-7.856 z"
         style="fill:#ffffff;fill-opacity:1;fill-rule:nonzero;stroke:#0000ff;stroke-opacity:1;stroke-width:0.8;stroke-linecap:square;stroke-linejoin:miter;stroke-miterlimit:4;stroke-dasharray:none"
         id="path14" /><path
         d="m 55.43,39.906 -14.176,0"
         style="fill:none;stroke:#0000ff;stroke-opacity:1;stroke-width:0.8;stroke-linecap:butt;stroke-linejoin:miter;stroke-miterlimit:4;stroke-dasharray:none"
         id="path16" /><path
         d="m 39.41,39.906 2.766,-1.601 0,3.199 -2.766,-1.598 z"
         style="fill:#0000ff;fill-opacity:1;fill-rule:evenodd;stroke:#0000ff;stroke-opacity:1;stroke-width:0.4;stroke-linecap:butt;stroke-linejoin:miter;stroke-miterlimit:4;stroke-dasharray:none"
         id="path18" /><path
         d="m 62.844,16.32 0.019,13.274"
         style="fill:none;stroke:#000000;stroke-opacity:1;stroke-width:0.8;stroke-linecap:butt;stroke-linejoin:miter;stroke-miterlimit:4;stroke-dasharray:none"
         id="path20" /><g
         id="g22"
         transform="matrix(0.00157575,1,1,-0.00157575,0,80)"><path
           d="m -48.456,62.944 -2.767,1.598 -10e-4,-3.2 2.768,1.602 z"
           style="fill:#000000;fill-opacity:1;fill-rule:evenodd;stroke:#000000;stroke-opacity:1;stroke-width:0.4;stroke-linecap:butt;stroke-linejoin:miter;stroke-miterlimit:4;stroke-dasharray:none"
           id="path24" /></g><path
         d="m 62.965,48.324 -0.102,13.27"
         style="fill:none;stroke:#000000;stroke-opacity:1;stroke-width:0.8;stroke-linecap:butt;stroke-linejoin:miter;stroke-miterlimit:4;stroke-dasharray:none"
         id="path26" /><g
         id="g28"
         transform="matrix(1,0,0,0.985636,0,80)"><path
           d="m 35.547,-34.916 17.48,18.774"
           style="fill:none;stroke:#0000ff;stroke-opacity:1;stroke-width:0.742648;stroke-linecap:butt;stroke-linejoin:miter;stroke-miterlimit:4;stroke-dasharray:none"
           id="path30" /></g><path
         d="m 40.336,63.25 0.012,0.023 0.007,0.024 0.036,0.082 0.015,0.031 0.032,0.055 0.011,0.031 0.02,0.027 0.019,0.032 0.02,0.027 0.023,0.031 0.024,0.028 0.027,0.031 0.023,0.027 0.032,0.028 0.027,0.027 0.035,0.027 0.071,0.047 0.039,0.02 0.043,0.023 0.043,0.016 0.046,0.019 0.047,0.016 0.051,0.012 0.055,0.011 0.058,0.012 0.063,0.008 0.027,0.004 0.067,0 0.031,0.004 0,0.332 -1.766,0 0,-0.332 c 0.403,-0.012 0.524,-0.262 0.524,-0.461 0,-0.098 -0.02,-0.141 -0.067,-0.262 l -1.109,-2.738 -1.223,3 c -0.066,0.136 -0.066,0.156 -0.066,0.179 0,0.282 0.426,0.282 0.621,0.282 l 0,0.332 -2.246,0 0,-0.332 c 0.687,0 0.73,-0.067 0.871,-0.399 l 1.574,-3.816 c 0.063,-0.153 0.086,-0.207 0.227,-0.207 0.14,0 0.187,0.097 0.23,0.207 l 1.426,3.492 z"
         style="fill:#0000ff;fill-opacity:1;fill-rule:evenodd;stroke:none"
         id="path32" /><path
         d="m 35.801,57.945 5.91,0 0,0.438 -5.91,0"
         style="fill:#0000ff;fill-opacity:1;fill-rule:nonzero;stroke:none"
         id="path34" /><path
         d="m 43.926,67.109 0.008,0.008 0.007,0.024 0.008,0.011 0.004,0.008 0.004,0.012 0,0.008 0.008,0.011 0,0.008 0.004,0.008 0.004,0.012 0,0.008 0.007,0.007 0,0.008 0.004,0.004 0,0.016 0.004,0.008 0,0.011 0.004,0.008 0,0.039 0.004,0.012 0,0.008 c 0,0.234 -0.215,0.414 -0.449,0.414 -0.293,0 -0.387,-0.235 -0.422,-0.356 l -1.008,-3.258 c -0.008,-0.015 -0.039,-0.113 -0.039,-0.117 0,-0.093 0.238,-0.168 0.301,-0.168 0.051,0 0.059,0.016 0.113,0.129 l 1.434,3.117 z"
         style="fill:#0000ff;fill-opacity:1;fill-rule:evenodd;stroke:none"
         id="path36" /><path
         d="m 44.188,61.566 0,0.016 -0.004,0.008 0,0.023 -0.004,0.016 -0.016,0.047 -0.008,0.012 -0.004,0.011 -0.015,0.024 -0.004,0.011 -0.008,0.012 -0.012,0.008 -0.011,0.012 -0.008,0.011 -0.012,0.008 -0.012,0.012 -0.035,0.023 -0.015,0.008 -0.047,0.012 -0.02,0.008 -0.015,0.004 -0.04,0 -0.019,0.003 c -0.203,0 -0.426,-0.199 -0.426,-0.414 0,-0.129 0.098,-0.285 0.305,-0.285 0.222,0 0.43,0.207 0.43,0.41 z"
         style="fill:#0000ff;fill-opacity:1;fill-rule:evenodd;stroke:none"
         id="path38" /><path
         d="m 42.629,57.746 -0.012,-0.039 -0.012,-0.035 -0.007,-0.016 -0.008,-0.039 -0.008,-0.019 -0.016,-0.078 -0.004,-0.024 0,-0.031 -0.003,-0.012 0,-0.023 c 0,-0.352 0.308,-0.641 0.726,-0.641 0.762,0 1.098,1.039 1.098,1.152 0,0.098 -0.098,0.098 -0.121,0.098 -0.106,0 -0.114,-0.047 -0.145,-0.129 C 43.941,57.309 43.605,57 43.309,57 c -0.153,0 -0.192,0.098 -0.192,0.266 0,0.172 0.055,0.312 0.121,0.48 0.078,0.203 0.164,0.406 0.246,0.602 0.067,0.179 0.344,0.867 0.375,0.957 0.02,0.07 0.043,0.164 0.043,0.238 0,0.355 -0.304,0.641 -0.722,0.641 -0.758,0 -1.11,-1.024 -1.11,-1.153 0,-0.097 0.11,-0.097 0.129,-0.097 0.11,0 0.117,0.039 0.141,0.121 0.199,0.644 0.531,0.918 0.816,0.918 0.121,0 0.192,-0.059 0.192,-0.262 0,-0.176 -0.047,-0.285 -0.239,-0.754 l -0.48,-1.211 z"
         style="fill:#0000ff;fill-opacity:1;fill-rule:evenodd;stroke:none"
         id="path40" /><g
         id="g42"
         transform="matrix(0.9375,0.985636,1,-0.924033,0,80)"><path
           d="m 19.121,36.278 -1.875,1.086 -0.002,-2.171 1.877,1.085 z"
           style="fill:#0000ff;fill-opacity:1;fill-rule:evenodd;stroke:#0000ff;stroke-opacity:1;stroke-width:0.270895;stroke-linecap:butt;stroke-linejoin:miter;stroke-miterlimit:4;stroke-dasharray:none"
           id="path44" /></g><g
         id="g46"
         transform="matrix(-0.00760954,1,1,0.00760954,0,80)"><path
           d="m -17.036,62.718 -2.77,1.6 0.001,-3.199 2.769,1.599 z"
           style="fill:#000000;fill-opacity:1;fill-rule:evenodd;stroke:#000000;stroke-opacity:1;stroke-width:0.399988;stroke-linecap:butt;stroke-linejoin:miter;stroke-miterlimit:4;stroke-dasharray:none"
           id="path48" /></g><path
         d="m 63.211,8.254 0.125,0.164 0.066,0.082 0.063,0.082 0.137,0.168 0.062,0.082 0.07,0.082 0.063,0.086 0.066,0.078 0.063,0.078 0.062,0.071 0.028,0.031 0.031,0.035 0.027,0.039 0.082,0.09 0.024,0.031 0.027,0.024 c 0.332,0.394 0.777,0.554 1.289,0.566 l 0,0.336 -1.93,0 0,-0.336 c 0.227,-0.027 0.317,-0.164 0.317,-0.336 0,-0.172 -0.11,-0.316 -0.164,-0.379 L 63.051,8.48 62.203,9.578 c -0.098,0.102 -0.098,0.129 -0.098,0.192 0,0.16 0.165,0.261 0.383,0.273 l 0,0.336 -2.199,0 0,-0.336 c 0.758,0 0.77,-0.012 1.277,-0.664 L 62.637,7.988 61.621,6.699 C 61.102,6.07 60.461,6.047 60.238,6.047 l 0,-0.336 1.922,0 0,0.336 c -0.234,0.039 -0.312,0.172 -0.312,0.336 0,0.238 0.312,0.594 0.972,1.371 L 63.645,6.672 C 63.73,6.555 63.871,6.383 63.871,6.32 63.871,6.219 63.773,6.055 63.48,6.047 l 0,-0.336 2.208,0 0,0.336 c -0.583,0 -0.778,0.023 -1.028,0.336 l -1.449,1.871 z"
         style="fill:#000000;fill-opacity:1;fill-rule:evenodd;stroke:none"
         id="path50" /><path
         d="m 60.105,3.973 5.735,0 0,0.445 -5.735,0"
         style="fill:#000000;fill-opacity:1;fill-rule:nonzero;stroke:none"
         id="path52" /><path
         d="m 60.93,38.312 0,-0.042 -0.004,-0.04 0,-0.035 -0.004,-0.035 -0.008,-0.066 -0.008,-0.024 -0.015,-0.05 -0.036,-0.059 -0.031,-0.035 -0.039,-0.02 -0.023,-0.015 -0.024,-0.008 -0.027,-0.004 -0.031,-0.008 -0.032,-0.004 -0.035,-0.004 -0.035,-0.011 -0.039,0 -0.023,-0.004 -0.067,0 -0.019,-0.004 -0.313,0 0,-0.324 2.34,0 0,0.324 c -0.699,0 -0.809,0 -0.809,0.468 l 0,1.915 c 0,1.078 0.735,1.664 1.403,1.664 0.656,0 0.769,-0.559 0.769,-1.153 l 0,-2.426 c 0,-0.468 -0.113,-0.468 -0.812,-0.468 l 0,-0.324 2.34,0 0,0.324 c -0.539,0 -0.801,0 -0.809,0.316 l 0,1.981 c 0,0.902 0,1.222 -0.324,1.597 -0.145,0.176 -0.488,0.383 -1.09,0.383 -0.875,0 -1.332,-0.621 -1.508,-1.019 l 0,3.64 -1.5,-0.113 0,-0.328 c 0.727,0 0.813,-0.071 0.813,-0.582 l 0,-5.407 z"
         style="fill:#000000;fill-opacity:1;fill-rule:evenodd;stroke:none"
         id="path54" /><path
         d="m 59.785,35.852 5.785,0 0,0.429 -5.785,0"
         style="fill:#000000;fill-opacity:1;fill-rule:nonzero;stroke:none"
         id="path56" /><path
         d="m 64.621,74.645 0.016,0.027 0.011,0.035 0.016,0.031 0.016,0.024 0.015,0.031 0.016,0.027 0.027,0.055 0.035,0.043 0.032,0.043 0.035,0.043 0.07,0.074 0.035,0.027 0.039,0.032 0.036,0.031 0.039,0.02 0.035,0.023 0.039,0.019 0.14,0.063 0.106,0.019 0.031,0.012 0.031,0.004 0.055,0.008 0.133,0 0,0.336 -1.754,0 0,-0.336 c 0.336,-0.004 0.512,-0.195 0.512,-0.461 0,-0.113 -0.012,-0.133 -0.067,-0.262 l -1.093,-2.668 -1.204,2.918 c -0.046,0.106 -0.066,0.149 -0.066,0.192 0,0.281 0.398,0.281 0.605,0.281 l 0,0.336 -2.23,0 0,-0.336 c 0.52,0 0.727,0 0.875,-0.375 l 1.625,-3.957 c -0.055,-0.141 -0.203,-0.5 -0.27,-0.641 -0.238,-0.597 -0.539,-1.347 -1.234,-1.347 -0.055,0 -0.305,0 -0.508,0.195 0.332,0.043 0.422,0.285 0.422,0.457 0,0.285 -0.207,0.457 -0.457,0.457 -0.219,0 -0.453,-0.145 -0.453,-0.465 0,-0.492 0.453,-0.879 0.996,-0.879 0.684,0 1.125,0.621 1.387,1.235 l 1.906,4.629 z"
         style="fill:#000000;fill-opacity:1;fill-rule:evenodd;stroke:none"
         id="path58" /><path
         d="m 60.125,67.301 5.875,0 0,0.449 -5.875,0"
         style="fill:#000000;fill-opacity:1;fill-rule:nonzero;stroke:none"
         id="path60" /><path
         d="m 72.621,22.371 -0.004,-0.144 -0.008,-0.137 -0.015,-0.129 -0.02,-0.125 -0.027,-0.125 -0.031,-0.125 -0.036,-0.117 -0.039,-0.106 -0.043,-0.109 -0.101,-0.207 -0.117,-0.18 -0.067,-0.09 -0.066,-0.082 -0.07,-0.074 -0.075,-0.078 -0.156,-0.133 -0.082,-0.062 -0.082,-0.055 -0.086,-0.047 -0.09,-0.047 -0.086,-0.039 -0.09,-0.039 -0.093,-0.035 -0.188,-0.043 -0.094,-0.023 -0.093,-0.012 -0.094,-0.004 -0.098,0 c -0.5,0 -1.758,0.262 -1.758,2.289 l 0,4.07 c 0,0.383 0.02,0.5 0.84,0.5 l 0.258,0 0,0.325 -3.148,0 0,-0.325 0.258,0 c 0.82,0 0.839,-0.117 0.839,-0.5 l 0,-4.027 c 0,-1.504 1.239,-2.668 2.692,-2.668 1.226,0 2.187,0.996 2.367,2.211 0.035,0.211 0.035,0.309 0.035,0.738 l 0,3.414 c 0,0.348 0,0.832 1.098,0.832 l 0,0.325 -2.531,0 0,-0.325 c 1.101,0 1.101,-0.5 1.101,-0.789 l 0,-3.703 z"
         style="fill:#000000;fill-opacity:1;fill-rule:evenodd;stroke:none"
         id="path62" /><path
         d="m 66.41,18.188 8.02,0 0,0.441 -8.02,0"
         style="fill:#000000;fill-opacity:1;fill-rule:nonzero;stroke:none"
         id="path64" /><path
         d="m 71.555,58.742 0.031,0.067 0.016,0.039 0.019,0.035 0.016,0.035 0.019,0.035 0.024,0.035 0.019,0.028 0.047,0.066 0.027,0.031 0.055,0.055 0.031,0.027 0.036,0.024 0.031,0.027 0.07,0.047 0.039,0.016 0.043,0.027 0.043,0.012 0.043,0.023 0.094,0.031 0.051,0.012 0.109,0.02 0.117,0.019 0.125,0.008 0.07,0 0,0.332 -2.273,0 0,-0.332 c 0.559,-0.008 0.789,-0.293 0.789,-0.539 0,-0.086 -0.035,-0.152 -0.055,-0.215 l -1.972,-5.191 -2.055,5.441 c -0.062,0.148 -0.062,0.172 -0.062,0.195 0,0.309 0.613,0.309 0.878,0.309 l 0,0.332 -2.902,0 0,-0.332 c 0.695,0 0.902,0 1.055,-0.41 l 2.496,-6.606 c 0.074,-0.207 0.129,-0.238 0.269,-0.238 0.184,0 0.204,0.051 0.258,0.203 l 2.399,6.332 z"
         style="fill:#000000;fill-opacity:1;fill-rule:evenodd;stroke:none"
         id="path66" /><path
         d="m 64.871,50.711 8.246,0 0,0.445 -8.246,0"
         style="fill:#000000;fill-opacity:1;fill-rule:nonzero;stroke:none"
         id="path68" /><path
         d="m 70.625,43.137 c 0,0 8.727,9.906 11.969,3.742 2.215,-4.219 2.008,-7.258 -0.574,-11.176 -3.356,-5.082 -8.77,1.172 -8.77,1.172"
         style="fill:none;stroke:#000000;stroke-opacity:1;stroke-width:0.8;stroke-linecap:butt;stroke-linejoin:miter;stroke-miterlimit:4;stroke-dasharray:none"
         id="path70" /><g
         id="g72"
         transform="matrix(-0.864427,1,1,0.864427,0,80)"><path
           d="m -59.52,20.593 -2.099,1.204 0.002,-2.416 2.097,1.212 z"
           style="fill:#000000;fill-opacity:1;fill-rule:evenodd;stroke:#000000;stroke-opacity:1;stroke-width:0.302611;stroke-linecap:butt;stroke-linejoin:miter;stroke-miterlimit:4;stroke-dasharray:none"
           id="path74" /></g><path
         d="m 81.809,43.242 4.395,0 0,-4.398 -4.395,0 0,4.398 z"
         style="fill:#000000;fill-opacity:1;fill-rule:nonzero;stroke:#000000;stroke-opacity:1;stroke-width:0.8;stroke-linecap:square;stroke-linejoin:miter;stroke-miterlimit:4;stroke-dasharray:none"
         id="path76" /><path
         d="m 96.555,43.996 0.039,0.106 0.019,0.05 0.024,0.051 0.027,0.043 0.024,0.039 0.027,0.043 0.027,0.035 0.031,0.032 0.063,0.066 0.062,0.051 0.071,0.047 0.07,0.039 0.039,0.019 0.152,0.051 0.04,0.004 0.035,0.008 0.039,0.008 0.043,0.007 0.078,0.008 0.156,0.008 0,0.328 -2.242,0 0,-0.328 c 0.719,-0.012 0.93,-0.367 0.93,-0.57 0,-0.059 -0.032,-0.145 -0.051,-0.215 l -1.602,-4.922 -1.707,5.223 c -0.011,0.043 -0.035,0.109 -0.035,0.16 0,0.324 0.621,0.324 0.898,0.324 l 0,0.328 -2.816,0 0,-0.328 c 0.609,0 0.832,0 0.961,-0.387 l 0.234,-0.742 -1.484,-4.578 -1.719,5.25 c -0.008,0.027 -0.019,0.101 -0.019,0.133 0,0.324 0.617,0.324 0.898,0.324 l 0,0.328 -2.816,0 0,-0.328 c 0.797,0 0.84,-0.055 0.969,-0.453 l 2.132,-6.539 c 0.032,-0.094 0.063,-0.203 0.203,-0.203 0.153,0 0.172,0.074 0.215,0.214 l 1.758,5.422 1.774,-5.433 c 0.031,-0.094 0.062,-0.203 0.203,-0.203 0.148,0 0.172,0.074 0.211,0.214 l 2.039,6.266 z"
         style="fill:#000000;fill-opacity:1;fill-rule:evenodd;stroke:none"
         id="path78" /><path
         d="m 86.855,36.039 11.129,0 0,0.434 -11.129,0"
         style="fill:#000000;fill-opacity:1;fill-rule:nonzero;stroke:none"
         id="path80" /><path
         d="m 46.113,42.219 4.398,0 0,-4.391 -4.398,0 0,4.391 z"
         style="fill:#0000ff;fill-opacity:1;fill-rule:nonzero;stroke:#0000ff;stroke-opacity:1;stroke-width:0.8;stroke-linecap:square;stroke-linejoin:miter;stroke-miterlimit:4;stroke-dasharray:none"
         id="path82" /><path
         d="m 23.203,43.43 c 0,0 -8.723,9.906 -11.965,3.742 -2.218,-4.227 -2.011,-7.258 0.571,-11.176 3.355,-5.09 8.769,1.172 8.769,1.172"
         style="fill:none;stroke:#0000ff;stroke-opacity:1;stroke-width:0.8;stroke-linecap:butt;stroke-linejoin:miter;stroke-miterlimit:4;stroke-dasharray:none"
         id="path84" /><g
         id="g86"
         transform="matrix(0.864427,1,-1,0.864427,0,80)"><path
           d="m -13.061,-32.822 -2.098,1.206 0.002,-2.415 2.096,1.209 z"
           style="fill:#0000ff;fill-opacity:1;fill-rule:evenodd;stroke:#0000ff;stroke-opacity:1;stroke-width:0.302611;stroke-linecap:butt;stroke-linejoin:miter;stroke-miterlimit:4;stroke-dasharray:none"
           id="path88" /></g><path
         d="m 7.629,43.527 4.395,0 0,-4.391 -4.395,0 0,4.391 z"
         style="fill:#0000ff;fill-opacity:1;fill-rule:nonzero;stroke:#0000ff;stroke-opacity:1;stroke-width:0.8;stroke-linecap:square;stroke-linejoin:miter;stroke-miterlimit:4;stroke-dasharray:none"
         id="path90" /><path
         d="m 41.211,34.301 0,0.109 -0.004,0.008 0,0.023 -0.004,0.012 0,0.008 -0.004,0.008 -0.004,0.011 -0.004,0.008 -0.003,0.004 -0.008,0.016 -0.008,0.004 -0.004,0.004 -0.016,0.007 -0.004,0 -0.007,0.004 -0.008,0 -0.008,0.004 -0.016,0 -0.004,0.004 -0.07,0 -0.008,0.004 -0.027,0 c -0.566,-0.586 -1.371,-0.586 -1.664,-0.586 l 0,-0.285 c 0.184,0 0.723,0 1.199,0.238 l 0,-4.734 c 0,-0.328 -0.027,-0.438 -0.851,-0.438 l -0.293,0 0,-0.281 2.961,0 0,0.281 -0.29,0 c -0.824,0 -0.851,0.102 -0.851,0.438 l 0,5.129 z"
         style="fill:#0000ff;fill-opacity:1;fill-rule:evenodd;stroke:none"
         id="path92" /><path
         d="m 45.672,30.555 0.066,0 0.008,0.004 0.008,0 0.008,0.003 0.008,0 0.007,0.004 0.004,0 0.016,0.008 0.012,0.012 0.003,0.008 0.012,0.011 0.016,0.024 0,0.012 0.004,0.004 0,0.011 0.004,0.008 0,0.02 0.004,0.004 0,0.023 0.003,0.008 0,0.015 c 0,0.184 -0.093,0.184 -0.183,0.184 l -2.805,0 c -0.09,0 -0.183,0 -0.183,-0.184 0,-0.179 0.093,-0.179 0.183,-0.179 l 2.805,0 z"
         style="fill:#0000ff;fill-opacity:1;fill-rule:evenodd;stroke:none"
         id="path94" /><path
         d="m 55.547,79.605 15.211,0 0,-15.211 -15.211,0 0,15.211 z"
         style="fill:none;stroke:#000000;stroke-opacity:1;stroke-width:0.788435;stroke-linecap:square;stroke-linejoin:miter;stroke-miterlimit:4;stroke-dasharray:none"
         id="path96" /><path
         d="m 55.547,47.605 15.211,0 0,-15.211 -15.211,0 0,15.211 z"
         style="fill:none;stroke:#000000;stroke-opacity:1;stroke-width:0.788435;stroke-linecap:square;stroke-linejoin:miter;stroke-miterlimit:4;stroke-dasharray:none"
         id="path98" /><path
         d="m 55.547,15.605 15.211,0 0,-15.211 -15.211,0 0,15.211 z"
         style="fill:none;stroke:#000000;stroke-opacity:1;stroke-width:0.788435;stroke-linecap:square;stroke-linejoin:miter;stroke-miterlimit:4;stroke-dasharray:none"
         id="path100" /><path
         d="m 28.656,41.609 0.004,0.02 0.008,0.023 0.008,0.039 0.008,0.024 0.004,0.023 0.058,0.235 0.004,0.023 0.008,0.02 0.004,0.023 0.004,0.02 0.007,0.019 0.008,0.039 0.004,0.016 0,0.015 0.004,0.016 0.004,0.012 0,0.012 0.004,0.011 0,0.02 c 0,0.164 -0.109,0.258 -0.274,0.258 -0.027,0 -0.293,-0.008 -0.378,-0.344 l -1.372,-5.508 c -0.027,-0.113 -0.027,-0.133 -0.027,-0.152 0,-0.141 0.102,-0.258 0.266,-0.258 0.199,0 0.312,0.172 0.332,0.203 0.039,0.082 0.16,0.578 0.523,2.043 0.305,-0.258 0.735,-0.293 0.922,-0.293 0.668,0 1.035,0.43 1.266,0.695 0.086,-0.429 0.437,-0.695 0.855,-0.695 0.332,0 0.555,0.219 0.707,0.523 0.16,0.34 0.285,0.922 0.285,0.942 0,0.094 -0.086,0.094 -0.117,0.094 -0.094,0 -0.101,-0.039 -0.133,-0.168 -0.16,-0.621 -0.332,-1.184 -0.722,-1.184 -0.254,0 -0.285,0.25 -0.285,0.437 0,0.211 0.117,0.661 0.191,0.993 l 0.266,1.027 c 0.027,0.145 0.125,0.504 0.164,0.648 0.046,0.215 0.14,0.579 0.14,0.633 0,0.172 -0.133,0.258 -0.277,0.258 -0.047,0 -0.293,-0.008 -0.367,-0.332 l -0.45,-1.777 c -0.113,-0.477 -0.218,-0.875 -0.246,-0.973 -0.011,-0.047 -0.468,-0.914 -1.238,-0.914 -0.476,0 -0.703,0.316 -0.703,0.828 0,0.277 0.066,0.543 0.133,0.813 l 0.398,1.593 z"
         style="fill:#0000ff;fill-opacity:1;fill-rule:evenodd;stroke:none"
         id="path102" /><path
         d="m 34.348,41.098 0,0.011 -0.004,0.008 0,0.024 -0.004,0.007 -0.004,0.012 0,0.012 -0.004,0.012 -0.004,0.007 -0.004,0.012 -0.008,0.012 -0.004,0.012 -0.007,0.007 -0.004,0.008 -0.008,0.012 -0.055,0.055 -0.011,0.003 -0.012,0.008 -0.016,0.004 -0.011,0.008 -0.016,0.004 -0.012,0.004 -0.031,0.008 -0.031,0 -0.02,0.004 c -0.18,0 -0.371,-0.176 -0.371,-0.368 0,-0.113 0.086,-0.254 0.266,-0.254 0.195,0 0.375,0.188 0.375,0.368 z"
         style="fill:#0000ff;fill-opacity:1;fill-rule:evenodd;stroke:none"
         id="path104" /><path
         d="m 32.988,37.715 -0.011,-0.035 -0.008,-0.032 -0.008,-0.015 -0.008,-0.031 -0.008,-0.016 0,-0.02 -0.004,-0.015 -0.007,-0.039 0,-0.016 -0.004,-0.012 0,-0.05 c 0,-0.313 0.265,-0.567 0.629,-0.567 0.668,0 0.961,0.918 0.961,1.02 0,0.086 -0.086,0.086 -0.106,0.086 -0.094,0 -0.102,-0.039 -0.129,-0.114 -0.152,-0.531 -0.445,-0.804 -0.703,-0.804 -0.133,0 -0.168,0.086 -0.168,0.234 0,0.152 0.047,0.277 0.106,0.426 0.066,0.18 0.14,0.359 0.214,0.531 0.059,0.16 0.301,0.766 0.328,0.848 0.016,0.062 0.04,0.148 0.04,0.211 0,0.312 -0.27,0.566 -0.633,0.566 -0.66,0 -0.965,-0.902 -0.965,-1.019 0,-0.086 0.094,-0.086 0.109,-0.086 0.094,0 0.102,0.035 0.121,0.109 0.176,0.57 0.469,0.809 0.715,0.809 0.106,0 0.164,-0.051 0.164,-0.231 0,-0.152 -0.039,-0.254 -0.207,-0.664 l -0.418,-1.074 z"
         style="fill:#0000ff;fill-opacity:1;fill-rule:evenodd;stroke:none"
         id="path106" /><path
         d="m 50.484,30.617 0,0.067 -0.004,0.066 -0.007,0.125 -0.012,0.121 -0.016,0.113 -0.023,0.11 -0.024,0.105 -0.027,0.098 -0.031,0.094 -0.035,0.089 -0.039,0.086 -0.043,0.079 -0.047,0.074 -0.047,0.07 -0.051,0.066 -0.051,0.059 -0.054,0.059 -0.055,0.054 -0.059,0.047 -0.125,0.086 -0.062,0.035 -0.063,0.032 -0.066,0.031 -0.063,0.027 -0.066,0.024 -0.066,0.015 -0.067,0.02 -0.066,0.011 -0.133,0.016 -0.062,0.004 -0.067,0.004 -0.008,-0.203 c 0.907,0 0.907,-1.199 0.907,-1.914 0,-0.34 0,-0.871 0.015,-1.028 -0.805,-0.703 -1.508,-0.804 -1.875,-0.804 -0.551,0 -0.824,0.414 -0.824,1 0,0.449 0.238,1.437 0.531,1.902 0.43,0.672 0.926,0.844 1.246,0.844 l 0.008,0.203 c -1.254,0 -2.461,-1.313 -2.461,-2.602 0,-0.851 0.547,-1.547 1.481,-1.547 0.578,0 1.238,0.211 1.933,0.77 0.117,-0.484 0.422,-0.77 0.832,-0.77 0.489,0 0.77,0.504 0.77,0.649 0,0.066 -0.055,0.094 -0.11,0.094 -0.066,0 -0.093,-0.028 -0.121,-0.094 -0.164,-0.449 -0.492,-0.449 -0.511,-0.449 -0.282,0 -0.282,0.715 -0.282,0.933 0,0.196 0,0.211 0.09,0.321 0.86,1.082 1.055,2.144 1.055,2.152 0,0.019 -0.012,0.094 -0.113,0.094 -0.09,0 -0.09,-0.028 -0.137,-0.196 -0.164,-0.574 -0.465,-1.269 -0.895,-1.812 l 0,0.57 z"
         style="fill:#0000ff;fill-opacity:1;fill-rule:evenodd;stroke:none"
         id="path108" /><path
         d="m 53.891,31.172 0,0.012 -0.004,0.011 0,0.02 -0.004,0.012 -0.004,0.007 0,0.012 -0.004,0.012 -0.004,0.008 -0.004,0.011 -0.008,0.008 -0.004,0.012 -0.007,0.008 -0.004,0.011 -0.016,0.016 -0.008,0.012 -0.015,0.015 -0.012,0.008 -0.008,0.008 -0.012,0.008 -0.011,0.004 -0.012,0.008 -0.016,0.003 -0.023,0.008 -0.031,0.008 -0.032,0 -0.015,0.004 c -0.172,0 -0.36,-0.168 -0.36,-0.352 0,-0.109 0.082,-0.242 0.258,-0.242 0.188,0 0.36,0.176 0.36,0.348 z"
         style="fill:#0000ff;fill-opacity:1;fill-rule:evenodd;stroke:none"
         id="path110" /><path
         d="m 52.582,27.918 -0.012,-0.031 -0.011,-0.047 -0.008,-0.016 -0.016,-0.062 0,-0.02 -0.004,-0.015 -0.004,-0.02 0,-0.027 -0.004,-0.012 0,-0.02 c 0,-0.3 0.258,-0.543 0.61,-0.543 0.64,0 0.922,0.883 0.922,0.977 0,0.086 -0.082,0.086 -0.102,0.086 -0.09,0 -0.098,-0.039 -0.121,-0.109 -0.148,-0.512 -0.43,-0.774 -0.68,-0.774 -0.129,0 -0.16,0.082 -0.16,0.223 0,0.148 0.047,0.269 0.102,0.41 0.066,0.172 0.136,0.348 0.207,0.512 0.054,0.156 0.289,0.738 0.312,0.816 0.02,0.063 0.039,0.141 0.039,0.203 0,0.301 -0.257,0.547 -0.609,0.547 -0.633,0 -0.93,-0.871 -0.93,-0.98 0,-0.086 0.09,-0.086 0.11,-0.086 0.089,0 0.097,0.031 0.117,0.105 0.168,0.547 0.449,0.781 0.683,0.781 0.106,0 0.161,-0.05 0.161,-0.226 0,-0.145 -0.039,-0.242 -0.2,-0.637 l -0.402,-1.035 z"
         style="fill:#0000ff;fill-opacity:1;fill-rule:evenodd;stroke:none"
         id="path112" /><path
         d="m 15.406,30.641 0,0.066 -0.004,0.063 0,0.062 -0.004,0.063 -0.015,0.125 -0.012,0.113 -0.023,0.109 -0.024,0.106 -0.027,0.097 -0.035,0.094 -0.035,0.09 -0.079,0.164 -0.046,0.074 -0.047,0.071 -0.051,0.066 -0.109,0.117 -0.055,0.051 -0.059,0.051 -0.062,0.043 -0.125,0.078 -0.125,0.062 -0.133,0.047 -0.066,0.02 -0.133,0.031 -0.133,0.016 -0.063,0.003 -0.062,0 -0.012,-0.199 c 0.906,0 0.906,-1.203 0.906,-1.914 0,-0.34 0,-0.871 0.02,-1.027 -0.805,-0.703 -1.512,-0.805 -1.879,-0.805 -0.547,0 -0.82,0.414 -0.82,1 0,0.445 0.234,1.438 0.531,1.902 0.43,0.668 0.922,0.844 1.242,0.844 l 0.012,0.199 c -1.254,0 -2.465,-1.308 -2.465,-2.597 0,-0.852 0.551,-1.551 1.484,-1.551 0.575,0 1.235,0.215 1.93,0.773 0.121,-0.488 0.422,-0.773 0.836,-0.773 0.484,0 0.77,0.504 0.77,0.652 0,0.063 -0.059,0.09 -0.114,0.09 -0.062,0 -0.09,-0.027 -0.117,-0.09 -0.164,-0.449 -0.492,-0.449 -0.515,-0.449 -0.282,0 -0.282,0.715 -0.282,0.934 0,0.195 0,0.211 0.09,0.32 0.863,1.082 1.055,2.145 1.055,2.152 0,0.02 -0.008,0.094 -0.11,0.094 -0.093,0 -0.093,-0.031 -0.136,-0.195 -0.164,-0.578 -0.469,-1.27 -0.899,-1.813 l 0,0.571 z"
         style="fill:#0000ff;fill-opacity:1;fill-rule:evenodd;stroke:none"
         id="path114" /><path
         d="m 18.812,31.195 0,0.032 -0.003,0.011 0,0.008 -0.008,0.024 -0.004,0.007 -0.008,0.024 -0.004,0.008 -0.008,0.011 -0.007,0.016 -0.008,0.012 -0.008,0.007 -0.012,0.008 -0.004,0.012 -0.023,0.016 -0.008,0.007 -0.012,0.004 -0.023,0.016 -0.012,0.004 -0.015,0.004 -0.012,0.004 -0.016,0.004 -0.012,0.004 -0.031,0 -0.019,0.003 c -0.172,0 -0.356,-0.168 -0.356,-0.355 0,-0.106 0.082,-0.242 0.254,-0.242 0.188,0 0.359,0.179 0.359,0.351 z"
         style="fill:#0000ff;fill-opacity:1;fill-rule:evenodd;stroke:none"
         id="path116" /><path
         d="m 17.504,27.941 -0.016,-0.062 -0.008,-0.016 -0.007,-0.031 -0.008,-0.016 -0.004,-0.015 0,-0.02 -0.008,-0.031 0,-0.02 -0.004,-0.011 0,-0.047 c 0,-0.301 0.258,-0.547 0.606,-0.547 0.644,0 0.925,0.887 0.925,0.98 0,0.086 -0.085,0.086 -0.105,0.086 -0.086,0 -0.094,-0.039 -0.121,-0.109 -0.145,-0.512 -0.426,-0.773 -0.676,-0.773 -0.129,0 -0.164,0.082 -0.164,0.222 0,0.149 0.047,0.27 0.106,0.41 0.062,0.172 0.132,0.344 0.203,0.512 0.058,0.156 0.289,0.738 0.316,0.817 0.016,0.062 0.039,0.14 0.039,0.203 0,0.3 -0.258,0.547 -0.609,0.547 -0.637,0 -0.93,-0.872 -0.93,-0.985 0,-0.082 0.09,-0.082 0.109,-0.082 0.09,0 0.094,0.031 0.114,0.106 0.168,0.546 0.449,0.777 0.687,0.777 0.102,0 0.16,-0.051 0.16,-0.223 0,-0.148 -0.039,-0.242 -0.199,-0.64 l -0.406,-1.032 z"
         style="fill:#0000ff;fill-opacity:1;fill-rule:evenodd;stroke:none"
         id="path118" /></g></g></svg>