<?xml version="1.0" encoding="UTF-8" standalone="no"?>
<!-- Created with Inkscape (http://www.inkscape.org/) -->

<svg
   xmlns:dc="http://purl.org/dc/elements/1.1/"
   xmlns:cc="http://creativecommons.org/ns#"
   xmlns:rdf="http://www.w3.org/1999/02/22-rdf-syntax-ns#"
   xmlns:svg="http://www.w3.org/2000/svg"
   xmlns="http://www.w3.org/2000/svg"
   xmlns:sodipodi="http://sodipodi.sourceforge.net/DTD/sodipodi-0.dtd"
   xmlns:inkscape="http://www.inkscape.org/namespaces/inkscape"
   id="svg2"
   version="1.1"
   inkscape:version="0.48.4 r9939"
   width="180.63776"
   height="100.63775"
   xml:space="preserve"
   sodipodi:docname="section1_fig66.pdf"><metadata
     id="metadata8"><rdf:RDF><cc:Work
         rdf:about=""><dc:format>image/svg+xml</dc:format><dc:type
           rdf:resource="http://purl.org/dc/dcmitype/StillImage" /><dc:title></dc:title></cc:Work></rdf:RDF></metadata><defs
     id="defs6" /><sodipodi:namedview
     pagecolor="#ffffff"
     bordercolor="#666666"
     borderopacity="1"
     objecttolerance="10"
     gridtolerance="10"
     guidetolerance="10"
     inkscape:pageopacity="0"
     inkscape:pageshadow="2"
     inkscape:window-width="640"
     inkscape:window-height="480"
     id="namedview4"
     showgrid="false"
     inkscape:zoom="1.9320435"
     inkscape:cx="90.318878"
     inkscape:cy="50.318874"
     inkscape:window-x="1409"
     inkscape:window-y="24"
     inkscape:window-maximized="0"
     inkscape:current-layer="g10" /><g
     id="g10"
     inkscape:groupmode="layer"
     inkscape:label="section1_fig66"
     transform="matrix(1.25,0,0,-1.25,0,100.63775)"><g
       id="g12"><path
         d="m 40.199,16.397 0.02,13.277"
         style="fill:none;stroke:#000000;stroke-opacity:1;stroke-width:0.8;stroke-linecap:butt;stroke-linejoin:miter;stroke-miterlimit:4;stroke-dasharray:none"
         id="path14" /><g
         id="g16"
         transform="matrix(0.00157575,1,1,-0.00157575,0,80.510201)"><path
           d="m -48.925,40.3 -2.767,1.598 -10e-4,-3.199 2.768,1.601 z"
           style="fill:#000000;fill-opacity:1;fill-rule:evenodd;stroke:#000000;stroke-opacity:1;stroke-width:0.4;stroke-linecap:butt;stroke-linejoin:miter;stroke-miterlimit:4;stroke-dasharray:none"
           id="path18" /></g><path
         d="M 40.32,48.401 40.219,61.674"
         style="fill:none;stroke:#000000;stroke-opacity:1;stroke-width:0.8;stroke-linecap:butt;stroke-linejoin:miter;stroke-miterlimit:4;stroke-dasharray:none"
         id="path20" /><g
         id="g22"
         transform="matrix(-0.00760954,1,1,0.00760954,0,80.510201)"><path
           d="m -17.293,40.072 -2.77,1.6 10e-4,-3.2 2.769,1.6 z"
           style="fill:#000000;fill-opacity:1;fill-rule:evenodd;stroke:#000000;stroke-opacity:1;stroke-width:0.399988;stroke-linecap:butt;stroke-linejoin:miter;stroke-miterlimit:4;stroke-dasharray:none"
           id="path24" /></g><path
         d="M 48.434,40.002 61.711,39.979"
         style="fill:none;stroke:#000000;stroke-opacity:1;stroke-width:0.8;stroke-linecap:butt;stroke-linejoin:miter;stroke-miterlimit:4;stroke-dasharray:none"
         id="path26" /><g
         id="g28"
         transform="matrix(1,-0.00157575,-0.00157575,-1,0,80.510201)"><path
           d="m 63.622,40.431 -2.767,1.602 -10e-4,-3.199 2.768,1.597 z"
           style="fill:#000000;fill-opacity:1;fill-rule:evenodd;stroke:#000000;stroke-opacity:1;stroke-width:0.4;stroke-linecap:butt;stroke-linejoin:miter;stroke-miterlimit:4;stroke-dasharray:none"
           id="path30" /></g><path
         d="m 40.199,16.397 0.02,13.277"
         style="fill:none;stroke:#000000;stroke-opacity:1;stroke-width:0.8;stroke-linecap:butt;stroke-linejoin:miter;stroke-miterlimit:4;stroke-dasharray:none"
         id="path32" /><g
         id="g34"
         transform="matrix(0.00157575,1,1,-0.00157575,0,80.510201)"><path
           d="m -48.925,40.3 -2.767,1.598 -10e-4,-3.199 2.768,1.601 z"
           style="fill:#000000;fill-opacity:1;fill-rule:evenodd;stroke:#000000;stroke-opacity:1;stroke-width:0.4;stroke-linecap:butt;stroke-linejoin:miter;stroke-miterlimit:4;stroke-dasharray:none"
           id="path36" /></g><path
         d="M 40.32,48.401 40.219,61.674"
         style="fill:none;stroke:#000000;stroke-opacity:1;stroke-width:0.8;stroke-linecap:butt;stroke-linejoin:miter;stroke-miterlimit:4;stroke-dasharray:none"
         id="path38" /><g
         id="g40"
         transform="matrix(-0.00760954,1,1,0.00760954,0,80.510201)"><path
           d="m -17.293,40.072 -2.77,1.6 10e-4,-3.2 2.769,1.6 z"
           style="fill:#000000;fill-opacity:1;fill-rule:evenodd;stroke:#000000;stroke-opacity:1;stroke-width:0.399988;stroke-linecap:butt;stroke-linejoin:miter;stroke-miterlimit:4;stroke-dasharray:none"
           id="path42" /></g><path
         d="M 48.434,40.002 61.711,39.979"
         style="fill:none;stroke:#000000;stroke-opacity:1;stroke-width:0.8;stroke-linecap:butt;stroke-linejoin:miter;stroke-miterlimit:4;stroke-dasharray:none"
         id="path44" /><g
         id="g46"
         transform="matrix(1,-0.00157575,-0.00157575,-1,0,80.510201)"><path
           d="m 63.622,40.431 -2.767,1.602 -10e-4,-3.199 2.768,1.597 z"
           style="fill:#000000;fill-opacity:1;fill-rule:evenodd;stroke:#000000;stroke-opacity:1;stroke-width:0.4;stroke-linecap:butt;stroke-linejoin:miter;stroke-miterlimit:4;stroke-dasharray:none"
           id="path48" /></g><path
         d="m 72.199,16.397 0.02,13.277"
         style="fill:none;stroke:#000000;stroke-opacity:1;stroke-width:0.8;stroke-linecap:butt;stroke-linejoin:miter;stroke-miterlimit:4;stroke-dasharray:none"
         id="path50" /><g
         id="g52"
         transform="matrix(0.00157575,1,1,-0.00157575,0,80.510201)"><path
           d="m -48.874,72.3 -2.767,1.598 -0.002,-3.199 2.769,1.601 z"
           style="fill:#000000;fill-opacity:1;fill-rule:evenodd;stroke:#000000;stroke-opacity:1;stroke-width:0.4;stroke-linecap:butt;stroke-linejoin:miter;stroke-miterlimit:4;stroke-dasharray:none"
           id="path54" /></g><path
         d="M 72.32,48.401 72.219,61.674"
         style="fill:none;stroke:#000000;stroke-opacity:1;stroke-width:0.8;stroke-linecap:butt;stroke-linejoin:miter;stroke-miterlimit:4;stroke-dasharray:none"
         id="path56" /><g
         id="g58"
         transform="matrix(-0.00760954,1,1,0.00760954,0,80.510201)"><path
           d="m -17.537,72.07 -2.77,1.6 10e-4,-3.2 2.769,1.6 z"
           style="fill:#000000;fill-opacity:1;fill-rule:evenodd;stroke:#000000;stroke-opacity:1;stroke-width:0.399988;stroke-linecap:butt;stroke-linejoin:miter;stroke-miterlimit:4;stroke-dasharray:none"
           id="path60" /></g><path
         d="M 80.434,40.002 93.711,39.979"
         style="fill:none;stroke:#000000;stroke-opacity:1;stroke-width:0.8;stroke-linecap:butt;stroke-linejoin:miter;stroke-miterlimit:4;stroke-dasharray:none"
         id="path62" /><g
         id="g64"
         transform="matrix(1,-0.00157575,-0.00157575,-1,0,80.510201)"><path
           d="m 95.622,40.381 -2.767,1.602 -0.001,-3.2 2.768,1.598 z"
           style="fill:#000000;fill-opacity:1;fill-rule:evenodd;stroke:#000000;stroke-opacity:1;stroke-width:0.4;stroke-linecap:butt;stroke-linejoin:miter;stroke-miterlimit:4;stroke-dasharray:none"
           id="path66" /></g><path
         d="m 72.199,16.397 0.02,13.277"
         style="fill:none;stroke:#000000;stroke-opacity:1;stroke-width:0.8;stroke-linecap:butt;stroke-linejoin:miter;stroke-miterlimit:4;stroke-dasharray:none"
         id="path68" /><g
         id="g70"
         transform="matrix(0.00157575,1,1,-0.00157575,0,80.510201)"><path
           d="m -48.874,72.3 -2.767,1.598 -0.002,-3.199 2.769,1.601 z"
           style="fill:#000000;fill-opacity:1;fill-rule:evenodd;stroke:#000000;stroke-opacity:1;stroke-width:0.4;stroke-linecap:butt;stroke-linejoin:miter;stroke-miterlimit:4;stroke-dasharray:none"
           id="path72" /></g><path
         d="M 72.32,48.401 72.219,61.674"
         style="fill:none;stroke:#000000;stroke-opacity:1;stroke-width:0.8;stroke-linecap:butt;stroke-linejoin:miter;stroke-miterlimit:4;stroke-dasharray:none"
         id="path74" /><g
         id="g76"
         transform="matrix(-0.00760954,1,1,0.00760954,0,80.510201)"><path
           d="m -17.537,72.07 -2.77,1.6 10e-4,-3.2 2.769,1.6 z"
           style="fill:#000000;fill-opacity:1;fill-rule:evenodd;stroke:#000000;stroke-opacity:1;stroke-width:0.399988;stroke-linecap:butt;stroke-linejoin:miter;stroke-miterlimit:4;stroke-dasharray:none"
           id="path78" /></g><path
         d="M 80.434,40.002 93.711,39.979"
         style="fill:none;stroke:#000000;stroke-opacity:1;stroke-width:0.8;stroke-linecap:butt;stroke-linejoin:miter;stroke-miterlimit:4;stroke-dasharray:none"
         id="path80" /><g
         id="g82"
         transform="matrix(1,-0.00157575,-0.00157575,-1,0,80.510201)"><path
           d="m 95.622,40.381 -2.767,1.602 -0.001,-3.2 2.768,1.598 z"
           style="fill:#000000;fill-opacity:1;fill-rule:evenodd;stroke:#000000;stroke-opacity:1;stroke-width:0.4;stroke-linecap:butt;stroke-linejoin:miter;stroke-miterlimit:4;stroke-dasharray:none"
           id="path84" /></g><path
         d="m 104.199,16.397 0.02,13.277"
         style="fill:none;stroke:#000000;stroke-opacity:1;stroke-width:0.8;stroke-linecap:butt;stroke-linejoin:miter;stroke-miterlimit:4;stroke-dasharray:none"
         id="path86" /><g
         id="g88"
         transform="matrix(0.00157575,1,1,-0.00157575,0,80.510201)"><path
           d="m -48.824,104.3 -2.767,1.598 -10e-4,-3.2 2.768,1.602 z"
           style="fill:#000000;fill-opacity:1;fill-rule:evenodd;stroke:#000000;stroke-opacity:1;stroke-width:0.4;stroke-linecap:butt;stroke-linejoin:miter;stroke-miterlimit:4;stroke-dasharray:none"
           id="path90" /></g><path
         d="m 104.32,48.401 -0.101,13.273"
         style="fill:none;stroke:#000000;stroke-opacity:1;stroke-width:0.8;stroke-linecap:butt;stroke-linejoin:miter;stroke-miterlimit:4;stroke-dasharray:none"
         id="path92" /><g
         id="g94"
         transform="matrix(-0.00760954,1,1,0.00760954,0,80.510201)"><path
           d="m -17.78,104.068 -2.77,1.6 0.001,-3.199 2.769,1.599 z"
           style="fill:#000000;fill-opacity:1;fill-rule:evenodd;stroke:#000000;stroke-opacity:1;stroke-width:0.399988;stroke-linecap:butt;stroke-linejoin:miter;stroke-miterlimit:4;stroke-dasharray:none"
           id="path96" /></g><path
         d="m 112.434,40.002 13.277,-0.023"
         style="fill:none;stroke:#000000;stroke-opacity:1;stroke-width:0.8;stroke-linecap:butt;stroke-linejoin:miter;stroke-miterlimit:4;stroke-dasharray:1.6,0.8;stroke-dashoffset:0"
         id="path98" /><g
         id="g100"
         transform="matrix(1,-0.00157575,-0.00157575,-1,0,80.510201)"><path
           d="m 127.622,40.33 -2.767,1.602 -0.001,-3.199 2.768,1.597 z"
           style="fill:#000000;fill-opacity:1;fill-rule:evenodd;stroke:#000000;stroke-opacity:1;stroke-width:0.4;stroke-linecap:butt;stroke-linejoin:miter;stroke-miterlimit:4;stroke-dasharray:none"
           id="path102" /></g><path
         d="m 104.199,16.397 0.02,13.277"
         style="fill:none;stroke:#000000;stroke-opacity:1;stroke-width:0.8;stroke-linecap:butt;stroke-linejoin:miter;stroke-miterlimit:4;stroke-dasharray:none"
         id="path104" /><g
         id="g106"
         transform="matrix(0.00157575,1,1,-0.00157575,0,80.510201)"><path
           d="m -48.824,104.3 -2.767,1.598 -10e-4,-3.2 2.768,1.602 z"
           style="fill:#000000;fill-opacity:1;fill-rule:evenodd;stroke:#000000;stroke-opacity:1;stroke-width:0.4;stroke-linecap:butt;stroke-linejoin:miter;stroke-miterlimit:4;stroke-dasharray:none"
           id="path108" /></g><path
         d="m 104.32,48.401 -0.101,13.273"
         style="fill:none;stroke:#000000;stroke-opacity:1;stroke-width:0.8;stroke-linecap:butt;stroke-linejoin:miter;stroke-miterlimit:4;stroke-dasharray:none"
         id="path110" /><g
         id="g112"
         transform="matrix(-0.00760954,1,1,0.00760954,0,80.510201)"><path
           d="m -17.78,104.068 -2.77,1.6 0.001,-3.199 2.769,1.599 z"
           style="fill:#000000;fill-opacity:1;fill-rule:evenodd;stroke:#000000;stroke-opacity:1;stroke-width:0.399988;stroke-linecap:butt;stroke-linejoin:miter;stroke-miterlimit:4;stroke-dasharray:none"
           id="path114" /></g><path
         d="M 16.434,40.002 29.711,39.979"
         style="fill:none;stroke:#000000;stroke-opacity:1;stroke-width:0.8;stroke-linecap:butt;stroke-linejoin:miter;stroke-miterlimit:4;stroke-dasharray:1.6,0.8;stroke-dashoffset:0"
         id="path116" /><g
         id="g118"
         transform="matrix(1,-0.00157575,-0.00157575,-1,0,80.510201)"><path
           d="m 31.622,40.481 -2.767,1.602 -0.001,-3.199 2.768,1.597 z"
           style="fill:#000000;fill-opacity:1;fill-rule:evenodd;stroke:#000000;stroke-opacity:1;stroke-width:0.4;stroke-linecap:butt;stroke-linejoin:miter;stroke-miterlimit:4;stroke-dasharray:none"
           id="path120" /></g><path
         d="m 35.059,38.756 0,-0.023 -0.004,-0.024 0,-0.039 -0.004,-0.019 0,-0.016 L 35.047,38.62 35.043,38.608 35.035,38.592 35.031,38.581 35.023,38.569 35.016,38.561 35.008,38.549 35,38.541 34.988,38.538 34.965,38.522 34.953,38.518 34.922,38.51 l -0.02,-0.004 -0.019,0 -0.02,-0.004 -0.043,0 -0.011,-0.004 -0.2,0 0,-0.179 1.289,0 0,0.179 c -0.382,0 -0.445,0 -0.445,0.258 l 0,1.055 c 0,0.594 0.406,0.914 0.774,0.914 0.359,0 0.425,-0.309 0.425,-0.637 l 0,-1.332 c 0,-0.258 -0.066,-0.258 -0.449,-0.258 l 0,-0.179 1.289,0 0,0.179 c -0.297,0 -0.441,0 -0.445,0.172 l 0,1.094 c 0,0.492 0,0.668 -0.18,0.875 -0.078,0.098 -0.269,0.215 -0.601,0.215 -0.481,0 -0.735,-0.344 -0.828,-0.563 l 0,2.004 -0.829,-0.062 0,-0.176 c 0.403,0 0.45,-0.043 0.45,-0.324 l 0,-2.977 z"
         style="fill:#000000;fill-opacity:1;fill-rule:evenodd;stroke:none"
         id="path122" /><path
         d="m 34.426,37.401 3.191,0 0,0.234 -3.191,0"
         style="fill:#000000;fill-opacity:1;fill-rule:nonzero;stroke:none"
         id="path124" /><path
         d="m 38.797,42.928 0,0.008 0.004,0 0,0.012 0.004,0 0,0.011 c 0,0.012 -0.004,0.039 -0.047,0.039 -0.059,0 -0.797,-0.457 -0.797,-1.433 0,-0.969 0.738,-1.43 0.797,-1.43 0.043,0 0.047,0.028 0.047,0.039 0,0.02 -0.012,0.028 -0.024,0.039 -0.508,0.403 -0.597,0.985 -0.597,1.352 0,0.703 0.324,1.164 0.613,1.363 z"
         style="fill:#000000;fill-opacity:1;fill-rule:evenodd;stroke:none"
         id="path126" /><path
         d="m 40.043,41.956 0.336,0 c 0.062,0 0.066,0.003 0.078,0.015 0.016,0.012 0.023,0.047 0.023,0.067 0,0.046 -0.042,0.046 -0.089,0.046 l -0.317,0 0.059,0.239 c 0.019,0.074 0.055,0.203 0.055,0.218 0,0.051 -0.04,0.102 -0.11,0.102 -0.047,0 -0.117,-0.031 -0.137,-0.109 -0.015,-0.047 0.02,0.086 -0.117,-0.45 l -0.34,0 c -0.058,0 -0.101,0 -0.101,-0.078 0,-0.05 0.039,-0.05 0.094,-0.05 l 0.316,0 -0.168,-0.672 c -0.016,-0.063 -0.039,-0.153 -0.039,-0.188 0,-0.164 0.152,-0.277 0.355,-0.277 0.344,0 0.555,0.387 0.555,0.445 0,0.039 -0.047,0.039 -0.058,0.039 -0.047,0 -0.051,-0.012 -0.067,-0.051 -0.094,-0.203 -0.269,-0.336 -0.422,-0.336 -0.09,0 -0.117,0.067 -0.117,0.153 0,0.043 0,0.054 0.008,0.078 l 0.203,0.809 z"
         style="fill:#000000;fill-opacity:1;fill-rule:evenodd;stroke:none"
         id="path128" /><path
         d="m 43.273,41.487 0.051,0 0.004,0.004 0.012,0 0.004,0.004 0.008,0 0.003,0.003 0.008,0 0.008,0.008 0.004,0 0.004,0.004 0.004,0.008 0.004,0.004 0,0.004 0.004,0.004 0,0.004 0.004,0.004 0,0.019 0.003,0 0,0.008 c 0,0.082 -0.078,0.082 -0.125,0.082 l -1.941,0 c -0.043,0 -0.121,0 -0.121,-0.082 0,-0.078 0.078,-0.078 0.121,-0.078 l 1.941,0 z"
         style="fill:#000000;fill-opacity:1;fill-rule:evenodd;stroke:none"
         id="path130" /><path
         d="m 45,42.67 0,0.036 -0.004,0.003 0,0.016 -0.004,0.004 0,0.008 -0.012,0.011 -0.003,0 -0.004,0.004 -0.004,0 -0.004,0.004 -0.039,0 -0.004,0.004 -0.027,0 c -0.204,-0.187 -0.52,-0.187 -0.579,-0.187 l -0.046,0 0,-0.125 0.046,0 c 0.067,0 0.254,0.008 0.418,0.082 l 0,-1.434 c 0,-0.09 0,-0.121 -0.304,-0.121 l -0.141,0 0,-0.125 1.156,0 0,0.125 -0.144,0 C 45,40.975 45,41.006 45,41.096 l 0,1.574 z"
         style="fill:#000000;fill-opacity:1;fill-rule:evenodd;stroke:none"
         id="path132" /><path
         d="m 46.934,41.565 0,0.09 -0.004,0.047 -0.004,0.043 -0.024,0.164 -0.015,0.074 -0.024,0.078 -0.019,0.07 -0.028,0.071 -0.027,0.066 -0.027,0.063 -0.063,0.117 -0.035,0.054 -0.035,0.051 -0.07,0.094 -0.036,0.043 -0.035,0.039 -0.039,0.039 -0.031,0.035 -0.035,0.031 -0.063,0.055 -0.031,0.024 -0.027,0.019 -0.028,0.016 -0.023,0.015 -0.039,0.024 -0.012,0.008 -0.012,0.003 -0.007,0 c -0.047,0 -0.047,-0.035 -0.047,-0.039 0,-0.003 0,-0.019 0.019,-0.039 0.43,-0.339 0.602,-0.839 0.602,-1.355 0,-0.258 -0.051,-0.527 -0.149,-0.762 -0.136,-0.324 -0.316,-0.484 -0.457,-0.597 -0.007,-0.004 -0.015,-0.02 -0.015,-0.032 0,-0.008 0,-0.039 0.047,-0.039 0.058,0 0.793,0.457 0.793,1.43 z"
         style="fill:#000000;fill-opacity:1;fill-rule:evenodd;stroke:none"
         id="path134" /><path
         d="m 98.984,38.647 0,-0.086 -0.007,-0.031 0,-0.016 -0.008,-0.016 -0.008,-0.023 -0.016,-0.023 -0.015,-0.016 -0.024,-0.016 -0.011,-0.004 -0.016,-0.003 -0.012,-0.004 -0.019,-0.004 -0.016,-0.004 -0.02,-0.004 -0.019,0 -0.023,-0.004 -0.118,0 -0.011,-0.004 -0.102,0 0,-0.176 1.289,0 0,0.176 c -0.383,0 -0.445,0 -0.445,0.258 l 0,1.055 c 0,0.597 0.406,0.918 0.773,0.918 0.36,0 0.422,-0.309 0.422,-0.637 l 0,-1.336 c 0,-0.258 -0.062,-0.258 -0.445,-0.258 l 0,-0.176 1.289,0 0,0.176 c -0.297,0 -0.442,0 -0.445,0.172 l 0,1.094 c 0,0.496 0,0.672 -0.18,0.879 -0.082,0.097 -0.27,0.211 -0.602,0.211 -0.48,0 -0.734,-0.344 -0.832,-0.559 l 0,2.004 -0.824,-0.063 0,-0.179 c 0.402,0 0.445,-0.039 0.445,-0.321 l 0,-2.98 z"
         style="fill:#000000;fill-opacity:1;fill-rule:evenodd;stroke:none"
         id="path136" /><path
         d="m 98.355,37.291 3.188,0 0,0.235 -3.188,0"
         style="fill:#000000;fill-opacity:1;fill-rule:nonzero;stroke:none"
         id="path138" /><path
         d="m 102.723,42.823 0.004,0 0,0.008 0.003,0 0,0.015 0.004,0 0,0.004 c 0,0.012 -0.007,0.043 -0.05,0.043 -0.055,0 -0.793,-0.461 -0.793,-1.434 0,-0.968 0.738,-1.433 0.793,-1.433 0.043,0 0.05,0.031 0.05,0.043 0,0.019 -0.011,0.027 -0.023,0.035 -0.508,0.406 -0.602,0.988 -0.602,1.355 0,0.704 0.325,1.164 0.614,1.364 z"
         style="fill:#000000;fill-opacity:1;fill-rule:evenodd;stroke:none"
         id="path140" /><path
         d="m 103.973,41.85 0.336,0 c 0.058,0 0.062,0 0.078,0.012 0.015,0.011 0.023,0.051 0.023,0.066 0,0.051 -0.043,0.051 -0.094,0.051 l -0.316,0 0.062,0.238 c 0.02,0.074 0.051,0.203 0.051,0.219 0,0.047 -0.035,0.102 -0.105,0.102 -0.047,0 -0.117,-0.032 -0.141,-0.11 -0.012,-0.051 0.02,0.086 -0.113,-0.449 l -0.344,0 c -0.055,0 -0.098,0 -0.098,-0.082 0,-0.047 0.04,-0.047 0.09,-0.047 l 0.321,0 -0.172,-0.676 c -0.012,-0.062 -0.035,-0.152 -0.035,-0.183 0,-0.164 0.152,-0.278 0.351,-0.278 0.348,0 0.559,0.387 0.559,0.442 0,0.039 -0.047,0.039 -0.059,0.039 -0.047,0 -0.051,-0.008 -0.066,-0.047 -0.094,-0.207 -0.274,-0.34 -0.422,-0.34 -0.09,0 -0.121,0.066 -0.121,0.152 0,0.047 0.004,0.055 0.008,0.082 l 0.207,0.809 z"
         style="fill:#000000;fill-opacity:1;fill-rule:evenodd;stroke:none"
         id="path142" /><path
         d="m 106.234,41.377 0.996,0 c 0.04,0 0.114,0 0.114,0.082 0,0.082 -0.074,0.082 -0.114,0.082 l -0.996,0 0,0.997 c 0,0.039 0,0.117 -0.082,0.117 -0.078,0 -0.078,-0.078 -0.078,-0.117 l 0,-0.997 -1,0 c -0.039,0 -0.117,0 -0.117,-0.082 0,-0.082 0.078,-0.082 0.117,-0.082 l 1,0 0,-0.996 c 0,-0.039 0,-0.117 0.078,-0.117 0.082,0 0.082,0.078 0.082,0.117 l 0,0.996 z"
         style="fill:#000000;fill-opacity:1;fill-rule:evenodd;stroke:none"
         id="path144" /><path
         d="m 108.695,42.565 0,0.055 -0.004,0.003 0,0.008 -0.003,0 -0.004,0.004 0,0.004 -0.004,0 0,0.004 -0.004,0 -0.004,0.004 -0.012,0 -0.004,0.004 -0.062,0 c -0.203,-0.184 -0.52,-0.184 -0.578,-0.184 l -0.051,0 0,-0.125 0.051,0 c 0.066,0 0.254,0.008 0.418,0.078 l 0,-1.429 c 0,-0.09 0,-0.121 -0.305,-0.121 l -0.145,0 0,-0.125 1.161,0 0,0.125 -0.145,0 c -0.305,0 -0.305,0.031 -0.305,0.121 l 0,1.574 z"
         style="fill:#000000;fill-opacity:1;fill-rule:evenodd;stroke:none"
         id="path146" /><path
         d="m 110.633,41.459 0,0.047 -0.004,0.043 0,0.043 -0.004,0.043 -0.012,0.086 -0.011,0.078 -0.016,0.078 -0.024,0.075 -0.019,0.074 -0.055,0.133 -0.027,0.062 -0.031,0.063 -0.032,0.054 -0.035,0.055 -0.07,0.102 -0.035,0.046 -0.035,0.04 -0.039,0.042 -0.102,0.102 -0.035,0.031 -0.031,0.024 -0.028,0.023 -0.031,0.024 -0.047,0.031 -0.019,0.012 -0.02,0.007 -0.031,0.016 c -0.047,0 -0.047,-0.035 -0.047,-0.043 0,-0.004 0,-0.019 0.016,-0.035 0.433,-0.344 0.601,-0.84 0.601,-1.356 0,-0.257 -0.047,-0.527 -0.144,-0.761 -0.137,-0.328 -0.321,-0.485 -0.457,-0.602 -0.012,-0.004 -0.016,-0.019 -0.016,-0.027 0,-0.008 0,-0.043 0.047,-0.043 0.055,0 0.793,0.461 0.793,1.433 z"
         style="fill:#000000;fill-opacity:1;fill-rule:evenodd;stroke:none"
         id="path148" /><path
         d="m 69.484,38.721 0,-0.086 -0.004,-0.019 -0.003,-0.016 0,-0.016 -0.008,-0.015 -0.008,-0.024 -0.008,-0.011 -0.008,-0.008 -0.007,-0.012 -0.008,-0.008 -0.012,-0.004 -0.023,-0.015 -0.016,-0.004 -0.012,-0.004 -0.019,-0.004 -0.016,-0.004 -0.02,0 -0.019,-0.004 -0.023,0 -0.012,-0.004 -0.106,0 -0.011,-0.004 -0.102,0 0,-0.175 1.289,0 0,0.175 c -0.383,0 -0.445,0 -0.445,0.262 l 0,1.051 c 0,0.598 0.406,0.918 0.773,0.918 0.36,0 0.422,-0.309 0.422,-0.637 l 0,-1.332 c 0,-0.262 -0.062,-0.262 -0.445,-0.262 l 0,-0.175 1.289,0 0,0.175 c -0.297,0 -0.442,0 -0.445,0.176 l 0,1.094 c 0,0.492 0,0.668 -0.18,0.875 -0.082,0.098 -0.27,0.215 -0.602,0.215 -0.48,0 -0.734,-0.348 -0.832,-0.563 l 0,2.004 -0.824,-0.062 0,-0.18 c 0.402,0 0.445,-0.039 0.445,-0.32 l 0,-2.977 z"
         style="fill:#000000;fill-opacity:1;fill-rule:evenodd;stroke:none"
         id="path150" /><path
         d="m 68.855,37.366 3.188,0 0,0.234 -3.188,0"
         style="fill:#000000;fill-opacity:1;fill-rule:nonzero;stroke:none"
         id="path152" /><path
         d="m 73.223,42.893 0,0.004 0.004,0 0,0.004 0.003,0.004 0,0.011 0.004,0 0,0.008 c 0,0.012 -0.007,0.039 -0.05,0.039 -0.055,0 -0.793,-0.457 -0.793,-1.433 0,-0.969 0.738,-1.434 0.793,-1.434 0.043,0 0.05,0.031 0.05,0.043 0,0.02 -0.011,0.027 -0.023,0.039 -0.508,0.403 -0.602,0.985 -0.602,1.352 0,0.703 0.325,1.164 0.614,1.363 z"
         style="fill:#000000;fill-opacity:1;fill-rule:evenodd;stroke:none"
         id="path154" /><path
         d="m 74.473,41.92 0.336,0 c 0.058,0 0.062,0.004 0.078,0.016 0.015,0.012 0.023,0.047 0.023,0.062 0,0.051 -0.043,0.051 -0.094,0.051 l -0.316,0 0.062,0.239 c 0.02,0.074 0.051,0.203 0.051,0.218 0,0.051 -0.035,0.102 -0.105,0.102 -0.047,0 -0.117,-0.031 -0.141,-0.11 -0.012,-0.046 0.02,0.086 -0.113,-0.449 l -0.344,0 c -0.055,0 -0.098,0 -0.098,-0.078 0,-0.051 0.04,-0.051 0.09,-0.051 l 0.321,0 -0.172,-0.672 c -0.012,-0.066 -0.035,-0.152 -0.035,-0.187 0,-0.164 0.152,-0.277 0.351,-0.277 0.348,0 0.559,0.386 0.559,0.445 0,0.039 -0.047,0.039 -0.059,0.039 -0.047,0 -0.051,-0.012 -0.066,-0.051 -0.094,-0.203 -0.274,-0.336 -0.422,-0.336 -0.09,0 -0.121,0.063 -0.121,0.153 0,0.043 0.004,0.054 0.008,0.078 l 0.207,0.808 z"
         style="fill:#000000;fill-opacity:1;fill-rule:evenodd;stroke:none"
         id="path156" /><path
         d="m 76.301,41.53 0,0.09 -0.004,0.046 -0.004,0.04 -0.008,0.085 -0.015,0.082 -0.016,0.075 -0.02,0.074 -0.023,0.074 -0.023,0.07 -0.032,0.063 -0.027,0.066 -0.063,0.118 -0.035,0.05 -0.035,0.055 -0.07,0.094 -0.035,0.043 -0.071,0.078 -0.035,0.035 -0.035,0.031 -0.062,0.055 -0.032,0.023 -0.027,0.02 -0.027,0.016 -0.024,0.015 -0.019,0.012 -0.016,0.012 -0.016,0.004 -0.011,0.007 -0.008,0 c -0.047,0 -0.047,-0.035 -0.047,-0.039 0,-0.004 0,-0.019 0.019,-0.039 0.43,-0.34 0.602,-0.84 0.602,-1.355 0,-0.258 -0.051,-0.528 -0.148,-0.762 -0.137,-0.324 -0.317,-0.484 -0.457,-0.598 -0.008,-0.004 -0.016,-0.019 -0.016,-0.031 0,-0.008 0,-0.043 0.047,-0.043 0.058,0 0.793,0.461 0.793,1.434 z"
         style="fill:#000000;fill-opacity:1;fill-rule:evenodd;stroke:none"
         id="path158" /><path
         d="m 4.484,38.686 0,-0.086 -0.004,-0.019 -0.003,-0.016 0,-0.016 L 4.469,38.534 4.461,38.51 4.453,38.498 4.445,38.491 4.438,38.479 4.43,38.471 4.418,38.463 4.406,38.459 4.395,38.452 4.379,38.448 4.367,38.444 4.348,38.44 4.332,38.436 l -0.02,-0.004 -0.042,0 -0.012,-0.004 -0.106,0 -0.011,-0.004 -0.102,0 0,-0.176 1.289,0 0,0.176 c -0.383,0 -0.445,0 -0.445,0.262 l 0,1.051 c 0,0.597 0.406,0.918 0.773,0.918 0.36,0 0.422,-0.309 0.422,-0.637 l 0,-1.332 c 0,-0.262 -0.062,-0.262 -0.445,-0.262 l 0,-0.176 1.289,0 0,0.176 c -0.297,0 -0.442,0 -0.445,0.176 l 0,1.094 c 0,0.492 0,0.668 -0.18,0.875 -0.082,0.097 -0.27,0.211 -0.602,0.211 -0.48,0 -0.734,-0.344 -0.832,-0.559 l 0,2.004 -0.824,-0.062 0,-0.18 c 0.402,0 0.445,-0.039 0.445,-0.32 l 0,-2.977 z"
         style="fill:#000000;fill-opacity:1;fill-rule:evenodd;stroke:none"
         id="path160" /><path
         d="m 3.855,37.327 3.188,0 0,0.238 -3.188,0"
         style="fill:#000000;fill-opacity:1;fill-rule:nonzero;stroke:none"
         id="path162" /><path
         d="m 8.223,42.858 0.004,0 0,0.008 0.003,0 0,0.015 0.004,0 0,0.004 c 0,0.012 -0.007,0.043 -0.05,0.043 -0.055,0 -0.793,-0.457 -0.793,-1.433 0,-0.969 0.738,-1.434 0.793,-1.434 0.043,0 0.05,0.031 0.05,0.043 0,0.019 -0.011,0.027 -0.023,0.035 -0.508,0.406 -0.602,0.988 -0.602,1.356 0,0.703 0.325,1.164 0.614,1.363 z"
         style="fill:#000000;fill-opacity:1;fill-rule:evenodd;stroke:none"
         id="path164" /><path
         d="m 9.402,40.956 0,0.023 -0.007,0.016 0,0.007 -0.004,0.012 -0.008,0.016 0,0.008 -0.008,0.003 -0.012,0.024 -0.008,0.004 -0.003,0.008 -0.008,0.007 -0.008,0.004 -0.004,0.004 -0.008,0.004 -0.008,0.008 -0.007,0.004 -0.004,0.004 -0.012,0.004 -0.008,0 -0.015,0.007 -0.008,0 -0.008,0.004 -0.027,0 c -0.094,0 -0.176,-0.078 -0.176,-0.171 0,-0.098 0.082,-0.176 0.176,-0.176 0.097,0 0.175,0.078 0.175,0.176 z"
         style="fill:#000000;fill-opacity:1;fill-rule:evenodd;stroke:none"
         id="path166" /><path
         d="m 10.668,40.956 0,0.015 -0.004,0.008 0,0.008 -0.004,0.008 0,0.007 -0.004,0.012 -0.011,0.024 -0.004,0.003 -0.008,0.016 -0.012,0.012 -0.004,0.008 -0.008,0.007 -0.007,0.004 -0.004,0.004 -0.008,0.004 -0.008,0.008 -0.023,0.012 -0.008,0 -0.016,0.007 -0.008,0 -0.007,0.004 -0.028,0 c -0.094,0 -0.176,-0.078 -0.176,-0.171 0,-0.098 0.082,-0.176 0.176,-0.176 0.094,0 0.176,0.078 0.176,0.176 z"
         style="fill:#000000;fill-opacity:1;fill-rule:evenodd;stroke:none"
         id="path168" /><path
         d="m 11.934,40.956 0,0.015 -0.004,0.008 0,0.008 -0.004,0.008 0,0.007 -0.004,0.012 -0.012,0.024 -0.004,0.003 -0.008,0.016 -0.019,0.02 -0.004,0.007 -0.008,0.004 -0.004,0.004 -0.008,0.004 -0.007,0.008 -0.024,0.012 -0.008,0 -0.015,0.007 -0.008,0 -0.008,0.004 -0.027,0 c -0.094,0 -0.176,-0.078 -0.176,-0.171 0,-0.098 0.082,-0.176 0.176,-0.176 0.094,0 0.176,0.078 0.176,0.176 z"
         style="fill:#000000;fill-opacity:1;fill-rule:evenodd;stroke:none"
         id="path170" /><path
         d="m 13.602,41.495 0,0.089 -0.008,0.086 -0.012,0.086 -0.012,0.078 -0.015,0.079 -0.024,0.074 -0.019,0.074 -0.055,0.133 -0.027,0.062 -0.032,0.063 -0.031,0.054 -0.07,0.11 -0.07,0.094 -0.036,0.043 -0.035,0.039 -0.07,0.07 -0.035,0.031 -0.031,0.031 -0.032,0.028 -0.031,0.019 -0.027,0.024 -0.028,0.015 -0.023,0.016 -0.02,0.012 -0.015,0.011 -0.016,0.004 -0.012,0.004 -0.007,0.004 c -0.047,0 -0.047,-0.035 -0.047,-0.043 0,0 0,-0.019 0.019,-0.035 0.43,-0.34 0.602,-0.84 0.602,-1.355 0,-0.258 -0.051,-0.528 -0.149,-0.762 -0.136,-0.328 -0.316,-0.485 -0.457,-0.598 -0.007,-0.008 -0.015,-0.019 -0.015,-0.031 0,-0.008 0,-0.043 0.047,-0.043 0.058,0 0.793,0.461 0.793,1.434 z"
         style="fill:#000000;fill-opacity:1;fill-rule:evenodd;stroke:none"
         id="path172" /><path
         d="m 132.328,38.627 0,-0.066 -0.004,-0.02 0,-0.015 -0.004,-0.016 -0.004,-0.019 -0.007,-0.024 -0.012,-0.023 -0.008,-0.012 -0.008,-0.008 -0.011,-0.008 -0.008,-0.007 -0.012,-0.008 -0.012,-0.004 -0.015,-0.004 -0.016,-0.008 -0.016,-0.004 -0.015,0 -0.039,-0.008 -0.047,0 -0.012,-0.003 -0.195,0 0,-0.176 1.289,0 0,0.176 c -0.387,0 -0.449,0 -0.449,0.257 l 0,1.055 c 0,0.594 0.406,0.918 0.773,0.918 0.363,0 0.426,-0.312 0.426,-0.637 l 0,-1.336 c 0,-0.257 -0.063,-0.257 -0.449,-0.257 l 0,-0.176 1.289,0 0,0.176 c -0.297,0 -0.442,0 -0.446,0.171 l 0,1.094 c 0,0.492 0,0.672 -0.175,0.879 -0.082,0.094 -0.27,0.211 -0.602,0.211 -0.484,0 -0.734,-0.344 -0.832,-0.562 l 0,2.003 -0.824,-0.062 0,-0.176 c 0.398,0 0.445,-0.039 0.445,-0.32 l 0,-2.981 z"
         style="fill:#000000;fill-opacity:1;fill-rule:evenodd;stroke:none"
         id="path174" /><path
         d="m 131.699,37.272 3.188,0 0,0.234 -3.188,0"
         style="fill:#000000;fill-opacity:1;fill-rule:nonzero;stroke:none"
         id="path176" /><path
         d="m 136.066,42.803 0,0.004 0.004,0 0,0.008 0.004,0 0,0.016 c 0,0.011 -0.004,0.039 -0.047,0.039 -0.058,0 -0.793,-0.457 -0.793,-1.43 0,-0.973 0.735,-1.434 0.793,-1.434 0.043,0 0.047,0.028 0.047,0.039 0,0.02 -0.012,0.032 -0.023,0.039 -0.504,0.403 -0.598,0.985 -0.598,1.356 0,0.699 0.324,1.16 0.613,1.363 z"
         style="fill:#000000;fill-opacity:1;fill-rule:evenodd;stroke:none"
         id="path178" /><path
         d="m 137.246,40.897 0,0.008 -0.004,0.008 0,0.019 -0.008,0.016 0,0.008 -0.023,0.046 -0.008,0.004 -0.004,0.008 -0.023,0.024 -0.055,0.027 -0.008,0 -0.008,0.004 -0.007,0 -0.012,0.004 -0.016,0 c -0.093,0 -0.175,-0.082 -0.175,-0.176 0,-0.094 0.082,-0.176 0.175,-0.176 0.094,0 0.176,0.082 0.176,0.176 z"
         style="fill:#000000;fill-opacity:1;fill-rule:evenodd;stroke:none"
         id="path180" /><path
         d="m 138.508,40.897 0,0.035 -0.008,0.016 0,0.008 -0.023,0.046 -0.008,0.004 -0.004,0.008 -0.02,0.02 -0.007,0.004 -0.004,0.003 -0.047,0.024 -0.008,0 -0.012,0.004 -0.008,0 -0.007,0.004 -0.016,0 c -0.094,0 -0.176,-0.082 -0.176,-0.176 0,-0.094 0.082,-0.176 0.176,-0.176 0.094,0 0.172,0.082 0.172,0.176 z"
         style="fill:#000000;fill-opacity:1;fill-rule:evenodd;stroke:none"
         id="path182" /><path
         d="m 139.773,40.897 0,0.027 -0.003,0.008 0,0.008 -0.004,0.008 0,0.008 -0.02,0.039 -0.012,0.011 -0.004,0.008 -0.019,0.02 -0.008,0.004 -0.004,0.003 -0.047,0.024 -0.007,0 -0.012,0.004 -0.008,0 -0.008,0.004 -0.015,0 c -0.098,0 -0.176,-0.082 -0.176,-0.176 0,-0.094 0.078,-0.176 0.176,-0.176 0.093,0 0.171,0.082 0.171,0.176 z"
         style="fill:#000000;fill-opacity:1;fill-rule:evenodd;stroke:none"
         id="path184" /><path
         d="m 141.445,41.44 0,0.043 -0.004,0.047 0,0.043 -0.003,0.043 -0.024,0.164 -0.019,0.078 -0.02,0.074 -0.02,0.07 -0.027,0.071 -0.027,0.066 -0.028,0.063 -0.031,0.058 -0.035,0.059 -0.031,0.054 -0.035,0.051 -0.071,0.094 -0.039,0.043 -0.07,0.078 -0.066,0.067 -0.036,0.027 -0.031,0.027 -0.027,0.024 -0.031,0.019 -0.024,0.02 -0.023,0.015 -0.02,0.012 -0.019,0.008 -0.016,0.008 -0.012,0.004 -0.004,0 c -0.047,0 -0.047,-0.032 -0.047,-0.039 0,-0.004 0,-0.02 0.016,-0.036 0.43,-0.343 0.602,-0.839 0.602,-1.355 0,-0.258 -0.047,-0.527 -0.145,-0.762 -0.137,-0.328 -0.32,-0.484 -0.457,-0.601 -0.012,-0.004 -0.016,-0.02 -0.016,-0.032 0,-0.004 0,-0.039 0.047,-0.039 0.055,0 0.793,0.457 0.793,1.434 z"
         style="fill:#000000;fill-opacity:1;fill-rule:evenodd;stroke:none"
         id="path186" /><path
         d="m 36.07,7.811 0.035,0.039 0.032,0.043 0.035,0.043 0.035,0.047 0.07,0.086 0.035,0.047 0.106,0.129 0.031,0.039 0.035,0.039 0.016,0.019 0.012,0.02 0.015,0.015 0.016,0.02 0.031,0.031 0.012,0.016 0.012,0.012 c 0.179,0.207 0.414,0.292 0.683,0.3 l 0,0.176 -1.019,0 0,-0.176 c 0.117,-0.015 0.164,-0.086 0.164,-0.179 0,-0.09 -0.055,-0.164 -0.086,-0.2 L 35.984,7.928 35.539,8.51 c -0.051,0.055 -0.051,0.067 -0.051,0.102 0,0.086 0.086,0.136 0.2,0.144 l 0,0.176 -1.165,0 0,-0.176 c 0.403,0 0.407,-0.008 0.68,-0.351 L 35.77,7.666 35.23,6.983 C 34.953,6.651 34.617,6.639 34.496,6.639 l 0,-0.176 1.02,0 0,0.176 c -0.125,0.02 -0.164,0.094 -0.164,0.18 0,0.125 0.164,0.316 0.511,0.726 l 0.438,-0.574 c 0.047,-0.062 0.121,-0.152 0.121,-0.187 0,-0.051 -0.051,-0.137 -0.207,-0.145 l 0,-0.176 1.168,0 0,0.176 c -0.309,0 -0.41,0.012 -0.543,0.18 l -0.77,0.992 z"
         style="fill:#000000;fill-opacity:1;fill-rule:evenodd;stroke:none"
         id="path188" /><path
         d="m 34.426,5.541 3.039,0 0,0.235 -3.039,0"
         style="fill:#000000;fill-opacity:1;fill-rule:nonzero;stroke:none"
         id="path190" /><path
         d="m 38.68,10.612 0.004,0 0,0.011 0.004,0 0,0.012 0.003,0 0,0.008 c 0,0.012 -0.007,0.039 -0.05,0.039 -0.059,0 -0.793,-0.457 -0.793,-1.434 0,-0.968 0.734,-1.433 0.793,-1.433 0.043,0 0.05,0.031 0.05,0.043 0,0.019 -0.011,0.027 -0.023,0.035 -0.508,0.406 -0.602,0.988 -0.602,1.355 0,0.704 0.325,1.165 0.614,1.364 z"
         style="fill:#000000;fill-opacity:1;fill-rule:evenodd;stroke:none"
         id="path192" /><path
         d="m 39.812,9.639 0.34,0 c 0.059,0 0.063,0.004 0.075,0.016 0.015,0.011 0.023,0.047 0.023,0.062 0,0.051 -0.043,0.051 -0.09,0.051 l -0.316,0 0.058,0.238 c 0.02,0.075 0.055,0.203 0.055,0.219 0,0.051 -0.039,0.102 -0.109,0.102 -0.047,0 -0.118,-0.032 -0.137,-0.11 -0.016,-0.047 0.019,0.086 -0.117,-0.449 l -0.34,0 c -0.059,0 -0.102,0 -0.102,-0.082 0,-0.047 0.043,-0.047 0.094,-0.047 l 0.316,0 -0.167,-0.672 c -0.016,-0.066 -0.04,-0.152 -0.04,-0.187 0,-0.164 0.153,-0.278 0.356,-0.278 0.344,0 0.559,0.387 0.559,0.446 0,0.039 -0.051,0.039 -0.063,0.039 -0.047,0 -0.051,-0.012 -0.066,-0.051 C 40.047,8.729 39.871,8.6 39.719,8.6 c -0.09,0 -0.117,0.063 -0.117,0.152 0,0.043 0,0.055 0.007,0.079 l 0.203,0.808 z"
         style="fill:#000000;fill-opacity:1;fill-rule:evenodd;stroke:none"
         id="path194" /><path
         d="m 43.043,9.17 0.051,0 0.004,0.004 0.015,0 0.004,0.004 0.004,0 0.008,0.004 0.004,0 0.008,0.008 0.004,0 0.007,0.008 0,0.004 0.004,0 0,0.007 0.004,0.004 0,0.004 0.004,0.004 0,0.008 0.004,0.004 0,0.015 c 0,0.083 -0.078,0.083 -0.125,0.083 l -1.938,0 c -0.046,0 -0.125,0 -0.125,-0.083 0,-0.078 0.079,-0.078 0.125,-0.078 l 1.938,0 z"
         style="fill:#000000;fill-opacity:1;fill-rule:evenodd;stroke:none"
         id="path196" /><path
         d="m 44.77,10.354 0,0.035 -0.004,0.004 0,0.016 -0.004,0.004 0,0.007 -0.012,0.012 -0.004,0 -0.004,0.004 -0.012,0 0,0.004 -0.066,0 c -0.203,-0.184 -0.519,-0.184 -0.578,-0.184 l -0.047,0 0,-0.125 0.047,0 c 0.066,0 0.254,0.008 0.418,0.078 l 0,-1.429 c 0,-0.09 0,-0.121 -0.301,-0.121 l -0.144,0 0,-0.125 1.156,0 0,0.125 -0.145,0 c -0.3,0 -0.3,0.031 -0.3,0.121 l 0,1.574 z"
         style="fill:#000000;fill-opacity:1;fill-rule:evenodd;stroke:none"
         id="path198" /><path
         d="m 46.703,9.248 0,0.09 -0.008,0.086 -0.011,0.086 -0.012,0.078 -0.016,0.078 -0.019,0.075 -0.024,0.074 -0.027,0.07 -0.027,0.063 -0.028,0.066 -0.062,0.117 -0.035,0.051 -0.036,0.055 -0.07,0.094 -0.035,0.042 -0.07,0.079 -0.035,0.035 -0.036,0.027 -0.031,0.031 -0.031,0.028 -0.031,0.019 -0.028,0.024 -0.027,0.015 -0.024,0.016 -0.019,0.012 -0.016,0.011 -0.015,0.004 -0.012,0.008 -0.008,0 c -0.047,0 -0.047,-0.035 -0.047,-0.039 0,-0.004 0,-0.02 0.02,-0.039 0.429,-0.34 0.601,-0.84 0.601,-1.356 0,-0.257 -0.05,-0.527 -0.148,-0.761 C 46.199,8.159 46.02,8.002 45.879,7.889 45.871,7.881 45.863,7.87 45.863,7.858 c 0,-0.008 0,-0.043 0.047,-0.043 0.059,0 0.793,0.461 0.793,1.433 z"
         style="fill:#000000;fill-opacity:1;fill-rule:evenodd;stroke:none"
         id="path200" /><path
         d="m 99.984,7.846 0.063,0.086 0.07,0.086 0.071,0.09 0.07,0.086 0.035,0.047 0.035,0.039 0.035,0.043 0.047,0.058 0.016,0.016 0.015,0.019 0.012,0.016 0.031,0.031 0.012,0.016 0.016,0.016 c 0.176,0.207 0.41,0.293 0.679,0.296 l 0,0.18 -1.019,0 0,-0.18 c 0.121,-0.011 0.168,-0.085 0.168,-0.175 0,-0.094 -0.059,-0.168 -0.086,-0.203 L 99.898,7.967 99.449,8.545 c -0.051,0.059 -0.051,0.071 -0.051,0.102 0,0.09 0.086,0.141 0.2,0.144 l 0,0.18 -1.16,0 0,-0.18 c 0.398,0 0.406,-0.003 0.675,-0.347 L 99.68,7.702 99.141,7.022 C 98.867,6.69 98.527,6.678 98.406,6.678 l 0,-0.18 1.02,0 0,0.18 c -0.125,0.02 -0.164,0.09 -0.164,0.176 0,0.129 0.164,0.316 0.515,0.73 l 0.434,-0.574 c 0.047,-0.062 0.121,-0.156 0.121,-0.187 0,-0.055 -0.051,-0.141 -0.207,-0.145 l 0,-0.18 1.168,0 0,0.18 c -0.309,0 -0.41,0.012 -0.543,0.176 l -0.766,0.992 z"
         style="fill:#000000;fill-opacity:1;fill-rule:evenodd;stroke:none"
         id="path202" /><path
         d="m 98.34,5.581 3.035,0 0,0.234 -3.035,0"
         style="fill:#000000;fill-opacity:1;fill-rule:nonzero;stroke:none"
         id="path204" /><path
         d="m 102.59,10.651 0.004,0 0,0.008 0.004,0 0,0.007 0.004,0.004 0,0.008 c 0,0.012 -0.008,0.039 -0.051,0.039 -0.055,0 -0.793,-0.457 -0.793,-1.429 0,-0.973 0.738,-1.434 0.793,-1.434 0.043,0 0.051,0.027 0.051,0.039 0,0.023 -0.012,0.031 -0.024,0.039 -0.508,0.402 -0.598,0.984 -0.598,1.356 0,0.699 0.325,1.164 0.61,1.363 z"
         style="fill:#000000;fill-opacity:1;fill-rule:evenodd;stroke:none"
         id="path206" /><path
         d="m 103.723,9.674 0.339,0 c 0.059,0 0.063,0.004 0.079,0.016 0.011,0.012 0.019,0.051 0.019,0.066 0,0.047 -0.039,0.047 -0.09,0.047 l -0.316,0 0.062,0.238 c 0.016,0.075 0.051,0.204 0.051,0.223 0,0.047 -0.039,0.098 -0.105,0.098 -0.051,0 -0.117,-0.028 -0.141,-0.106 -0.016,-0.05 0.02,0.086 -0.113,-0.453 l -0.344,0 c -0.059,0 -0.098,0 -0.098,-0.078 0,-0.051 0.039,-0.051 0.09,-0.051 l 0.317,0 -0.168,-0.672 C 103.293,8.94 103.27,8.85 103.27,8.815 c 0,-0.16 0.148,-0.274 0.351,-0.274 0.348,0 0.559,0.383 0.559,0.442 0,0.039 -0.051,0.039 -0.059,0.039 -0.047,0 -0.055,-0.008 -0.07,-0.047 -0.094,-0.207 -0.27,-0.34 -0.418,-0.34 -0.094,0 -0.121,0.067 -0.121,0.153 0,0.046 0.004,0.054 0.008,0.082 l 0.203,0.804 z"
         style="fill:#000000;fill-opacity:1;fill-rule:evenodd;stroke:none"
         id="path208" /><path
         d="m 105.988,9.206 0.996,0 c 0.036,0 0.114,0 0.114,0.082 0,0.082 -0.078,0.082 -0.114,0.082 l -0.996,0 0,0.992 c 0,0.043 0,0.121 -0.082,0.121 -0.082,0 -0.082,-0.078 -0.082,-0.121 l 0,-0.992 -0.996,0 c -0.039,0 -0.117,0 -0.117,-0.082 0,-0.082 0.078,-0.082 0.117,-0.082 l 0.996,0 0,-0.997 c 0,-0.039 0,-0.117 0.082,-0.117 0.082,0 0.082,0.078 0.082,0.117 l 0,0.997 z"
         style="fill:#000000;fill-opacity:1;fill-rule:evenodd;stroke:none"
         id="path210" /><path
         d="m 108.566,10.393 0,0.035 -0.004,0 0,0.02 -0.003,0.004 0,0.004 -0.004,0.003 0,0.004 -0.004,0 -0.004,0.004 0,0.004 -0.008,0 -0.004,0.004 -0.019,0 0,0.004 -0.055,0 c -0.203,-0.184 -0.52,-0.184 -0.578,-0.184 l -0.047,0 0,-0.125 0.047,0 c 0.066,0 0.254,0.008 0.418,0.078 l 0,-1.433 c 0,-0.086 0,-0.117 -0.305,-0.117 l -0.141,0 0,-0.129 1.157,0 0,0.129 -0.145,0 c -0.301,0 -0.301,0.031 -0.301,0.117 l 0,1.578 z"
         style="fill:#000000;fill-opacity:1;fill-rule:evenodd;stroke:none"
         id="path212" /><path
         d="m 110.5,9.288 0,0.043 -0.004,0.046 0,0.043 -0.004,0.043 -0.023,0.164 -0.016,0.079 -0.023,0.074 -0.02,0.07 -0.027,0.07 -0.028,0.067 -0.027,0.062 -0.062,0.117 -0.036,0.055 -0.07,0.102 -0.105,0.129 -0.039,0.035 -0.032,0.035 -0.035,0.031 -0.035,0.028 -0.027,0.027 -0.032,0.023 -0.054,0.039 -0.024,0.016 -0.019,0.012 -0.02,0.008 -0.011,0.007 -0.012,0.004 -0.008,0 c -0.047,0 -0.047,-0.031 -0.047,-0.039 0,-0.004 0,-0.019 0.02,-0.035 0.429,-0.344 0.601,-0.84 0.601,-1.355 0,-0.258 -0.051,-0.528 -0.148,-0.762 -0.137,-0.328 -0.317,-0.485 -0.457,-0.602 -0.008,-0.004 -0.016,-0.019 -0.016,-0.031 0,-0.004 0,-0.039 0.047,-0.039 0.059,0 0.793,0.461 0.793,1.434 z"
         style="fill:#000000;fill-opacity:1;fill-rule:evenodd;stroke:none"
         id="path214" /><path
         d="m 70.285,7.881 0.035,0.043 0.032,0.039 0.035,0.047 0.035,0.043 0.07,0.09 0.141,0.172 0.031,0.043 0.031,0.039 0.02,0.016 0.012,0.019 0.015,0.016 0.016,0.019 0.015,0.016 0.012,0.015 0.016,0.016 0.011,0.016 c 0.176,0.203 0.415,0.289 0.684,0.297 l 0,0.175 -1.019,0 0,-0.175 c 0.117,-0.012 0.164,-0.086 0.164,-0.18 0,-0.09 -0.055,-0.164 -0.086,-0.199 L 70.199,8.002 69.754,8.581 c -0.055,0.054 -0.055,0.066 -0.055,0.101 0,0.086 0.09,0.137 0.203,0.145 l 0,0.175 -1.164,0 0,-0.175 c 0.403,0 0.407,-0.008 0.676,-0.352 l 0.57,-0.738 -0.543,-0.68 C 69.168,6.721 68.832,6.709 68.711,6.709 l 0,-0.175 1.019,0 0,0.175 c -0.125,0.02 -0.168,0.094 -0.168,0.18 0,0.125 0.168,0.317 0.516,0.727 l 0.438,-0.571 c 0.046,-0.062 0.121,-0.156 0.121,-0.191 0,-0.051 -0.051,-0.137 -0.207,-0.145 l 0,-0.175 1.168,0 0,0.175 c -0.309,0 -0.41,0.012 -0.543,0.18 l -0.77,0.992 z"
         style="fill:#000000;fill-opacity:1;fill-rule:evenodd;stroke:none"
         id="path216" /><path
         d="m 68.641,5.616 3.039,0 0,0.234 -3.039,0"
         style="fill:#000000;fill-opacity:1;fill-rule:nonzero;stroke:none"
         id="path218" /><path
         d="m 72.895,10.682 0,0.004 0.003,0 0,0.008 0.004,0 0,0.019 c 0,0.012 -0.004,0.039 -0.047,0.039 -0.058,0 -0.793,-0.457 -0.793,-1.429 0,-0.973 0.735,-1.434 0.793,-1.434 0.043,0 0.047,0.027 0.047,0.039 0,0.02 -0.011,0.028 -0.019,0.039 -0.508,0.403 -0.602,0.985 -0.602,1.356 0,0.699 0.324,1.16 0.614,1.359 z"
         style="fill:#000000;fill-opacity:1;fill-rule:evenodd;stroke:none"
         id="path220" /><path
         d="m 74.027,9.709 0.336,0 c 0.063,0 0.067,0.004 0.078,0.016 0.016,0.012 0.024,0.047 0.024,0.066 0,0.047 -0.043,0.047 -0.09,0.047 l -0.316,0 0.058,0.239 c 0.02,0.074 0.055,0.203 0.055,0.222 0,0.047 -0.039,0.098 -0.11,0.098 -0.046,0 -0.117,-0.031 -0.136,-0.109 -0.016,-0.047 0.019,0.085 -0.117,-0.45 l -0.34,0 c -0.059,0 -0.102,0 -0.102,-0.078 0,-0.051 0.039,-0.051 0.094,-0.051 l 0.316,0 -0.168,-0.671 C 73.594,8.975 73.57,8.885 73.57,8.85 c 0,-0.164 0.153,-0.277 0.356,-0.277 0.344,0 0.554,0.386 0.554,0.445 0,0.039 -0.046,0.039 -0.058,0.039 -0.047,0 -0.051,-0.012 -0.067,-0.051 C 74.262,8.803 74.086,8.67 73.934,8.67 c -0.09,0 -0.118,0.067 -0.118,0.153 0,0.047 0,0.054 0.008,0.078 l 0.203,0.808 z"
         style="fill:#000000;fill-opacity:1;fill-rule:evenodd;stroke:none"
         id="path222" /><path
         d="m 75.859,9.323 -0.004,0.043 0,0.047 -0.007,0.085 -0.008,0.083 -0.016,0.082 -0.015,0.074 -0.02,0.078 -0.047,0.141 -0.027,0.066 -0.031,0.062 -0.063,0.118 -0.035,0.054 -0.031,0.051 -0.035,0.047 -0.04,0.047 -0.035,0.043 -0.07,0.078 -0.066,0.066 -0.036,0.028 -0.031,0.027 -0.031,0.023 -0.027,0.02 -0.071,0.047 -0.031,0.015 -0.012,0.004 -0.008,0 c -0.042,0 -0.042,-0.035 -0.042,-0.039 0,-0.004 0,-0.019 0.015,-0.039 0.43,-0.34 0.602,-0.84 0.602,-1.351 0,-0.262 -0.047,-0.532 -0.145,-0.766 C 75.352,8.233 75.172,8.073 75.031,7.959 75.023,7.956 75.02,7.94 75.02,7.928 c 0,-0.004 0,-0.039 0.042,-0.039 0.059,0 0.797,0.457 0.797,1.434 z"
         style="fill:#000000;fill-opacity:1;fill-rule:evenodd;stroke:none"
         id="path224" /><path
         d="m 71.02,72.459 0.015,0.032 0.004,0.015 0.008,0.016 0.012,0.016 0.007,0.015 0.008,0.012 0.008,0.016 0.016,0.023 0.019,0.023 0.016,0.024 0.019,0.019 0.02,0.016 0.019,0.02 0.02,0.015 0.019,0.012 0.02,0.015 0.02,0.012 0.019,0.008 0.02,0.012 0.015,0.008 0.02,0.003 0.019,0.008 0.02,0.004 0.019,0.008 0.032,0.008 0.019,0 0.012,0.004 0.031,0 0.012,0.004 0.043,0 0,0.175 -0.926,0 0,-0.175 c 0.176,-0.008 0.27,-0.106 0.27,-0.246 0,-0.059 -0.008,-0.071 -0.036,-0.137 l -0.578,-1.41 -0.636,1.539 c -0.024,0.058 -0.036,0.082 -0.036,0.105 0,0.149 0.211,0.149 0.321,0.149 l 0,0.175 -1.18,0 0,-0.175 c 0.277,0 0.387,0 0.465,-0.204 l 0.859,-2.089 c -0.031,-0.075 -0.109,-0.262 -0.144,-0.336 -0.125,-0.317 -0.285,-0.711 -0.653,-0.711 -0.027,0 -0.16,0 -0.269,0.101 0.18,0.024 0.222,0.149 0.222,0.243 0,0.148 -0.109,0.238 -0.238,0.238 -0.117,0 -0.242,-0.074 -0.242,-0.246 0,-0.258 0.242,-0.461 0.527,-0.461 0.364,0 0.598,0.324 0.735,0.652 l 1.008,2.445 z"
         style="fill:#000000;fill-opacity:1;fill-rule:evenodd;stroke:none"
         id="path226" /><path
         d="m 68.641,68.581 3.105,0 0,0.234 -3.105,0"
         style="fill:#000000;fill-opacity:1;fill-rule:nonzero;stroke:none"
         id="path228" /><path
         d="m 73.012,74.682 0,0.012 0.004,0 0,0.008 0.004,0 0,0.011 c 0,0.012 -0.008,0.039 -0.047,0.039 -0.059,0 -0.797,-0.457 -0.797,-1.429 0,-0.973 0.738,-1.434 0.797,-1.434 0.039,0 0.047,0.027 0.047,0.039 0,0.02 -0.012,0.028 -0.024,0.039 -0.508,0.403 -0.598,0.985 -0.598,1.356 0,0.699 0.325,1.16 0.614,1.359 z"
         style="fill:#000000;fill-opacity:1;fill-rule:evenodd;stroke:none"
         id="path230" /><path
         d="m 74.141,73.709 0.339,0 c 0.059,0 0.063,0.004 0.079,0.016 0.011,0.012 0.019,0.047 0.019,0.066 0,0.047 -0.039,0.047 -0.09,0.047 l -0.316,0 0.062,0.239 c 0.016,0.074 0.051,0.203 0.051,0.222 0,0.047 -0.039,0.098 -0.105,0.098 -0.051,0 -0.118,-0.031 -0.141,-0.109 -0.016,-0.047 0.02,0.085 -0.113,-0.45 l -0.344,0 c -0.059,0 -0.098,0 -0.098,-0.078 0,-0.051 0.039,-0.051 0.09,-0.051 l 0.317,0 -0.168,-0.671 c -0.012,-0.063 -0.035,-0.153 -0.035,-0.188 0,-0.164 0.152,-0.277 0.351,-0.277 0.348,0 0.559,0.386 0.559,0.445 0,0.039 -0.051,0.039 -0.059,0.039 -0.047,0 -0.055,-0.012 -0.07,-0.051 -0.094,-0.203 -0.27,-0.336 -0.418,-0.336 -0.094,0 -0.121,0.067 -0.121,0.153 0,0.047 0.004,0.054 0.008,0.078 l 0.203,0.808 z"
         style="fill:#000000;fill-opacity:1;fill-rule:evenodd;stroke:none"
         id="path232" /><path
         d="m 75.973,73.323 0,0.043 -0.004,0.047 0,0.043 -0.004,0.042 -0.024,0.165 -0.015,0.074 -0.024,0.078 -0.019,0.07 -0.028,0.071 -0.027,0.066 -0.027,0.062 -0.063,0.118 -0.035,0.054 -0.035,0.051 -0.07,0.094 -0.036,0.043 -0.039,0.039 -0.035,0.039 -0.066,0.066 -0.035,0.028 -0.032,0.027 -0.027,0.023 -0.031,0.02 -0.047,0.031 -0.02,0.016 -0.019,0.008 -0.012,0.007 -0.011,0.004 -0.008,0 c -0.047,0 -0.047,-0.035 -0.047,-0.039 0,-0.004 0,-0.019 0.015,-0.039 0.434,-0.34 0.602,-0.84 0.602,-1.351 0,-0.262 -0.047,-0.532 -0.145,-0.766 -0.136,-0.324 -0.32,-0.484 -0.457,-0.598 -0.007,-0.003 -0.015,-0.019 -0.015,-0.031 0,-0.004 0,-0.039 0.047,-0.039 0.058,0 0.793,0.457 0.793,1.434 z"
         style="fill:#000000;fill-opacity:1;fill-rule:evenodd;stroke:none"
         id="path234" /><path
         d="m 36.66,72.463 0.008,0.02 0.023,0.047 0.008,0.011 0.016,0.032 0.023,0.035 0.02,0.023 0.015,0.024 0.039,0.039 0.059,0.047 0.059,0.035 0.058,0.023 0.016,0.008 0.039,0.008 0.016,0.004 0.019,0.004 0.016,0.004 0.027,0 0.016,0.004 0.054,0 0,0.179 -0.925,0 0,-0.179 c 0.175,-0.004 0.269,-0.102 0.269,-0.247 0,-0.054 -0.008,-0.07 -0.035,-0.136 l -0.578,-1.41 -0.637,1.543 c -0.023,0.054 -0.035,0.078 -0.035,0.101 0,0.149 0.215,0.149 0.32,0.149 l 0,0.179 -1.179,0 0,-0.179 c 0.277,0 0.386,0 0.464,-0.2 l 0.86,-2.09 c -0.027,-0.078 -0.11,-0.265 -0.145,-0.339 -0.125,-0.317 -0.285,-0.711 -0.652,-0.711 -0.027,0 -0.16,0 -0.27,0.105 0.18,0.02 0.223,0.149 0.223,0.238 0,0.149 -0.109,0.243 -0.238,0.243 -0.117,0 -0.242,-0.075 -0.242,-0.246 0,-0.258 0.242,-0.465 0.527,-0.465 0.363,0 0.598,0.328 0.734,0.652 l 1.008,2.445 z"
         style="fill:#000000;fill-opacity:1;fill-rule:evenodd;stroke:none"
         id="path236" /><path
         d="m 34.281,68.584 3.106,0 0,0.235 -3.106,0"
         style="fill:#000000;fill-opacity:1;fill-rule:nonzero;stroke:none"
         id="path238" /><path
         d="m 38.652,74.69 0,0.004 0.004,0.004 0,0.008 0.004,0.003 0,0.008 c 0,0.012 -0.004,0.043 -0.047,0.043 -0.058,0 -0.797,-0.461 -0.797,-1.433 0,-0.973 0.739,-1.434 0.797,-1.434 0.043,0 0.047,0.027 0.047,0.039 0,0.024 -0.012,0.031 -0.023,0.039 -0.508,0.402 -0.598,0.985 -0.598,1.356 0,0.703 0.324,1.164 0.613,1.363 z"
         style="fill:#000000;fill-opacity:1;fill-rule:evenodd;stroke:none"
         id="path240" /><path
         d="m 39.781,73.717 0.34,0 c 0.059,0 0.063,0 0.078,0.012 0.016,0.012 0.024,0.051 0.024,0.066 0,0.047 -0.043,0.047 -0.094,0.047 l -0.317,0 0.063,0.239 c 0.016,0.078 0.051,0.207 0.051,0.222 0,0.047 -0.035,0.102 -0.106,0.102 -0.05,0 -0.117,-0.032 -0.14,-0.11 -0.016,-0.05 0.019,0.086 -0.114,-0.453 l -0.343,0 c -0.055,0 -0.098,0 -0.098,-0.078 0,-0.047 0.039,-0.047 0.09,-0.047 l 0.32,0 -0.172,-0.676 c -0.011,-0.062 -0.035,-0.152 -0.035,-0.183 0,-0.164 0.152,-0.277 0.352,-0.277 0.347,0 0.558,0.386 0.558,0.441 0,0.039 -0.047,0.039 -0.058,0.039 -0.047,0 -0.055,-0.008 -0.067,-0.047 -0.097,-0.207 -0.273,-0.34 -0.422,-0.34 -0.089,0 -0.121,0.067 -0.121,0.153 0,0.046 0.004,0.054 0.008,0.082 l 0.203,0.808 z"
         style="fill:#000000;fill-opacity:1;fill-rule:evenodd;stroke:none"
         id="path242" /><path
         d="m 43.016,73.245 0.031,0 0.008,0.003 0.019,0 0.004,0.004 0.012,0 0.004,0.004 0.004,0 0.007,0.008 0.004,0 0.016,0.016 0,0.004 0.004,0 0,0.004 0.004,0.003 0,0.008 0.004,0.004 0,0.024 c 0,0.082 -0.075,0.082 -0.121,0.082 l -1.942,0 c -0.043,0 -0.121,0 -0.121,-0.082 0,-0.082 0.078,-0.082 0.121,-0.082 l 1.942,0 z"
         style="fill:#000000;fill-opacity:1;fill-rule:evenodd;stroke:none"
         id="path244" /><path
         d="m 44.738,74.432 0,0.051 -0.004,0.004 0,0.008 -0.004,0 0,0.003 -0.015,0.016 -0.024,0 -0.003,0.004 -0.051,0 c -0.203,-0.184 -0.524,-0.184 -0.578,-0.184 l -0.051,0 0,-0.125 0.051,0 c 0.066,0 0.25,0.008 0.418,0.079 l 0,-1.43 c 0,-0.09 0,-0.121 -0.305,-0.121 l -0.145,0 0,-0.125 1.161,0 0,0.125 -0.145,0 c -0.305,0 -0.305,0.031 -0.305,0.121 l 0,1.574 z"
         style="fill:#000000;fill-opacity:1;fill-rule:evenodd;stroke:none"
         id="path246" /><path
         d="m 46.676,73.327 -0.004,0.043 0,0.089 -0.004,0.043 -0.012,0.086 -0.031,0.157 -0.02,0.074 -0.023,0.074 -0.023,0.066 -0.028,0.067 -0.027,0.062 -0.031,0.063 -0.071,0.109 -0.031,0.051 -0.035,0.051 -0.039,0.043 -0.07,0.086 -0.102,0.101 -0.035,0.031 -0.031,0.024 -0.028,0.023 -0.031,0.02 -0.023,0.019 -0.024,0.016 -0.055,0.027 -0.011,0.004 -0.004,0.004 c -0.047,0 -0.047,-0.035 -0.047,-0.043 0,-0.004 0,-0.019 0.016,-0.035 0.429,-0.344 0.601,-0.84 0.601,-1.355 0,-0.258 -0.047,-0.528 -0.144,-0.762 -0.141,-0.328 -0.321,-0.484 -0.457,-0.602 -0.012,-0.004 -0.016,-0.019 -0.016,-0.031 0,-0.004 0,-0.039 0.047,-0.039 0.055,0 0.793,0.461 0.793,1.434 z"
         style="fill:#000000;fill-opacity:1;fill-rule:evenodd;stroke:none"
         id="path248" /><path
         d="m 100.805,72.565 0.007,0.016 0.008,0.019 0.016,0.031 0.008,0.012 0.008,0.016 0.007,0.011 0.008,0.016 0.016,0.023 0.039,0.047 0.016,0.02 0.019,0.019 0.059,0.047 0.058,0.035 0.059,0.024 0.015,0.004 0.02,0.008 0.02,0.003 0.015,0.004 0.02,0.004 0.015,0 0.016,0.004 0.012,0 0.015,0.004 0.055,0 0,0.18 -0.926,0 0,-0.18 c 0.176,-0.004 0.27,-0.101 0.27,-0.246 0,-0.055 -0.008,-0.07 -0.035,-0.137 l -0.579,-1.41 -0.636,1.539 c -0.024,0.059 -0.035,0.082 -0.035,0.106 0,0.148 0.214,0.148 0.324,0.148 l 0,0.18 -1.184,0 0,-0.18 c 0.277,0 0.387,0 0.465,-0.199 l 0.859,-2.094 c -0.027,-0.074 -0.109,-0.262 -0.14,-0.336 -0.129,-0.316 -0.289,-0.711 -0.657,-0.711 -0.027,0 -0.16,0 -0.269,0.102 0.18,0.023 0.227,0.148 0.227,0.242 0,0.148 -0.11,0.238 -0.243,0.238 -0.113,0 -0.242,-0.07 -0.242,-0.246 0,-0.254 0.242,-0.461 0.527,-0.461 0.364,0 0.598,0.324 0.735,0.653 l 1.008,2.445 z"
         style="fill:#000000;fill-opacity:1;fill-rule:evenodd;stroke:none"
         id="path250" /><path
         d="m 98.426,68.686 3.105,0 0,0.234 -3.105,0"
         style="fill:#000000;fill-opacity:1;fill-rule:nonzero;stroke:none"
         id="path252" /><path
         d="m 102.797,74.791 0,0.004 0.004,0.004 0,0.008 0.004,0 0,0.012 c 0,0.012 -0.004,0.039 -0.047,0.039 -0.059,0 -0.797,-0.457 -0.797,-1.43 0,-0.972 0.738,-1.433 0.797,-1.433 0.043,0 0.047,0.027 0.047,0.039 0,0.023 -0.012,0.031 -0.024,0.039 -0.508,0.402 -0.597,0.984 -0.597,1.355 0,0.699 0.324,1.164 0.613,1.363 z"
         style="fill:#000000;fill-opacity:1;fill-rule:evenodd;stroke:none"
         id="path254" /><path
         d="m 103.926,73.815 0.34,0 c 0.058,0 0.062,0.004 0.078,0.016 0.015,0.011 0.023,0.05 0.023,0.066 0,0.047 -0.043,0.047 -0.094,0.047 l -0.316,0 0.063,0.238 c 0.015,0.074 0.05,0.203 0.05,0.223 0,0.047 -0.035,0.097 -0.105,0.097 -0.047,0 -0.117,-0.031 -0.141,-0.109 -0.015,-0.047 0.02,0.09 -0.113,-0.449 l -0.344,0 c -0.055,0 -0.097,0 -0.097,-0.078 0,-0.051 0.039,-0.051 0.089,-0.051 l 0.321,0 -0.172,-0.672 c -0.012,-0.062 -0.035,-0.152 -0.035,-0.187 0,-0.161 0.152,-0.278 0.351,-0.278 0.348,0 0.559,0.387 0.559,0.445 0,0.04 -0.047,0.04 -0.059,0.04 -0.047,0 -0.054,-0.012 -0.066,-0.047 -0.094,-0.207 -0.274,-0.34 -0.422,-0.34 -0.09,0 -0.121,0.066 -0.121,0.152 0,0.047 0.004,0.055 0.008,0.082 l 0.203,0.805 z"
         style="fill:#000000;fill-opacity:1;fill-rule:evenodd;stroke:none"
         id="path256" /><path
         d="m 106.191,73.346 0.997,0 c 0.039,0 0.113,0 0.113,0.082 0,0.078 -0.074,0.078 -0.113,0.078 l -0.997,0 0,0.996 c 0,0.043 0,0.118 -0.082,0.118 -0.078,0 -0.078,-0.075 -0.078,-0.118 l 0,-0.996 -1,0 c -0.039,0 -0.117,0 -0.117,-0.078 0,-0.082 0.078,-0.082 0.117,-0.082 l 1,0 0,-0.996 c 0,-0.039 0,-0.117 0.078,-0.117 0.082,0 0.082,0.078 0.082,0.117 l 0,0.996 z"
         style="fill:#000000;fill-opacity:1;fill-rule:evenodd;stroke:none"
         id="path258" /><path
         d="m 108.77,74.534 0,0.035 -0.004,0 0,0.023 -0.008,0.008 0,0.004 -0.008,0.008 -0.008,0 -0.004,0.004 -0.015,0 -0.004,0.004 -0.051,0 c -0.207,-0.184 -0.523,-0.184 -0.582,-0.184 l -0.047,0 0,-0.125 0.047,0 c 0.066,0 0.254,0.008 0.418,0.078 l 0,-1.433 c 0,-0.086 0,-0.118 -0.301,-0.118 l -0.144,0 0,-0.129 1.156,0 0,0.129 -0.145,0 c -0.3,0 -0.3,0.032 -0.3,0.118 l 0,1.578 z"
         style="fill:#000000;fill-opacity:1;fill-rule:evenodd;stroke:none"
         id="path260" /><path
         d="m 110.59,73.428 0,0.043 -0.004,0.047 0,0.043 -0.004,0.043 -0.023,0.164 -0.02,0.078 -0.019,0.074 -0.02,0.071 -0.027,0.07 -0.028,0.066 -0.027,0.063 -0.031,0.058 -0.035,0.059 -0.032,0.055 -0.07,0.101 -0.035,0.043 -0.039,0.043 -0.035,0.043 -0.102,0.102 -0.035,0.027 -0.031,0.027 -0.028,0.024 -0.031,0.019 -0.023,0.02 -0.024,0.016 -0.019,0.011 -0.02,0.008 -0.016,0.008 -0.011,0.004 -0.004,0 c -0.047,0 -0.047,-0.031 -0.047,-0.039 0,-0.004 0,-0.02 0.016,-0.035 0.429,-0.344 0.601,-0.84 0.601,-1.356 0,-0.258 -0.047,-0.527 -0.144,-0.762 -0.137,-0.328 -0.321,-0.484 -0.457,-0.601 -0.012,-0.004 -0.016,-0.02 -0.016,-0.031 0,-0.004 0,-0.039 0.047,-0.039 0.055,0 0.793,0.457 0.793,1.433 z"
         style="fill:#000000;fill-opacity:1;fill-rule:evenodd;stroke:none"
         id="path262" /><path
         d="m 25.84,47.381 0.031,0.086 0.016,0.039 0.019,0.039 0.039,0.071 0.024,0.031 0.019,0.027 0.024,0.028 0.05,0.05 0.028,0.024 0.023,0.023 0.028,0.016 0.027,0.019 0.031,0.016 0.028,0.016 0.031,0.011 0.027,0.012 0.031,0.012 0.032,0.008 0.031,0.011 0.031,0.004 0.031,0.008 0.125,0.016 0.063,0.004 0.062,0 0,0.265 -1.793,0 0,-0.265 c 0.575,-0.008 0.743,-0.289 0.743,-0.45 0,-0.054 -0.024,-0.121 -0.039,-0.171 l -1.282,-3.946 -1.367,4.184 c -0.008,0.035 -0.027,0.086 -0.027,0.129 0,0.254 0.496,0.254 0.719,0.254 l 0,0.265 -2.254,0 0,-0.265 c 0.488,0 0.668,0 0.769,-0.309 l 0.188,-0.594 -1.188,-3.664 -1.375,4.203 c -0.008,0.024 -0.015,0.082 -0.015,0.11 0,0.254 0.496,0.254 0.718,0.254 l 0,0.265 -2.254,0 0,-0.265 c 0.641,0 0.672,-0.043 0.778,-0.356 l 1.707,-5.234 c 0.023,-0.078 0.051,-0.164 0.16,-0.164 0.121,0 0.137,0.062 0.172,0.172 l 1.406,4.339 1.418,-4.347 c 0.027,-0.078 0.051,-0.164 0.164,-0.164 0.117,0 0.137,0.062 0.172,0.172 l 1.629,5.011 z"
         style="fill:#0000ff;fill-opacity:1;fill-rule:evenodd;stroke:none"
         id="path264" /><path
         d="m 18.082,41.018 8.902,0 0,0.348 -8.902,0"
         style="fill:#0000ff;fill-opacity:1;fill-rule:nonzero;stroke:none"
         id="path266" /><path
         d="m 89.84,47.381 0.031,0.086 0.016,0.039 0.019,0.039 0.039,0.071 0.024,0.031 0.019,0.027 0.024,0.028 0.05,0.05 0.028,0.024 0.023,0.023 0.028,0.016 0.027,0.019 0.031,0.016 0.028,0.016 0.031,0.011 0.027,0.012 0.031,0.012 0.032,0.008 0.031,0.011 0.031,0.004 0.031,0.008 0.125,0.016 0.063,0.004 0.062,0 0,0.265 -1.793,0 0,-0.265 c 0.575,-0.008 0.743,-0.289 0.743,-0.45 0,-0.054 -0.024,-0.121 -0.039,-0.171 l -1.282,-3.946 -1.367,4.184 c -0.008,0.035 -0.027,0.086 -0.027,0.129 0,0.254 0.496,0.254 0.719,0.254 l 0,0.265 -2.254,0 0,-0.265 c 0.488,0 0.668,0 0.769,-0.309 l 0.188,-0.594 -1.188,-3.664 -1.375,4.203 c -0.008,0.024 -0.015,0.082 -0.015,0.11 0,0.254 0.496,0.254 0.718,0.254 l 0,0.265 -2.254,0 0,-0.265 c 0.641,0 0.672,-0.043 0.778,-0.356 l 1.707,-5.234 c 0.023,-0.078 0.051,-0.164 0.16,-0.164 0.121,0 0.137,0.062 0.172,0.172 l 1.406,4.339 1.418,-4.347 c 0.027,-0.078 0.051,-0.164 0.164,-0.164 0.117,0 0.137,0.062 0.172,0.172 l 1.629,5.011 z"
         style="fill:#0000ff;fill-opacity:1;fill-rule:evenodd;stroke:none"
         id="path268" /><path
         d="m 82.082,41.018 8.902,0 0,0.348 -8.902,0"
         style="fill:#0000ff;fill-opacity:1;fill-rule:nonzero;stroke:none"
         id="path270" /><path
         d="m 91.805,50.03 0.004,0 0,0.008 0.003,0 0,0.015 0.004,0 0,0.004 c 0,0.012 -0.007,0.043 -0.05,0.043 -0.055,0 -0.793,-0.461 -0.793,-1.434 0,-0.968 0.738,-1.433 0.793,-1.433 0.043,0 0.05,0.031 0.05,0.043 0,0.019 -0.011,0.027 -0.023,0.035 -0.508,0.406 -0.602,0.988 -0.602,1.355 0,0.704 0.325,1.165 0.614,1.364 z"
         style="fill:#0000ff;fill-opacity:1;fill-rule:evenodd;stroke:none"
         id="path272" /><path
         d="m 93.055,49.057 0.336,0 c 0.058,0 0.062,0 0.078,0.012 0.015,0.012 0.023,0.051 0.023,0.066 0,0.051 -0.043,0.051 -0.094,0.051 l -0.316,0 0.063,0.238 c 0.019,0.074 0.05,0.203 0.05,0.219 0,0.047 -0.035,0.102 -0.105,0.102 -0.047,0 -0.117,-0.032 -0.141,-0.11 -0.011,-0.051 0.02,0.086 -0.113,-0.449 l -0.344,0 c -0.054,0 -0.097,0 -0.097,-0.082 0,-0.047 0.039,-0.047 0.089,-0.047 l 0.321,0 -0.172,-0.676 c -0.012,-0.062 -0.035,-0.152 -0.035,-0.183 0,-0.164 0.152,-0.278 0.351,-0.278 0.348,0 0.559,0.387 0.559,0.442 0,0.039 -0.047,0.039 -0.059,0.039 -0.047,0 -0.051,-0.008 -0.066,-0.047 -0.094,-0.207 -0.274,-0.34 -0.422,-0.34 -0.09,0 -0.121,0.067 -0.121,0.152 0,0.047 0.004,0.055 0.008,0.082 l 0.207,0.809 z"
         style="fill:#0000ff;fill-opacity:1;fill-rule:evenodd;stroke:none"
         id="path274" /><path
         d="m 95.316,48.584 0.996,0 c 0.04,0 0.114,0 0.114,0.082 0,0.082 -0.074,0.082 -0.114,0.082 l -0.996,0 0,0.997 c 0,0.039 0,0.117 -0.082,0.117 -0.078,0 -0.078,-0.078 -0.078,-0.117 l 0,-0.997 -1,0 c -0.039,0 -0.117,0 -0.117,-0.082 0,-0.082 0.078,-0.082 0.117,-0.082 l 1,0 0,-0.996 c 0,-0.039 0,-0.117 0.078,-0.117 0.082,0 0.082,0.078 0.082,0.117 l 0,0.996 z"
         style="fill:#0000ff;fill-opacity:1;fill-rule:evenodd;stroke:none"
         id="path276" /><path
         d="m 97.777,49.772 0,0.055 -0.004,0.004 0,0.007 -0.003,0 -0.004,0.004 0,0.004 -0.004,0 0,0.004 -0.004,0 -0.004,0.004 -0.012,0 -0.004,0.004 -0.062,0 c -0.203,-0.184 -0.52,-0.184 -0.578,-0.184 l -0.051,0 0,-0.125 0.051,0 c 0.066,0 0.254,0.008 0.418,0.078 l 0,-1.429 c 0,-0.09 0,-0.121 -0.305,-0.121 l -0.145,0 0,-0.125 1.161,0 0,0.125 -0.145,0 c -0.305,0 -0.305,0.031 -0.305,0.121 l 0,1.574 z"
         style="fill:#0000ff;fill-opacity:1;fill-rule:evenodd;stroke:none"
         id="path278" /><path
         d="m 99.715,48.666 0,0.047 -0.004,0.043 0,0.043 -0.004,0.043 -0.012,0.086 -0.011,0.078 -0.016,0.078 -0.023,0.075 -0.02,0.074 -0.055,0.133 -0.027,0.062 -0.031,0.063 -0.032,0.054 -0.035,0.055 -0.07,0.102 -0.035,0.046 -0.035,0.04 -0.039,0.043 -0.102,0.101 -0.035,0.031 -0.031,0.024 -0.028,0.023 -0.031,0.024 -0.047,0.031 -0.019,0.012 -0.02,0.007 -0.031,0.016 c -0.047,0 -0.047,-0.035 -0.047,-0.043 0,-0.004 0,-0.019 0.016,-0.035 0.433,-0.344 0.601,-0.84 0.601,-1.356 0,-0.257 -0.047,-0.527 -0.144,-0.761 -0.137,-0.328 -0.321,-0.485 -0.457,-0.602 -0.012,-0.004 -0.016,-0.019 -0.016,-0.027 0,-0.008 0,-0.043 0.047,-0.043 0.055,0 0.793,0.461 0.793,1.433 z"
         style="fill:#0000ff;fill-opacity:1;fill-rule:evenodd;stroke:none"
         id="path280" /><path
         d="m 57.84,47.381 0.031,0.086 0.016,0.039 0.019,0.039 0.039,0.071 0.024,0.031 0.019,0.027 0.024,0.028 0.05,0.05 0.028,0.024 0.023,0.023 0.028,0.016 0.027,0.019 0.031,0.016 0.028,0.016 0.031,0.011 0.027,0.012 0.031,0.012 0.032,0.008 0.031,0.011 0.031,0.004 0.031,0.008 0.125,0.016 0.063,0.004 0.062,0 0,0.265 -1.793,0 0,-0.265 c 0.575,-0.008 0.743,-0.289 0.743,-0.45 0,-0.054 -0.024,-0.121 -0.039,-0.171 l -1.282,-3.946 -1.367,4.184 c -0.008,0.035 -0.027,0.086 -0.027,0.129 0,0.254 0.496,0.254 0.719,0.254 l 0,0.265 -2.254,0 0,-0.265 c 0.488,0 0.668,0 0.769,-0.309 l 0.188,-0.594 -1.188,-3.664 -1.375,4.203 c -0.008,0.024 -0.015,0.082 -0.015,0.11 0,0.254 0.496,0.254 0.718,0.254 l 0,0.265 -2.254,0 0,-0.265 c 0.641,0 0.672,-0.043 0.778,-0.356 l 1.707,-5.234 c 0.023,-0.078 0.051,-0.164 0.16,-0.164 0.121,0 0.137,0.062 0.172,0.172 l 1.406,4.339 1.418,-4.347 c 0.027,-0.078 0.051,-0.164 0.164,-0.164 0.117,0 0.137,0.062 0.172,0.172 l 1.629,5.011 z"
         style="fill:#0000ff;fill-opacity:1;fill-rule:evenodd;stroke:none"
         id="path282" /><path
         d="m 50.082,41.018 8.902,0 0,0.348 -8.902,0"
         style="fill:#0000ff;fill-opacity:1;fill-rule:nonzero;stroke:none"
         id="path284" /><path
         d="m 60.129,49.975 0,0.004 0.004,0 0,0.004 0.004,0.004 0,0.008 0.004,0 0,0.007 c 0,0.016 -0.008,0.039 -0.051,0.039 -0.055,0 -0.793,-0.457 -0.793,-1.429 0,-0.969 0.738,-1.434 0.793,-1.434 0.043,0 0.051,0.028 0.051,0.043 0,0.02 -0.012,0.024 -0.024,0.039 -0.508,0.403 -0.601,0.985 -0.601,1.352 0,0.703 0.324,1.164 0.613,1.363 z"
         style="fill:#0000ff;fill-opacity:1;fill-rule:evenodd;stroke:none"
         id="path286" /><path
         d="m 61.379,48.998 0.336,0 c 0.058,0 0.062,0.004 0.078,0.02 0.016,0.012 0.023,0.047 0.023,0.059 0,0.05 -0.043,0.05 -0.093,0.05 l -0.317,0 0.063,0.243 c 0.019,0.074 0.051,0.203 0.051,0.214 0,0.055 -0.036,0.106 -0.106,0.106 -0.047,0 -0.117,-0.031 -0.141,-0.113 -0.011,-0.043 0.02,0.086 -0.113,-0.45 l -0.344,0 c -0.054,0 -0.097,0 -0.097,-0.074 0,-0.055 0.039,-0.055 0.09,-0.055 l 0.32,0 -0.172,-0.671 c -0.012,-0.063 -0.035,-0.149 -0.035,-0.184 0,-0.164 0.152,-0.277 0.351,-0.277 0.348,0 0.559,0.382 0.559,0.445 0,0.039 -0.047,0.039 -0.059,0.039 -0.046,0 -0.05,-0.016 -0.066,-0.055 -0.094,-0.199 -0.273,-0.336 -0.422,-0.336 -0.09,0 -0.121,0.067 -0.121,0.157 0,0.043 0.004,0.05 0.008,0.078 l 0.207,0.804 z"
         style="fill:#0000ff;fill-opacity:1;fill-rule:evenodd;stroke:none"
         id="path288" /><path
         d="m 63.207,48.612 0,0.09 -0.008,0.086 -0.008,0.082 -0.015,0.082 -0.016,0.078 -0.019,0.074 -0.024,0.074 -0.019,0.067 -0.036,0.066 -0.027,0.062 -0.062,0.122 -0.035,0.046 -0.036,0.059 -0.07,0.094 -0.035,0.043 -0.07,0.078 -0.036,0.035 -0.035,0.027 -0.058,0.059 -0.036,0.02 -0.027,0.023 -0.027,0.016 -0.024,0.015 -0.019,0.012 -0.016,0.012 -0.015,0.004 -0.012,0.003 -0.008,0 c -0.047,0 -0.047,-0.031 -0.047,-0.039 0,-0.004 0,-0.015 0.02,-0.035 0.429,-0.344 0.601,-0.844 0.601,-1.355 0,-0.258 -0.05,-0.531 -0.148,-0.762 -0.137,-0.324 -0.317,-0.484 -0.457,-0.602 -0.008,-0.003 -0.016,-0.015 -0.016,-0.027 0,-0.012 0,-0.043 0.047,-0.043 0.059,0 0.793,0.461 0.793,1.434 z"
         style="fill:#0000ff;fill-opacity:1;fill-rule:evenodd;stroke:none"
         id="path290" /><path
         d="m 27.77,49.967 0,0.008 0.003,0 0,0.012 0.004,0 0,0.011 c 0,0.012 -0.004,0.04 -0.047,0.04 -0.058,0 -0.796,-0.457 -0.796,-1.434 0,-0.969 0.738,-1.43 0.796,-1.43 0.043,0 0.047,0.028 0.047,0.039 0,0.02 -0.011,0.028 -0.023,0.039 -0.508,0.403 -0.598,0.985 -0.598,1.352 0,0.703 0.324,1.164 0.614,1.363 z"
         style="fill:#0000ff;fill-opacity:1;fill-rule:evenodd;stroke:none"
         id="path292" /><path
         d="m 29.016,48.995 0.336,0 c 0.062,0 0.066,0.003 0.078,0.015 0.015,0.012 0.023,0.047 0.023,0.067 0,0.046 -0.043,0.046 -0.09,0.046 l -0.316,0 0.058,0.239 c 0.02,0.074 0.055,0.203 0.055,0.219 0,0.05 -0.039,0.101 -0.109,0.101 -0.047,0 -0.117,-0.031 -0.137,-0.109 -0.016,-0.047 0.02,0.086 -0.117,-0.45 l -0.34,0 c -0.059,0 -0.102,0 -0.102,-0.078 0,-0.05 0.04,-0.05 0.094,-0.05 l 0.317,0 -0.168,-0.672 c -0.016,-0.063 -0.039,-0.153 -0.039,-0.188 0,-0.164 0.152,-0.277 0.355,-0.277 0.344,0 0.555,0.387 0.555,0.445 0,0.039 -0.047,0.039 -0.059,0.039 -0.047,0 -0.051,-0.011 -0.066,-0.051 -0.094,-0.203 -0.27,-0.335 -0.422,-0.335 -0.09,0 -0.117,0.066 -0.117,0.152 0,0.043 0,0.055 0.007,0.078 l 0.204,0.809 z"
         style="fill:#0000ff;fill-opacity:1;fill-rule:evenodd;stroke:none"
         id="path294" /><path
         d="m 32.246,48.526 0.051,0 0.004,0.004 0.011,0 0.004,0.004 0.008,0 0.004,0.004 0.008,0 0.008,0.007 0.004,0 0.004,0.004 0.003,0.008 0.004,0.004 0,0.004 0.004,0.004 0,0.004 0.004,0.004 0,0.019 0.004,0 0,0.008 c 0,0.082 -0.078,0.082 -0.125,0.082 l -1.941,0 c -0.043,0 -0.121,0 -0.121,-0.082 0,-0.078 0.078,-0.078 0.121,-0.078 l 1.941,0 z"
         style="fill:#0000ff;fill-opacity:1;fill-rule:evenodd;stroke:none"
         id="path296" /><path
         d="m 33.973,49.709 0,0.036 -0.004,0.003 0,0.016 -0.004,0.004 0,0.008 -0.012,0.012 -0.004,0 -0.004,0.003 -0.004,0 -0.003,0.004 -0.04,0 -0.003,0.004 -0.028,0 c -0.203,-0.187 -0.519,-0.187 -0.578,-0.187 l -0.047,0 0,-0.125 0.047,0 c 0.066,0 0.254,0.008 0.418,0.082 l 0,-1.434 c 0,-0.09 0,-0.121 -0.305,-0.121 l -0.14,0 0,-0.125 1.156,0 0,0.125 -0.145,0 c -0.3,0 -0.3,0.031 -0.3,0.121 l 0,1.574 z"
         style="fill:#0000ff;fill-opacity:1;fill-rule:evenodd;stroke:none"
         id="path298" /><path
         d="m 35.906,48.604 0,0.09 -0.004,0.047 -0.004,0.043 -0.023,0.164 -0.016,0.074 -0.023,0.078 -0.02,0.07 -0.027,0.071 -0.027,0.066 -0.028,0.063 -0.062,0.117 -0.035,0.054 -0.035,0.051 -0.071,0.094 -0.035,0.043 -0.035,0.039 -0.039,0.039 -0.031,0.035 -0.036,0.031 -0.062,0.055 -0.031,0.024 -0.028,0.019 -0.027,0.016 -0.023,0.015 -0.039,0.024 -0.012,0.008 -0.012,0.004 -0.008,0 c -0.047,0 -0.047,-0.036 -0.047,-0.04 0,-0.003 0,-0.019 0.02,-0.039 0.43,-0.339 0.602,-0.839 0.602,-1.355 0,-0.258 -0.051,-0.527 -0.149,-0.762 -0.137,-0.324 -0.316,-0.484 -0.457,-0.597 -0.008,-0.004 -0.016,-0.02 -0.016,-0.032 0,-0.007 0,-0.039 0.047,-0.039 0.059,0 0.793,0.457 0.793,1.43 z"
         style="fill:#0000ff;fill-opacity:1;fill-rule:evenodd;stroke:none"
         id="path300" /><path
         d="m 109.73,54.393 0.012,0.023 0.016,0.047 0.015,0.024 0.008,0.019 0.012,0.024 0.016,0.023 0.062,0.078 0.074,0.075 0.024,0.011 0.043,0.031 0.054,0.024 0.024,0.016 0.031,0.007 0.031,0.012 0.028,0.012 0.035,0.008 0.031,0.007 0.074,0.012 0.078,0.008 0.043,0.004 0.043,0 0,0.211 -1.457,0 0,-0.211 c 0.36,-0.008 0.504,-0.188 0.504,-0.348 0,-0.051 -0.023,-0.097 -0.035,-0.137 l -1.266,-3.332 -1.32,3.493 c -0.039,0.093 -0.039,0.105 -0.039,0.125 0,0.199 0.395,0.199 0.563,0.199 l 0,0.211 -1.86,0 0,-0.211 c 0.446,0 0.578,0 0.676,-0.266 l 1.602,-4.238 c 0.046,-0.133 0.082,-0.156 0.171,-0.156 0.122,0 0.133,0.035 0.165,0.133 l 1.542,4.062 z"
         style="fill:#0000ff;fill-opacity:1;fill-rule:evenodd;stroke:none"
         id="path302" /><path
         d="m 105.441,49.245 5.293,0 0,0.281 -5.293,0"
         style="fill:#0000ff;fill-opacity:1;fill-rule:nonzero;stroke:none"
         id="path304" /><path
         d="m 111.586,56.616 0.004,0 0,0.007 0.004,0 0,0.016 c 0,0.012 -0.004,0.035 -0.039,0.035 -0.043,0 -0.641,-0.375 -0.641,-1.16 0,-0.785 0.598,-1.16 0.641,-1.16 0.035,0 0.039,0.023 0.039,0.035 0,0.016 -0.008,0.02 -0.016,0.027 -0.414,0.329 -0.488,0.801 -0.488,1.098 0,0.57 0.262,0.942 0.496,1.102 z"
         style="fill:#0000ff;fill-opacity:1;fill-rule:evenodd;stroke:none"
         id="path306" /><path
         d="m 112.598,55.831 0.273,0 c 0.047,0 0.051,0 0.063,0.007 0.011,0.012 0.019,0.043 0.019,0.055 0,0.043 -0.035,0.043 -0.078,0.043 l -0.254,0 0.051,0.191 c 0.016,0.059 0.039,0.164 0.039,0.176 0,0.039 -0.027,0.082 -0.082,0.082 -0.039,0 -0.098,-0.023 -0.117,-0.086 -0.008,-0.043 0.015,0.067 -0.09,-0.363 l -0.277,0 c -0.047,0 -0.083,0 -0.083,-0.066 0,-0.039 0.036,-0.039 0.075,-0.039 l 0.258,0 -0.137,-0.547 c -0.012,-0.051 -0.028,-0.125 -0.028,-0.149 0,-0.133 0.122,-0.226 0.282,-0.226 0.281,0 0.453,0.312 0.453,0.359 0,0.031 -0.039,0.031 -0.047,0.031 -0.039,0 -0.043,-0.008 -0.055,-0.039 -0.074,-0.168 -0.222,-0.273 -0.34,-0.273 -0.074,0 -0.097,0.051 -0.097,0.121 0,0.039 0.004,0.047 0.004,0.066 l 0.168,0.657 z"
         style="fill:#0000ff;fill-opacity:1;fill-rule:evenodd;stroke:none"
         id="path308" /><path
         d="m 114.43,55.448 0.804,0 c 0.032,0 0.094,0 0.094,0.066 0,0.067 -0.062,0.067 -0.094,0.067 l -0.804,0 0,0.804 c 0,0.035 0,0.098 -0.067,0.098 -0.062,0 -0.062,-0.063 -0.062,-0.098 l 0,-0.804 -0.813,0 c -0.031,0 -0.093,0 -0.093,-0.067 0,-0.066 0.062,-0.066 0.093,-0.066 l 0.813,0 0,-0.809 c 0,-0.031 0,-0.094 0.062,-0.094 0.067,0 0.067,0.063 0.067,0.094 l 0,0.809 z"
         style="fill:#0000ff;fill-opacity:1;fill-rule:evenodd;stroke:none"
         id="path310" /><path
         d="m 116.422,56.409 0,0.043 -0.004,0.004 0,0.007 -0.004,0 0,0.004 -0.004,0 0,0.004 -0.004,0 -0.004,0.004 -0.007,0 -0.004,0.004 -0.051,0 c -0.164,-0.148 -0.422,-0.148 -0.469,-0.148 l -0.039,0 0,-0.102 0.039,0 c 0.055,0 0.207,0.004 0.34,0.062 l 0,-1.156 c 0,-0.074 0,-0.097 -0.25,-0.097 l -0.117,0 0,-0.102 0.941,0 0,0.102 -0.117,0 c -0.246,0 -0.246,0.023 -0.246,0.097 l 0,1.274 z"
         style="fill:#0000ff;fill-opacity:1;fill-rule:evenodd;stroke:none"
         id="path312" /><path
         d="m 117.988,55.514 0,0.106 -0.004,0.035 -0.011,0.07 -0.008,0.063 -0.012,0.062 -0.019,0.063 -0.016,0.058 -0.047,0.11 -0.019,0.05 -0.028,0.051 -0.023,0.043 -0.031,0.043 -0.055,0.086 -0.027,0.035 -0.032,0.031 -0.031,0.036 -0.109,0.109 -0.024,0.019 -0.023,0.016 -0.028,0.02 -0.035,0.027 -0.015,0.008 -0.02,0.008 -0.023,0.011 c -0.039,0 -0.039,-0.027 -0.039,-0.035 0,-0.004 0,-0.016 0.015,-0.027 0.348,-0.278 0.485,-0.68 0.485,-1.098 0,-0.207 -0.039,-0.426 -0.118,-0.617 -0.109,-0.266 -0.257,-0.391 -0.367,-0.488 -0.012,0 -0.015,-0.016 -0.015,-0.02 0,-0.008 0,-0.035 0.039,-0.035 0.043,0 0.64,0.371 0.64,1.16 z"
         style="fill:#0000ff;fill-opacity:1;fill-rule:evenodd;stroke:none"
         id="path314" /><path
         d="m 109.027,19.713 -0.004,-0.093 -0.003,-0.086 -0.012,-0.086 -0.012,-0.082 -0.016,-0.086 -0.042,-0.149 -0.028,-0.074 -0.027,-0.07 -0.031,-0.067 -0.036,-0.066 -0.078,-0.121 -0.039,-0.055 -0.043,-0.051 -0.051,-0.05 -0.043,-0.047 -0.101,-0.09 -0.055,-0.039 -0.051,-0.035 -0.113,-0.063 -0.117,-0.051 -0.117,-0.035 -0.063,-0.015 -0.062,-0.012 -0.059,-0.004 -0.062,-0.008 -0.063,0 c -0.32,0 -1.137,0.172 -1.137,1.485 l 0,2.632 c 0,0.25 0.012,0.325 0.543,0.325 l 0.168,0 0,0.214 -2.039,0 0,-0.214 0.164,0 c 0.536,0 0.547,-0.075 0.547,-0.325 l 0,-2.605 c 0,-0.973 0.801,-1.727 1.743,-1.727 0.792,0 1.417,0.641 1.531,1.43 0.019,0.141 0.019,0.199 0.019,0.477 l 0,2.211 c 0,0.226 0,0.539 0.715,0.539 l 0,0.214 -1.641,0 0,-0.214 c 0.715,0 0.715,-0.325 0.715,-0.512 l 0,-2.395 z"
         style="fill:#0000ff;fill-opacity:1;fill-rule:evenodd;stroke:none"
         id="path316" /><path
         d="m 105.004,17.006 5.195,0 0,0.282 -5.195,0"
         style="fill:#0000ff;fill-opacity:1;fill-rule:nonzero;stroke:none"
         id="path318" /><path
         d="m 110.941,23.991 0.004,0 0,0.007 0.004,0 0,0.016 c 0,0.008 -0.004,0.035 -0.039,0.035 -0.043,0 -0.64,-0.375 -0.64,-1.16 0,-0.785 0.597,-1.16 0.64,-1.16 0.035,0 0.039,0.023 0.039,0.035 0,0.012 -0.008,0.02 -0.015,0.027 -0.414,0.329 -0.489,0.801 -0.489,1.098 0,0.567 0.262,0.942 0.496,1.102 z"
         style="fill:#0000ff;fill-opacity:1;fill-rule:evenodd;stroke:none"
         id="path320" /><path
         d="m 111.953,23.206 0.274,0 c 0.046,0 0.05,0 0.062,0.007 0.012,0.008 0.02,0.043 0.02,0.055 0,0.039 -0.036,0.039 -0.079,0.039 l -0.253,0 0.05,0.195 c 0.016,0.059 0.039,0.164 0.039,0.176 0,0.039 -0.027,0.082 -0.086,0.082 -0.035,0 -0.093,-0.023 -0.113,-0.09 -0.008,-0.039 0.016,0.071 -0.09,-0.363 l -0.281,0 c -0.043,0 -0.078,0 -0.078,-0.066 0,-0.035 0.031,-0.035 0.074,-0.035 l 0.258,0 -0.137,-0.547 c -0.011,-0.051 -0.031,-0.125 -0.031,-0.149 0,-0.133 0.125,-0.226 0.285,-0.226 0.281,0 0.453,0.312 0.453,0.359 0,0.031 -0.039,0.031 -0.047,0.031 -0.039,0 -0.043,-0.008 -0.054,-0.039 -0.074,-0.168 -0.223,-0.277 -0.34,-0.277 -0.074,0 -0.098,0.055 -0.098,0.125 0,0.039 0,0.043 0.004,0.066 l 0.168,0.657 z"
         style="fill:#0000ff;fill-opacity:1;fill-rule:evenodd;stroke:none"
         id="path322" /><path
         d="m 113.785,22.823 0.805,0 c 0.031,0 0.094,0 0.094,0.066 0,0.067 -0.063,0.067 -0.094,0.067 l -0.805,0 0,0.804 c 0,0.031 0,0.094 -0.066,0.094 -0.063,0 -0.063,-0.063 -0.063,-0.094 l 0,-0.804 -0.812,0 c -0.032,0 -0.094,0 -0.094,-0.067 0,-0.066 0.062,-0.066 0.094,-0.066 l 0.812,0 0,-0.809 c 0,-0.031 0,-0.094 0.063,-0.094 0.066,0 0.066,0.063 0.066,0.094 l 0,0.809 z"
         style="fill:#0000ff;fill-opacity:1;fill-rule:evenodd;stroke:none"
         id="path324" /><path
         d="m 115.777,23.784 0,0.043 -0.004,0.004 0,0.003 -0.003,0 0,0.008 -0.004,0 0,0.004 -0.004,0 -0.004,0.004 -0.008,0 -0.004,0.004 -0.051,0 c -0.164,-0.152 -0.422,-0.152 -0.468,-0.152 l -0.039,0 0,-0.098 0.039,0 c 0.054,0 0.207,0.004 0.339,0.062 l 0,-1.156 c 0,-0.074 0,-0.097 -0.246,-0.097 l -0.121,0 0,-0.102 0.942,0 0,0.102 -0.118,0 c -0.246,0 -0.246,0.023 -0.246,0.097 l 0,1.274 z"
         style="fill:#0000ff;fill-opacity:1;fill-rule:evenodd;stroke:none"
         id="path326" /><path
         d="m 117.344,22.889 0,0.106 -0.004,0.035 -0.012,0.07 -0.008,0.063 -0.011,0.062 -0.02,0.063 -0.016,0.058 -0.046,0.11 -0.02,0.05 -0.027,0.051 -0.024,0.043 -0.027,0.043 -0.059,0.082 -0.027,0.039 -0.031,0.031 -0.032,0.036 -0.082,0.082 -0.027,0.023 -0.047,0.039 -0.027,0.02 -0.035,0.027 -0.016,0.008 -0.016,0.004 -0.027,0.015 c -0.039,0 -0.039,-0.027 -0.039,-0.035 0,-0.004 0,-0.016 0.016,-0.027 0.347,-0.281 0.484,-0.68 0.484,-1.098 0,-0.211 -0.035,-0.43 -0.117,-0.617 -0.109,-0.266 -0.258,-0.395 -0.367,-0.488 -0.012,-0.004 -0.016,-0.016 -0.016,-0.02 0,-0.008 0,-0.035 0.039,-0.035 0.047,0 0.641,0.371 0.641,1.16 z"
         style="fill:#0000ff;fill-opacity:1;fill-rule:evenodd;stroke:none"
         id="path328" /><path
         d="m 76.773,19.42 0,-0.086 -0.015,-0.164 -0.012,-0.074 -0.016,-0.078 -0.042,-0.141 -0.024,-0.07 -0.027,-0.066 -0.028,-0.063 -0.035,-0.058 -0.07,-0.114 -0.039,-0.054 -0.039,-0.047 -0.047,-0.047 -0.039,-0.047 -0.094,-0.082 -0.051,-0.035 -0.05,-0.031 -0.11,-0.063 -0.105,-0.047 -0.114,-0.035 -0.054,-0.012 -0.059,-0.011 -0.058,-0.004 -0.059,-0.008 -0.055,0 c -0.304,0 -1.066,0.16 -1.066,1.39 l 0,2.469 c 0,0.235 0.012,0.305 0.508,0.305 l 0.156,0 0,0.199 -1.91,0 0,-0.199 0.156,0 c 0.5,0 0.512,-0.07 0.512,-0.305 l 0,-2.441 c 0,-0.914 0.75,-1.617 1.633,-1.617 0.742,0 1.328,0.601 1.437,1.339 0.016,0.129 0.016,0.184 0.016,0.446 l 0,2.07 c 0,0.215 0,0.508 0.668,0.508 l 0,0.199 -1.536,0 0,-0.199 c 0.668,0 0.668,-0.305 0.668,-0.481 l 0,-2.246 z"
         style="fill:#0000ff;fill-opacity:1;fill-rule:evenodd;stroke:none"
         id="path330" /><path
         d="m 73.004,16.885 4.867,0 0,0.262 -4.867,0"
         style="fill:#0000ff;fill-opacity:1;fill-rule:nonzero;stroke:none"
         id="path332" /><path
         d="m 78.684,23.557 0,0.004 0.004,0.004 0,0.008 0.003,0 0,0.008 c 0,0.007 -0.007,0.027 -0.039,0.027 -0.043,0 -0.601,-0.348 -0.601,-1.086 0,-0.734 0.558,-1.09 0.601,-1.09 0.032,0 0.039,0.024 0.039,0.035 0,0.016 -0.007,0.02 -0.019,0.028 -0.383,0.308 -0.457,0.75 -0.457,1.027 0,0.531 0.246,0.883 0.469,1.035 z"
         style="fill:#0000ff;fill-opacity:1;fill-rule:evenodd;stroke:none"
         id="path334" /><path
         d="m 79.629,22.819 0.258,0 c 0.043,0 0.047,0 0.058,0.012 0.012,0.007 0.016,0.035 0.016,0.046 0,0.039 -0.031,0.039 -0.07,0.039 l -0.239,0 0.047,0.18 c 0.012,0.055 0.035,0.152 0.035,0.164 0,0.039 -0.023,0.078 -0.078,0.078 -0.035,0 -0.09,-0.023 -0.105,-0.082 -0.012,-0.035 0.015,0.067 -0.086,-0.34 l -0.262,0 c -0.043,0 -0.074,0 -0.074,-0.062 0,-0.035 0.031,-0.035 0.066,-0.035 l 0.246,0 -0.132,-0.512 c -0.008,-0.051 -0.024,-0.113 -0.024,-0.141 0,-0.125 0.113,-0.21 0.266,-0.21 0.261,0 0.422,0.292 0.422,0.335 0,0.032 -0.035,0.032 -0.043,0.032 -0.035,0 -0.039,-0.008 -0.051,-0.039 -0.07,-0.153 -0.207,-0.254 -0.32,-0.254 -0.067,0 -0.09,0.047 -0.09,0.117 0,0.031 0,0.039 0.004,0.059 l 0.156,0.613 z"
         style="fill:#0000ff;fill-opacity:1;fill-rule:evenodd;stroke:none"
         id="path336" /><path
         d="m 81.016,22.522 0,0.101 -0.004,0.032 -0.008,0.066 -0.024,0.117 -0.015,0.055 -0.016,0.059 -0.019,0.05 -0.024,0.051 -0.019,0.047 -0.047,0.09 -0.028,0.039 -0.027,0.043 -0.055,0.07 -0.023,0.031 -0.055,0.059 -0.027,0.027 -0.027,0.024 -0.047,0.043 -0.024,0.015 -0.019,0.016 -0.039,0.024 -0.016,0.011 -0.012,0.008 -0.011,0.004 -0.008,0.004 -0.008,0 c -0.035,0 -0.035,-0.027 -0.035,-0.027 0,-0.004 0,-0.016 0.016,-0.032 0.324,-0.258 0.457,-0.636 0.457,-1.027 0,-0.195 -0.04,-0.402 -0.114,-0.578 -0.105,-0.246 -0.242,-0.367 -0.347,-0.453 -0.004,-0.004 -0.012,-0.016 -0.012,-0.024 0,-0.008 0,-0.035 0.035,-0.035 0.047,0 0.602,0.352 0.602,1.09 z"
         style="fill:#0000ff;fill-opacity:1;fill-rule:evenodd;stroke:none"
         id="path338" /><path
         d="M 44.535,19.584 44.531,19.495 44.527,19.413 44.516,19.331 44.504,19.252 44.488,19.174 44.449,19.03 44.422,18.959 44.398,18.893 44.367,18.831 44.332,18.768 44.262,18.651 44.223,18.6 44.18,18.549 l -0.047,-0.047 -0.039,-0.046 -0.098,-0.083 -0.051,-0.039 -0.05,-0.031 -0.11,-0.058 -0.109,-0.051 -0.114,-0.035 -0.117,-0.024 -0.058,-0.008 -0.059,-0.004 -0.058,0 c -0.305,0 -1.082,0.161 -1.082,1.411 l 0,2.511 c 0,0.239 0.011,0.309 0.515,0.309 l 0.16,0 0,0.203 -1.941,0 0,-0.203 0.156,0 c 0.508,0 0.52,-0.07 0.52,-0.309 l 0,-2.484 c 0,-0.926 0.761,-1.645 1.66,-1.645 0.758,0 1.351,0.614 1.461,1.364 0.019,0.133 0.019,0.187 0.019,0.453 l 0,2.105 c 0,0.219 0,0.516 0.68,0.516 l 0,0.203 -1.563,0 0,-0.203 c 0.68,0 0.68,-0.309 0.68,-0.488 l 0,-2.282 z"
         style="fill:#0000ff;fill-opacity:1;fill-rule:evenodd;stroke:none"
         id="path340" /><path
         d="m 40.703,17.006 4.945,0 0,0.266 -4.945,0"
         style="fill:#0000ff;fill-opacity:1;fill-rule:nonzero;stroke:none"
         id="path342" /><path
         d="m 46.215,24.01 0,0.004 0.004,0 0,0.012 0.004,0 0,0.008 c 0,0.007 -0.004,0.027 -0.039,0.027 -0.043,0 -0.614,-0.352 -0.614,-1.102 0,-0.75 0.571,-1.105 0.614,-1.105 0.035,0 0.039,0.023 0.039,0.031 0,0.016 -0.012,0.02 -0.02,0.031 -0.391,0.309 -0.461,0.758 -0.461,1.043 0,0.539 0.25,0.895 0.473,1.051 z"
         style="fill:#0000ff;fill-opacity:1;fill-rule:evenodd;stroke:none"
         id="path344" /><path
         d="m 47.176,23.26 0.258,0 c 0.05,0 0.054,0 0.062,0.012 0.012,0.008 0.016,0.035 0.016,0.051 0,0.035 -0.032,0.035 -0.067,0.035 l -0.246,0 0.047,0.183 c 0.016,0.059 0.043,0.157 0.043,0.168 0,0.039 -0.031,0.079 -0.086,0.079 -0.035,0 -0.09,-0.024 -0.105,-0.082 -0.012,-0.036 0.015,0.066 -0.09,-0.348 l -0.262,0 c -0.047,0 -0.078,0 -0.078,-0.059 0,-0.039 0.031,-0.039 0.07,-0.039 l 0.246,0 -0.129,-0.519 c -0.015,-0.047 -0.031,-0.118 -0.031,-0.145 0,-0.125 0.117,-0.215 0.274,-0.215 0.265,0 0.429,0.301 0.429,0.344 0,0.031 -0.039,0.031 -0.047,0.031 -0.035,0 -0.039,-0.011 -0.05,-0.039 -0.075,-0.156 -0.207,-0.261 -0.325,-0.261 -0.07,0 -0.089,0.054 -0.089,0.121 0,0.031 0,0.039 0.004,0.058 l 0.156,0.625 z"
         style="fill:#0000ff;fill-opacity:1;fill-rule:evenodd;stroke:none"
         id="path346" /><path
         d="m 49.668,22.897 0.039,0 0.004,0.004 0.008,0 0.004,0.004 0.015,0 0.004,0.008 0.004,0 0.008,0.007 0,0.008 0.008,0.008 0,0.023 c 0,0.063 -0.059,0.063 -0.094,0.063 l -1.496,0 c -0.035,0 -0.094,0 -0.094,-0.063 0,-0.062 0.059,-0.062 0.094,-0.062 l 1.496,0 z"
         style="fill:#0000ff;fill-opacity:1;fill-rule:evenodd;stroke:none"
         id="path348" /><path
         d="m 51,23.811 0,0.027 -0.004,0 0,0.016 -0.004,0 0,0.008 -0.008,0.008 -0.004,0 -0.007,0.007 -0.055,0 c -0.156,-0.14 -0.402,-0.14 -0.445,-0.14 l -0.035,0 0,-0.098 0.035,0 c 0.05,0 0.195,0.004 0.32,0.063 l 0,-1.106 c 0,-0.07 0,-0.094 -0.234,-0.094 l -0.11,0 0,-0.097 0.895,0 0,0.097 -0.114,0 C 51,22.502 51,22.526 51,22.596 l 0,1.215 z"
         style="fill:#0000ff;fill-opacity:1;fill-rule:evenodd;stroke:none"
         id="path350" /><path
         d="m 52.492,22.959 0,0.067 -0.004,0.039 -0.004,0.031 -0.019,0.125 -0.012,0.059 -0.015,0.058 -0.016,0.055 -0.024,0.055 -0.039,0.101 -0.05,0.09 -0.028,0.043 -0.027,0.039 -0.051,0.07 -0.031,0.036 -0.024,0.027 -0.031,0.031 -0.023,0.028 -0.028,0.023 -0.05,0.043 -0.024,0.019 -0.019,0.012 -0.024,0.016 -0.015,0.012 -0.032,0.015 -0.007,0.008 -0.016,0 c -0.035,0 -0.035,-0.023 -0.035,-0.027 0,-0.004 0,-0.016 0.011,-0.032 0.333,-0.261 0.465,-0.648 0.465,-1.043 0,-0.199 -0.039,-0.406 -0.113,-0.589 -0.105,-0.25 -0.242,-0.372 -0.352,-0.461 -0.007,-0.004 -0.011,-0.016 -0.011,-0.024 0,-0.008 0,-0.031 0.035,-0.031 0.043,0 0.613,0.352 0.613,1.105 z"
         style="fill:#0000ff;fill-opacity:1;fill-rule:evenodd;stroke:none"
         id="path352" /><path
         d="m 77.602,54.166 0.007,0.02 0.008,0.023 0.012,0.024 0.012,0.019 0.007,0.024 0.012,0.019 0.016,0.024 0.012,0.015 0.046,0.059 0.036,0.035 0.019,0.016 0.02,0.019 0.019,0.012 0.043,0.027 0.024,0.016 0.027,0.012 0.023,0.011 0.028,0.008 0.031,0.012 0.027,0.008 0.031,0.012 0.032,0.003 0.07,0.012 0.074,0.008 0.039,0.004 0.043,0 0,0.203 -1.394,0 0,-0.203 c 0.344,-0.008 0.484,-0.18 0.484,-0.332 0,-0.051 -0.019,-0.094 -0.031,-0.133 l -1.211,-3.18 -1.262,3.336 c -0.039,0.09 -0.039,0.102 -0.039,0.117 0,0.192 0.375,0.192 0.539,0.192 l 0,0.203 -1.777,0 0,-0.203 c 0.426,0 0.551,0 0.644,-0.254 l 1.532,-4.051 c 0.047,-0.125 0.078,-0.148 0.164,-0.148 0.117,0 0.129,0.035 0.156,0.129 l 1.477,3.882 z"
         style="fill:#0000ff;fill-opacity:1;fill-rule:evenodd;stroke:none"
         id="path354" /><path
         d="m 73.5,49.245 5.059,0 0,0.269 -5.059,0"
         style="fill:#0000ff;fill-opacity:1;fill-rule:nonzero;stroke:none"
         id="path356" /><path
         d="m 79.359,55.776 0,0.004 0.004,0 0,0.015 0.004,0 0,0.004 c 0,0.012 -0.004,0.032 -0.039,0.032 -0.043,0 -0.613,-0.352 -0.613,-1.11 0,-0.75 0.57,-1.109 0.613,-1.109 0.035,0 0.039,0.027 0.039,0.035 0,0.016 -0.008,0.019 -0.015,0.031 -0.395,0.309 -0.469,0.762 -0.469,1.043 0,0.547 0.254,0.902 0.476,1.055 z"
         style="fill:#0000ff;fill-opacity:1;fill-rule:evenodd;stroke:none"
         id="path358" /><path
         d="m 80.328,55.026 0.258,0 c 0.047,0 0.047,0 0.062,0.012 0.012,0.007 0.016,0.035 0.016,0.046 0,0.039 -0.031,0.039 -0.074,0.039 l -0.242,0 0.047,0.184 c 0.015,0.059 0.039,0.16 0.039,0.172 0,0.039 -0.028,0.078 -0.082,0.078 -0.036,0 -0.09,-0.023 -0.106,-0.086 -0.012,-0.035 0.016,0.067 -0.09,-0.348 l -0.265,0 c -0.043,0 -0.075,0 -0.075,-0.058 0,-0.039 0.032,-0.039 0.067,-0.039 l 0.25,0 L 80,54.506 c -0.008,-0.054 -0.027,-0.121 -0.027,-0.144 0,-0.129 0.117,-0.215 0.273,-0.215 0.266,0 0.43,0.297 0.43,0.344 0,0.031 -0.035,0.031 -0.043,0.031 -0.039,0 -0.043,-0.012 -0.051,-0.043 -0.074,-0.156 -0.215,-0.258 -0.328,-0.258 -0.07,0 -0.094,0.047 -0.094,0.117 0,0.035 0.004,0.043 0.008,0.063 l 0.16,0.625 z"
         style="fill:#0000ff;fill-opacity:1;fill-rule:evenodd;stroke:none"
         id="path360" /><path
         d="m 81.742,54.721 0,0.07 -0.004,0.036 -0.004,0.031 -0.007,0.066 -0.012,0.063 -0.012,0.058 -0.015,0.059 -0.016,0.055 -0.02,0.054 -0.047,0.102 -0.046,0.09 -0.028,0.039 -0.027,0.043 -0.055,0.074 -0.082,0.094 -0.027,0.027 -0.028,0.024 -0.046,0.042 -0.047,0.032 -0.039,0.023 -0.012,0.012 -0.016,0.008 -0.011,0.004 -0.008,0.004 -0.004,0 c -0.039,0 -0.039,-0.028 -0.039,-0.032 0,0 0,-0.011 0.015,-0.027 0.333,-0.266 0.465,-0.652 0.465,-1.051 0,-0.199 -0.039,-0.406 -0.113,-0.59 -0.105,-0.25 -0.246,-0.371 -0.355,-0.461 -0.004,-0.004 -0.012,-0.015 -0.012,-0.023 0,-0.008 0,-0.035 0.039,-0.035 0.043,0 0.613,0.359 0.613,1.109 z"
         style="fill:#0000ff;fill-opacity:1;fill-rule:evenodd;stroke:none"
         id="path362" /><path
         d="m 44.934,54.077 0.011,0.023 0.008,0.023 0.008,0.02 0.012,0.02 0.007,0.019 0.012,0.024 0.016,0.019 0.012,0.016 0.015,0.023 0.027,0.035 0.036,0.035 0.019,0.012 0.016,0.02 0.023,0.011 0.039,0.028 0.024,0.011 0.027,0.012 0.024,0.012 0.054,0.023 0.028,0.008 0.062,0.016 0.07,0.011 0.071,0.004 0.035,0.004 0.043,0 0,0.2 -1.352,0 0,-0.2 c 0.336,-0.008 0.469,-0.172 0.469,-0.32 0,-0.051 -0.02,-0.09 -0.031,-0.129 l -1.172,-3.086 -1.227,3.235 c -0.039,0.089 -0.039,0.101 -0.039,0.117 0,0.183 0.367,0.183 0.528,0.183 l 0,0.2 -1.727,0 0,-0.2 c 0.41,0 0.535,0 0.625,-0.242 l 1.488,-3.933 c 0.043,-0.122 0.075,-0.141 0.157,-0.141 0.113,0 0.125,0.031 0.152,0.121 l 1.43,3.766 z"
         style="fill:#0000ff;fill-opacity:1;fill-rule:evenodd;stroke:none"
         id="path364" /><path
         d="m 40.957,49.303 4.906,0 0,0.262 -4.906,0"
         style="fill:#0000ff;fill-opacity:1;fill-rule:nonzero;stroke:none"
         id="path366" /><path
         d="m 46.629,56.139 0,0.012 0.004,0 0,0.008 c 0,0.011 -0.004,0.031 -0.035,0.031 -0.043,0 -0.598,-0.344 -0.598,-1.074 0,-0.727 0.555,-1.075 0.598,-1.075 0.031,0 0.035,0.02 0.035,0.032 0,0.011 -0.008,0.019 -0.016,0.027 -0.383,0.301 -0.449,0.738 -0.449,1.016 0,0.527 0.242,0.871 0.461,1.023 z"
         style="fill:#0000ff;fill-opacity:1;fill-rule:evenodd;stroke:none"
         id="path368" /><path
         d="m 47.562,55.409 0.254,0 c 0.043,0 0.047,0 0.059,0.011 0.012,0.008 0.016,0.036 0.016,0.051 0,0.031 -0.032,0.031 -0.067,0.031 l -0.238,0 0.043,0.18 c 0.016,0.059 0.043,0.152 0.043,0.164 0,0.039 -0.031,0.078 -0.082,0.078 -0.035,0 -0.09,-0.023 -0.106,-0.082 -0.007,-0.035 0.016,0.063 -0.086,-0.34 l -0.253,0 c -0.043,0 -0.079,0 -0.079,-0.058 0,-0.035 0.032,-0.035 0.071,-0.035 l 0.238,0 -0.125,-0.504 c -0.012,-0.047 -0.031,-0.117 -0.031,-0.141 0,-0.125 0.113,-0.211 0.265,-0.211 0.262,0 0.418,0.293 0.418,0.336 0,0.027 -0.035,0.027 -0.043,0.027 -0.035,0 -0.039,-0.007 -0.05,-0.035 -0.071,-0.152 -0.204,-0.254 -0.317,-0.254 -0.066,0 -0.09,0.051 -0.09,0.114 0,0.035 0,0.043 0.008,0.058 l 0.152,0.61 z"
         style="fill:#0000ff;fill-opacity:1;fill-rule:evenodd;stroke:none"
         id="path370" /><path
         d="m 49.984,55.057 0.039,0 0.004,0.004 0.02,0 0,0.004 0.008,0 0.004,0.004 0.003,0 0.004,0.004 0.004,0.008 0,0.003 0.004,0.004 0,0.004 0.004,0.004 0,0.02 c 0,0.058 -0.058,0.058 -0.094,0.058 l -1.453,0 c -0.035,0 -0.093,0 -0.093,-0.058 0,-0.059 0.058,-0.059 0.093,-0.059 l 1.453,0 z"
         style="fill:#0000ff;fill-opacity:1;fill-rule:evenodd;stroke:none"
         id="path372" /><path
         d="m 51.281,55.944 0,0.027 -0.004,0 0,0.024 -0.011,0.007 -0.004,0.004 -0.035,0 -0.004,0.004 -0.02,0 C 51.051,55.87 50.812,55.87 50.77,55.87 l -0.036,0 0,-0.094 0.036,0 c 0.05,0 0.191,0.008 0.312,0.062 l 0,-1.074 c 0,-0.07 0,-0.094 -0.227,-0.094 l -0.105,0 0,-0.093 0.867,0 0,0.093 -0.109,0 c -0.227,0 -0.227,0.024 -0.227,0.094 l 0,1.18 z"
         style="fill:#0000ff;fill-opacity:1;fill-rule:evenodd;stroke:none"
         id="path374" /><path
         d="m 52.734,55.116 0,0.066 -0.004,0.035 -0.003,0.031 -0.02,0.125 -0.008,0.055 -0.019,0.059 -0.016,0.051 -0.019,0.054 -0.02,0.051 -0.02,0.047 -0.05,0.086 -0.024,0.043 -0.027,0.035 -0.051,0.074 -0.027,0.031 -0.059,0.059 -0.019,0.027 -0.028,0.02 -0.047,0.043 -0.023,0.019 -0.02,0.012 -0.023,0.012 -0.016,0.012 -0.031,0.019 -0.015,0.008 -0.008,0 c -0.035,0 -0.035,-0.027 -0.035,-0.031 0,0 0,-0.012 0.015,-0.028 0.324,-0.254 0.453,-0.629 0.453,-1.015 0,-0.196 -0.039,-0.399 -0.113,-0.575 -0.102,-0.242 -0.238,-0.363 -0.344,-0.445 -0.004,-0.004 -0.011,-0.015 -0.011,-0.023 0,-0.008 0,-0.032 0.035,-0.032 0.043,0 0.597,0.344 0.597,1.075 z"
         style="fill:#0000ff;fill-opacity:1;fill-rule:evenodd;stroke:none"
         id="path376" /><path
         d="m 32.508,79.682 15.211,0 0,-15.211 -15.211,0 0,15.211 z"
         style="fill:none;stroke:#000000;stroke-opacity:1;stroke-width:0.788435;stroke-linecap:square;stroke-linejoin:miter;stroke-miterlimit:4;stroke-dasharray:none"
         id="path378" /><path
         d="m 32.508,47.682 15.211,0 0,-15.211 -15.211,0 0,15.211 z"
         style="fill:none;stroke:#000000;stroke-opacity:1;stroke-width:0.788435;stroke-linecap:square;stroke-linejoin:miter;stroke-miterlimit:4;stroke-dasharray:none"
         id="path380" /><path
         d="m 32.508,15.682 15.211,0 0,-15.211 -15.211,0 0,15.211 z"
         style="fill:none;stroke:#000000;stroke-opacity:1;stroke-width:0.788435;stroke-linecap:square;stroke-linejoin:miter;stroke-miterlimit:4;stroke-dasharray:none"
         id="path382" /><path
         d="m 64.508,79.682 15.211,0 0,-15.211 -15.211,0 0,15.211 z"
         style="fill:none;stroke:#000000;stroke-opacity:1;stroke-width:0.788435;stroke-linecap:square;stroke-linejoin:miter;stroke-miterlimit:4;stroke-dasharray:none"
         id="path384" /><path
         d="m 64.508,47.682 15.211,0 0,-15.211 -15.211,0 0,15.211 z"
         style="fill:none;stroke:#000000;stroke-opacity:1;stroke-width:0.788435;stroke-linecap:square;stroke-linejoin:miter;stroke-miterlimit:4;stroke-dasharray:none"
         id="path386" /><path
         d="m 64.508,15.682 15.211,0 0,-15.211 -15.211,0 0,15.211 z"
         style="fill:none;stroke:#000000;stroke-opacity:1;stroke-width:0.788435;stroke-linecap:square;stroke-linejoin:miter;stroke-miterlimit:4;stroke-dasharray:none"
         id="path388" /><path
         d="m 96.508,79.682 15.211,0 0,-15.211 -15.211,0 0,15.211 z"
         style="fill:none;stroke:#000000;stroke-opacity:1;stroke-width:0.788435;stroke-linecap:square;stroke-linejoin:miter;stroke-miterlimit:4;stroke-dasharray:none"
         id="path390" /><path
         d="m 96.508,47.682 15.211,0 0,-15.211 -15.211,0 0,15.211 z"
         style="fill:none;stroke:#000000;stroke-opacity:1;stroke-width:0.788435;stroke-linecap:square;stroke-linejoin:miter;stroke-miterlimit:4;stroke-dasharray:none"
         id="path392" /><path
         d="m 96.508,15.682 15.211,0 0,-15.211 -15.211,0 0,15.211 z"
         style="fill:none;stroke:#000000;stroke-opacity:1;stroke-width:0.788435;stroke-linecap:square;stroke-linejoin:miter;stroke-miterlimit:4;stroke-dasharray:none"
         id="path394" /><path
         d="m 128.508,47.682 15.211,0 0,-15.211 -15.211,0 0,15.211 z"
         style="fill:none;stroke:#000000;stroke-opacity:1;stroke-width:0.7888;stroke-linecap:square;stroke-linejoin:miter;stroke-miterlimit:4;stroke-dasharray:0.7888,1.5776;stroke-dashoffset:0"
         id="path396" /><path
         d="m 0.508,47.682 15.211,0 0,-15.211 -15.211,0 0,15.211 z"
         style="fill:none;stroke:#000000;stroke-opacity:1;stroke-width:0.7888;stroke-linecap:square;stroke-linejoin:miter;stroke-miterlimit:4;stroke-dasharray:0.7888,1.5776;stroke-dashoffset:0"
         id="path398" /></g></g></svg>