<?xml version="1.0" encoding="UTF-8" standalone="no"?>
<!-- Created with Inkscape (http://www.inkscape.org/) -->

<svg
   xmlns:dc="http://purl.org/dc/elements/1.1/"
   xmlns:cc="http://creativecommons.org/ns#"
   xmlns:rdf="http://www.w3.org/1999/02/22-rdf-syntax-ns#"
   xmlns:svg="http://www.w3.org/2000/svg"
   xmlns="http://www.w3.org/2000/svg"
   xmlns:sodipodi="http://sodipodi.sourceforge.net/DTD/sodipodi-0.dtd"
   xmlns:inkscape="http://www.inkscape.org/namespaces/inkscape"
   id="svg2"
   version="1.1"
   inkscape:version="0.48.4 r9939"
   width="643.33153"
   height="213.52108"
   xml:space="preserve"
   sodipodi:docname="section1_fig74.pdf"><metadata
     id="metadata8"><rdf:RDF><cc:Work
         rdf:about=""><dc:format>image/svg+xml</dc:format><dc:type
           rdf:resource="http://purl.org/dc/dcmitype/StillImage" /><dc:title></dc:title></cc:Work></rdf:RDF></metadata><defs
     id="defs6" /><sodipodi:namedview
     pagecolor="#ffffff"
     bordercolor="#666666"
     borderopacity="1"
     objecttolerance="10"
     gridtolerance="10"
     guidetolerance="10"
     inkscape:pageopacity="0"
     inkscape:pageshadow="2"
     inkscape:window-width="640"
     inkscape:window-height="480"
     id="namedview4"
     showgrid="false"
     inkscape:zoom="0.54248856"
     inkscape:cx="321.66577"
     inkscape:cy="106.76054"
     inkscape:window-x="43"
     inkscape:window-y="306"
     inkscape:window-maximized="0"
     inkscape:current-layer="g10" /><g
     id="g10"
     inkscape:groupmode="layer"
     inkscape:label="section1_fig74"
     transform="matrix(1.25,0,0,-1.25,0,213.52108)"><g
       id="g12"><text
         transform="translate(-0.00859375,170.81686)"
         id="text14"><tspan
           style="fill:#000000;fill-opacity:1;fill-rule:nonzero;stroke:none;font-family:Arial;font-variant:normal;font-weight:normal;font-size:0.1;writing-mode:lr;-inkscape-font-specification:ArialMT"
           x="0"
           y="0"
           id="tspan16">!</tspan></text>
<path
         d="m 268.016,128.911 11.117,0 0,-11.113 -11.117,0 0,11.113 z"
         style="fill:#00c000;fill-opacity:1;fill-rule:evenodd;stroke:#00c000;stroke-opacity:1;stroke-width:1.85254;stroke-linecap:butt;stroke-linejoin:miter;stroke-miterlimit:10;stroke-dasharray:none"
         id="path18" /><path
         d="m 273.574,123.352 11.117,0 0,-11.113 -11.117,0 0,11.113 z"
         style="fill:#008000;fill-opacity:1;fill-rule:evenodd;stroke:#008000;stroke-opacity:1;stroke-width:1.85254;stroke-linecap:butt;stroke-linejoin:miter;stroke-miterlimit:10;stroke-dasharray:none"
         id="path20" /><path
         d="m 279.133,117.797 11.113,0 0,-11.117 -11.113,0 0,11.117 z"
         style="fill:#00c000;fill-opacity:1;fill-rule:evenodd;stroke:#00c000;stroke-opacity:1;stroke-width:1.85254;stroke-linecap:butt;stroke-linejoin:miter;stroke-miterlimit:10;stroke-dasharray:none"
         id="path22" /><path
         d="m 284.691,112.239 11.113,0 0,-11.117 -11.113,0 0,11.117 z"
         style="fill:#008000;fill-opacity:1;fill-rule:evenodd;stroke:#008000;stroke-opacity:1;stroke-width:1.85254;stroke-linecap:butt;stroke-linejoin:miter;stroke-miterlimit:10;stroke-dasharray:none"
         id="path24" /><path
         d="m 214.59,133.852 22.23,0 0,-22.234 -22.23,0 0,22.234 z"
         style="fill:#0000ff;fill-opacity:1;fill-rule:evenodd;stroke:#0000ff;stroke-opacity:1;stroke-width:1.85254;stroke-linecap:butt;stroke-linejoin:miter;stroke-miterlimit:10;stroke-dasharray:none"
         id="path26" /><path
         d="m 220.148,128.293 22.23,0 0,-22.23 -22.23,0 0,22.23 z"
         style="fill:#000080;fill-opacity:1;fill-rule:evenodd;stroke:#000080;stroke-opacity:1;stroke-width:1.85254;stroke-linecap:butt;stroke-linejoin:miter;stroke-miterlimit:10;stroke-dasharray:none"
         id="path28" /><path
         d="m 225.707,122.731 22.23,0 0,-22.227 -22.23,0 0,22.227 z"
         style="fill:#0000ff;fill-opacity:1;fill-rule:evenodd;stroke:#0000ff;stroke-opacity:1;stroke-width:1.85254;stroke-linecap:butt;stroke-linejoin:miter;stroke-miterlimit:10;stroke-dasharray:none"
         id="path30" /><path
         d="m 231.266,117.176 22.23,0 0,-22.23 -22.23,0 0,22.23 z"
         style="fill:#000080;fill-opacity:1;fill-rule:evenodd;stroke:#000080;stroke-opacity:1;stroke-width:1.85254;stroke-linecap:butt;stroke-linejoin:miter;stroke-miterlimit:10;stroke-dasharray:none"
         id="path32" /><path
         d="m 86.699,118.051 66.691,0 0,-66.691 -66.691,0 0,66.691 z"
         style="fill:#0000ff;fill-opacity:1;fill-rule:evenodd;stroke:none"
         id="path34" /><path
         d="m 92.258,112.493 66.691,0 0,-66.691 -66.691,0 0,66.691 z"
         style="fill:#000080;fill-opacity:1;fill-rule:evenodd;stroke:none"
         id="path36" /><path
         d="m 3.945,105.149 77.809,0 0,-77.805 -77.809,0 0,77.805 z"
         style="fill:#c3c3c3;fill-opacity:1;fill-rule:evenodd;stroke:#c3c3c3;stroke-opacity:1;stroke-width:1.85254;stroke-linecap:butt;stroke-linejoin:miter;stroke-miterlimit:10;stroke-dasharray:none"
         id="path38" /><path
         d="m 98.426,105.707 66.691,0 0,-66.691 -66.691,0 0,66.691 z"
         style="fill:#0000ff;fill-opacity:1;fill-rule:evenodd;stroke:none"
         id="path40" /><path
         d="m 103.98,100.149 66.695,0 0,-66.691 -66.695,0 0,66.691 z"
         style="fill:#000080;fill-opacity:1;fill-rule:evenodd;stroke:none"
         id="path42" /><path
         d="m 236.809,111.258 22.234,0 0,-22.23 -22.234,0 0,22.23 z"
         style="fill:#0000ff;fill-opacity:1;fill-rule:evenodd;stroke:#0000ff;stroke-opacity:1;stroke-width:1.85254;stroke-linecap:butt;stroke-linejoin:miter;stroke-miterlimit:10;stroke-dasharray:none"
         id="path44" /><path
         d="m 242.367,105.7 22.23,0 0,-22.23 -22.23,0 0,22.23 z"
         style="fill:#000080;fill-opacity:1;fill-rule:evenodd;stroke:#000080;stroke-opacity:1;stroke-width:1.85254;stroke-linecap:butt;stroke-linejoin:miter;stroke-miterlimit:10;stroke-dasharray:none"
         id="path46" /><path
         d="m 247.926,100.145 22.23,0 0,-22.23 -22.23,0 0,22.23 z"
         style="fill:#0000ff;fill-opacity:1;fill-rule:evenodd;stroke:#0000ff;stroke-opacity:1;stroke-width:1.85254;stroke-linecap:butt;stroke-linejoin:miter;stroke-miterlimit:10;stroke-dasharray:none"
         id="path48" /><path
         d="m 253.48,94.586 22.234,0 0,-22.23 -22.234,0 0,22.23 z"
         style="fill:#000080;fill-opacity:1;fill-rule:evenodd;stroke:#000080;stroke-opacity:1;stroke-width:1.85254;stroke-linecap:butt;stroke-linejoin:miter;stroke-miterlimit:10;stroke-dasharray:none"
         id="path50" /><path
         d="m 259.039,89.028 22.23,0 0,-22.23 -22.23,0 0,22.23 z"
         style="fill:#0000ff;fill-opacity:1;fill-rule:evenodd;stroke:#0000ff;stroke-opacity:1;stroke-width:1.85254;stroke-linecap:butt;stroke-linejoin:miter;stroke-miterlimit:10;stroke-dasharray:none"
         id="path52" /><path
         d="m 264.598,83.473 22.23,0 0,-22.23 -22.23,0 0,22.23 z"
         style="fill:#000080;fill-opacity:1;fill-rule:evenodd;stroke:#000080;stroke-opacity:1;stroke-width:1.85254;stroke-linecap:butt;stroke-linejoin:miter;stroke-miterlimit:10;stroke-dasharray:none"
         id="path54" /><path
         d="m 270.156,77.915 22.23,0 0,-22.23 -22.23,0 0,22.23 z"
         style="fill:#0000ff;fill-opacity:1;fill-rule:evenodd;stroke:#0000ff;stroke-opacity:1;stroke-width:1.85254;stroke-linecap:butt;stroke-linejoin:miter;stroke-miterlimit:10;stroke-dasharray:none"
         id="path56" /><path
         d="m 275.715,72.356 22.23,0 0,-22.23 -22.23,0 0,22.23 z"
         style="fill:#000080;fill-opacity:1;fill-rule:evenodd;stroke:#000080;stroke-opacity:1;stroke-width:1.85254;stroke-linecap:butt;stroke-linejoin:miter;stroke-miterlimit:10;stroke-dasharray:none"
         id="path58" /><path
         d="m 281.27,66.797 22.234,0 0,-22.23 -22.234,0 0,22.23 z"
         style="fill:#0000ff;fill-opacity:1;fill-rule:evenodd;stroke:#0000ff;stroke-opacity:1;stroke-width:1.85254;stroke-linecap:butt;stroke-linejoin:miter;stroke-miterlimit:10;stroke-dasharray:none"
         id="path60" /><path
         d="m 286.828,61.239 22.23,0 0,-22.23 -22.23,0 0,22.23 z"
         style="fill:#000080;fill-opacity:1;fill-rule:evenodd;stroke:#000080;stroke-opacity:1;stroke-width:1.85254;stroke-linecap:butt;stroke-linejoin:miter;stroke-miterlimit:10;stroke-dasharray:none"
         id="path62" /><path
         d="m 292.387,55.684 22.23,0 0,-22.23 -22.23,0 0,22.23 z"
         style="fill:#0000ff;fill-opacity:1;fill-rule:evenodd;stroke:#0000ff;stroke-opacity:1;stroke-width:1.85254;stroke-linecap:butt;stroke-linejoin:miter;stroke-miterlimit:10;stroke-dasharray:none"
         id="path64" /><path
         d="m 297.945,50.125 22.23,0 0,-22.23 -22.23,0 0,22.23 z"
         style="fill:#000080;fill-opacity:1;fill-rule:evenodd;stroke:#000080;stroke-opacity:1;stroke-width:1.85254;stroke-linecap:butt;stroke-linejoin:miter;stroke-miterlimit:10;stroke-dasharray:none"
         id="path66" /><path
         d="m 290.605,106.942 11.113,0 0,-11.117 -11.113,0 0,11.117 z"
         style="fill:#00c000;fill-opacity:1;fill-rule:evenodd;stroke:#00c000;stroke-opacity:1;stroke-width:1.85254;stroke-linecap:butt;stroke-linejoin:miter;stroke-miterlimit:10;stroke-dasharray:none"
         id="path68" /><path
         d="m 296.16,101.383 11.117,0 0,-11.117 -11.117,0 0,11.117 z"
         style="fill:#008000;fill-opacity:1;fill-rule:evenodd;stroke:#008000;stroke-opacity:1;stroke-width:1.85254;stroke-linecap:butt;stroke-linejoin:miter;stroke-miterlimit:10;stroke-dasharray:none"
         id="path70" /><path
         d="m 301.719,95.825 11.117,0 0,-11.113 -11.117,0 0,11.113 z"
         style="fill:#00c000;fill-opacity:1;fill-rule:evenodd;stroke:#00c000;stroke-opacity:1;stroke-width:1.85254;stroke-linecap:butt;stroke-linejoin:miter;stroke-miterlimit:10;stroke-dasharray:none"
         id="path72" /><path
         d="m 307.277,90.27 11.117,0 0,-11.117 -11.117,0 0,11.117 z"
         style="fill:#008000;fill-opacity:1;fill-rule:evenodd;stroke:#008000;stroke-opacity:1;stroke-width:1.85254;stroke-linecap:butt;stroke-linejoin:miter;stroke-miterlimit:10;stroke-dasharray:none"
         id="path74" /><path
         d="m 312.836,84.711 11.113,0 0,-11.117 -11.113,0 0,11.117 z"
         style="fill:#00c000;fill-opacity:1;fill-rule:evenodd;stroke:#00c000;stroke-opacity:1;stroke-width:1.85254;stroke-linecap:butt;stroke-linejoin:miter;stroke-miterlimit:10;stroke-dasharray:none"
         id="path76" /><path
         d="m 318.391,79.153 11.117,0 0,-11.117 -11.117,0 0,11.117 z"
         style="fill:#008000;fill-opacity:1;fill-rule:evenodd;stroke:#008000;stroke-opacity:1;stroke-width:1.85254;stroke-linecap:butt;stroke-linejoin:miter;stroke-miterlimit:10;stroke-dasharray:none"
         id="path78" /><path
         d="m 323.949,73.594 11.117,0 0,-11.113 -11.117,0 0,11.113 z"
         style="fill:#00c000;fill-opacity:1;fill-rule:evenodd;stroke:#00c000;stroke-opacity:1;stroke-width:1.85254;stroke-linecap:butt;stroke-linejoin:miter;stroke-miterlimit:10;stroke-dasharray:none"
         id="path80" /><path
         d="m 329.508,68.036 11.113,0 0,-11.113 -11.113,0 0,11.113 z"
         style="fill:#008000;fill-opacity:1;fill-rule:evenodd;stroke:#008000;stroke-opacity:1;stroke-width:1.85254;stroke-linecap:butt;stroke-linejoin:miter;stroke-miterlimit:10;stroke-dasharray:none"
         id="path82" /><path
         d="m 335.066,62.481 11.113,0 0,-11.117 -11.113,0 0,11.117 z"
         style="fill:#00c000;fill-opacity:1;fill-rule:evenodd;stroke:#00c000;stroke-opacity:1;stroke-width:1.85254;stroke-linecap:butt;stroke-linejoin:miter;stroke-miterlimit:10;stroke-dasharray:none"
         id="path84" /><path
         d="m 340.621,56.922 11.117,0 0,-11.117 -11.117,0 0,11.117 z"
         style="fill:#008000;fill-opacity:1;fill-rule:evenodd;stroke:#008000;stroke-opacity:1;stroke-width:1.85254;stroke-linecap:butt;stroke-linejoin:miter;stroke-miterlimit:10;stroke-dasharray:none"
         id="path86" /><path
         d="m 346.18,51.364 11.117,0 0,-11.113 -11.117,0 0,11.113 z"
         style="fill:#00c000;fill-opacity:1;fill-rule:evenodd;stroke:#00c000;stroke-opacity:1;stroke-width:1.85254;stroke-linecap:butt;stroke-linejoin:miter;stroke-miterlimit:10;stroke-dasharray:none"
         id="path88" /><path
         d="m 351.738,45.809 11.117,0 0,-11.117 -11.117,0 0,11.117 z"
         style="fill:#008000;fill-opacity:1;fill-rule:evenodd;stroke:#008000;stroke-opacity:1;stroke-width:1.85254;stroke-linecap:butt;stroke-linejoin:miter;stroke-miterlimit:10;stroke-dasharray:none"
         id="path90" /><path
         d="m 134.555,71.801 5.555,0 0,-5.555 -5.555,0 0,5.555 z"
         style="fill:none;stroke:#000000;stroke-opacity:1;stroke-width:0.617515;stroke-linecap:butt;stroke-linejoin:miter;stroke-miterlimit:10;stroke-dasharray:none"
         id="path92" /><path
         d="m 180.934,100.508 33.348,0 0,-33.348 -33.348,0 0,33.348 z"
         style="fill:#00c000;fill-opacity:1;fill-rule:evenodd;stroke:none"
         id="path94" /><path
         d="m 186.492,94.95 33.352,0 0,-33.348 -33.352,0 0,33.348 z"
         style="fill:#008000;fill-opacity:1;fill-rule:evenodd;stroke:none"
         id="path96" /><path
         d="m 191.793,89.032 33.348,0 0,-33.344 -33.348,0 0,33.344 z"
         style="fill:#00c000;fill-opacity:1;fill-rule:evenodd;stroke:none"
         id="path98" /><path
         d="m 197.352,83.477 33.344,0 0,-33.348 -33.344,0 0,33.348 z"
         style="fill:#008000;fill-opacity:1;fill-rule:evenodd;stroke:none"
         id="path100" /><path
         d="m 202.91,77.918 33.344,0 0,-33.348 -33.344,0 0,33.348 z"
         style="fill:#00c000;fill-opacity:1;fill-rule:evenodd;stroke:none"
         id="path102" /><path
         d="m 208.465,72.36 33.348,0 0,-33.344 -33.348,0 0,33.344 z"
         style="fill:#008000;fill-opacity:1;fill-rule:evenodd;stroke:none"
         id="path104" /><path
         d="m 225.699,63.469 13.895,0 0,-13.895 -13.895,0 0,13.895 z"
         style="fill:none;stroke:#000000;stroke-opacity:1;stroke-width:0.617515;stroke-linecap:butt;stroke-linejoin:miter;stroke-miterlimit:10;stroke-dasharray:none"
         id="path106" /><path
         d="m 298.941,36.911 5.555,0 0,-5.555 -5.555,0 0,5.555 z"
         style="fill:none;stroke:#000000;stroke-opacity:1;stroke-width:0.617515;stroke-linecap:butt;stroke-linejoin:miter;stroke-miterlimit:10;stroke-dasharray:none"
         id="path108" /><path
         d="m 53.969,38.457 110.593,0"
         style="fill:none;stroke:#ff0000;stroke-opacity:1;stroke-width:0.617515;stroke-linecap:butt;stroke-linejoin:miter;stroke-miterlimit:10;stroke-dasharray:none"
         id="path110" /><path
         d="m 134.555,71.801 82.808,-8.336"
         style="fill:none;stroke:#000000;stroke-opacity:1;stroke-width:0.617515;stroke-linecap:butt;stroke-linejoin:miter;stroke-miterlimit:10;stroke-dasharray:none"
         id="path112" /><path
         d="m 134.555,66.247 82.808,-2.782"
         style="fill:none;stroke:#000000;stroke-opacity:1;stroke-width:0.617515;stroke-linecap:butt;stroke-linejoin:miter;stroke-miterlimit:10;stroke-dasharray:none"
         id="path114" /><path
         d="M 225.699,63.465 316.844,44.016"
         style="fill:none;stroke:#000000;stroke-opacity:1;stroke-width:0.617515;stroke-linecap:butt;stroke-linejoin:miter;stroke-miterlimit:10;stroke-dasharray:none"
         id="path116" /><path
         d="m 225.699,49.571 91.145,-5.555"
         style="fill:none;stroke:#000000;stroke-opacity:1;stroke-width:0.617515;stroke-linecap:butt;stroke-linejoin:miter;stroke-miterlimit:10;stroke-dasharray:none"
         id="path118" /><path
         d="m 239.594,49.571 77.25,-5.555"
         style="fill:none;stroke:#000000;stroke-opacity:1;stroke-width:0.617515;stroke-linecap:butt;stroke-linejoin:miter;stroke-miterlimit:10;stroke-dasharray:none"
         id="path120" /><text
         transform="matrix(1,-3.9999974e-8,-3.9999974e-8,-1,26.483506,128.07286)"
         id="text122"><tspan
           style="fill:#000000;fill-opacity:1;fill-rule:nonzero;stroke:none;font-family:TeXGyreHeros;font-variant:normal;font-weight:normal;font-size:7.78068;writing-mode:lr;-inkscape-font-specification:TeXGyreHeros-Regular"
           x="0 2.16302904 7.78068 12.97039356 18.58804452"
           y="0"
           sodipodi:role="line"
           id="tspan124">INPUT</tspan><tspan
           style="fill:#000000;fill-opacity:1;fill-rule:nonzero;stroke:none;font-family:TeXGyreHeros;font-variant:normal;font-weight:normal;font-size:7.78068;writing-mode:lr;-inkscape-font-specification:TeXGyreHeros-Regular"
           x="0 4.32605808 8.65211616 12.54245616 16.86851424"
           y="7.7806567"
           sodipodi:role="line"
           id="tspan126">32x32</tspan></text>
<path
         d="m 304.594,31.297 50.308,6.172"
         style="fill:none;stroke:#000000;stroke-opacity:1;stroke-width:0.617515;stroke-linecap:butt;stroke-linejoin:miter;stroke-miterlimit:10;stroke-dasharray:none"
         id="path128" /><path
         d="m 299.039,36.852 55.246,0.617"
         style="fill:none;stroke:#000000;stroke-opacity:1;stroke-width:0.617515;stroke-linecap:butt;stroke-linejoin:miter;stroke-miterlimit:10;stroke-dasharray:none"
         id="path130" /><path
         d="m 331.137,105.372 67.902,-67.59 -12.652,0.304 -66.36,67.286"
         style="fill:#c00000;fill-opacity:1;fill-rule:evenodd;stroke:none"
         id="path132" /><path
         d="m 331.137,105.372 67.902,-67.59 -12.652,0.304 -66.36,67.286 11.11,0 z"
         style="fill:#c00000;fill-opacity:1;fill-rule:nonzero;stroke:#c00000;stroke-opacity:1;stroke-width:1.85254;stroke-linecap:butt;stroke-linejoin:miter;stroke-miterlimit:10;stroke-dasharray:none"
         id="path134" /><path
         d="m 402.125,103.52 56.793,-54.938 -12.348,-0.617 -55.554,55.555 11.109,0 z"
         style="fill:#c00000;fill-opacity:1;fill-rule:nonzero;stroke:#c00000;stroke-opacity:1;stroke-width:1.85254;stroke-linecap:butt;stroke-linejoin:miter;stroke-miterlimit:10;stroke-dasharray:none"
         id="path136" /><path
         d="m 109.539,94.59 66.691,0 0,-66.691 -66.691,0 0,66.691 z"
         style="fill:#0000ff;fill-opacity:1;fill-rule:evenodd;stroke:none"
         id="path138" /><path
         d="m 115.098,89.032 66.691,0 0,-66.691 -66.691,0 0,66.691 z"
         style="fill:#000080;fill-opacity:1;fill-rule:evenodd;stroke:none"
         id="path140" /><path
         d="m 53.969,52.352 13.895,0 0,-13.895 -13.895,0 0,13.895 z"
         style="fill:none;stroke:#000000;stroke-opacity:1;stroke-width:0.617515;stroke-linecap:butt;stroke-linejoin:miter;stroke-miterlimit:10;stroke-dasharray:none"
         id="path142" /><path
         d="m 67.863,38.457 96.699,0"
         style="fill:none;stroke:#000000;stroke-opacity:1;stroke-width:0.617515;stroke-linecap:butt;stroke-linejoin:miter;stroke-miterlimit:10;stroke-dasharray:none"
         id="path144" /><path
         d="M 53.969,52.352 164.562,38.457"
         style="fill:none;stroke:#000000;stroke-opacity:1;stroke-width:0.617515;stroke-linecap:butt;stroke-linejoin:miter;stroke-miterlimit:10;stroke-dasharray:none"
         id="path146" /><path
         d="M 67.863,52.352 164.562,38.457"
         style="fill:none;stroke:#000000;stroke-opacity:1;stroke-width:0.617515;stroke-linecap:butt;stroke-linejoin:miter;stroke-miterlimit:10;stroke-dasharray:none"
         id="path148" /><path
         d="m 140.113,66.247 77.25,-2.782"
         style="fill:none;stroke:#000000;stroke-opacity:1;stroke-width:0.617515;stroke-linecap:butt;stroke-linejoin:miter;stroke-miterlimit:10;stroke-dasharray:none"
         id="path150" /><path
         d="m 140.113,71.801 77.25,-8.336"
         style="fill:none;stroke:#000000;stroke-opacity:1;stroke-width:0.617515;stroke-linecap:butt;stroke-linejoin:miter;stroke-miterlimit:10;stroke-dasharray:none"
         id="path152" /><path
         d="m 135.977,72.715 5.559,0 0,-5.559 -5.559,0 0,5.559 z"
         style="fill:none;stroke:#000000;stroke-opacity:1;stroke-width:0.617515;stroke-linecap:butt;stroke-linejoin:miter;stroke-miterlimit:10;stroke-dasharray:none"
         id="path154" /><path
         d="m 281.137,128.211 38.89,-22.839"
         style="fill:none;stroke:#000000;stroke-opacity:1;stroke-width:0.617515;stroke-linecap:butt;stroke-linejoin:miter;stroke-miterlimit:10;stroke-dasharray:none"
         id="path156" /><path
         d="m 16.32,46.114 2.676,6.48 c 2.676,6.485 8.027,19.446 11.934,26.856 3.91,7.406 6.379,9.257 8.539,9.668 2.16,0.414 4.015,-0.618 8.953,-8.434 4.937,-7.82 12.961,-22.43 16.254,-29.527 3.293,-7.102 1.851,-6.688 1.133,-6.481 l -0.723,0.203"
         style="fill:none;stroke:#000000;stroke-opacity:1;stroke-width:3.08757;stroke-linecap:butt;stroke-linejoin:miter;stroke-miterlimit:10;stroke-dasharray:none"
         id="path158" /><path
         d="m 23.113,73.274 4.731,-1.027 23.664,-5.145"
         style="fill:none;stroke:#000000;stroke-opacity:1;stroke-width:3.08757;stroke-linecap:butt;stroke-linejoin:miter;stroke-miterlimit:10;stroke-dasharray:none"
         id="path160" /><text
         transform="matrix(1,0,0,-1,235.81641,11.109863)"
         id="text162"><tspan
           style="fill:#0000ff;fill-opacity:1;fill-rule:nonzero;stroke:none;font-family:TeXGyreHeros;font-variant:normal;font-weight:normal;font-size:8.64521;writing-mode:lr;-inkscape-font-specification:TeXGyreHeros-Regular"
           x="0 6.24184162 11.04857838 15.85531514 20.17792014 24.9846569 26.90389352 31.71063028 34.11399866 36.03323528 40.83997204 45.6467088"
           y="0"
           sodipodi:role="line"
           id="tspan164">Convolutions</tspan></text>
<path
         d="m 371.879,101.668 58.027,-56.171 -12.965,-0.618 -56.171,56.789 11.109,0 z"
         style="fill:#c00000;fill-opacity:1;fill-rule:nonzero;stroke:#c00000;stroke-opacity:1;stroke-width:1.85254;stroke-linecap:butt;stroke-linejoin:miter;stroke-miterlimit:10;stroke-dasharray:none"
         id="path166" /><path
         d="m 189.18,18.758 0,33.965"
         style="fill:none;stroke:#000000;stroke-opacity:1;stroke-width:0.8;stroke-linecap:butt;stroke-linejoin:miter;stroke-miterlimit:10;stroke-dasharray:none"
         id="path168" /><path
         d="m 260.035,23.899 0,16.055"
         style="fill:none;stroke:#000000;stroke-opacity:1;stroke-width:0.8;stroke-linecap:butt;stroke-linejoin:miter;stroke-miterlimit:10;stroke-dasharray:none"
         id="path170" /><path
         d="m 92.688,20.809 0,14.203"
         style="fill:none;stroke:#000000;stroke-opacity:1;stroke-width:0.8;stroke-linecap:butt;stroke-linejoin:miter;stroke-miterlimit:10;stroke-dasharray:none"
         id="path172" /><path
         d="m 333.645,19.137 0,13.25"
         style="fill:none;stroke:#000000;stroke-opacity:1;stroke-width:0.8;stroke-linecap:butt;stroke-linejoin:miter;stroke-miterlimit:10;stroke-dasharray:none"
         id="path174" /><path
         d="m 410.461,19.653 0,17.363"
         style="fill:none;stroke:#000000;stroke-opacity:1;stroke-width:0.8;stroke-linecap:butt;stroke-linejoin:miter;stroke-miterlimit:10;stroke-dasharray:none"
         id="path176" /><text
         transform="matrix(1,0,0,-1,67.913406,11.109863)"
         id="text178"><tspan
           style="fill:#0000ff;fill-opacity:1;fill-rule:nonzero;stroke:none;font-family:TeXGyreHeros;font-variant:normal;font-weight:normal;font-size:8.64521;writing-mode:lr;-inkscape-font-specification:TeXGyreHeros-Regular"
           x="0 6.24184162 11.04857838 15.85531514 20.17792014 24.9846569 26.90389352 31.71063028 34.11399866 36.03323528 40.83997204 45.6467088"
           y="0"
           sodipodi:role="line"
           id="tspan180">Convolutions</tspan></text>
<text
         transform="matrix(1,-3.9999974e-8,-3.9999974e-8,-1,97.229406,132.62386)"
         id="text182"><tspan
           style="fill:#000000;fill-opacity:1;fill-rule:nonzero;stroke:none;font-family:TeXGyreHeros;font-variant:normal;font-weight:normal;font-size:7.78068;writing-mode:lr;-inkscape-font-specification:TeXGyreHeros-Regular"
           x="0 5.61765096 9.94370904 12.10673808 14.26976712 16.43279616 20.75885424 25.08491232 27.24794136 31.57399944 34.16496588 38.49102396 40.654053 47.13535944 51.46141752 55.7874756"
           y="0"
           sodipodi:role="line"
           id="tspan184">C1: feature maps</tspan><tspan
           style="fill:#000000;fill-opacity:1;fill-rule:nonzero;stroke:none;font-family:TeXGyreHeros;font-variant:normal;font-weight:normal;font-size:7.78068;writing-mode:lr;-inkscape-font-specification:TeXGyreHeros-Regular"
           x="0 4.32605808 12.2156676 16.54172568 20.86778376 24.75812376 29.08418184"
           y="7.7806567"
           sodipodi:role="line"
           id="tspan186">6@28x28</tspan></text>
<text
         transform="matrix(1,0,0,-1,171.8001,10.529863)"
         id="text188"><tspan
           style="fill:#008000;fill-opacity:1;fill-rule:nonzero;stroke:none;font-family:TeXGyreHeros;font-variant:normal;font-weight:normal;font-size:8.64521;writing-mode:lr;-inkscape-font-specification:TeXGyreHeros-Regular"
           x="0 5.55887003 10.36560679 15.17234355 17.09158017 19.01081679 23.84348918 28.65022594 31.05359432 36.10239696"
           y="0"
           sodipodi:role="line"
           id="tspan190">Pooling + </tspan><tspan
           style="fill:#008000;fill-opacity:1;fill-rule:nonzero;stroke:none;font-family:TeXGyreHeros;font-variant:normal;font-weight:normal;font-size:8.64521;writing-mode:lr;-inkscape-font-specification:TeXGyreHeros-Regular"
           x="-11.75208234 -5.51024072 -0.77266564 5.46917598 10.27591274 13.15476767 17.47737267 22.31004506 29.57202146 34.37875822 36.29799484 38.21723146 43.02396822"
           y="8.64521"
           sodipodi:role="line"
           id="tspan192">Down-sampling</tspan></text>
<text
         transform="matrix(1,-3.9999974e-8,-3.9999974e-8,-1,172.14041,118.93386)"
         id="text194"><tspan
           style="fill:#000000;fill-opacity:1;fill-rule:nonzero;stroke:none;font-family:TeXGyreHeros;font-variant:normal;font-weight:normal;font-size:7.78068;writing-mode:lr;-inkscape-font-specification:TeXGyreHeros-Regular"
           x="0 5.18971356 9.51577164 11.67880068 13.84182972 16.00485876 18.1678878 20.33091684 26.81222328 31.13828136 35.46433944"
           y="0"
           sodipodi:role="line"
           id="tspan196">S2: f. maps</tspan><tspan
           style="fill:#000000;fill-opacity:1;fill-rule:nonzero;stroke:none;font-family:TeXGyreHeros;font-variant:normal;font-weight:normal;font-size:7.78068;writing-mode:lr;-inkscape-font-specification:TeXGyreHeros-Regular"
           x="0 4.32605808 12.2156676 16.54172568 20.86778376 24.75812376 29.08418184"
           y="7.7806567"
           sodipodi:role="line"
           id="tspan198">6@14x14</tspan><tspan
           style="fill:#000000;fill-opacity:1;fill-rule:nonzero;stroke:none;font-family:TeXGyreHeros;font-variant:normal;font-weight:normal;font-size:7.78068;writing-mode:lr;-inkscape-font-specification:TeXGyreHeros-Regular"
           x="77.21648759 82.40620115 86.73225923 88.89528827 91.05831731 93.22134635 95.38437539 97.54740443 104.02871087 108.35476895 112.68082703 116.57116703 118.73419607 123.06025415 127.38631223 135.27592175 139.60197983 143.49231983"
           y="-12.467544"
           sodipodi:role="line"
           id="tspan200">S4: f. maps 16@5x5</tspan><tspan
           style="fill:#000000;fill-opacity:1;fill-rule:nonzero;stroke:none;font-family:TeXGyreHeros;font-variant:normal;font-weight:normal;font-size:7.78068;writing-mode:lr;-inkscape-font-specification:TeXGyreHeros-Regular"
           x="141.23858362 146.85623458 151.18229266 153.3453217 155.50835074 157.2356617 161.56171978 165.45205978 169.77811786"
           y="1.0065632"
           sodipodi:role="line"
           id="tspan202">C5: layer</tspan><tspan
           style="fill:#000000;fill-opacity:1;fill-rule:nonzero;stroke:none;font-family:TeXGyreHeros;font-variant:normal;font-weight:normal;font-size:7.78068;writing-mode:lr;-inkscape-font-specification:TeXGyreHeros-Regular"
           x="4.32559124 9.9432422 14.26930028 16.43232932 18.59535836 20.7583874 22.92141644 25.08444548 31.56575192 35.89181 40.21786808 44.10820808 46.27123712 50.5972952 54.92335328 62.8129628 67.13902088 71.46507896 75.35541896 79.68147704"
           y="-20.729879"
           sodipodi:role="line"
           id="tspan204">C3: f. maps 16@10x10</tspan><tspan
           style="fill:#000000;fill-opacity:1;fill-rule:nonzero;stroke:none;font-family:TeXGyreHeros;font-variant:normal;font-weight:normal;font-size:7.78068;writing-mode:lr;-inkscape-font-specification:TeXGyreHeros-Regular"
           x="179.19859173 183.95258721 188.27864529 190.44167433 192.60470337 194.33201433 198.65807241 202.54841241 206.87447049"
           y="4.3597251"
           sodipodi:role="line"
           id="tspan206">F6: layer</tspan></text>
<text
         transform="matrix(1,0,0,-1,345.27541,22.533863)"
         id="text208"><tspan
           style="fill:#c00000;fill-opacity:1;fill-rule:nonzero;stroke:none;font-family:TeXGyreHeros;font-variant:normal;font-weight:normal;font-size:8.64521;writing-mode:lr;-inkscape-font-specification:TeXGyreHeros-Regular"
           x="0 5.28222331 10.08896007 12.00819669 13.92743331 16.33080169 20.65340669 25.46014345 30.26688021 35.07361697 39.88035373 44.20295873 46.60632711 48.52556373 53.33230049"
           y="0"
           sodipodi:role="line"
           id="tspan210">Full connection</tspan><tspan
           style="fill:#c00000;fill-opacity:1;fill-rule:nonzero;stroke:none;font-family:TeXGyreHeros;font-variant:normal;font-weight:normal;font-size:8.64521;writing-mode:lr;-inkscape-font-specification:TeXGyreHeros-Regular"
           x="34.23249855 39.51472186 44.32145862 46.24069524 48.15993186 50.56330024 54.88590524 59.692642 64.49937876 69.30611552 74.11285228 78.43545728 80.83882566 82.75806228 87.56479904"
           y="10.860303"
           sodipodi:role="line"
           id="tspan212">Full connection</tspan><tspan
           style="fill:#c00000;fill-opacity:1;fill-rule:nonzero;stroke:none;font-family:TeXGyreHeros;font-variant:normal;font-weight:normal;font-size:8.64521;writing-mode:lr;-inkscape-font-specification:TeXGyreHeros-Regular"
           x="84.69269602 91.4186694 96.22540616 101.03214292 105.35474792 109.67735292 111.59658954 116.4033263 121.21006306 123.61343144 127.93603644 132.7427732 137.54950996 142.35624672 147.16298348 151.48558848 153.88895686 155.80819348 160.61493024 165.421667"
           y="-0.91319353"
           sodipodi:role="line"
           id="tspan214">Gaussian connections</tspan></text>
<path
         d="M 446.039,47.856 430.547,45.274"
         style="fill:none;stroke:#000000;stroke-opacity:1;stroke-width:0.617515;stroke-linecap:butt;stroke-linejoin:miter;stroke-miterlimit:10;stroke-dasharray:none"
         id="path216" /><text
         transform="matrix(1,-3.9999974e-8,-3.9999974e-8,-1,389.54826,115.47586)"
         id="text218"><tspan
           style="fill:#000000;fill-opacity:1;fill-rule:nonzero;stroke:none;font-family:TeXGyreHeros;font-variant:normal;font-weight:normal;font-size:7.78068;writing-mode:lr;-inkscape-font-specification:TeXGyreHeros-Regular"
           x="0 6.05336904 11.67102 16.42501548 21.61472904 27.23238"
           y="0"
           sodipodi:role="line"
           id="tspan220">OUTPUT</tspan></text>
<path
         d="m 390.898,103.731 -18.625,-2.027"
         style="fill:none;stroke:#000000;stroke-opacity:1;stroke-width:0.617515;stroke-linecap:butt;stroke-linejoin:miter;stroke-miterlimit:10;stroke-dasharray:none"
         id="path222" /><path
         d="m 363.238,34.762 22.496,3.32"
         style="fill:none;stroke:#000000;stroke-opacity:1;stroke-width:0.617515;stroke-linecap:butt;stroke-linejoin:miter;stroke-miterlimit:10;stroke-dasharray:none"
         id="path224" /><path
         d="m 331.148,105.391 33.934,-4.426"
         style="fill:none;stroke:#000000;stroke-opacity:1;stroke-width:0.617515;stroke-linecap:butt;stroke-linejoin:miter;stroke-miterlimit:10;stroke-dasharray:none"
         id="path226" /><path
         d="m 374.906,27.29 0,8.484"
         style="fill:none;stroke:#000000;stroke-opacity:1;stroke-width:0.8;stroke-linecap:butt;stroke-linejoin:miter;stroke-miterlimit:10;stroke-dasharray:none"
         id="path228" /><path
         d="m 439.73,32.582 0,10.411"
         style="fill:none;stroke:#000000;stroke-opacity:1;stroke-width:0.950216;stroke-linecap:butt;stroke-linejoin:miter;stroke-miterlimit:10;stroke-dasharray:none"
         id="path230" /><path
         d="m 399.75,37.711 16.598,7.196"
         style="fill:none;stroke:#000000;stroke-opacity:1;stroke-width:0.617515;stroke-linecap:butt;stroke-linejoin:miter;stroke-miterlimit:10;stroke-dasharray:none"
         id="path232" /><text
         transform="matrix(1,0,0,-1,389.87955,105.79934)"
         id="text234"><tspan
           style="fill:#000000;fill-opacity:1;fill-rule:nonzero;stroke:none;font-family:TeXGyreHeros;font-variant:normal;font-weight:normal;font-size:8.839779;writing-mode:lr;-inkscape-font-specification:TeXGyreHeros-Regular"
           x="0 4.91491712"
           y="0"
           sodipodi:role="line"
           id="tspan236">10</tspan><tspan
           style="fill:#000000;fill-opacity:1;fill-rule:nonzero;stroke:none;font-family:TeXGyreHeros;font-variant:normal;font-weight:normal;font-size:8.839779;writing-mode:lr;-inkscape-font-specification:TeXGyreHeros-Regular"
           x="-30.47507622 -25.5601591"
           y="1.470011"
           sodipodi:role="line"
           id="tspan238">84</tspan><tspan
           style="fill:#000000;fill-opacity:1;fill-rule:nonzero;stroke:none;font-family:TeXGyreHeros;font-variant:normal;font-weight:normal;font-size:8.839779;writing-mode:lr;-inkscape-font-specification:TeXGyreHeros-Regular"
           x="-72.82822537 -67.91330824 -62.99839112"
           y="-1.6728486"
           sodipodi:role="line"
           id="tspan240">120</tspan></text>
<text
         transform="matrix(1,0,0,-1,316.45744,10.529863)"
         id="text242"><tspan
           style="fill:#008000;fill-opacity:1;fill-rule:nonzero;stroke:none;font-family:TeXGyreHeros;font-variant:normal;font-weight:normal;font-size:8.64521;writing-mode:lr;-inkscape-font-specification:TeXGyreHeros-Regular"
           x="0 5.55887003 10.36560679 15.17234355 17.09158017 19.01081679 23.84348918 28.65022594 31.05359432"
           y="0"
           sodipodi:role="line"
           id="tspan244">Pooling +</tspan><tspan
           style="fill:#008000;fill-opacity:1;fill-rule:nonzero;stroke:none;font-family:TeXGyreHeros;font-variant:normal;font-weight:normal;font-size:8.64521;writing-mode:lr;-inkscape-font-specification:TeXGyreHeros-Regular"
           x="-11.75208234 -5.51024072 -0.77266564 5.46917598 10.27591274 13.15476767 17.47737267 22.31004506 29.57202146 34.37875822 36.29799484 38.21723146 43.02396822"
           y="8.64521"
           sodipodi:role="line"
           id="tspan246">Down-sampling</tspan></text>
</g></g></svg>