<?xml version="1.0" encoding="UTF-8" standalone="no"?>
<!-- Created with Inkscape (http://www.inkscape.org/) -->
<svg
   xmlns:dc="http://purl.org/dc/elements/1.1/"
   xmlns:cc="http://web.resource.org/cc/"
   xmlns:rdf="http://www.w3.org/1999/02/22-rdf-syntax-ns#"
   xmlns:svg="http://www.w3.org/2000/svg"
   xmlns="http://www.w3.org/2000/svg"
   xmlns:xlink="http://www.w3.org/1999/xlink"
   xmlns:sodipodi="http://sodipodi.sourceforge.net/DTD/sodipodi-0.dtd"
   xmlns:inkscape="http://www.inkscape.org/namespaces/inkscape"
   width="744.09448819"
   height="1052.3622047"
   id="svg3058"
   sodipodi:version="0.32"
   inkscape:version="0.44"
   sodipodi:docbase="/home/schmu20mol/TU-Berlin/job/script/MI1/figures/svg"
   sodipodi:docname="section3_fig11.svg">
  <defs
     id="defs3060">
    <marker
       inkscape:stockid="Arrow1Lend"
       orient="auto"
       refY="0.0"
       refX="0.0"
       id="Arrow1Lend"
       style="overflow:visible;">
      <path
         id="path5022"
         d="M 0.0,0.0 L 5.0,-5.0 L -12.5,0.0 L 5.0,5.0 L 0.0,0.0 z "
         style="fill-rule:evenodd;stroke:#000000;stroke-width:1.0pt;marker-start:none;"
         transform="scale(0.8) rotate(180) translate(12.5,0)" />
    </marker>
    <marker
       inkscape:stockid="Arrow1Mend"
       orient="auto"
       refY="0.0"
       refX="0.0"
       id="Arrow1Mend"
       style="overflow:visible;">
      <path
         id="path5016"
         d="M 0.0,0.0 L 5.0,-5.0 L -12.5,0.0 L 5.0,5.0 L 0.0,0.0 z "
         style="fill-rule:evenodd;stroke:#000000;stroke-width:1.0pt;marker-start:none;"
         transform="scale(0.4) rotate(180) translate(10,0)" />
    </marker>
  </defs>
  <sodipodi:namedview
     id="base"
     pagecolor="#ffffff"
     bordercolor="#666666"
     borderopacity="1.0"
     gridtolerance="10000"
     guidetolerance="10"
     objecttolerance="10"
     inkscape:pageopacity="0.0"
     inkscape:pageshadow="2"
     inkscape:zoom="3.9492537"
     inkscape:cx="214.23727"
     inkscape:cy="884.28571"
     inkscape:document-units="px"
     inkscape:current-layer="layer1"
     inkscape:window-width="1398"
     inkscape:window-height="975"
     inkscape:window-x="0"
     inkscape:window-y="25" />
  <metadata
     id="metadata3063">
    <rdf:RDF>
      <cc:Work
         rdf:about="">
        <dc:format>image/svg+xml</dc:format>
        <dc:type
           rdf:resource="http://purl.org/dc/dcmitype/StillImage" />
      </cc:Work>
    </rdf:RDF>
  </metadata>
  <g
     inkscape:label="Layer 1"
     inkscape:groupmode="layer"
     id="layer1">
    <path
       sodipodi:type="arc"
       style="opacity:1;fill:none;fill-opacity:1;stroke:black;stroke-width:1.5;stroke-miterlimit:4;stroke-dasharray:none;stroke-dashoffset:0;stroke-opacity:1"
       id="path3066"
       sodipodi:cx="137.62094"
       sodipodi:cy="122.18645"
       sodipodi:rx="9.7486773"
       sodipodi:ry="9.7486773"
       d="M 147.36962 122.18645 A 9.7486773 9.7486773 0 1 1  127.87226,122.18645 A 9.7486773 9.7486773 0 1 1  147.36962 122.18645 z"
       transform="translate(2.532097,-0.756197)" />
    <path
       sodipodi:type="arc"
       style="opacity:1;fill:none;fill-opacity:1;stroke:black;stroke-width:1.5;stroke-miterlimit:4;stroke-dasharray:none;stroke-dashoffset:0;stroke-opacity:1"
       id="path3953"
       sodipodi:cx="137.62094"
       sodipodi:cy="122.18645"
       sodipodi:rx="9.7486773"
       sodipodi:ry="9.7486773"
       d="M 147.36962 122.18645 A 9.7486773 9.7486773 0 1 1  127.87226,122.18645 A 9.7486773 9.7486773 0 1 1  147.36962 122.18645 z"
       transform="translate(2.532097,47.36524)" />
    <path
       sodipodi:type="arc"
       style="opacity:1;fill:#b4b4b4;fill-opacity:1;stroke:black;stroke-width:1.5;stroke-miterlimit:4;stroke-dasharray:none;stroke-dashoffset:0;stroke-opacity:1"
       id="path3957"
       sodipodi:cx="137.62094"
       sodipodi:cy="122.18645"
       sodipodi:rx="9.7486773"
       sodipodi:ry="9.7486773"
       d="M 147.36962 122.18645 A 9.7486773 9.7486773 0 1 1  127.87226,122.18645 A 9.7486773 9.7486773 0 1 1  147.36962 122.18645 z"
       transform="translate(51.52871,47.36524)" />
    <path
       sodipodi:type="arc"
       style="opacity:1;fill:none;fill-opacity:1;stroke:black;stroke-width:1.5;stroke-miterlimit:4;stroke-dasharray:none;stroke-dashoffset:0;stroke-opacity:1"
       id="path3963"
       sodipodi:cx="137.62094"
       sodipodi:cy="122.18645"
       sodipodi:rx="9.7486773"
       sodipodi:ry="9.7486773"
       d="M 147.36962 122.18645 A 9.7486773 9.7486773 0 1 1  127.87226,122.18645 A 9.7486773 9.7486773 0 1 1  147.36962 122.18645 z"
       transform="translate(90.57482,101.6544)" />
    <path
       sodipodi:type="arc"
       style="opacity:1;fill:none;fill-opacity:1;stroke:black;stroke-width:1.5;stroke-miterlimit:4;stroke-dasharray:none;stroke-dashoffset:0;stroke-opacity:1"
       id="path5143"
       sodipodi:cx="137.62094"
       sodipodi:cy="122.18645"
       sodipodi:rx="9.7486773"
       sodipodi:ry="9.7486773"
       d="M 147.36962 122.18645 A 9.7486773 9.7486773 0 1 1  127.87226,122.18645 A 9.7486773 9.7486773 0 1 1  147.36962 122.18645 z"
       transform="translate(51.52869,-0.756197)" />
    <path
       sodipodi:type="arc"
       style="opacity:1;fill:none;fill-opacity:1;stroke:black;stroke-width:1.5;stroke-miterlimit:4;stroke-dasharray:none;stroke-dashoffset:0;stroke-opacity:1"
       id="path5145"
       sodipodi:cx="137.62094"
       sodipodi:cy="122.18645"
       sodipodi:rx="9.7486773"
       sodipodi:ry="9.7486773"
       d="M 147.36962 122.18645 A 9.7486773 9.7486773 0 1 1  127.87226,122.18645 A 9.7486773 9.7486773 0 1 1  147.36962 122.18645 z"
       transform="translate(129.6209,47.36524)" />
    <path
       style="fill:none;fill-rule:evenodd;stroke:black;stroke-width:1px;stroke-linecap:butt;stroke-linejoin:miter;stroke-opacity:1"
       d="M 149.39531,121.80663 C 179.27438,121.80663 179.27438,121.80663 179.27438,121.80663"
       id="path6187" />
    <path
       style="fill:none;fill-rule:evenodd;stroke:black;stroke-width:1px;stroke-linecap:butt;stroke-linejoin:miter;stroke-opacity:1"
       d="M 140.02646,131.17549 C 140.02646,159.53527 140.02646,159.53527 140.02646,159.53527"
       id="path6189" />
    <path
       style="fill:none;fill-rule:evenodd;stroke:black;stroke-width:1px;stroke-linecap:butt;stroke-linejoin:miter;stroke-opacity:1"
       d="M 150.15495,169.66377 C 179.02116,169.66377 179.02116,169.66377 179.02116,169.66377"
       id="path6191" />
    <path
       style="fill:none;fill-rule:evenodd;stroke:black;stroke-width:1px;stroke-linecap:butt;stroke-linejoin:miter;stroke-opacity:1"
       d="M 189.40287,131.17549 C 189.40287,159.53527 189.40287,159.53527 189.40287,159.53527"
       id="path6193" />
    <path
       style="fill:none;fill-rule:evenodd;stroke:black;stroke-width:1px;stroke-linecap:butt;stroke-linejoin:miter;stroke-opacity:1"
       d="M 199.02494,169.41056 C 257.26379,169.41056 257.26379,169.41056 257.26379,169.41056"
       id="path6195" />
    <path
       style="fill:none;fill-rule:evenodd;stroke:black;stroke-width:1px;stroke-linecap:butt;stroke-linejoin:miter;stroke-opacity:1"
       d="M 195.22676,177.76657 C 221.05442,217.01449 221.05442,217.01449 221.05442,217.01449"
       id="path6197" />
    <path
       style="fill:none;fill-rule:evenodd;stroke:black;stroke-width:1px;stroke-linecap:butt;stroke-linejoin:miter;stroke-opacity:1"
       d="M 235.48753,217.52091 C 260.55556,177.26014 260.55556,177.26014 260.55556,177.26014"
       id="path6199" />
    <image
       y="100.96595"
       x="118.77968"
       id="image6353"
       height="11.952664"
       width="11.952664"
       sodipodi:absref="/home/schmu20mol/TU-Berlin/job/script/MI1/figures/png/standards/A.png"
       xlink:href="/home/schmu20mol/TU-Berlin/job/script/MI1/figures/png/standards/A.png" />
    <image
       y="208.77458"
       x="269.78214"
       id="image6411"
       height="12.508602"
       width="12.508602"
       sodipodi:absref="/home/schmu20mol/TU-Berlin/job/script/MI1/figures/png/standards/B.png"
       xlink:href="/home/schmu20mol/TU-Berlin/job/script/MI1/figures/png/standards/B.png" />
    <image
       y="205.82552"
       x="139.80472"
       id="image6469"
       height="11.873485"
       width="11.025378"
       sodipodi:absref="/home/schmu20mol/TU-Berlin/job/script/MI1/figures/png/standards/c.png"
       xlink:href="/home/schmu20mol/TU-Berlin/job/script/MI1/figures/png/standards/c.png" />
    <path
       sodipodi:type="arc"
       style="opacity:1;fill:none;fill-opacity:1;stroke:black;stroke-width:1.10296241;stroke-miterlimit:4;stroke-dasharray:3.30888724,3.30888724;stroke-dashoffset:0;stroke-opacity:1"
       id="path6472"
       sodipodi:cx="168.25964"
       sodipodi:cy="146.62144"
       sodipodi:rx="47.730537"
       sodipodi:ry="47.097507"
       d="M 215.99018 146.62144 A 47.730537 47.097507 0 1 1  120.52911,146.62144 A 47.730537 47.097507 0 1 1  215.99018 146.62144 z"
       transform="matrix(0.516069,0.465758,-0.85821,0.818291,193.0934,-60.29756)" />
    <path
       sodipodi:type="arc"
       style="opacity:1;fill:none;fill-opacity:1;stroke:black;stroke-width:1.39664021;stroke-miterlimit:4;stroke-dasharray:4.18992063,4.18992063;stroke-dashoffset:0;stroke-opacity:1"
       id="path7359"
       sodipodi:cx="168.25964"
       sodipodi:cy="146.62144"
       sodipodi:rx="47.730537"
       sodipodi:ry="47.097507"
       d="M 215.99018 146.62144 A 47.730537 47.097507 0 1 1  120.52911,146.62144 A 47.730537 47.097507 0 1 1  215.99018 146.62144 z"
       transform="matrix(0.607122,-0.759513,0.384928,0.362866,89.73041,271.7048)" />
    <path
       style="fill:none;fill-rule:evenodd;stroke:black;stroke-width:1px;stroke-linecap:butt;stroke-linejoin:miter;marker-end:url(#Arrow1Mend);stroke-opacity:1"
       d="M 151.67423,211.97594 C 174.96977,209.1906 183.8322,179.05833 183.8322,179.05833"
       id="path7361" />
  </g>
</svg>
