<?xml version="1.0" encoding="UTF-8" standalone="no"?>
<!-- Created with Inkscape (http://www.inkscape.org/) -->
<svg
   xmlns:dc="http://purl.org/dc/elements/1.1/"
   xmlns:cc="http://web.resource.org/cc/"
   xmlns:rdf="http://www.w3.org/1999/02/22-rdf-syntax-ns#"
   xmlns:svg="http://www.w3.org/2000/svg"
   xmlns="http://www.w3.org/2000/svg"
   xmlns:xlink="http://www.w3.org/1999/xlink"
   xmlns:sodipodi="http://sodipodi.sourceforge.net/DTD/sodipodi-0.dtd"
   xmlns:inkscape="http://www.inkscape.org/namespaces/inkscape"
   width="744.09448819"
   height="1052.3622047"
   id="svg2"
   sodipodi:version="0.32"
   inkscape:version="0.44"
   sodipodi:docbase="/home/schmu20mol/TU-Berlin/job/script/MI1/figures/svg"
   sodipodi:docname="section1_fig12.svg">
  <defs
     id="defs4">
    <marker
       inkscape:stockid="Arrow1Lstart"
       orient="auto"
       refY="0.0"
       refX="0.0"
       id="Arrow1Lstart"
       style="overflow:visible">
      <path
         id="path3830"
         d="M 0.0,0.0 L 5.0,-5.0 L -12.5,0.0 L 5.0,5.0 L 0.0,0.0 z "
         style="fill-rule:evenodd;stroke:#000000;stroke-width:1.0pt;marker-start:none"
         transform="scale(0.8) translate(12.5,0)" />
    </marker>
    <marker
       inkscape:stockid="Arrow2Mstart"
       orient="auto"
       refY="0.0"
       refX="0.0"
       id="Arrow2Mstart"
       style="overflow:visible">
      <path
         id="path3806"
         style="font-size:12.0;fill-rule:evenodd;stroke-width:0.62500000;stroke-linejoin:round"
         d="M 8.7185878,4.0337352 L -2.2072895,0.016013256 L 8.7185884,-4.0017078 C 6.9730900,-1.6296469 6.9831476,1.6157441 8.7185878,4.0337352 z "
         transform="scale(0.6) translate(0,0)" />
    </marker>
    <marker
       inkscape:stockid="Arrow2Lend"
       orient="auto"
       refY="0.0"
       refX="0.0"
       id="Arrow2Lend"
       style="overflow:visible;">
      <path
         id="path3809"
         style="font-size:12.0;fill-rule:evenodd;stroke-width:0.62500000;stroke-linejoin:round;"
         d="M 8.7185878,4.0337352 L -2.2072895,0.016013256 L 8.7185884,-4.0017078 C 6.9730900,-1.6296469 6.9831476,1.6157441 8.7185878,4.0337352 z "
         transform="scale(1.1) rotate(180) translate(1,0)" />
    </marker>
  </defs>
  <sodipodi:namedview
     id="base"
     pagecolor="#ffffff"
     bordercolor="#666666"
     borderopacity="1.0"
     gridtolerance="10000"
     guidetolerance="10"
     objecttolerance="10"
     inkscape:pageopacity="0.0"
     inkscape:pageshadow="2"
     inkscape:zoom="5.3069767"
     inkscape:cx="261.32665"
     inkscape:cy="918.84703"
     inkscape:document-units="px"
     inkscape:current-layer="layer1"
     inkscape:window-width="1398"
     inkscape:window-height="975"
     inkscape:window-x="0"
     inkscape:window-y="25" />
  <metadata
     id="metadata7">
    <rdf:RDF>
      <cc:Work
         rdf:about="">
        <dc:format>image/svg+xml</dc:format>
        <dc:type
           rdf:resource="http://purl.org/dc/dcmitype/StillImage" />
      </cc:Work>
    </rdf:RDF>
  </metadata>
  <g
     inkscape:label="Layer 1"
     inkscape:groupmode="layer"
     id="layer1">
    <path
       sodipodi:type="arc"
       style="fill:none;fill-opacity:1;stroke:black;stroke-width:1;stroke-miterlimit:4;stroke-dasharray:none;stroke-dashoffset:0;stroke-opacity:1"
       id="path1872"
       sodipodi:cx="107.12314"
       sodipodi:cy="84.108459"
       sodipodi:rx="3.1091149"
       sodipodi:ry="3.1091149"
       d="M 110.23225 84.108459 A 3.1091149 3.1091149 0 1 1  104.01402,84.108459 A 3.1091149 3.1091149 0 1 1  110.23225 84.108459 z"
       transform="matrix(2.30039,0,0,2.30039,-139.8727,-102.4437)" />
    <path
       sodipodi:type="arc"
       style="fill:none;fill-opacity:1;stroke:black;stroke-width:1;stroke-miterlimit:4;stroke-dasharray:none;stroke-dashoffset:0;stroke-opacity:1"
       id="path2760"
       sodipodi:cx="107.12314"
       sodipodi:cy="84.108459"
       sodipodi:rx="3.1091149"
       sodipodi:ry="3.1091149"
       d="M 110.23225 84.108459 A 3.1091149 3.1091149 0 1 1  104.01402,84.108459 A 3.1091149 3.1091149 0 1 1  110.23225 84.108459 z"
       transform="matrix(2.30039,0,0,2.30039,-139.8727,-20.05188)" />
    <path
       sodipodi:type="arc"
       style="fill:none;fill-opacity:1;stroke:black;stroke-width:1;stroke-miterlimit:4;stroke-dasharray:none;stroke-dashoffset:0;stroke-opacity:1"
       id="path2762"
       sodipodi:cx="107.12314"
       sodipodi:cy="84.108459"
       sodipodi:rx="3.1091149"
       sodipodi:ry="3.1091149"
       d="M 110.23225 84.108459 A 3.1091149 3.1091149 0 1 1  104.01402,84.108459 A 3.1091149 3.1091149 0 1 1  110.23225 84.108459 z"
       transform="matrix(2.30039,0,0,2.30039,29.5255,-102.4437)" />
    <path
       sodipodi:type="arc"
       style="fill:none;fill-opacity:1;stroke:black;stroke-width:1;stroke-miterlimit:4;stroke-dasharray:none;stroke-dashoffset:0;stroke-opacity:1"
       id="path2764"
       sodipodi:cx="107.12314"
       sodipodi:cy="84.108459"
       sodipodi:rx="3.1091149"
       sodipodi:ry="3.1091149"
       d="M 110.23225 84.108459 A 3.1091149 3.1091149 0 1 1  104.01402,84.108459 A 3.1091149 3.1091149 0 1 1  110.23225 84.108459 z"
       transform="matrix(2.30039,0,0,2.30039,29.5255,-20.05188)" />
    <path
       sodipodi:type="arc"
       style="fill:none;fill-opacity:1;stroke:black;stroke-width:1;stroke-miterlimit:4;stroke-dasharray:none;stroke-dashoffset:0;stroke-opacity:1"
       id="path2766"
       sodipodi:cx="107.12314"
       sodipodi:cy="84.108459"
       sodipodi:rx="3.1091149"
       sodipodi:ry="3.1091149"
       d="M 110.23225 84.108459 A 3.1091149 3.1091149 0 1 1  104.01402,84.108459 A 3.1091149 3.1091149 0 1 1  110.23225 84.108459 z"
       transform="matrix(2.30039,0,0,2.30039,-55.43365,-65.65241)" />
    <path
       style="fill:none;fill-rule:evenodd;stroke:black;stroke-width:1px;stroke-linecap:butt;stroke-linejoin:miter;stroke-opacity:1;marker-end:url(#Arrow2Lend)"
       d="M 113.43558,90.609334 C 267.00701,90.609334 267.00701,90.609334 267.00701,90.609334"
       id="path2770" />
    <path
       style="fill:none;fill-rule:evenodd;stroke:black;stroke-width:1px;stroke-linecap:butt;stroke-linejoin:miter;stroke-opacity:1;marker-end:url(#Arrow2Lend)"
       d="M 106.46363,98.900307 C 106.46363,164.28593 106.46363,164.28593 106.46363,164.28593"
       id="path4724" />
    <path
       style="fill:none;fill-rule:evenodd;stroke:black;stroke-width:1px;stroke-linecap:butt;stroke-linejoin:miter;marker-end:url(#Arrow2Lend);stroke-opacity:1"
       d="M 276.22252,99.145809 C 276.22252,164.53143 276.22252,164.53143 276.22252,164.53143"
       id="path5611" />
    <path
       style="fill:none;fill-rule:evenodd;stroke:black;stroke-width:1px;stroke-linecap:butt;stroke-linejoin:miter;marker-end:url(#Arrow2Lend);stroke-opacity:1"
       d="M 114.24638,173.72511 C 267.81781,173.72511 267.81781,173.72511 267.81781,173.72511"
       id="path5613" />
    <path
       style="fill:none;fill-rule:evenodd;stroke:black;stroke-width:1px;stroke-linecap:butt;stroke-linejoin:miter;stroke-opacity:1;marker-end:url(#Arrow2Lend)"
       d="M 113.05872,96.450701 L 183.15513,124.33852"
       id="path5615" />
    <path
       style="fill:none;fill-rule:evenodd;stroke:black;stroke-width:1px;stroke-linecap:butt;stroke-linejoin:miter;stroke-opacity:1;marker-end:url(#Arrow2Lend)"
       d="M 184.47415,133.00635 L 112.87029,167.30083"
       id="path6504" />
    <path
       style="fill:none;fill-rule:evenodd;stroke:black;stroke-width:1px;stroke-linecap:butt;stroke-linejoin:miter;stroke-opacity:1;marker-end:url(#Arrow2Lend)"
       d="M 269.26819,95.885408 L 199.17178,126.22283"
       id="path7391" />
    <path
       style="fill:none;fill-rule:evenodd;stroke:black;stroke-width:1px;stroke-linecap:butt;stroke-linejoin:miter;stroke-opacity:1;marker-end:url(#Arrow2Lend)"
       d="M 198.60649,131.31047 L 270.02191,167.30083"
       id="path8278" />
    <path
       style="fill:none;fill-rule:evenodd;stroke:black;stroke-width:1px;stroke-linecap:butt;stroke-linejoin:miter;stroke-opacity:1;marker-end:url(#Arrow2Lend)"
       d="M 284.34268,172.76534 C 284.34268,172.76534 321.2752,147.51556 316.56442,126.41126 C 311.85364,105.30697 284.71954,90.986197 284.71954,90.986197"
       id="path9167" />
    <image
       y="121.45026"
       x="320.81024"
       id="image10404"
       height="20.88567"
       width="34.55629"
       sodipodi:absref="/home/schmu20mol/TU-Berlin/job/script/MI1/figures/png/section1_fig12_00.png"
       xlink:href="/home/schmu20mol/TU-Berlin/job/script/MI1/figures/png/section1_fig12_00.png" />
  </g>
</svg>
