<?xml version="1.0" encoding="UTF-8" standalone="no"?>
<!-- Created with Inkscape (http://www.inkscape.org/) -->
<svg
   xmlns:dc="http://purl.org/dc/elements/1.1/"
   xmlns:cc="http://web.resource.org/cc/"
   xmlns:rdf="http://www.w3.org/1999/02/22-rdf-syntax-ns#"
   xmlns:svg="http://www.w3.org/2000/svg"
   xmlns="http://www.w3.org/2000/svg"
   xmlns:xlink="http://www.w3.org/1999/xlink"
   xmlns:sodipodi="http://sodipodi.sourceforge.net/DTD/sodipodi-0.dtd"
   xmlns:inkscape="http://www.inkscape.org/namespaces/inkscape"
   width="744.09448819"
   height="1052.3622047"
   id="svg2"
   sodipodi:version="0.32"
   inkscape:version="0.44"
   sodipodi:docbase="/home/schmu20mol/TU-Berlin/job/script/MI1/figures/svg"
   sodipodi:docname="section1_fig14.svg">
  <defs
     id="defs4">
    <marker
       inkscape:stockid="Arrow1Lend"
       orient="auto"
       refY="0.0"
       refX="0.0"
       id="Arrow1Lend"
       style="overflow:visible;">
      <path
         id="path4726"
         d="M 0.0,0.0 L 5.0,-5.0 L -12.5,0.0 L 5.0,5.0 L 0.0,0.0 z "
         style="fill-rule:evenodd;stroke:#000000;stroke-width:1.0pt;marker-start:none;"
         transform="scale(0.8) rotate(180) translate(12.5,0)" />
    </marker>
    <marker
       inkscape:stockid="Arrow1Mend"
       orient="auto"
       refY="0.0"
       refX="0.0"
       id="Arrow1Mend"
       style="overflow:visible;">
      <path
         id="path4720"
         d="M 0.0,0.0 L 5.0,-5.0 L -12.5,0.0 L 5.0,5.0 L 0.0,0.0 z "
         style="fill-rule:evenodd;stroke:#000000;stroke-width:1.0pt;marker-start:none;"
         transform="scale(0.4) rotate(180) translate(10,0)" />
    </marker>
  </defs>
  <sodipodi:namedview
     id="base"
     pagecolor="#ffffff"
     bordercolor="#666666"
     borderopacity="1.0"
     gridtolerance="10000"
     guidetolerance="10"
     objecttolerance="10"
     inkscape:pageopacity="0.0"
     inkscape:pageshadow="2"
     inkscape:zoom="2.093578"
     inkscape:cx="357.88082"
     inkscape:cy="820.3638"
     inkscape:document-units="px"
     inkscape:current-layer="layer1"
     inkscape:window-width="1398"
     inkscape:window-height="975"
     inkscape:window-x="0"
     inkscape:window-y="25"
     showguides="true"
     inkscape:guide-bbox="true" />
  <metadata
     id="metadata7">
    <rdf:RDF>
      <cc:Work
         rdf:about="">
        <dc:format>image/svg+xml</dc:format>
        <dc:type
           rdf:resource="http://purl.org/dc/dcmitype/StillImage" />
      </cc:Work>
    </rdf:RDF>
  </metadata>
  <g
     inkscape:label="Layer 1"
     inkscape:groupmode="layer"
     id="layer1">
    <path
       sodipodi:type="arc"
       style="fill:none;fill-opacity:1;stroke:black;stroke-width:2;stroke-miterlimit:4;stroke-dasharray:none;stroke-dashoffset:0;stroke-opacity:1"
       id="path1874"
       sodipodi:cx="156.43076"
       sodipodi:cy="162.73685"
       sodipodi:rx="8.3588953"
       sodipodi:ry="8.3588953"
       d="M 164.78965 162.73685 A 8.3588953 8.3588953 0 1 1  148.07186,162.73685 A 8.3588953 8.3588953 0 1 1  164.78965 162.73685 z"
       transform="translate(-0.238822,-7.761842)" />
    <path
       sodipodi:type="arc"
       style="fill:none;fill-opacity:1;stroke:black;stroke-width:2;stroke-miterlimit:4;stroke-dasharray:none;stroke-dashoffset:0;stroke-opacity:1"
       id="path2762"
       sodipodi:cx="156.43076"
       sodipodi:cy="162.73685"
       sodipodi:rx="8.3588953"
       sodipodi:ry="8.3588953"
       d="M 164.78965 162.73685 A 8.3588953 8.3588953 0 1 1  148.07186,162.73685 A 8.3588953 8.3588953 0 1 1  164.78965 162.73685 z"
       transform="translate(-0.238822,55.79449)" />
    <path
       sodipodi:type="arc"
       style="fill:none;fill-opacity:1;stroke:black;stroke-width:2;stroke-miterlimit:4;stroke-dasharray:none;stroke-dashoffset:0;stroke-opacity:1"
       id="path2764"
       sodipodi:cx="156.43076"
       sodipodi:cy="162.73685"
       sodipodi:rx="8.3588953"
       sodipodi:ry="8.3588953"
       d="M 164.78965 162.73685 A 8.3588953 8.3588953 0 1 1  148.07186,162.73685 A 8.3588953 8.3588953 0 1 1  164.78965 162.73685 z"
       transform="translate(-0.238818,149.6243)" />
    <path
       sodipodi:type="arc"
       style="fill:none;fill-opacity:1;stroke:black;stroke-width:2;stroke-miterlimit:4;stroke-dasharray:none;stroke-dashoffset:0;stroke-opacity:1"
       id="path2766"
       sodipodi:cx="156.43076"
       sodipodi:cy="162.73685"
       sodipodi:rx="8.3588953"
       sodipodi:ry="8.3588953"
       d="M 164.78965 162.73685 A 8.3588953 8.3588953 0 1 1  148.07186,162.73685 A 8.3588953 8.3588953 0 1 1  164.78965 162.73685 z"
       transform="translate(171.0588,-7.761842)" />
    <path
       sodipodi:type="arc"
       style="fill:none;fill-opacity:1;stroke:black;stroke-width:2;stroke-miterlimit:4;stroke-dasharray:none;stroke-dashoffset:0;stroke-opacity:1"
       id="path2768"
       sodipodi:cx="156.43076"
       sodipodi:cy="162.73685"
       sodipodi:rx="8.3588953"
       sodipodi:ry="8.3588953"
       d="M 164.78965 162.73685 A 8.3588953 8.3588953 0 1 1  148.07186,162.73685 A 8.3588953 8.3588953 0 1 1  164.78965 162.73685 z"
       transform="translate(171.0588,55.79449)" />
    <path
       sodipodi:type="arc"
       style="fill:none;fill-opacity:1;stroke:black;stroke-width:2;stroke-miterlimit:4;stroke-dasharray:none;stroke-dashoffset:0;stroke-opacity:1"
       id="path2770"
       sodipodi:cx="156.43076"
       sodipodi:cy="162.73685"
       sodipodi:rx="8.3588953"
       sodipodi:ry="8.3588953"
       d="M 164.78965 162.73685 A 8.3588953 8.3588953 0 1 1  148.07186,162.73685 A 8.3588953 8.3588953 0 1 1  164.78965 162.73685 z"
       transform="translate(171.0589,149.6243)" />
    <path
       sodipodi:type="arc"
       style="fill:none;fill-opacity:1;stroke:black;stroke-width:2;stroke-miterlimit:4;stroke-dasharray:none;stroke-dashoffset:0;stroke-opacity:1"
       id="path2772"
       sodipodi:cx="156.43076"
       sodipodi:cy="162.73685"
       sodipodi:rx="8.3588953"
       sodipodi:ry="8.3588953"
       d="M 164.78965 162.73685 A 8.3588953 8.3588953 0 1 1  148.07186,162.73685 A 8.3588953 8.3588953 0 1 1  164.78965 162.73685 z"
       transform="translate(342.3564,-7.761842)" />
    <path
       sodipodi:type="arc"
       style="fill:none;fill-opacity:1;stroke:black;stroke-width:2;stroke-miterlimit:4;stroke-dasharray:none;stroke-dashoffset:0;stroke-opacity:1"
       id="path2774"
       sodipodi:cx="156.43076"
       sodipodi:cy="162.73685"
       sodipodi:rx="8.3588953"
       sodipodi:ry="8.3588953"
       d="M 164.78965 162.73685 A 8.3588953 8.3588953 0 1 1  148.07186,162.73685 A 8.3588953 8.3588953 0 1 1  164.78965 162.73685 z"
       transform="translate(342.3565,55.79449)" />
    <path
       sodipodi:type="arc"
       style="fill:none;fill-opacity:1;stroke:black;stroke-width:2;stroke-miterlimit:4;stroke-dasharray:none;stroke-dashoffset:0;stroke-opacity:1"
       id="path2776"
       sodipodi:cx="156.43076"
       sodipodi:cy="162.73685"
       sodipodi:rx="8.3588953"
       sodipodi:ry="8.3588953"
       d="M 164.78965 162.73685 A 8.3588953 8.3588953 0 1 1  148.07186,162.73685 A 8.3588953 8.3588953 0 1 1  164.78965 162.73685 z"
       transform="translate(342.3565,149.6243)" />
    <path
       sodipodi:type="arc"
       style="fill:none;fill-opacity:1;stroke:black;stroke-width:2;stroke-miterlimit:4;stroke-dasharray:none;stroke-dashoffset:0;stroke-opacity:1"
       id="path2778"
       sodipodi:cx="156.43076"
       sodipodi:cy="162.73685"
       sodipodi:rx="8.3588953"
       sodipodi:ry="8.3588953"
       d="M 164.78965 162.73685 A 8.3588953 8.3588953 0 1 1  148.07186,162.73685 A 8.3588953 8.3588953 0 1 1  164.78965 162.73685 z"
       transform="translate(455.0215,55.79449)" />
    <path
       sodipodi:type="arc"
       style="fill:black;fill-opacity:1;stroke:black;stroke-width:2;stroke-miterlimit:4;stroke-dasharray:none;stroke-dashoffset:0;stroke-opacity:1"
       id="path2780"
       sodipodi:cx="156.43076"
       sodipodi:cy="162.73685"
       sodipodi:rx="8.3588953"
       sodipodi:ry="8.3588953"
       d="M 164.78965 162.73685 A 8.3588953 8.3588953 0 1 1  148.07186,162.73685 A 8.3588953 8.3588953 0 1 1  164.78965 162.73685 z"
       transform="translate(-0.238818,-76.66301)" />
    <path
       style="fill:none;fill-rule:evenodd;stroke:black;stroke-width:2;stroke-linecap:butt;stroke-linejoin:miter;stroke-opacity:1;marker-end:url(#Arrow1Mend);stroke-miterlimit:4;stroke-dasharray:none"
       d="M 164.78966,155.33326 C 316.20508,155.33326 316.20508,155.33326 316.20508,155.33326"
       id="path4746" />
    <path
       style="fill:none;fill-rule:evenodd;stroke:black;stroke-width:2;stroke-linecap:butt;stroke-linejoin:miter;marker-end:url(#Arrow1Mend);stroke-miterlimit:4;stroke-dasharray:none;stroke-opacity:1"
       d="M 336.44238,154.37796 C 487.8578,154.37796 487.8578,154.37796 487.8578,154.37796"
       id="path5635" />
    <path
       style="fill:none;fill-rule:evenodd;stroke:black;stroke-width:2;stroke-linecap:butt;stroke-linejoin:miter;marker-end:url(#Arrow1Mend);stroke-miterlimit:4;stroke-dasharray:none;stroke-opacity:1"
       d="M 334.5011,218.38322 C 485.91652,218.38322 485.91652,218.38322 485.91652,218.38322"
       id="path5637" />
    <path
       style="fill:none;fill-rule:evenodd;stroke:black;stroke-width:2;stroke-linecap:butt;stroke-linejoin:miter;marker-end:url(#Arrow1Mend);stroke-miterlimit:4;stroke-dasharray:none;stroke-opacity:1"
       d="M 335.57647,312.30171 C 486.99189,312.30171 486.99189,312.30171 486.99189,312.30171"
       id="path5639" />
    <path
       style="fill:none;fill-rule:evenodd;stroke:black;stroke-width:2;stroke-linecap:butt;stroke-linejoin:miter;marker-end:url(#Arrow1Mend);stroke-miterlimit:4;stroke-dasharray:none;stroke-opacity:1"
       d="M 165.23116,218.47261 C 316.64658,218.47261 316.64658,218.47261 316.64658,218.47261"
       id="path5643" />
    <path
       style="fill:none;fill-rule:evenodd;stroke:black;stroke-width:2;stroke-linecap:butt;stroke-linejoin:miter;marker-end:url(#Arrow1Mend);stroke-miterlimit:4;stroke-dasharray:none;stroke-opacity:1"
       d="M 163.97963,312.30171 C 315.39505,312.30171 315.39505,312.30171 315.39505,312.30171"
       id="path5645" />
    <path
       style="fill:none;fill-rule:evenodd;stroke:black;stroke-width:2;stroke-linecap:butt;stroke-linejoin:miter;stroke-opacity:1;marker-end:url(#Arrow1Mend);stroke-miterlimit:4;stroke-dasharray:none"
       d="M 508.22086,218.38322 C 600.88519,218.38322 600.88519,218.38322 600.88519,218.38322"
       id="path5651" />
    <path
       style="fill:none;fill-rule:evenodd;stroke:black;stroke-width:2;stroke-linecap:butt;stroke-linejoin:miter;stroke-opacity:1;marker-end:url(#Arrow1Mend);stroke-miterlimit:4;stroke-dasharray:none"
       d="M 507.26556,154.37796 C 602.79579,211.6961 602.79579,211.6961 602.79579,211.6961"
       id="path6538" />
    <path
       style="fill:none;fill-rule:evenodd;stroke:black;stroke-width:2;stroke-linecap:butt;stroke-linejoin:miter;stroke-opacity:1;stroke-miterlimit:4;stroke-dasharray:none;marker-end:url(#Arrow1Mend)"
       d="M 507.74321,311.5252 C 604.22875,226.02564 604.22875,226.02564 604.22875,226.02564"
       id="path7425" />
    <path
       style="fill:none;fill-rule:evenodd;stroke:black;stroke-width:2;stroke-linecap:butt;stroke-linejoin:miter;stroke-opacity:1;stroke-miterlimit:4;stroke-dasharray:none;marker-end:url(#Arrow1Mend)"
       d="M 620.46889,218.38322 C 676.83173,218.38322 676.83173,218.38322 676.83173,218.38322"
       id="path9199" />
    <path
       style="fill:none;fill-rule:evenodd;stroke:black;stroke-width:2;stroke-linecap:butt;stroke-linejoin:miter;stroke-opacity:1;stroke-miterlimit:4;stroke-dasharray:none;marker-end:url(#Arrow1Mend)"
       d="M 164.78966,88.939746 C 319.07099,148.64614 319.07099,148.64614 319.07099,148.64614"
       id="path10086" />
    <path
       style="fill:none;fill-rule:evenodd;stroke:black;stroke-width:2;stroke-linecap:butt;stroke-linejoin:miter;stroke-opacity:1;stroke-miterlimit:4;stroke-dasharray:none;marker-end:url(#Arrow1Mend)"
       d="M 163.3567,305.79338 C 319.07099,161.54273 319.07099,161.54273 319.07099,161.54273"
       id="path10973" />
    <path
       style="fill:none;fill-rule:evenodd;stroke:black;stroke-width:2;stroke-linecap:butt;stroke-linejoin:miter;stroke-opacity:1;stroke-miterlimit:4;stroke-dasharray:none;marker-end:url(#Arrow1Mend)"
       d="M 161.92375,91.328002 C 319.54864,211.21845 319.54864,211.21845 319.54864,211.21845"
       id="path11860" />
    <path
       style="fill:none;fill-rule:evenodd;stroke:black;stroke-width:2;stroke-linecap:butt;stroke-linejoin:miter;stroke-opacity:1;stroke-miterlimit:4;stroke-dasharray:none;marker-end:url(#Arrow1Mend)"
       d="M 334.35583,224.11503 C 489.59246,306.27103 489.59246,306.27103 489.59246,306.27103"
       id="path12747" />
    <path
       style="fill:none;fill-rule:evenodd;stroke:black;stroke-width:2;stroke-linecap:butt;stroke-linejoin:miter;stroke-opacity:1;stroke-miterlimit:4;stroke-dasharray:none;marker-end:url(#Arrow1Mend)"
       d="M 163.3567,224.11503 C 319.07099,306.27103 319.07099,306.27103 319.07099,306.27103"
       id="path13634" />
    <path
       style="fill:none;fill-rule:evenodd;stroke:black;stroke-width:2;stroke-linecap:butt;stroke-linejoin:miter;stroke-opacity:1;stroke-miterlimit:4;stroke-dasharray:none;marker-end:url(#Arrow1Mend)"
       d="M 333.87818,212.17375 C 489.11481,161.06507 489.11481,161.06507 489.11481,161.06507"
       id="path14521" />
    <path
       style="fill:none;fill-rule:evenodd;stroke:black;stroke-width:2;stroke-linecap:butt;stroke-linejoin:miter;stroke-opacity:1;stroke-miterlimit:4;stroke-dasharray:none;marker-end:url(#Arrow1Mend)"
       d="M 162.87905,84.640886 C 489.11481,148.16849 489.11481,148.16849 489.11481,148.16849"
       id="path15408" />
    <path
       style="fill:none;fill-rule:evenodd;stroke:black;stroke-width:2;stroke-linecap:butt;stroke-linejoin:miter;stroke-opacity:1;stroke-miterlimit:4;stroke-dasharray:none;marker-end:url(#Arrow1Mend)"
       d="M 334.83348,306.74869 C 490.07011,225.54798 490.07011,225.54798 490.07011,225.54798"
       id="path16295" />
    <image
       y="75.635689"
       x="64.038528"
       id="image17328"
       height="26.010662"
       width="76.875954"
       sodipodi:absref="/home/schmu20mol/TU-Berlin/job/script/MI1/figures/png/standards/x_0=1.png"
       xlink:href="/home/schmu20mol/TU-Berlin/job/script/MI1/figures/png/standards/x_0=1.png" />
    <image
       y="142.88953"
       x="107.59775"
       id="image17386"
       height="23.120588"
       width="25.432648"
       sodipodi:absref="/home/schmu20mol/TU-Berlin/job/script/MI1/figures/png/standards/x_1.png"
       xlink:href="/home/schmu20mol/TU-Berlin/job/script/MI1/figures/png/standards/x_1.png" />
    <image
       y="208.07814"
       x="107.59775"
       id="image17444"
       height="24.276617"
       width="30.056765"
       sodipodi:absref="/home/schmu20mol/TU-Berlin/job/script/MI1/figures/png/standards/x_2.png"
       xlink:href="/home/schmu20mol/TU-Berlin/job/script/MI1/figures/png/standards/x_2.png" />
    <image
       y="302.04138"
       x="107.59775"
       id="image17502"
       height="25.432648"
       width="35.83691"
       sodipodi:absref="/home/schmu20mol/TU-Berlin/job/script/MI1/figures/png/standards/x_N.png"
       xlink:href="/home/schmu20mol/TU-Berlin/job/script/MI1/figures/png/standards/x_N.png" />
    <image
       y="332.41611"
       x="488.65613"
       id="image17575"
       height="24.854631"
       width="21.96456"
       sodipodi:absref="/home/schmu20mol/TU-Berlin/job/script/MI1/figures/png/standards/v'.png"
       xlink:href="/home/schmu20mol/TU-Berlin/job/script/MI1/figures/png/standards/v'.png" />
    <image
       y="340.12048"
       x="319.83273"
       id="image17633"
       height="15.606397"
       width="15.028382"
       sodipodi:absref="/home/schmu20mol/TU-Berlin/job/script/MI1/figures/png/standards/v.png"
       xlink:href="/home/schmu20mol/TU-Berlin/job/script/MI1/figures/png/standards/v.png" />
    <image
       y="77.048706"
       x="440.88303"
       id="image17691"
       height="34.680882"
       width="30.634779"
       sodipodi:absref="/home/schmu20mol/TU-Berlin/job/script/MI1/figures/png/standards/S_j^v.png"
       xlink:href="/home/schmu20mol/TU-Berlin/job/script/MI1/figures/png/standards/S_j^v.png" />
    <image
       y="48.605976"
       x="61.458435"
       id="image17749"
       height="26.010662"
       width="112.13485"
       sodipodi:absref="/home/schmu20mol/TU-Berlin/job/script/MI1/figures/png/standards/bias_node.png"
       xlink:href="/home/schmu20mol/TU-Berlin/job/script/MI1/figures/png/standards/bias_node.png" />
    <image
       y="205.19629"
       x="682.02521"
       id="image17807"
       height="27.744705"
       width="21.96456"
       sodipodi:absref="/home/schmu20mol/TU-Berlin/job/script/MI1/figures/png/standards/y.png"
       xlink:href="/home/schmu20mol/TU-Berlin/job/script/MI1/figures/png/standards/y.png" />
    <image
       y="226.07704"
       x="507.36346"
       id="image17865"
       height="24.276617"
       width="12.138309"
       sodipodi:absref="/home/schmu20mol/TU-Berlin/job/script/MI1/figures/png/standards/i.png"
       xlink:href="/home/schmu20mol/TU-Berlin/job/script/MI1/figures/png/standards/i.png" />
    <image
       y="225.93393"
       x="300.50323"
       id="image17923"
       height="26.588676"
       width="16.762426"
       sodipodi:absref="/home/schmu20mol/TU-Berlin/job/script/MI1/figures/png/standards/j.png"
       xlink:href="/home/schmu20mol/TU-Berlin/job/script/MI1/figures/png/standards/j.png" />
    <image
       y="334.70889"
       x="582.64319"
       id="image17981"
       height="24.276617"
       width="68.783752"
       sodipodi:absref="/home/schmu20mol/TU-Berlin/job/script/MI1/figures/png/section1_fig14_00.png"
       xlink:href="/home/schmu20mol/TU-Berlin/job/script/MI1/figures/png/section1_fig14_00.png" />
    <image
       y="47.776077"
       x="252.7327"
       id="image18024"
       height="39.305"
       width="125.42919"
       sodipodi:absref="/home/schmu20mol/TU-Berlin/job/script/MI1/figures/png/section1_fig14_01.png"
       xlink:href="/home/schmu20mol/TU-Berlin/job/script/MI1/figures/png/section1_fig14_01.png" />
    <image
       y="103.42316"
       x="547.82654"
       id="image18110"
       height="38.726986"
       width="52.021324"
       sodipodi:absref="/home/schmu20mol/TU-Berlin/job/script/MI1/figures/png/section1_fig14_02.png"
       xlink:href="/home/schmu20mol/TU-Berlin/job/script/MI1/figures/png/section1_fig14_02.png" />
    <image
       y="384.87289"
       x="334.138"
       id="image18168"
       height="28.32272"
       width="151.43985"
       sodipodi:absref="/home/schmu20mol/TU-Berlin/job/script/MI1/figures/png/standards/hidden_layers.png"
       xlink:href="/home/schmu20mol/TU-Berlin/job/script/MI1/figures/png/standards/hidden_layers.png" />
    <image
       y="384.87289"
       x="80.80851"
       id="image18226"
       height="27.166691"
       width="126.58522"
       sodipodi:absref="/home/schmu20mol/TU-Berlin/job/script/MI1/figures/png/standards/input_layer.png"
       xlink:href="/home/schmu20mol/TU-Berlin/job/script/MI1/figures/png/standards/input_layer.png" />
    <image
       y="384.87289"
       x="534.60724"
       id="image18284"
       height="27.166691"
       width="142.76964"
       sodipodi:absref="/home/schmu20mol/TU-Berlin/job/script/MI1/figures/png/standards/output_layer.png"
       xlink:href="/home/schmu20mol/TU-Berlin/job/script/MI1/figures/png/standards/output_layer.png" />
    <image
       y="345.04694"
       x="107.59775"
       id="image18342"
       height="21.386543"
       width="66.471687"
       sodipodi:absref="/home/schmu20mol/TU-Berlin/job/script/MI1/figures/png/section1_fig14_03.png"
       xlink:href="/home/schmu20mol/TU-Berlin/job/script/MI1/figures/png/section1_fig14_03.png" />
    <text
       xml:space="preserve"
       style="font-size:12px;font-style:normal;font-weight:normal;fill:black;fill-opacity:1;stroke:none;stroke-width:1px;stroke-linecap:butt;stroke-linejoin:miter;stroke-opacity:1;font-family:Bitstream Vera Sans"
       x="248.99084"
       y="-155.56494"
       id="text18345"
       transform="matrix(0,1,-1,0,0,0)"><tspan
         sodipodi:role="line"
         id="tspan18347"
         x="248.99084"
         y="-155.56494"
         style="font-size:20px">. . .</tspan></text>
    <text
       xml:space="preserve"
       style="font-size:12px;font-style:normal;font-weight:normal;fill:black;fill-opacity:1;stroke:none;stroke-width:1px;stroke-linecap:butt;stroke-linejoin:miter;stroke-opacity:1;font-family:Bitstream Vera Sans"
       x="248.99084"
       y="-326.99551"
       id="text18349"
       transform="matrix(0,1,-1,0,0,0)"><tspan
         sodipodi:role="line"
         id="tspan18351"
         x="248.99084"
         y="-326.99551"
         style="font-size:20px">. . .</tspan></text>
    <text
       xml:space="preserve"
       style="font-size:12px;font-style:normal;font-weight:normal;fill:black;fill-opacity:1;stroke:none;stroke-width:1px;stroke-linecap:butt;stroke-linejoin:miter;stroke-opacity:1;font-family:Bitstream Vera Sans"
       x="248.99084"
       y="-496.56171"
       id="text18353"
       transform="matrix(0,1,-1,0,0,0)"><tspan
         sodipodi:role="line"
         id="tspan18355"
         x="248.99084"
         y="-496.56171"
         style="font-size:20px">. . .</tspan></text>
    <text
       xml:space="preserve"
       style="font-size:12px;font-style:normal;font-weight:normal;fill:black;fill-opacity:1;stroke:none;stroke-width:1px;stroke-linecap:butt;stroke-linejoin:miter;stroke-opacity:1;font-family:Bitstream Vera Sans"
       x="248.99084"
       y="-117.51612"
       id="text18357"
       transform="matrix(0,1,-1,0,0,0)"><tspan
         sodipodi:role="line"
         id="tspan18359"
         x="248.99084"
         y="-117.51612"
         style="font-size:20px">. . .</tspan></text>
    <path
       style="font-size:63.74376297px;font-style:normal;font-weight:normal;fill:black;fill-opacity:1;stroke:none;stroke-width:1px;stroke-linecap:butt;stroke-linejoin:miter;stroke-opacity:1;font-family:Bitstream Vera Sans"
       d="M 507.28714,356.27371 C 509.20146,365.34313 499.2191,375.52767 482.0449,374.89707 C 463.34833,377.16098 438.10529,370.91257 422.87963,379.55882 C 418.65528,383.36554 417.99242,385.79619 424.84045,381.7876 C 448.78405,373.58599 481.82241,384.7381 503.10007,373.51032 C 507.28204,368.61102 510.35771,360.2367 507.28714,356.27371 z M 412.30265,398.53234 C 412.8735,398.61658 412.12439,397.49972 412.30265,398.53234 z M 404.86088,383.42716 C 398.46843,370.38225 367.17979,377.02634 350.54127,375.31721 C 333.34649,377.17439 316.75901,369.9085 319.65147,359.3071 C 318.12316,352.20755 317.13762,367.2261 319.68795,370.02624 C 325.67784,383.6096 358.62257,377.26848 375.93212,378.8338 C 386.41594,378.7735 398.72366,379.60544 405.33828,384.8298 L 404.86088,383.42716 z "
       id="text15618" />
    <path
       sodipodi:type="arc"
       style="fill:none;fill-opacity:1;stroke:black;stroke-width:2;stroke-miterlimit:4;stroke-dasharray:2, 2;stroke-dashoffset:0;stroke-opacity:1"
       id="path18831"
       sodipodi:cx="197.26994"
       sodipodi:cy="138.13782"
       sodipodi:rx="7.6424189"
       sodipodi:ry="7.6424189"
       d="M 204.91236 138.13782 A 7.6424189 7.6424189 0 1 1  189.62752,138.13782 A 7.6424189 7.6424189 0 1 1  204.91236 138.13782 z"
       transform="translate(16.71779,-5.731814)" />
    <path
       sodipodi:type="arc"
       style="fill:none;fill-opacity:1;stroke:black;stroke-width:2;stroke-miterlimit:4;stroke-dasharray:2, 2;stroke-dashoffset:0;stroke-opacity:1"
       id="path19718"
       sodipodi:cx="197.26994"
       sodipodi:cy="138.13782"
       sodipodi:rx="7.6424189"
       sodipodi:ry="7.6424189"
       d="M 204.91236 138.13782 A 7.6424189 7.6424189 0 1 1  189.62752,138.13782 A 7.6424189 7.6424189 0 1 1  204.91236 138.13782 z"
       transform="translate(224.0184,80.2454)" />
    <path
       style="fill:none;fill-rule:evenodd;stroke:black;stroke-width:2;stroke-linecap:butt;stroke-linejoin:miter;marker-mid:none;marker-end:url(#Arrow1Mend);stroke-miterlimit:4;stroke-dasharray:2, 2;stroke-dashoffset:0;stroke-opacity:1"
       d="M 256.97633,71.744304 C 256.97633,71.744304 224.49605,74.610211 219.71954,97.537468 C 214.94303,120.46473 214.94303,120.46473 214.94303,120.46473"
       id="path19720" />
    <path
       style="fill:none;fill-rule:evenodd;stroke:black;stroke-width:2;stroke-linecap:butt;stroke-linejoin:miter;marker-end:url(#Arrow1Mend);stroke-miterlimit:4;stroke-dasharray:2,2;stroke-dashoffset:0;stroke-opacity:1"
       d="M 442.32789,91.305109 C 442.32789,91.305109 369.21745,128.69177 350.10361,167.0889 C 330.98976,205.48601 330.98976,205.48601 330.98976,205.48601"
       id="path20607" />
    <path
       style="fill:none;fill-rule:evenodd;stroke:black;stroke-width:2;stroke-linecap:butt;stroke-linejoin:miter;marker-end:url(#Arrow1Mend);stroke-miterlimit:4;stroke-dasharray:2, 2;stroke-dashoffset:0;stroke-opacity:1"
       d="M 551.68712,124.28594 C 551.68712,124.28594 549.77651,167.27454 513.95267,181.12643 C 478.12883,194.97831 431.31902,211.21845 431.31902,211.21845"
       id="path21494" />
  </g>
</svg>
