<?xml version="1.0" encoding="UTF-8" standalone="no"?>
<!-- Created with Inkscape (http://www.inkscape.org/) -->

<svg
   xmlns:dc="http://purl.org/dc/elements/1.1/"
   xmlns:cc="http://creativecommons.org/ns#"
   xmlns:rdf="http://www.w3.org/1999/02/22-rdf-syntax-ns#"
   xmlns:svg="http://www.w3.org/2000/svg"
   xmlns="http://www.w3.org/2000/svg"
   xmlns:sodipodi="http://sodipodi.sourceforge.net/DTD/sodipodi-0.dtd"
   xmlns:inkscape="http://www.inkscape.org/namespaces/inkscape"
   id="svg2"
   version="1.1"
   inkscape:version="0.48.4 r9939"
   width="54.175806"
   height="100.63775"
   xml:space="preserve"
   sodipodi:docname="section1_fig64.pdf"><metadata
     id="metadata8"><rdf:RDF><cc:Work
         rdf:about=""><dc:format>image/svg+xml</dc:format><dc:type
           rdf:resource="http://purl.org/dc/dcmitype/StillImage" /><dc:title></dc:title></cc:Work></rdf:RDF></metadata><defs
     id="defs6" /><sodipodi:namedview
     pagecolor="#ffffff"
     bordercolor="#666666"
     borderopacity="1"
     objecttolerance="10"
     gridtolerance="10"
     guidetolerance="10"
     inkscape:pageopacity="0"
     inkscape:pageshadow="2"
     inkscape:window-width="1637"
     inkscape:window-height="1026"
     id="namedview4"
     showgrid="false"
     inkscape:zoom="2.3450445"
     inkscape:cx="27.087902"
     inkscape:cy="50.318874"
     inkscape:window-x="1409"
     inkscape:window-y="24"
     inkscape:window-maximized="1"
     inkscape:current-layer="g10" /><g
     id="g10"
     inkscape:groupmode="layer"
     inkscape:label="section1_fig64"
     transform="matrix(1.25,0,0,-1.25,0,100.63775)"><g
       id="g12"><path
         d="m 8.199,16.397 0.02,13.277"
         style="fill:none;stroke:#000000;stroke-opacity:1;stroke-width:0.8;stroke-linecap:butt;stroke-linejoin:miter;stroke-miterlimit:4;stroke-dasharray:none"
         id="path14" /><g
         id="g16"
         transform="matrix(0.00157575,1,1,-0.00157575,0,80.510201)"><path
           d="m -48.975,8.3 -2.767,1.598 -0.001,-3.199 2.768,1.601 z"
           style="fill:#000000;fill-opacity:1;fill-rule:evenodd;stroke:#000000;stroke-opacity:1;stroke-width:0.4;stroke-linecap:butt;stroke-linejoin:miter;stroke-miterlimit:4;stroke-dasharray:none"
           id="path18" /></g><path
         d="M 8.32,48.401 8.219,61.674"
         style="fill:none;stroke:#000000;stroke-opacity:1;stroke-width:0.8;stroke-linecap:butt;stroke-linejoin:miter;stroke-miterlimit:4;stroke-dasharray:none"
         id="path20" /><g
         id="g22"
         transform="matrix(-0.00760954,1,1,0.00760954,0,80.510201)"><path
           d="m -17.05,8.073 -2.77,1.6 0.001,-3.199 2.769,1.599 z"
           style="fill:#000000;fill-opacity:1;fill-rule:evenodd;stroke:#000000;stroke-opacity:1;stroke-width:0.399988;stroke-linecap:butt;stroke-linejoin:miter;stroke-miterlimit:4;stroke-dasharray:none"
           id="path24" /></g><path
         d="M 8.566,8.334 8.629,8.413 8.691,8.495 8.758,8.577 8.82,8.659 8.957,8.827 9.02,8.909 9.09,8.991 9.152,9.077 9.219,9.155 9.281,9.233 9.344,9.307 9.371,9.338 9.402,9.373 9.43,9.409 9.512,9.502 9.535,9.53 9.562,9.557 c 0.333,0.391 0.778,0.551 1.29,0.563 l 0,0.336 -1.93,0 0,-0.336 C 9.148,10.096 9.238,9.956 9.238,9.784 9.238,9.612 9.129,9.471 9.074,9.405 L 8.406,8.561 7.559,9.655 C 7.461,9.76 7.461,9.784 7.461,9.85 c 0,0.16 0.164,0.258 0.383,0.27 l 0,0.336 -2.199,0 0,-0.336 c 0.757,0 0.769,-0.012 1.277,-0.661 L 7.992,8.065 6.977,6.776 C 6.457,6.147 5.816,6.127 5.594,6.127 l 0,-0.336 1.922,0 0,0.336 C 7.281,6.163 7.203,6.299 7.203,6.463 c 0,0.235 0.313,0.594 0.973,1.371 L 9,6.752 C 9.086,6.635 9.227,6.463 9.227,6.397 9.227,6.299 9.129,6.135 8.836,6.127 l 0,-0.336 2.207,0 0,0.336 c -0.582,0 -0.777,0.02 -1.027,0.336 l -1.45,1.871 z"
         style="fill:#000000;fill-opacity:1;fill-rule:evenodd;stroke:none"
         id="path26" /><path
         d="m 5.461,4.053 5.734,0 0,0.445 -5.734,0"
         style="fill:#000000;fill-opacity:1;fill-rule:nonzero;stroke:none"
         id="path28" /><path
         d="m 6.285,38.393 0,-0.043 -0.004,-0.039 0,-0.039 L 6.277,38.237 6.27,38.174 6.262,38.147 6.246,38.1 6.234,38.077 6.211,38.038 6.18,38.006 6.141,37.983 6.117,37.971 6.094,37.963 6.066,37.956 6.035,37.948 6.004,37.944 5.969,37.94 5.934,37.932 l -0.039,0 -0.024,-0.004 -0.066,0 -0.02,-0.004 -0.312,0 0,-0.324 2.339,0 0,0.324 c -0.699,0 -0.808,0 -0.808,0.469 l 0,1.914 c 0,1.078 0.734,1.664 1.402,1.664 0.656,0 0.77,-0.562 0.77,-1.156 l 0,-2.422 c 0,-0.469 -0.114,-0.469 -0.813,-0.469 l 0,-0.324 2.34,0 0,0.324 c -0.539,0 -0.801,0 -0.808,0.313 l 0,1.984 c 0,0.899 0,1.219 -0.325,1.594 -0.144,0.176 -0.488,0.383 -1.09,0.383 -0.875,0 -1.332,-0.621 -1.507,-1.016 l 0,3.637 -1.5,-0.113 0,-0.325 c 0.726,0 0.812,-0.07 0.812,-0.582 l 0,-5.406 z"
         style="fill:#000000;fill-opacity:1;fill-rule:evenodd;stroke:none"
         id="path30" /><path
         d="m 5.141,35.932 5.785,0 0,0.426 -5.785,0"
         style="fill:#000000;fill-opacity:1;fill-rule:nonzero;stroke:none"
         id="path32" /><path
         d="m 9.977,74.725 0.015,0.027 0.012,0.032 0.016,0.031 0.015,0.027 0.016,0.031 0.015,0.024 0.012,0.027 0.016,0.028 0.035,0.043 0.031,0.046 0.035,0.043 0.071,0.071 0.035,0.031 0.039,0.031 0.035,0.028 0.039,0.023 0.035,0.023 0.039,0.02 0.071,0.031 0.035,0.012 0.035,0.016 0.105,0.023 0.032,0.008 0.031,0.004 0.055,0.008 0.027,0 0.027,0.003 0.078,0 0,0.336 -1.754,0 0,-0.336 c 0.336,-0.007 0.512,-0.195 0.512,-0.464 0,-0.11 -0.012,-0.133 -0.066,-0.262 L 8.582,72.022 7.379,74.94 c -0.047,0.109 -0.067,0.152 -0.067,0.195 0,0.281 0.399,0.281 0.606,0.281 l 0,0.336 -2.23,0 0,-0.336 c 0.519,0 0.726,0 0.874,-0.378 L 8.188,71.081 C 8.133,70.94 7.984,70.584 7.918,70.44 7.68,69.846 7.379,69.096 6.684,69.096 c -0.055,0 -0.305,0 -0.508,0.195 0.332,0.043 0.422,0.282 0.422,0.457 0,0.282 -0.207,0.454 -0.457,0.454 -0.219,0 -0.453,-0.141 -0.453,-0.465 0,-0.489 0.453,-0.879 0.996,-0.879 0.683,0 1.125,0.621 1.386,1.238 l 1.907,4.629 z"
         style="fill:#000000;fill-opacity:1;fill-rule:evenodd;stroke:none"
         id="path34" /><path
         d="m 5.48,67.381 5.875,0 0,0.446 -5.875,0"
         style="fill:#000000;fill-opacity:1;fill-rule:nonzero;stroke:none"
         id="path36" /><path
         d="M 17.977,22.448 17.973,22.307 17.965,22.17 17.949,22.038 17.93,21.913 17.902,21.788 17.871,21.666 17.836,21.549 17.797,21.44 l -0.043,-0.109 -0.102,-0.204 -0.058,-0.093 -0.059,-0.09 -0.066,-0.09 -0.067,-0.082 -0.07,-0.074 -0.074,-0.078 -0.156,-0.133 -0.082,-0.059 -0.082,-0.055 -0.086,-0.05 -0.09,-0.047 -0.086,-0.039 -0.09,-0.039 -0.094,-0.032 -0.187,-0.046 -0.094,-0.02 -0.094,-0.012 -0.094,-0.007 -0.097,0 c -0.5,0 -1.758,0.265 -1.758,2.292 l 0,4.067 c 0,0.383 0.02,0.5 0.84,0.5 l 0.258,0 0,0.328 -3.149,0 0,-0.328 0.258,0 c 0.82,0 0.84,-0.117 0.84,-0.5 l 0,-4.024 c 0,-1.507 1.238,-2.668 2.691,-2.668 1.227,0 2.188,0.993 2.367,2.208 0.036,0.214 0.036,0.312 0.036,0.738 l 0,3.414 c 0,0.351 0,0.832 1.097,0.832 l 0,0.328 -2.531,0 0,-0.328 c 1.102,0 1.102,-0.5 1.102,-0.789 l 0,-3.703 z"
         style="fill:#000000;fill-opacity:1;fill-rule:evenodd;stroke:none"
         id="path38" /><path
         d="m 11.766,18.268 8.019,0 0,0.438 -8.019,0"
         style="fill:#000000;fill-opacity:1;fill-rule:nonzero;stroke:none"
         id="path40" /><path
         d="m 16.91,58.819 0.031,0.07 0.016,0.039 0.02,0.035 0.015,0.035 0.02,0.032 0.023,0.035 0.02,0.031 0.047,0.063 0.027,0.031 0.055,0.055 0.031,0.027 0.035,0.027 0.031,0.024 0.071,0.047 0.039,0.019 0.043,0.024 0.043,0.015 0.043,0.02 0.093,0.031 0.051,0.012 0.109,0.023 0.118,0.016 0.125,0.008 0.07,0 0,0.335 -2.274,0 0,-0.335 c 0.559,-0.008 0.79,-0.29 0.79,-0.536 0,-0.086 -0.036,-0.152 -0.055,-0.218 l -1.973,-5.188 -2.054,5.438 c -0.063,0.152 -0.063,0.172 -0.063,0.195 0,0.309 0.613,0.309 0.879,0.309 l 0,0.335 -2.902,0 0,-0.335 c 0.695,0 0.902,0 1.054,-0.407 l 2.496,-6.609 c 0.075,-0.207 0.129,-0.238 0.27,-0.238 0.184,0 0.203,0.054 0.258,0.203 l 2.398,6.332 z"
         style="fill:#000000;fill-opacity:1;fill-rule:evenodd;stroke:none"
         id="path42" /><path
         d="m 10.227,50.791 8.246,0 0,0.442 -8.246,0"
         style="fill:#000000;fill-opacity:1;fill-rule:nonzero;stroke:none"
         id="path44" /><path
         d="m 15.617,43.303 c 0,0 8.723,9.906 11.965,3.742 2.219,-4.226 2.012,-7.257 -0.57,-11.175 -3.356,-5.09 -8.77,1.171 -8.77,1.171"
         style="fill:none;stroke:#000000;stroke-opacity:1;stroke-width:0.8;stroke-linecap:butt;stroke-linejoin:miter;stroke-miterlimit:4;stroke-dasharray:none"
         id="path46" /><g
         id="g48"
         transform="matrix(-0.864427,1,1,0.864427,0,80.510201)"><path
           d="m -32.359,-11.234 -2.096,1.208 10e-4,-2.418 2.095,1.21 z"
           style="fill:#000000;fill-opacity:1;fill-rule:evenodd;stroke:#000000;stroke-opacity:1;stroke-width:0.302611;stroke-linecap:butt;stroke-linejoin:miter;stroke-miterlimit:4;stroke-dasharray:none"
           id="path50" /></g><path
         d="m 26.797,43.401 4.398,0 0,-4.391 -4.398,0 0,4.391 z"
         style="fill:#000000;fill-opacity:1;fill-rule:nonzero;stroke:#000000;stroke-opacity:1;stroke-width:0.8;stroke-linecap:square;stroke-linejoin:miter;stroke-miterlimit:4;stroke-dasharray:none"
         id="path52" /><path
         d="m 41.91,44.073 0.039,0.109 0.02,0.047 0.023,0.051 0.028,0.043 0.023,0.039 0.027,0.043 0.028,0.035 0.031,0.035 0.062,0.063 0.063,0.054 0.07,0.047 0.071,0.039 0.039,0.016 0.035,0.015 0.117,0.036 0.039,0.007 0.035,0.008 0.039,0.008 0.043,0.004 0.078,0.008 0.157,0.008 0,0.328 -2.243,0 0,-0.328 c 0.719,-0.012 0.93,-0.364 0.93,-0.567 0,-0.062 -0.031,-0.148 -0.051,-0.215 l -1.601,-4.925 -1.707,5.226 c -0.012,0.043 -0.035,0.106 -0.035,0.16 0,0.321 0.621,0.321 0.898,0.321 l 0,0.328 -2.816,0 0,-0.328 c 0.609,0 0.832,0 0.96,-0.387 l 0.235,-0.742 -1.485,-4.578 -1.718,5.25 c -0.008,0.027 -0.02,0.105 -0.02,0.136 0,0.321 0.617,0.321 0.899,0.321 l 0,0.328 -2.817,0 0,-0.328 c 0.797,0 0.84,-0.055 0.969,-0.45 l 2.133,-6.539 c 0.031,-0.097 0.062,-0.203 0.203,-0.203 0.152,0 0.172,0.074 0.215,0.215 l 1.758,5.418 1.773,-5.43 c 0.031,-0.097 0.063,-0.203 0.203,-0.203 0.149,0 0.172,0.074 0.211,0.215 l 2.039,6.262 z"
         style="fill:#000000;fill-opacity:1;fill-rule:evenodd;stroke:none"
         id="path54" /><path
         d="m 32.211,36.116 11.129,0 0,0.437 -11.129,0"
         style="fill:#000000;fill-opacity:1;fill-rule:nonzero;stroke:none"
         id="path56" /><path
         d="m 0.508,79.682 15.211,0 0,-15.211 -15.211,0 0,15.211 z"
         style="fill:none;stroke:#000000;stroke-opacity:1;stroke-width:0.788435;stroke-linecap:square;stroke-linejoin:miter;stroke-miterlimit:4;stroke-dasharray:none"
         id="path58" /><path
         d="m 0.508,47.682 15.211,0 0,-15.211 -15.211,0 0,15.211 z"
         style="fill:none;stroke:#000000;stroke-opacity:1;stroke-width:0.788435;stroke-linecap:square;stroke-linejoin:miter;stroke-miterlimit:4;stroke-dasharray:none"
         id="path60" /><path
         d="m 0.508,15.682 15.211,0 0,-15.211 -15.211,0 0,15.211 z"
         style="fill:none;stroke:#000000;stroke-opacity:1;stroke-width:0.788435;stroke-linecap:square;stroke-linejoin:miter;stroke-miterlimit:4;stroke-dasharray:none"
         id="path62" /></g></g></svg>