<?xml version="1.0" encoding="UTF-8" standalone="no"?>
<!-- Created with Inkscape (http://www.inkscape.org/) -->
<svg
   xmlns:dc="http://purl.org/dc/elements/1.1/"
   xmlns:cc="http://web.resource.org/cc/"
   xmlns:rdf="http://www.w3.org/1999/02/22-rdf-syntax-ns#"
   xmlns:svg="http://www.w3.org/2000/svg"
   xmlns="http://www.w3.org/2000/svg"
   xmlns:xlink="http://www.w3.org/1999/xlink"
   xmlns:sodipodi="http://sodipodi.sourceforge.net/DTD/sodipodi-0.dtd"
   xmlns:inkscape="http://www.inkscape.org/namespaces/inkscape"
   width="744.09448819"
   height="1052.3622047"
   id="svg1908"
   sodipodi:version="0.32"
   inkscape:version="0.44"
   sodipodi:docbase="/home/schmu20mol/TU-Berlin/job/script/MI1/figures/svg"
   sodipodi:docname="section1_fig48.svg">
  <defs
     id="defs1910">
    <marker
       inkscape:stockid="Arrow1Mend"
       orient="auto"
       refY="0.0"
       refX="0.0"
       id="Arrow1Mend"
       style="overflow:visible;">
      <path
         id="path28648"
         d="M 0.0,0.0 L 5.0,-5.0 L -12.5,0.0 L 5.0,5.0 L 0.0,0.0 z "
         style="fill-rule:evenodd;stroke:#000000;stroke-width:1.0pt;marker-start:none;"
         transform="scale(0.4) rotate(180) translate(10,0)" />
    </marker>
    <marker
       inkscape:stockid="Arrow2Lend"
       orient="auto"
       refY="0.0"
       refX="0.0"
       id="Arrow2Lend"
       style="overflow:visible;">
      <path
         id="path4806"
         style="font-size:12.0;fill-rule:evenodd;stroke-width:0.62500000;stroke-linejoin:round;"
         d="M 8.7185878,4.0337352 L -2.2072895,0.016013256 L 8.7185884,-4.0017078 C 6.9730900,-1.6296469 6.9831476,1.6157441 8.7185878,4.0337352 z "
         transform="scale(1.1) rotate(180) translate(1,0)" />
    </marker>
  </defs>
  <sodipodi:namedview
     id="base"
     pagecolor="#ffffff"
     bordercolor="#666666"
     borderopacity="1.0"
     gridtolerance="10000"
     guidetolerance="10"
     objecttolerance="10"
     inkscape:pageopacity="0.0"
     inkscape:pageshadow="2"
     inkscape:zoom="2.112963"
     inkscape:cx="374.70333"
     inkscape:cy="873.80981"
     inkscape:document-units="px"
     inkscape:current-layer="layer1"
     inkscape:window-width="1398"
     inkscape:window-height="975"
     inkscape:window-x="0"
     inkscape:window-y="25" />
  <metadata
     id="metadata1913">
    <rdf:RDF>
      <cc:Work
         rdf:about="">
        <dc:format>image/svg+xml</dc:format>
        <dc:type
           rdf:resource="http://purl.org/dc/dcmitype/StillImage" />
      </cc:Work>
    </rdf:RDF>
  </metadata>
  <g
     inkscape:label="Layer 1"
     inkscape:groupmode="layer"
     id="layer1">
    <g
       id="g1928">
      <path
         id="path12056"
         d="M 95.769518,236.265 C 310.05223,236.265 310.05223,236.265 310.05223,236.265"
         style="fill:none;fill-rule:evenodd;stroke:black;stroke-width:1.01083851px;stroke-linecap:butt;stroke-linejoin:miter;marker-end:url(#Arrow2Lend);stroke-opacity:1" />
      <path
         id="path12058"
         d="M 119.42204,259.89916 C 119.42204,41.762782 119.42204,41.762782 119.42204,41.762782"
         style="fill:none;fill-rule:evenodd;stroke:black;stroke-width:0.99474108px;stroke-linecap:butt;stroke-linejoin:miter;marker-end:url(#Arrow2Lend);stroke-opacity:1" />
    </g>
    <g
       id="g1924"
       transform="translate(0,-4.624902)">
      <path
         id="path1920"
         d="M 413.50939,240.8899 C 627.7921,240.8899 627.7921,240.8899 627.7921,240.8899"
         style="fill:none;fill-rule:evenodd;stroke:black;stroke-width:1.01083851px;stroke-linecap:butt;stroke-linejoin:miter;marker-end:url(#Arrow2Lend);stroke-opacity:1" />
      <path
         id="path1922"
         d="M 437.16191,264.52406 C 437.16191,46.387684 437.16191,46.387684 437.16191,46.387684"
         style="fill:none;fill-rule:evenodd;stroke:black;stroke-width:0.99474108px;stroke-linecap:butt;stroke-linejoin:miter;marker-end:url(#Arrow2Lend);stroke-opacity:1" />
    </g>
    <path
       style="fill:none;fill-rule:evenodd;stroke:black;stroke-width:1;stroke-linecap:butt;stroke-linejoin:miter;stroke-opacity:1;stroke-miterlimit:4;stroke-dasharray:none"
       d="M 119.76632,180.00402 L 119.76632,180.00402 C 176.80721,173.40991 212.12664,68.179003 254.86317,123.95415 C 297.59967,179.72926 304.66357,190.71944 304.66357,190.71944"
       id="path29765" />
    <path
       style="fill:none;fill-rule:evenodd;stroke:black;stroke-width:1.01712167;stroke-linecap:butt;stroke-linejoin:miter;stroke-miterlimit:4;stroke-dasharray:2.03424352, 2.03424352;stroke-dashoffset:0;stroke-opacity:1"
       d="M 120.30467,232.98927 L 120.30467,232.98927 C 179.01552,232.62849 190.56291,234.0717 193.62365,231.90689 C 196.68442,229.74207 220.19657,96.967124 226.03983,89.390293 C 231.88309,81.813475 269.86428,85.060677 269.72515,85.060677 C 269.58603,85.060677 269.58603,85.060677 269.58603,85.060677 C 313.30411,85.060677 313.30411,85.060677 313.30411,85.060677"
       id="path29767" />
    <path
       style="fill:none;fill-rule:evenodd;stroke:black;stroke-width:1;stroke-linecap:butt;stroke-linejoin:miter;stroke-miterlimit:4;stroke-dasharray:2,2;stroke-dashoffset:0;stroke-opacity:1"
       d="M 438.50119,233.49508 L 438.50119,233.49508 C 512.03748,233.20732 526.50078,234.35833 530.33443,232.63184 C 534.16807,230.90533 563.61743,125.01344 570.93621,118.9707 C 578.25498,112.92796 625.82704,115.5177 625.65278,115.5177 C 625.47852,115.5177 625.47852,115.5177 625.47852,115.5177"
       id="path33826" />
    <path
       style="fill:none;fill-rule:evenodd;stroke:black;stroke-width:1.15674305px;stroke-linecap:butt;stroke-linejoin:miter;stroke-opacity:1"
       d="M 437.61561,131.54338 C 453.69262,130.27574 472.60675,141.68444 472.60675,141.68444 C 472.60675,141.68444 587.03725,233.58785 615.8813,233.58785"
       id="path27595"
       sodipodi:nodetypes="ccs" />
    <image
       y="243.06712"
       x="171.85144"
       id="image34884"
       height="26.504822"
       width="78.231972"
       sodipodi:absref="/home/schmu20mol/TU-Berlin/job/script/MI1/figures/png/section1_fig48_00.png"
       xlink:href="/home/schmu20mol/TU-Berlin/job/script/MI1/figures/png/section1_fig48_00.png" />
    <image
       y="243.06712"
       x="490.89508"
       id="image34927"
       height="21.374855"
       width="80.796951"
       sodipodi:absref="/home/schmu20mol/TU-Berlin/job/script/MI1/figures/png/section1_fig48_01.png"
       xlink:href="/home/schmu20mol/TU-Berlin/job/script/MI1/figures/png/section1_fig48_01.png" />
  </g>
</svg>
