<?xml version="1.0" encoding="UTF-8" standalone="no"?>
<!-- Created with Inkscape (http://www.inkscape.org/) -->
<svg
   xmlns:dc="http://purl.org/dc/elements/1.1/"
   xmlns:cc="http://creativecommons.org/ns#"
   xmlns:rdf="http://www.w3.org/1999/02/22-rdf-syntax-ns#"
   xmlns:svg="http://www.w3.org/2000/svg"
   xmlns="http://www.w3.org/2000/svg"
   xmlns:xlink="http://www.w3.org/1999/xlink"
   xmlns:sodipodi="http://sodipodi.sourceforge.net/DTD/sodipodi-0.dtd"
   xmlns:inkscape="http://www.inkscape.org/namespaces/inkscape"
   width="744.09448819"
   height="1052.3622047"
   id="svg1908"
   sodipodi:version="0.32"
   inkscape:version="0.46"
   sodipodi:docbase="/home/schmu20mol/TU-Berlin/job/script/MI1/figures/svg"
   sodipodi:docname="section1_fig46.svg"
   inkscape:output_extension="org.inkscape.output.svg.inkscape">
  <defs
     id="defs1910">
    <inkscape:perspective
       sodipodi:type="inkscape:persp3d"
       inkscape:vp_x="0 : 526.18109 : 1"
       inkscape:vp_y="0 : 1000 : 0"
       inkscape:vp_z="744.09448 : 526.18109 : 1"
       inkscape:persp3d-origin="372.04724 : 350.78739 : 1"
       id="perspective2510" />
    <marker
       inkscape:stockid="Arrow1Mend"
       orient="auto"
       refY="0.0"
       refX="0.0"
       id="Arrow1Mend"
       style="overflow:visible;">
      <path
         id="path28648"
         d="M 0.0,0.0 L 5.0,-5.0 L -12.5,0.0 L 5.0,5.0 L 0.0,0.0 z "
         style="fill-rule:evenodd;stroke:#000000;stroke-width:1.0pt;marker-start:none;"
         transform="scale(0.4) rotate(180) translate(10,0)" />
    </marker>
    <marker
       inkscape:stockid="Arrow2Lend"
       orient="auto"
       refY="0.0"
       refX="0.0"
       id="Arrow2Lend"
       style="overflow:visible;">
      <path
         id="path4806"
         style="font-size:12.0;fill-rule:evenodd;stroke-width:0.62500000;stroke-linejoin:round;"
         d="M 8.7185878,4.0337352 L -2.2072895,0.016013256 L 8.7185884,-4.0017078 C 6.9730900,-1.6296469 6.9831476,1.6157441 8.7185878,4.0337352 z "
         transform="scale(1.1) rotate(180) translate(1,0)" />
    </marker>
    <inkscape:perspective
       id="perspective2593"
       inkscape:persp3d-origin="372.04724 : 350.78739 : 1"
       inkscape:vp_z="744.09448 : 526.18109 : 1"
       inkscape:vp_y="0 : 1000 : 0"
       inkscape:vp_x="0 : 526.18109 : 1"
       sodipodi:type="inkscape:persp3d" />
    <inkscape:perspective
       id="perspective2711"
       inkscape:persp3d-origin="372.04724 : 350.78739 : 1"
       inkscape:vp_z="744.09448 : 526.18109 : 1"
       inkscape:vp_y="0 : 1000 : 0"
       inkscape:vp_x="0 : 526.18109 : 1"
       sodipodi:type="inkscape:persp3d" />
  </defs>
  <sodipodi:namedview
     id="base"
     pagecolor="#ffffff"
     bordercolor="#666666"
     borderopacity="1.0"
     gridtolerance="10000"
     guidetolerance="10"
     objecttolerance="10"
     inkscape:pageopacity="0.0"
     inkscape:pageshadow="2"
     inkscape:zoom="2.112963"
     inkscape:cx="374.70333"
     inkscape:cy="892.74057"
     inkscape:document-units="px"
     inkscape:current-layer="layer1"
     inkscape:window-width="1398"
     inkscape:window-height="878"
     inkscape:window-x="0"
     inkscape:window-y="0"
     showgrid="false" />
  <metadata
     id="metadata1913">
    <rdf:RDF>
      <cc:Work
         rdf:about="">
        <dc:format>image/svg+xml</dc:format>
        <dc:type
           rdf:resource="http://purl.org/dc/dcmitype/StillImage" />
      </cc:Work>
    </rdf:RDF>
  </metadata>
  <g
     inkscape:label="Layer 1"
     inkscape:groupmode="layer"
     id="layer1">
    <g
       id="g1928">
      <path
         id="path12056"
         d="M 95.769518,236.265 C 310.05223,236.265 310.05223,236.265 310.05223,236.265"
         style="fill:none;fill-rule:evenodd;stroke:black;stroke-width:1.01083851px;stroke-linecap:butt;stroke-linejoin:miter;marker-end:url(#Arrow2Lend);stroke-opacity:1" />
      <path
         id="path12058"
         d="M 119.42204,259.89916 C 119.42204,41.762782 119.42204,41.762782 119.42204,41.762782"
         style="fill:none;fill-rule:evenodd;stroke:black;stroke-width:0.99474108px;stroke-linecap:butt;stroke-linejoin:miter;marker-end:url(#Arrow2Lend);stroke-opacity:1" />
    </g>
    <g
       id="g1924"
       transform="translate(0,-4.624902)">
      <path
         id="path1920"
         d="M 413.50939,240.8899 C 627.7921,240.8899 627.7921,240.8899 627.7921,240.8899"
         style="fill:none;fill-rule:evenodd;stroke:black;stroke-width:1.01083851px;stroke-linecap:butt;stroke-linejoin:miter;marker-end:url(#Arrow2Lend);stroke-opacity:1" />
      <path
         id="path1922"
         d="M 437.16191,264.52406 C 437.16191,46.387684 437.16191,46.387684 437.16191,46.387684"
         style="fill:none;fill-rule:evenodd;stroke:black;stroke-width:0.99474108px;stroke-linecap:butt;stroke-linejoin:miter;marker-end:url(#Arrow2Lend);stroke-opacity:1" />
    </g>
    <image
       y="13.461022"
       x="110.67574"
       id="image2125"
       height="27.023359"
       width="21.393492"
       sodipodi:absref="/home/schmu20mol/TU-Berlin/job/script/MI1/figures/png/standards/y.png"
       xlink:href="/Users/schmu20mol/Documents/TU-Berlin/job/script/MI1/figures/png/standards/y.png" />
    <image
       y="223.05263"
       x="312.02939"
       id="image26102"
       height="27.339186"
       width="24.961864"
       sodipodi:absref="/home/schmu20mol/TU-Berlin/job/script/MI1/figures/png/standards/vecX.png"
       xlink:href="/Users/schmu20mol/Documents/TU-Berlin/job/script/MI1/figures/png/standards/vecX.png" />
    <image
       y="6.8337193"
       x="422.66284"
       id="image26177"
       height="33.282486"
       width="30.310837"
       sodipodi:absref="/home/schmu20mol/TU-Berlin/job/script/MI1/figures/png/section1_fig45_00.png"
       xlink:href="/Users/schmu20mol/Documents/TU-Berlin/job/script/MI1/figures/png/section1_fig45_00.png" />
    <g
       id="g39232"
       transform="translate(209.4494,7.6768e-2)">
      <path
         id="path36566"
         d="M 114.54478,123.06185 C 180.96531,123.06185 180.96531,123.06185 180.96531,123.06185"
         style="fill:none;fill-rule:evenodd;stroke:black;stroke-width:2;stroke-linecap:butt;stroke-linejoin:miter;marker-start:none;stroke-miterlimit:4;stroke-dasharray:none;stroke-opacity:1" />
      <path
         id="path37453"
         d="M 114.54478,131.79778 C 180.96531,131.79778 180.96531,131.79778 180.96531,131.79778"
         style="fill:none;fill-rule:evenodd;stroke:black;stroke-width:2;stroke-linecap:butt;stroke-linejoin:miter;marker-start:none;stroke-miterlimit:4;stroke-dasharray:none;stroke-opacity:1" />
      <path
         id="rect37457"
         d="M 181.21875,114.78125 L 181.21875,139.09375 L 193.375,126.9375 L 181.21875,114.78125 z "
         style="fill:none;fill-opacity:1;stroke:black;stroke-width:2;stroke-miterlimit:4;stroke-dasharray:none;stroke-dashoffset:0;stroke-opacity:1" />
    </g>
    <path
       style="fill:none;fill-rule:evenodd;stroke:black;stroke-width:1px;stroke-linecap:butt;stroke-linejoin:miter;stroke-opacity:1"
       d="M 121.15688,195.27193 C 138.66783,148.89156 138.66783,128.54099 138.66783,128.54099 C 138.66783,128.54099 140.56091,106.29734 145.76687,139.89945 C 150.97283,173.50155 158.07186,186.27981 160.91148,171.1352 C 163.75109,155.99059 164.69763,128.54099 166.11744,141.31925 C 167.53725,154.09752 169.90359,155.51733 170.85013,146.99848 C 171.79667,138.47964 173.21647,122.86176 175.10955,133.27368 C 177.00263,143.6856 179.36897,147.47175 182.20859,133.74695 C 185.0482,120.02215 186.46801,144.15887 190.72743,157.88367 C 194.98685,171.60847 202.08589,185.33328 206.81858,156.93713 C 211.55127,128.54099 218.17703,57.077362 221.01665,78.847739 C 223.85626,100.61812 230.9553,156.46386 232.37511,137.5331 C 233.79491,118.60234 235.68799,103.45773 238.5276,117.6558 C 241.36722,131.85387 245.62664,213.25615 247.99298,184.38674 C 250.35933,155.51733 253.19894,150.31137 256.51183,163.08963 C 259.82471,175.86789 262.66432,179.18078 265.03067,166.40251 C 267.39702,153.62425 272.60298,129.9608 274.96932,148.89156 C 277.33567,167.82232 282.06836,204.73731 283.96143,188.64616 C 285.85451,172.55501 285.85451,172.55501 285.85451,172.55501"
       id="path28709" />
    <path
       style="fill:none;fill-rule:evenodd;stroke:black;stroke-width:1px;stroke-linecap:butt;stroke-linejoin:miter;stroke-opacity:1"
       d="M 438.24714,205.21058 C 482.73444,193.37885 522.9623,121.91522 553.25152,129.01426 C 583.54074,136.11329 612.41016,166.40251 612.41016,166.40251"
       id="path28711" />
    <path
       style="fill:none;fill-rule:evenodd;stroke:black;stroke-width:1;stroke-linecap:butt;stroke-linejoin:miter;stroke-opacity:1;stroke-miterlimit:4;stroke-dasharray:1,1;stroke-dashoffset:0;marker-end:url(#Arrow1Mend)"
       d="M 594.42593,78.847739 C 593.95266,118.12907 573.12882,134.69349 573.12882,134.69349"
       id="path28756" />
    <image
       y="222.83151"
       x="630.90533"
       id="image2595"
       height="25.016394"
       width="17.358315"
       sodipodi:absref="/Users/schmu20mol/Documents/TU-Berlin/job/script/MI1/figures/png/standards/vecK.png"
       xlink:href="/Users/schmu20mol/Documents/TU-Berlin/job/script/MI1/figures/png/standards/vecK.png" />
    <image
       y="38.088306"
       x="487.57361"
       id="image2713"
       height="39.397896"
       width="160.29007"
       sodipodi:absref="/Users/schmu20mol/Documents/TU-Berlin/job/script/MI1/figures/png/section1_fig46_00.png"
       xlink:href="/Users/schmu20mol/Documents/TU-Berlin/job/script/MI1/figures/png/section1_fig46_00.png" />
  </g>
</svg>
