<?xml version="1.0" encoding="UTF-8" standalone="no"?>
<!-- Created with Inkscape (http://www.inkscape.org/) -->

<svg
   xmlns:dc="http://purl.org/dc/elements/1.1/"
   xmlns:cc="http://creativecommons.org/ns#"
   xmlns:rdf="http://www.w3.org/1999/02/22-rdf-syntax-ns#"
   xmlns:svg="http://www.w3.org/2000/svg"
   xmlns="http://www.w3.org/2000/svg"
   xmlns:sodipodi="http://sodipodi.sourceforge.net/DTD/sodipodi-0.dtd"
   xmlns:inkscape="http://www.inkscape.org/namespaces/inkscape"
   width="744.09448819"
   height="1052.3622047"
   id="svg16740"
   sodipodi:version="0.32"
   inkscape:version="0.48.4 r9939"
   sodipodi:docname="section1_fig6.svg"
   version="1.1">
  <sodipodi:namedview
     id="base"
     pagecolor="#ffffff"
     bordercolor="#666666"
     borderopacity="1.0"
     gridtolerance="10000"
     guidetolerance="10"
     objecttolerance="10"
     inkscape:pageopacity="0.0"
     inkscape:pageshadow="2"
     inkscape:zoom="2.3387557"
     inkscape:cx="228.01756"
     inkscape:cy="882.79721"
     inkscape:document-units="px"
     inkscape:current-layer="layer1"
     showguides="true"
     inkscape:guide-bbox="true"
     inkscape:window-width="1317"
     inkscape:window-height="744"
     inkscape:window-x="49"
     inkscape:window-y="516"
     showgrid="false"
     inkscape:window-maximized="1">
    <sodipodi:guide
       orientation="vertical"
       position="78.306878"
       id="guide17120" />
  </sodipodi:namedview>
  <defs
     id="defs16742" />
  <metadata
     id="metadata16745">
    <rdf:RDF>
      <cc:Work
         rdf:about="">
        <dc:format>image/svg+xml</dc:format>
        <dc:type
           rdf:resource="http://purl.org/dc/dcmitype/StillImage" />
        <dc:title />
      </cc:Work>
    </rdf:RDF>
  </metadata>
  <g
     inkscape:label="Layer 1"
     inkscape:groupmode="layer"
     id="layer1">
    <path
       sodipodi:type="arc"
       style="fill:none;fill-opacity:1;stroke:black;stroke-width:1;stroke-miterlimit:4;stroke-dasharray:none;stroke-dashoffset:0;stroke-opacity:1"
       id="path16748"
       sodipodi:cx="209.37263"
       sodipodi:cy="153.64714"
       sodipodi:rx="8.6167803"
       sodipodi:ry="8.6167803"
       d="M 217.98942 153.64714 A 8.6167803 8.6167803 0 1 1  200.75585,153.64714 A 8.6167803 8.6167803 0 1 1  217.98942 153.64714 z" />
    <path
       style="fill:none;fill-rule:evenodd;stroke:black;stroke-width:1px;stroke-linecap:butt;stroke-linejoin:miter;stroke-opacity:1"
       d="M 45.351474,77.00315 C 202.87226,147.14676 202.87226,147.14676 202.87226,147.14676"
       id="path16750" />
    <path
       style="fill:none;fill-rule:evenodd;stroke:black;stroke-width:1px;stroke-linecap:butt;stroke-linejoin:miter;stroke-opacity:1"
       d="M 44.746788,103.60935 C 201.0582,150.17019 201.0582,150.17019 201.0582,150.17019"
       id="path16752" />
    <path
       style="fill:none;fill-rule:evenodd;stroke:black;stroke-width:1px;stroke-linecap:butt;stroke-linejoin:miter;stroke-opacity:1"
       d="M 203.77929,161.05455 C 45.351474,208.82477 45.351474,208.82477 45.351474,208.82477"
       id="path16754" />
    <path
       style="fill:none;fill-rule:evenodd;stroke:black;stroke-width:1px;stroke-linecap:butt;stroke-linejoin:miter;stroke-opacity:1"
       d="M 44.746788,184.93966 C 201.0582,157.12409 201.0582,157.12409 201.0582,157.12409"
       id="path16756" />
    <path
       style="fill:none;fill-rule:evenodd;stroke:black;stroke-width:1px;stroke-linecap:butt;stroke-linejoin:miter;stroke-opacity:1"
       d="M 217.98942,153.79831 C 353.13681,153.79831 353.13681,153.79831 353.13681,153.79831"
       id="path16760" />
    <text
       xml:space="preserve"
       style="font-size:12px;font-style:normal;font-weight:normal;fill:black;fill-opacity:1;stroke:none;stroke-width:1px;stroke-linecap:butt;stroke-linejoin:miter;stroke-opacity:1;font-family:Bitstream Vera Sans"
       x="62.190475"
       y="119.74994"
       id="text16762"><tspan
         sodipodi:role="line"
         id="tspan16764"
         x="62.190475"
         y="119.74994"
         style="font-size:20px">.</tspan><tspan
         sodipodi:role="line"
         x="62.190475"
         y="144.74994"
         id="tspan16766"
         style="font-size:20px">.</tspan><tspan
         sodipodi:role="line"
         x="62.190475"
         y="169.74994"
         id="tspan16768"
         style="font-size:20px">.</tspan><tspan
         sodipodi:role="line"
         x="62.190475"
         y="194.74994"
         style="font-size:20px"
         id="tspan16770">.</tspan></text>
    <path
       sodipodi:type="arc"
       style="fill:none;fill-opacity:1;stroke:black;stroke-width:1;stroke-miterlimit:4;stroke-dasharray:1,1;stroke-dashoffset:0;stroke-opacity:1"
       id="path17123"
       sodipodi:cx="105.97128"
       sodipodi:cy="174.20648"
       sodipodi:rx="4.383976"
       sodipodi:ry="4.383976"
       d="M 110.35526 174.20648 A 4.383976 4.383976 0 1 1  101.58731,174.20648 A 4.383976 4.383976 0 1 1  110.35526 174.20648 z"
       transform="translate(15.11716,-3.930461)" />
    <path
       style="fill:none;fill-rule:evenodd;stroke:black;stroke-width:1;stroke-linecap:butt;stroke-linejoin:miter;stroke-opacity:1;stroke-miterlimit:4;stroke-dasharray:1,1;stroke-dashoffset:0"
       d="M 121.23961,175.56702 C 121.23961,175.56702 117.61149,197.33573 143.613,214.56929 C 169.61451,231.80285 169.61451,231.80285 169.61451,231.80285"
       id="path22401" />
    <path
       style="fill:none;fill-rule:evenodd;stroke:black;stroke-width:1.01910019px;stroke-linecap:butt;stroke-linejoin:miter;stroke-opacity:1"
       d="M 209.21192,144.71847 C 209.21192,77.012701 208.92867,77.012701 208.92867,77.012701"
       id="path23290" />
    <path
       sodipodi:type="arc"
       style="fill:none;fill-opacity:1;stroke:black;stroke-width:1;stroke-miterlimit:4;stroke-dasharray:1, 1;stroke-dashoffset:0;stroke-opacity:1"
       id="path23378"
       sodipodi:cx="105.97128"
       sodipodi:cy="174.20648"
       sodipodi:rx="4.383976"
       sodipodi:ry="4.383976"
       d="M 110.35526 174.20648 A 4.383976 4.383976 0 1 1  101.58731,174.20648 A 4.383976 4.383976 0 1 1  110.35526 174.20648 z"
       transform="translate(102.9478,-62.13152)" />
    <path
       style="fill:none;fill-rule:evenodd;stroke:black;stroke-width:1;stroke-linecap:butt;stroke-linejoin:miter;stroke-opacity:1;stroke-miterlimit:4;stroke-dasharray:1,1;stroke-dashoffset:0"
       d="M 213.45427,112.3773 C 245.50265,112.3773 245.50265,112.3773 245.50265,112.3773"
       id="path23382" />
    <g
       id="g3970"
       transform="matrix(0.45211369,0,0,0.43838678,221.08102,2.0593585)">
      <g
         word-spacing="normal"
         letter-spacing="normal"
         font-size-adjust="none"
         font-stretch="normal"
         font-weight="normal"
         font-variant="normal"
         font-style="normal"
         stroke-miterlimit="10.433"
         xml:space="preserve"
         transform="matrix(1.0629921,0,0,-1.0629921,-186.02362,789.27165)"
         id="g3972"
         style="font-style:normal;font-variant:normal;font-weight:normal;font-stretch:normal;letter-spacing:normal;word-spacing:normal;text-anchor:start;fill:none;stroke:#000000;stroke-linecap:butt;stroke-linejoin:miter;stroke-miterlimit:10.43299961;stroke-opacity:1;stroke-dasharray:none;stroke-dashoffset:0"><path
           id="path3974"
           d="m 479.74,425.18 0.01,0.04 0.01,0.03 0.01,0.06 0.02,0.05 0.01,0.06 0.01,0.05 0.02,0.04 0.01,0.05 0.01,0.04 0.01,0.04 0,0.04 0.01,0.04 0.01,0.04 0.01,0.03 0,0.03 0.01,0.03 0,0.03 0.01,0.03 0,0.03 0.01,0.05 0,0.06 0,0.05 0,0.05 0.01,0.05 0,0.03 0,0.03 0,0.03 0,0.03 c 0,0.91 -0.69,1.35 -1.44,1.35 -0.5,0 -1.3,-0.3 -1.75,-1.05 -0.1,-0.25 -0.5,-1.78 -0.69,-2.69 -0.36,-1.29 -0.7,-2.64 -1,-3.98 l -2.25,-8.97 c -0.19,-0.75 -2.33,-4.23 -5.62,-4.23 -2.54,0 -3.1,2.18 -3.1,4.03 0,2.29 0.86,5.39 2.55,9.76 0.8,2.05 1,2.6 1,3.6 0,2.23 -1.59,4.07 -4.09,4.07 -4.74,0 -6.58,-7.21 -6.58,-7.67 0,-0.5 0.5,-0.5 0.61,-0.5 0.5,0 0.54,0.11 0.79,0.91 1.35,4.69 3.33,6.17 5.03,6.17 0.4,0 1.25,0 1.25,-1.59 0,-1.25 -0.5,-2.53 -0.85,-3.49 -1.99,-5.28 -2.9,-8.12 -2.9,-10.47 0,-4.42 3.15,-5.92 6.08,-5.92 1.96,0 3.64,0.85 5.03,2.24 -0.64,-2.58 -1.23,-5.03 -3.23,-7.68 -1.3,-1.68 -3.19,-3.14 -5.48,-3.14 -0.69,0 -2.94,0.16 -3.79,2.1 0.8,0 1.46,0 2.14,0.61 0.5,0.43 1,1.09 1,2.03 0,1.55 -1.34,1.75 -1.84,1.75 -1.14,0 -2.8,-0.8 -2.8,-3.24 0,-2.5 2.21,-4.34 5.29,-4.34 5.14,0 10.26,4.55 11.67,10.17 z"
           inkscape:connector-curvature="0"
           style="fill:#000000;stroke-width:0" /><path
           id="path3976"
           d="m 491.3,420.54 0,0.05 -0.01,0.06 0,0.05 -0.01,0.06 -0.01,0.05 -0.02,0.06 -0.02,0.05 -0.01,0.06 -0.03,0.06 -0.02,0.05 -0.03,0.06 -0.03,0.05 -0.03,0.06 -0.04,0.05 -0.04,0.05 -0.04,0.05 -0.04,0.05 -0.05,0.05 -0.05,0.04 -0.05,0.05 -0.06,0.04 -0.06,0.03 -0.06,0.04 -0.06,0.03 -0.07,0.03 -0.07,0.03 -0.08,0.02 -0.08,0.02 -0.08,0.01 -0.08,0.01 -0.09,0.01 -0.09,0 c -0.94,0 -1.95,-0.91 -1.95,-1.92 0,-0.59 0.45,-1.33 1.4,-1.33 1,0 1.96,0.99 1.96,1.92 z"
           inkscape:connector-curvature="0"
           style="fill:#000000;stroke-width:0" /><path
           id="path3978"
           d="m 484.19,402.84 -0.06,-0.17 -0.05,-0.17 -0.03,-0.08 -0.02,-0.09 -0.03,-0.08 -0.02,-0.09 -0.02,-0.09 -0.02,-0.09 -0.02,-0.1 -0.02,-0.09 -0.01,-0.1 0,-0.05 -0.01,-0.05 0,-0.06 0,-0.05 0,-0.05 0,-0.06 c 0,-1.64 1.39,-2.95 3.29,-2.95 3.49,0 5.03,4.79 5.03,5.33 0,0.45 -0.45,0.45 -0.56,0.45 -0.48,0 -0.53,-0.2 -0.67,-0.59 -0.8,-2.79 -2.33,-4.22 -3.69,-4.22 -0.7,0 -0.87,0.45 -0.87,1.22 0,0.79 0.25,1.46 0.56,2.23 0.34,0.94 0.73,1.87 1.11,2.78 0.31,0.84 1.58,4.02 1.72,4.44 0.09,0.34 0.2,0.76 0.2,1.11 0,1.64 -1.39,2.95 -3.31,2.95 -3.46,0 -5.05,-4.73 -5.05,-5.33 0,-0.45 0.48,-0.45 0.59,-0.45 0.49,0 0.52,0.17 0.63,0.56 0.91,3 2.44,4.25 3.72,4.25 0.56,0 0.87,-0.28 0.87,-1.22 0,-0.79 -0.2,-1.32 -1.07,-3.48 z"
           inkscape:connector-curvature="0"
           style="fill:#000000;stroke-width:0" /></g>    </g>
    <g
       id="g3117"
       transform="matrix(0.36330749,0,0,0.39697522,63.467432,94.914922)">
      <g
         word-spacing="normal"
         letter-spacing="normal"
         font-size-adjust="none"
         font-stretch="normal"
         font-weight="normal"
         font-variant="normal"
         font-style="normal"
         stroke-miterlimit="10.433"
         xml:space="preserve"
         transform="matrix(1.0629921,0,0,-1.0629921,-186.02362,789.27165)"
         id="g3119"
         style="font-style:normal;font-variant:normal;font-weight:normal;font-stretch:normal;letter-spacing:normal;word-spacing:normal;text-anchor:start;fill:none;stroke:#000000;stroke-linecap:butt;stroke-linejoin:miter;stroke-miterlimit:10.43299961;stroke-opacity:1;stroke-dasharray:none;stroke-dashoffset:0"><path
           id="path3121"
           d="m 486.36,422.93 0.09,0.23 0.09,0.22 0.09,0.21 0.1,0.2 0.1,0.18 0.1,0.18 0.11,0.17 0.11,0.16 0.11,0.15 0.12,0.14 0.12,0.13 0.12,0.13 0.12,0.11 0.13,0.11 0.13,0.1 0.13,0.1 0.14,0.08 0.14,0.08 0.14,0.08 0.14,0.06 0.15,0.06 0.14,0.05 0.15,0.05 0.15,0.04 0.16,0.04 0.15,0.03 0.16,0.03 0.16,0.02 0.15,0.02 0.17,0.01 0.16,0.01 0.16,0.01 v 1.55 c -1.11,-0.1 -2.55,-0.14 -3.64,-0.14 -1.45,0 -3.69,0.09 -4.64,0.14 v -1.55 c 1.8,-0.05 2.89,-0.94 2.89,-2.39 0,-0.3 0,-0.39 -0.25,-1.05 l -4.53,-12.75 -4.94,13.91 c -0.19,0.59 -0.25,0.69 -0.25,0.94 0,1.34 1.95,1.34 2.95,1.34 v 1.55 c -1.45,-0.05 -3.98,-0.14 -5.18,-0.14 -1.5,0 -2.94,0.04 -4.44,0.14 v -1.55 c 1.84,0 2.64,-0.09 3.14,-0.73 0.25,-0.32 0.8,-1.8 1.14,-2.75 l -4.28,-12.05 -4.73,13.3 c -0.25,0.59 -0.25,0.7 -0.25,0.89 0,1.34 1.95,1.34 2.93,1.34 v 1.55 c -1.48,-0.05 -4.28,-0.14 -5.42,-0.14 -0.2,0 -2.84,0.04 -4.64,0.14 v -1.55 c 2.5,0 3.09,-0.14 3.69,-1.73 l 6.28,-17.64 c 0.25,-0.71 0.41,-1.1 1.05,-1.1 0.65,0 0.75,0.3 1,1 l 5.03,14.1 5.08,-14.14 c 0.2,-0.57 0.34,-0.96 1,-0.96 0.64,0 0.79,0.46 1,0.96 z"
           inkscape:connector-curvature="0"
           style="fill:#000000;stroke-width:0" /><path
           id="path3123"
           d="m 502.82,420.54 -0.01,0.05 0,0.06 -0.01,0.05 0,0.06 -0.02,0.05 -0.01,0.06 -0.02,0.05 -0.02,0.06 -0.02,0.06 -0.02,0.05 -0.03,0.06 -0.03,0.05 -0.03,0.06 -0.04,0.05 -0.04,0.05 -0.04,0.05 -0.04,0.05 -0.05,0.05 -0.05,0.04 -0.05,0.05 -0.06,0.04 -0.06,0.03 -0.06,0.04 -0.06,0.03 -0.07,0.03 -0.07,0.03 -0.08,0.02 -0.08,0.02 -0.08,0.01 -0.08,0.01 -0.09,0.01 -0.09,0 c -0.94,0 -1.95,-0.91 -1.95,-1.92 0,-0.59 0.45,-1.33 1.4,-1.33 1,0 1.96,0.99 1.96,1.92 z"
           inkscape:connector-curvature="0"
           style="fill:#000000;stroke-width:0" /><path
           id="path3125"
           d="m 495.71,402.84 -0.06,-0.17 -0.05,-0.17 -0.03,-0.08 -0.02,-0.09 -0.03,-0.08 -0.02,-0.09 -0.02,-0.09 -0.02,-0.09 -0.02,-0.1 -0.02,-0.09 -0.01,-0.1 0,-0.05 -0.01,-0.05 0,-0.06 0,-0.05 0,-0.05 -0.01,-0.06 c 0,-1.64 1.4,-2.95 3.3,-2.95 3.49,0 5.03,4.79 5.03,5.33 0,0.45 -0.45,0.45 -0.56,0.45 -0.48,0 -0.53,-0.2 -0.67,-0.59 -0.8,-2.79 -2.33,-4.22 -3.69,-4.22 -0.7,0 -0.87,0.45 -0.87,1.22 0,0.79 0.25,1.46 0.56,2.23 0.34,0.94 0.73,1.87 1.11,2.78 0.31,0.84 1.58,4.02 1.72,4.44 0.09,0.34 0.2,0.76 0.2,1.11 0,1.64 -1.39,2.95 -3.31,2.95 -3.46,0 -5.05,-4.73 -5.05,-5.33 0,-0.45 0.48,-0.45 0.59,-0.45 0.49,0 0.52,0.17 0.63,0.56 0.91,3 2.44,4.25 3.72,4.25 0.56,0 0.87,-0.28 0.87,-1.22 0,-0.79 -0.2,-1.32 -1.08,-3.48 z"
           inkscape:connector-curvature="0"
           style="fill:#000000;stroke-width:0" /><path
           id="path3127"
           d="m 520.85,420.54 0,0.06 0,0.06 -0.01,0.05 -0.01,0.06 -0.01,0.06 -0.01,0.06 -0.02,0.05 -0.02,0.06 -0.02,0.06 -0.03,0.05 -0.03,0.06 -0.03,0.05 -0.03,0.06 -0.04,0.05 -0.04,0.05 -0.04,0.05 -0.04,0.05 -0.05,0.04 -0.05,0.05 -0.05,0.04 -0.06,0.04 -0.06,0.03 -0.06,0.04 -0.06,0.03 -0.07,0.02 -0.07,0.03 -0.07,0.02 -0.08,0.02 -0.07,0.01 -0.08,0.01 -0.09,0.01 -0.08,0 c -1.02,0 -1.96,-0.98 -1.96,-1.92 0,-0.56 0.42,-1.33 1.39,-1.33 0.94,0 1.95,0.91 1.95,1.92 z"
           inkscape:connector-curvature="0"
           style="fill:#000000;stroke-width:0" /><path
           id="path3129"
           d="m 513.47,397.06 -0.06,-0.23 -0.07,-0.22 -0.07,-0.22 -0.08,-0.21 -0.09,-0.21 -0.09,-0.21 -0.1,-0.21 -0.11,-0.2 -0.11,-0.19 -0.12,-0.19 -0.12,-0.19 -0.13,-0.18 -0.13,-0.17 -0.13,-0.17 -0.15,-0.16 -0.14,-0.15 -0.15,-0.15 -0.16,-0.14 -0.16,-0.13 -0.16,-0.13 -0.16,-0.11 -0.17,-0.11 -0.17,-0.1 -0.18,-0.09 -0.18,-0.08 -0.18,-0.07 -0.18,-0.06 -0.18,-0.05 -0.19,-0.04 -0.19,-0.03 -0.19,-0.02 -0.19,0 c -0.45,0 -0.87,0.06 -1.27,0.2 0.91,0.42 1.19,1.25 1.19,1.78 0,0.83 -0.65,1.28 -1.36,1.28 -1.08,0 -1.98,-0.94 -1.98,-2.04 0,-1.33 1.36,-2.21 3.45,-2.21 2.1,0 6.16,1.25 7.25,5.5 l 3.13,12.49 c 0.11,0.37 0.17,0.68 0.17,1.22 0,1.9 -1.63,3.26 -3.72,3.26 -3.88,0 -6.09,-4.84 -6.09,-5.33 0,-0.45 0.48,-0.45 0.59,-0.45 0.41,0 0.45,0.11 0.69,0.62 0.87,2.04 2.69,4.19 4.7,4.19 0.87,0 1.19,-0.59 1.19,-1.7 0,-0.39 -0.07,-0.88 -0.11,-1.05 z"
           inkscape:connector-curvature="0"
           style="fill:#000000;stroke-width:0" /></g>    </g>
    <g
       transform="matrix(0.41121269,0,0,0.36347385,-98.564876,56.099951)"
       id="g3276">
      <g
         style="font-style:normal;font-variant:normal;font-weight:normal;font-stretch:normal;letter-spacing:normal;word-spacing:normal;text-anchor:start;fill:none;stroke:#000000;stroke-linecap:butt;stroke-linejoin:miter;stroke-miterlimit:10.43299961;stroke-opacity:1;stroke-dasharray:none;stroke-dashoffset:0"
         id="g3278"
         transform="matrix(1.0629921,0,0,-1.0629921,-186.02362,789.27165)"
         xml:space="preserve"
         stroke-miterlimit="10.433"
         font-style="normal"
         font-variant="normal"
         font-weight="normal"
         font-stretch="normal"
         font-size-adjust="none"
         letter-spacing="normal"
         word-spacing="normal"><path
           style="fill:#000000;stroke-width:0"
           inkscape:connector-curvature="0"
           d="m 469.82,417.9 0.28,0.36 0.29,0.37 0.3,0.38 0.31,0.39 0.61,0.78 0.31,0.38 0.3,0.39 0.3,0.37 0.3,0.37 0.29,0.35 0.28,0.34 0.14,0.16 0.13,0.16 0.13,0.16 0.13,0.15 0.12,0.14 0.12,0.14 0.12,0.13 0.11,0.12 c 1.55,1.78 3.6,2.53 5.94,2.58 v 1.55 c -1.29,-0.1 -2.79,-0.14 -4.09,-0.14 -1.49,0 -4.13,0.09 -4.78,0.14 v -1.55 c 1.04,-0.09 1.45,-0.73 1.45,-1.53 0,-0.8 -0.5,-1.45 -0.75,-1.75 l -3.09,-3.89 -3.88,5.03 c -0.45,0.5 -0.45,0.61 -0.45,0.91 0,0.75 0.75,1.18 1.73,1.23 v 1.55 c -1.28,-0.05 -4.58,-0.14 -5.37,-0.14 -1.05,0 -3.39,0.04 -4.74,0.14 v -1.55 c 3.49,0 3.55,-0.05 5.88,-3.03 l 4.94,-6.42 -4.69,-5.94 c -2.39,-2.89 -5.33,-2.98 -6.38,-2.98 v -1.55 c 1.3,0.09 2.85,0.16 4.14,0.16 1.44,0 3.54,-0.11 4.74,-0.16 v 1.55 c -1.1,0.14 -1.45,0.79 -1.45,1.54 0,1.1 1.45,2.74 4.48,6.33 l 3.8,-4.98 c 0.39,-0.55 1.04,-1.35 1.04,-1.64 0,-0.46 -0.45,-1.21 -1.79,-1.25 v -1.55 c 1.48,0.05 4.28,0.16 5.37,0.16 1.35,0 3.3,-0.07 4.78,-0.16 v 1.55 c -2.68,0 -3.58,0.09 -4.73,1.54 z"
           id="path3280" /><path
           style="fill:#000000;stroke-width:0"
           inkscape:connector-curvature="0"
           d="m 497.1,420.54 0,0.06 -0.01,0.06 0,0.05 -0.01,0.06 -0.02,0.06 -0.01,0.06 -0.02,0.05 -0.02,0.06 -0.02,0.06 -0.03,0.05 -0.02,0.06 -0.03,0.05 -0.04,0.06 -0.03,0.05 -0.04,0.05 -0.05,0.05 -0.04,0.05 -0.05,0.04 -0.05,0.05 -0.05,0.04 -0.06,0.04 -0.05,0.03 -0.07,0.04 -0.06,0.03 -0.07,0.02 -0.07,0.03 -0.07,0.02 -0.07,0.02 -0.08,0.01 -0.08,0.01 -0.09,0.01 -0.08,0 c -1.02,0 -1.96,-0.98 -1.96,-1.92 0,-0.56 0.43,-1.33 1.39,-1.33 0.94,0 1.96,0.91 1.96,1.92 z"
           id="path3282" /><path
           style="fill:#000000;stroke-width:0"
           inkscape:connector-curvature="0"
           d="m 489.71,397.06 -0.06,-0.23 -0.07,-0.22 -0.07,-0.22 -0.08,-0.21 -0.09,-0.21 -0.09,-0.21 -0.1,-0.21 -0.11,-0.2 -0.11,-0.19 -0.11,-0.19 -0.13,-0.19 -0.12,-0.18 -0.14,-0.17 -0.13,-0.17 -0.14,-0.16 -0.15,-0.15 -0.15,-0.15 -0.15,-0.14 -0.16,-0.13 -0.17,-0.13 -0.16,-0.11 -0.17,-0.11 -0.17,-0.1 -0.18,-0.09 -0.17,-0.08 -0.18,-0.07 -0.19,-0.06 -0.18,-0.05 -0.19,-0.04 -0.19,-0.03 -0.19,-0.02 -0.19,0 c -0.45,0 -0.87,0.06 -1.26,0.2 0.9,0.42 1.18,1.25 1.18,1.78 0,0.83 -0.65,1.28 -1.35,1.28 -1.08,0 -1.99,-0.94 -1.99,-2.04 0,-1.33 1.36,-2.21 3.45,-2.21 2.1,0 6.16,1.25 7.25,5.5 l 3.13,12.49 c 0.11,0.37 0.17,0.68 0.17,1.22 0,1.9 -1.62,3.26 -3.72,3.26 -3.87,0 -6.09,-4.84 -6.09,-5.33 0,-0.45 0.48,-0.45 0.59,-0.45 0.41,0 0.46,0.11 0.69,0.62 0.87,2.04 2.69,4.19 4.7,4.19 0.88,0 1.19,-0.59 1.19,-1.7 0,-0.39 -0.06,-0.88 -0.11,-1.05 z"
           id="path3284" /></g>    </g>
    <g
       id="g3429"
       transform="matrix(0.35385887,0,0,0.40171864,-83.136841,68.955547)">
      <g
         word-spacing="normal"
         letter-spacing="normal"
         font-size-adjust="none"
         font-stretch="normal"
         font-weight="normal"
         font-variant="normal"
         font-style="normal"
         stroke-miterlimit="10.433"
         xml:space="preserve"
         transform="matrix(1.0629921,0,0,-1.0629921,-186.02362,789.27165)"
         id="g3431"
         style="font-style:normal;font-variant:normal;font-weight:normal;font-stretch:normal;letter-spacing:normal;word-spacing:normal;text-anchor:start;fill:none;stroke:#000000;stroke-linecap:butt;stroke-linejoin:miter;stroke-miterlimit:10.43299961;stroke-opacity:1;stroke-dasharray:none;stroke-dashoffset:0"><path
           id="path3433"
           d="m 469.82,417.9 0.28,0.36 0.29,0.37 0.3,0.38 0.31,0.39 0.61,0.78 0.31,0.38 0.3,0.39 0.3,0.37 0.3,0.37 0.29,0.35 0.28,0.34 0.14,0.16 0.13,0.16 0.13,0.16 0.13,0.15 0.12,0.14 0.12,0.14 0.12,0.13 0.11,0.12 c 1.55,1.78 3.6,2.53 5.94,2.58 v 1.55 c -1.29,-0.1 -2.79,-0.14 -4.09,-0.14 -1.49,0 -4.13,0.09 -4.78,0.14 v -1.55 c 1.04,-0.09 1.45,-0.73 1.45,-1.53 0,-0.8 -0.5,-1.45 -0.75,-1.75 l -3.09,-3.89 -3.88,5.03 c -0.45,0.5 -0.45,0.61 -0.45,0.91 0,0.75 0.75,1.18 1.73,1.23 v 1.55 c -1.28,-0.05 -4.58,-0.14 -5.37,-0.14 -1.05,0 -3.39,0.04 -4.74,0.14 v -1.55 c 3.49,0 3.55,-0.05 5.88,-3.03 l 4.94,-6.42 -4.69,-5.94 c -2.39,-2.89 -5.33,-2.98 -6.38,-2.98 v -1.55 c 1.3,0.09 2.85,0.16 4.14,0.16 1.44,0 3.54,-0.11 4.74,-0.16 v 1.55 c -1.1,0.14 -1.45,0.79 -1.45,1.54 0,1.1 1.45,2.74 4.48,6.33 l 3.8,-4.98 c 0.39,-0.55 1.04,-1.35 1.04,-1.64 0,-0.46 -0.45,-1.21 -1.79,-1.25 v -1.55 c 1.48,0.05 4.28,0.16 5.37,0.16 1.35,0 3.3,-0.07 4.78,-0.16 v 1.55 c -2.68,0 -3.58,0.09 -4.73,1.54 z"
           inkscape:connector-curvature="0"
           style="fill:#000000;stroke-width:0" /><path
           id="path3435"
           d="m 510.86,418.76 0.07,0.25 0.08,0.24 0.04,0.12 0.04,0.11 0.05,0.12 0.05,0.11 0.06,0.11 0.06,0.11 0.07,0.1 0.07,0.1 0.07,0.1 0.09,0.09 0.09,0.1 0.09,0.08 0.11,0.09 0.11,0.08 0.12,0.08 0.12,0.07 0.14,0.07 0.14,0.06 0.16,0.06 0.16,0.05 0.17,0.05 0.19,0.05 0.19,0.04 0.21,0.03 0.22,0.03 0.11,0.01 0.12,0.01 0.11,0.01 0.13,0.01 0.12,0 0.13,0.01 c 0.17,0 0.7,0.03 0.7,0.76 0,0.21 -0.17,0.49 -0.53,0.49 -1.14,0 -2.44,-0.14 -3.62,-0.14 -0.83,0 -2.85,0.14 -3.69,0.14 -0.17,0 -0.7,0 -0.7,-0.77 0,-0.45 0.45,-0.48 0.78,-0.48 1.62,-0.03 2.22,-0.56 2.22,-1.44 0,-0.26 -0.03,-0.45 -0.14,-0.83 l -3.8,-15.18 -8.84,18.1 c -0.29,0.6 -0.35,0.6 -1.19,0.6 h -4.77 c -0.67,0 -1.12,0 -1.12,-0.77 0,-0.48 0.42,-0.48 1.15,-0.48 0.74,0 1.5,-0.03 2.22,-0.17 l -4.65,-18.64 c -0.32,-1.33 -0.91,-2.38 -3.63,-2.49 -0.25,0 -0.73,-0.03 -0.73,-0.73 0,-0.38 0.28,-0.52 0.51,-0.52 1.16,0 2.44,0.14 3.63,0.14 0.84,0 2.86,-0.14 3.7,-0.14 0.34,0 0.69,0.17 0.69,0.74 0,0.48 -0.42,0.51 -0.8,0.51 -2.2,0.08 -2.2,0.99 -2.2,1.47 0,0.14 0,0.31 0.14,0.88 l 4.47,17.82 10.17,-20.82 c 0.28,-0.57 0.42,-0.6 0.77,-0.6 0.56,0 0.56,0.11 0.73,0.74 z"
           inkscape:connector-curvature="0"
           style="fill:#000000;stroke-width:0" /></g>    </g>
    <g
       id="g3579"
       transform="matrix(0.40875127,0,0,0.38780513,-96.119039,-62.357876)">
      <g
         id="g3581"
         transform="matrix(1.0629921,0,0,-1.0629921,-186.02362,789.27165)"
         xml:space="preserve"
         stroke-miterlimit="10.433"
         font-style="normal"
         font-variant="normal"
         font-weight="normal"
         font-stretch="normal"
         font-size-adjust="none"
         letter-spacing="normal"
         word-spacing="normal"
         style="font-style:normal;font-variant:normal;font-weight:normal;font-stretch:normal;letter-spacing:normal;word-spacing:normal;text-anchor:start;fill:none;stroke:#000000;stroke-linecap:butt;stroke-linejoin:miter;stroke-miterlimit:10.43299961;stroke-opacity:1;stroke-dasharray:none;stroke-dashoffset:0"><path
           d="m 469.82,417.9 0.28,0.36 0.29,0.37 0.3,0.38 0.31,0.39 0.61,0.78 0.31,0.38 0.3,0.39 0.3,0.37 0.3,0.37 0.29,0.35 0.28,0.34 0.14,0.16 0.13,0.16 0.13,0.16 0.13,0.15 0.12,0.14 0.12,0.14 0.12,0.13 0.11,0.12 c 1.55,1.78 3.6,2.53 5.94,2.58 v 1.55 c -1.29,-0.1 -2.79,-0.14 -4.09,-0.14 -1.49,0 -4.13,0.09 -4.78,0.14 v -1.55 c 1.04,-0.09 1.45,-0.73 1.45,-1.53 0,-0.8 -0.5,-1.45 -0.75,-1.75 l -3.09,-3.89 -3.88,5.03 c -0.45,0.5 -0.45,0.61 -0.45,0.91 0,0.75 0.75,1.18 1.73,1.23 v 1.55 c -1.28,-0.05 -4.58,-0.14 -5.37,-0.14 -1.05,0 -3.39,0.04 -4.74,0.14 v -1.55 c 3.49,0 3.55,-0.05 5.88,-3.03 l 4.94,-6.42 -4.69,-5.94 c -2.39,-2.89 -5.33,-2.98 -6.38,-2.98 v -1.55 c 1.3,0.09 2.85,0.16 4.14,0.16 1.44,0 3.54,-0.11 4.74,-0.16 v 1.55 c -1.1,0.14 -1.45,0.79 -1.45,1.54 0,1.1 1.45,2.74 4.48,6.33 l 3.8,-4.98 c 0.39,-0.55 1.04,-1.35 1.04,-1.64 0,-0.46 -0.45,-1.21 -1.79,-1.25 v -1.55 c 1.48,0.05 4.28,0.16 5.37,0.16 1.35,0 3.3,-0.07 4.78,-0.16 v 1.55 c -2.68,0 -3.58,0.09 -4.73,1.54 z"
           id="path3583"
           inkscape:connector-curvature="0"
           style="fill:#000000;stroke-width:0" /><path
           d="m 493.47,420.92 0,0.04 0,0.04 0,0.05 0,0.04 0,0.03 0,0.04 0,0.04 0,0.03 0,0.04 0,0.03 -0.01,0.03 0,0.03 0,0.03 -0.01,0.03 0,0.03 0,0.02 -0.01,0.03 0,0.02 -0.01,0.03 0,0.02 -0.01,0.04 -0.02,0.04 -0.02,0.03 -0.02,0.03 -0.02,0.03 -0.02,0.03 -0.03,0.02 -0.03,0.02 -0.03,0.02 -0.04,0.01 -0.04,0.01 -0.05,0.02 -0.02,0 -0.02,0 -0.03,0.01 -0.03,0 -0.02,0.01 -0.03,0 -0.03,0 -0.03,0 -0.03,0 -0.04,0.01 -0.03,0 -0.04,0 -0.03,0 -0.04,0 -0.04,0 -0.04,0 -0.04,0 -0.04,0 -0.05,0 -0.04,0 c -2.24,-2.2 -5.39,-2.23 -6.83,-2.23 v -1.25 c 0.84,0 3.14,0 5.04,0.97 v -17.77 c 0,-1.16 0,-1.61 -3.48,-1.61 h -1.31 v -1.25 c 0.62,0.03 4.9,0.14 6.2,0.14 1.08,0 5.47,-0.11 6.24,-0.14 v 1.25 h -1.33 c -3.49,0 -3.49,0.45 -3.49,1.61 z"
           id="path3585"
           inkscape:connector-curvature="0"
           style="fill:#000000;stroke-width:0" /></g>    </g>
    <g
       id="g3733"
       transform="matrix(0.34013332,0,0,0.37389161,-75.187198,-30.336573)">
      <g
         word-spacing="normal"
         letter-spacing="normal"
         font-size-adjust="none"
         font-stretch="normal"
         font-weight="normal"
         font-variant="normal"
         font-style="normal"
         stroke-miterlimit="10.433"
         xml:space="preserve"
         transform="matrix(1.0629921,0,0,-1.0629921,-186.02362,789.27165)"
         id="g3735"
         style="font-style:normal;font-variant:normal;font-weight:normal;font-stretch:normal;letter-spacing:normal;word-spacing:normal;text-anchor:start;fill:none;stroke:#000000;stroke-linecap:butt;stroke-linejoin:miter;stroke-miterlimit:10.43299961;stroke-opacity:1;stroke-dasharray:none;stroke-dashoffset:0"><path
           id="path3737"
           d="m 469.82,417.9 0.28,0.36 0.29,0.37 0.3,0.38 0.31,0.39 0.61,0.78 0.31,0.38 0.3,0.39 0.3,0.37 0.3,0.37 0.29,0.35 0.28,0.34 0.14,0.16 0.13,0.16 0.13,0.16 0.13,0.15 0.12,0.14 0.12,0.14 0.12,0.13 0.11,0.12 c 1.55,1.78 3.6,2.53 5.94,2.58 v 1.55 c -1.29,-0.1 -2.79,-0.14 -4.09,-0.14 -1.49,0 -4.13,0.09 -4.78,0.14 v -1.55 c 1.04,-0.09 1.45,-0.73 1.45,-1.53 0,-0.8 -0.5,-1.45 -0.75,-1.75 l -3.09,-3.89 -3.88,5.03 c -0.45,0.5 -0.45,0.61 -0.45,0.91 0,0.75 0.75,1.18 1.73,1.23 v 1.55 c -1.28,-0.05 -4.58,-0.14 -5.37,-0.14 -1.05,0 -3.39,0.04 -4.74,0.14 v -1.55 c 3.49,0 3.55,-0.05 5.88,-3.03 l 4.94,-6.42 -4.69,-5.94 c -2.39,-2.89 -5.33,-2.98 -6.38,-2.98 v -1.55 c 1.3,0.09 2.85,0.16 4.14,0.16 1.44,0 3.54,-0.11 4.74,-0.16 v 1.55 c -1.1,0.14 -1.45,0.79 -1.45,1.54 0,1.1 1.45,2.74 4.48,6.33 l 3.8,-4.98 c 0.39,-0.55 1.04,-1.35 1.04,-1.64 0,-0.46 -0.45,-1.21 -1.79,-1.25 v -1.55 c 1.48,0.05 4.28,0.16 5.37,0.16 1.35,0 3.3,-0.07 4.78,-0.16 v 1.55 c -2.68,0 -3.58,0.09 -4.73,1.54 z"
           inkscape:connector-curvature="0"
           style="fill:#000000;stroke-width:0" /><path
           id="path3739"
           d="m 499.39,405.11 h -1.18 c -0.1,-0.77 -0.46,-2.83 -0.91,-3.18 -0.26,-0.2 -2.95,-0.2 -3.44,-0.2 h -6.42 c 3.66,3.23 4.88,4.2 6.97,5.84 2.58,2.07 4.98,4.22 4.98,7.54 0,4.21 -3.68,6.79 -8.15,6.79 -4.31,0 -7.25,-3.03 -7.25,-6.23 0,-1.78 1.5,-1.96 1.86,-1.96 0.83,0 1.84,0.6 1.84,1.85 0,0.62 -0.25,1.84 -2.06,1.84 1.08,2.47 3.45,3.24 5.09,3.24 3.49,0 5.3,-2.71 5.3,-5.53 0,-3.04 -2.16,-5.44 -3.28,-6.69 l -8.39,-8.3 c -0.36,-0.31 -0.36,-0.39 -0.36,-1.36 h 14.36 z"
           inkscape:connector-curvature="0"
           style="fill:#000000;stroke-width:0" /></g>    </g>
    <g
       transform="matrix(0.37298603,0,0,0.41605634,67.21352,-80.370138)"
       id="g3887">
      <g
         style="font-style:normal;font-variant:normal;font-weight:normal;font-stretch:normal;letter-spacing:normal;word-spacing:normal;text-anchor:start;fill:none;stroke:#000000;stroke-linecap:butt;stroke-linejoin:miter;stroke-miterlimit:10.43299961;stroke-opacity:1;stroke-dasharray:none;stroke-dashoffset:0"
         id="g3889"
         transform="matrix(1.0629921,0,0,-1.0629921,-186.02362,789.27165)"
         xml:space="preserve"
         stroke-miterlimit="10.433"
         font-style="normal"
         font-variant="normal"
         font-weight="normal"
         font-stretch="normal"
         font-size-adjust="none"
         letter-spacing="normal"
         word-spacing="normal"><path
           style="fill:#000000;stroke-width:0"
           inkscape:connector-curvature="0"
           d="m 469.82,417.9 0.28,0.36 0.29,0.37 0.3,0.38 0.31,0.39 0.61,0.78 0.31,0.38 0.3,0.39 0.3,0.37 0.3,0.37 0.29,0.35 0.28,0.34 0.14,0.16 0.13,0.16 0.13,0.16 0.13,0.15 0.12,0.14 0.12,0.14 0.12,0.13 0.11,0.12 c 1.55,1.78 3.6,2.53 5.94,2.58 v 1.55 c -1.29,-0.1 -2.79,-0.14 -4.09,-0.14 -1.49,0 -4.13,0.09 -4.78,0.14 v -1.55 c 1.04,-0.09 1.45,-0.73 1.45,-1.53 0,-0.8 -0.5,-1.45 -0.75,-1.75 l -3.09,-3.89 -3.88,5.03 c -0.45,0.5 -0.45,0.61 -0.45,0.91 0,0.75 0.75,1.18 1.73,1.23 v 1.55 c -1.28,-0.05 -4.58,-0.14 -5.37,-0.14 -1.05,0 -3.39,0.04 -4.74,0.14 v -1.55 c 3.49,0 3.55,-0.05 5.88,-3.03 l 4.94,-6.42 -4.69,-5.94 c -2.39,-2.89 -5.33,-2.98 -6.38,-2.98 v -1.55 c 1.3,0.09 2.85,0.16 4.14,0.16 1.44,0 3.54,-0.11 4.74,-0.16 v 1.55 c -1.1,0.14 -1.45,0.79 -1.45,1.54 0,1.1 1.45,2.74 4.48,6.33 l 3.8,-4.98 c 0.39,-0.55 1.04,-1.35 1.04,-1.64 0,-0.46 -0.45,-1.21 -1.79,-1.25 v -1.55 c 1.48,0.05 4.28,0.16 5.37,0.16 1.35,0 3.3,-0.07 4.78,-0.16 v 1.55 c -2.68,0 -3.58,0.09 -4.73,1.54 z"
           id="path3891" /><path
           style="fill:#000000;stroke-width:0"
           inkscape:connector-curvature="0"
           d="m 499.79,409.87 -0.01,0.71 -0.02,0.68 -0.03,0.66 -0.04,0.64 -0.06,0.62 -0.07,0.6 -0.09,0.57 -0.11,0.56 -0.13,0.55 -0.15,0.53 -0.17,0.51 -0.19,0.5 -0.21,0.49 -0.24,0.48 -0.26,0.47 -0.14,0.23 -0.15,0.23 c -1.08,1.61 -3.23,3 -6.03,3 v -0.98 c 1.89,0 3.7,-1.14 4.33,-3.17 0.56,-1.88 0.59,-4.39 0.59,-7.43 0,-2.57 0,-5.15 -0.45,-7.34 -0.7,-3.17 -3.06,-3.94 -4.47,-3.94 h 0 c -1.59,0 -3.72,0.94 -4.42,3.8 -0.48,2.05 -0.48,4.91 -0.48,7.48 0,2.55 0,5.21 0.51,7.11 0.74,2.75 2.97,3.49 4.39,3.49 v 0.98 c -8.08,0 -8.08,-9.51 -8.08,-12.03 0,-2.5 0,-11.81 8.08,-11.81 8.1,0 8.1,9.31 8.1,11.81 z"
           id="path3893" /><path
           style="fill:#000000;stroke-width:0"
           inkscape:connector-curvature="0"
           d="m 552.27,422.5 0.14,0 0.15,0 0.14,0 0.07,0.01 0.08,0 0.07,0.01 0.07,0.01 0.07,0.01 0.07,0.01 0.07,0.01 0.06,0.02 0.07,0.02 0.06,0.02 0.06,0.02 0.06,0.03 0.06,0.03 0.05,0.04 0.05,0.03 0.05,0.05 0.04,0.04 0.04,0.05 0.02,0.03 0.02,0.03 0.01,0.02 0.02,0.03 0.01,0.03 0.02,0.04 0.01,0.03 0.01,0.04 0.01,0.03 0.01,0.04 0,0.04 0.01,0.04 0,0.04 0.01,0.04 0,0.04 0,0.05 c 0,1 -0.95,1 -1.64,1 h -29.84 c -0.71,0 -1.64,0 -1.64,-1 0,-0.98 0.93,-0.98 1.68,-0.98 z"
           id="path3895" /><path
           style="fill:#000000;stroke-width:0"
           inkscape:connector-curvature="0"
           d="m 552.32,412.82 0.07,0 0.06,0 0.14,0.01 0.14,0 0.07,0 0.07,0.01 0.07,0.01 0.07,0 0.06,0.01 0.07,0.02 0.07,0.01 0.06,0.02 0.07,0.02 0.06,0.02 0.06,0.02 0.06,0.03 0.05,0.03 0.05,0.04 0.05,0.04 0.05,0.04 0.04,0.05 0.02,0.02 0.02,0.03 0.02,0.02 0.02,0.03 0.01,0.03 0.02,0.03 0.01,0.03 0.02,0.03 0.01,0.04 0.01,0.03 0.01,0.04 0.01,0.04 0,0.04 0.01,0.04 0,0.04 0.01,0.04 0,0.05 0,0.04 c 0,1 -0.95,1 -1.69,1 h -29.75 c -0.75,0 -1.68,0 -1.68,-1 0,-1 0.93,-1 1.64,-1 z"
           id="path3897" /><path
           style="fill:#000000;stroke-width:0"
           inkscape:connector-curvature="0"
           d="m 585.24,438.09 0,0.05 0,0.06 0,0.05 0,0.05 0,0.05 0,0.05 0,0.04 0,0.05 -0.01,0.04 0,0.04 0,0.04 0,0.04 0,0.04 0,0.03 -0.01,0.04 0,0.03 -0.01,0.07 -0.01,0.06 -0.01,0.05 -0.01,0.05 -0.02,0.05 -0.02,0.04 -0.02,0.04 -0.02,0.03 -0.03,0.03 -0.03,0.03 -0.04,0.03 -0.04,0.02 -0.04,0.02 -0.03,0.01 -0.02,0.01 -0.03,0 -0.03,0.01 -0.02,0.01 -0.03,0 -0.03,0.01 -0.04,0 -0.03,0.01 -0.03,0 -0.04,0 -0.04,0.01 -0.04,0 -0.04,0 -0.04,0 -0.04,0 -0.05,0 -0.04,0.01 -0.05,0 -0.05,0 -0.05,0 -0.05,0 c -3.1,-3.19 -7.47,-3.19 -9.07,-3.19 v -1.55 c 1,0 3.94,0 6.52,1.3 v -25.81 c 0,-1.8 -0.14,-2.39 -4.62,-2.39 h -1.6 v -1.55 c 1.75,0.16 6.08,0.16 8.07,0.16 2,0 6.32,0 8.07,-0.16 v 1.55 h -1.59 c -4.48,0 -4.64,0.54 -4.64,2.39 z"
           id="path3899" /></g>    </g>
    <g
       id="g4046"
       transform="matrix(0.41267789,0,0,0.41421379,124.3802,-30.95164)">
      <g
         word-spacing="normal"
         letter-spacing="normal"
         font-size-adjust="none"
         font-stretch="normal"
         font-weight="normal"
         font-variant="normal"
         font-style="normal"
         stroke-miterlimit="10.433"
         xml:space="preserve"
         transform="matrix(1.0629921,0,0,-1.0629921,-186.02362,789.27165)"
         id="g4048"
         style="font-style:normal;font-variant:normal;font-weight:normal;font-stretch:normal;letter-spacing:normal;word-spacing:normal;text-anchor:start;fill:none;stroke:#000000;stroke-linecap:butt;stroke-linejoin:miter;stroke-miterlimit:10.43299961;stroke-opacity:1;stroke-dasharray:none;stroke-dashoffset:0"><path
           id="path4050"
           d="m 486.36,422.93 0.09,0.23 0.09,0.22 0.09,0.21 0.1,0.2 0.1,0.18 0.1,0.18 0.11,0.17 0.11,0.16 0.11,0.15 0.12,0.14 0.12,0.13 0.12,0.13 0.12,0.11 0.13,0.11 0.13,0.1 0.13,0.1 0.14,0.08 0.14,0.08 0.14,0.08 0.14,0.06 0.15,0.06 0.14,0.05 0.15,0.05 0.15,0.04 0.16,0.04 0.15,0.03 0.16,0.03 0.16,0.02 0.15,0.02 0.17,0.01 0.16,0.01 0.16,0.01 v 1.55 c -1.11,-0.1 -2.55,-0.14 -3.64,-0.14 -1.45,0 -3.69,0.09 -4.64,0.14 v -1.55 c 1.8,-0.05 2.89,-0.94 2.89,-2.39 0,-0.3 0,-0.39 -0.25,-1.05 l -4.53,-12.75 -4.94,13.91 c -0.19,0.59 -0.25,0.69 -0.25,0.94 0,1.34 1.95,1.34 2.95,1.34 v 1.55 c -1.45,-0.05 -3.98,-0.14 -5.18,-0.14 -1.5,0 -2.94,0.04 -4.44,0.14 v -1.55 c 1.84,0 2.64,-0.09 3.14,-0.73 0.25,-0.32 0.8,-1.8 1.14,-2.75 l -4.28,-12.05 -4.73,13.3 c -0.25,0.59 -0.25,0.7 -0.25,0.89 0,1.34 1.95,1.34 2.93,1.34 v 1.55 c -1.48,-0.05 -4.28,-0.14 -5.42,-0.14 -0.2,0 -2.84,0.04 -4.64,0.14 v -1.55 c 2.5,0 3.09,-0.14 3.69,-1.73 l 6.28,-17.64 c 0.25,-0.71 0.41,-1.1 1.05,-1.1 0.65,0 0.75,0.3 1,1 l 5.03,14.1 5.08,-14.14 c 0.2,-0.57 0.34,-0.96 1,-0.96 0.64,0 0.79,0.46 1,0.96 z"
           inkscape:connector-curvature="0"
           style="fill:#000000;stroke-width:0" /><path
           id="path4052"
           d="m 502.82,420.54 -0.01,0.05 0,0.06 -0.01,0.05 0,0.06 -0.02,0.05 -0.01,0.06 -0.02,0.05 -0.02,0.06 -0.02,0.06 -0.02,0.05 -0.03,0.06 -0.03,0.05 -0.03,0.06 -0.04,0.05 -0.04,0.05 -0.04,0.05 -0.04,0.05 -0.05,0.05 -0.05,0.04 -0.05,0.05 -0.06,0.04 -0.06,0.03 -0.06,0.04 -0.06,0.03 -0.07,0.03 -0.07,0.03 -0.08,0.02 -0.08,0.02 -0.08,0.01 -0.08,0.01 -0.09,0.01 -0.09,0 c -0.94,0 -1.95,-0.91 -1.95,-1.92 0,-0.59 0.45,-1.33 1.4,-1.33 1,0 1.96,0.99 1.96,1.92 z"
           inkscape:connector-curvature="0"
           style="fill:#000000;stroke-width:0" /><path
           id="path4054"
           d="m 495.71,402.84 -0.06,-0.17 -0.05,-0.17 -0.03,-0.08 -0.02,-0.09 -0.03,-0.08 -0.02,-0.09 -0.02,-0.09 -0.02,-0.09 -0.02,-0.1 -0.02,-0.09 -0.01,-0.1 0,-0.05 -0.01,-0.05 0,-0.06 0,-0.05 0,-0.05 -0.01,-0.06 c 0,-1.64 1.4,-2.95 3.3,-2.95 3.49,0 5.03,4.79 5.03,5.33 0,0.45 -0.45,0.45 -0.56,0.45 -0.48,0 -0.53,-0.2 -0.67,-0.59 -0.8,-2.79 -2.33,-4.22 -3.69,-4.22 -0.7,0 -0.87,0.45 -0.87,1.22 0,0.79 0.25,1.46 0.56,2.23 0.34,0.94 0.73,1.87 1.11,2.78 0.31,0.84 1.58,4.02 1.72,4.44 0.09,0.34 0.2,0.76 0.2,1.11 0,1.64 -1.39,2.95 -3.31,2.95 -3.46,0 -5.05,-4.73 -5.05,-5.33 0,-0.45 0.48,-0.45 0.59,-0.45 0.49,0 0.52,0.17 0.63,0.56 0.91,3 2.44,4.25 3.72,4.25 0.56,0 0.87,-0.28 0.87,-1.22 0,-0.79 -0.2,-1.32 -1.08,-3.48 z"
           inkscape:connector-curvature="0"
           style="fill:#000000;stroke-width:0" /><path
           id="path4056"
           d="m 523.54,409.87 0,0.71 -0.02,0.68 -0.03,0.66 -0.04,0.64 -0.06,0.62 -0.08,0.6 -0.09,0.57 -0.1,0.56 -0.13,0.55 -0.15,0.53 -0.17,0.51 -0.19,0.5 -0.21,0.49 -0.24,0.48 -0.26,0.47 -0.14,0.23 -0.15,0.23 c -1.08,1.61 -3.23,3 -6.03,3 v -0.98 c 1.89,0 3.7,-1.14 4.33,-3.17 0.56,-1.88 0.59,-4.39 0.59,-7.43 0,-2.57 0,-5.15 -0.45,-7.34 -0.7,-3.17 -3.07,-3.94 -4.47,-3.94 h 0 c -1.6,0 -3.72,0.94 -4.42,3.8 -0.49,2.05 -0.49,4.91 -0.49,7.48 0,2.55 0,5.21 0.52,7.11 0.73,2.75 2.97,3.49 4.39,3.49 v 0.98 c -8.08,0 -8.08,-9.51 -8.08,-12.03 0,-2.5 0,-11.81 8.08,-11.81 8.09,0 8.09,9.31 8.09,11.81 z"
           inkscape:connector-curvature="0"
           style="fill:#000000;stroke-width:0" /><path
           id="path4058"
           d="m 576.03,422.5 0.15,0 0.14,0 0.14,0 0.08,0.01 0.07,0 0.07,0.01 0.07,0.01 0.07,0.01 0.07,0.01 0.07,0.01 0.07,0.02 0.06,0.02 0.06,0.02 0.07,0.02 0.05,0.03 0.06,0.03 0.05,0.04 0.05,0.03 0.05,0.05 0.04,0.04 0.04,0.05 0.02,0.03 0.02,0.03 0.01,0.02 0.02,0.03 0.01,0.03 0.02,0.04 0.01,0.03 0.01,0.04 0.01,0.03 0.01,0.04 0.01,0.04 0,0.04 0.01,0.04 0,0.04 0,0.04 0,0.05 c 0,1 -0.95,1 -1.64,1 h -29.84 c -0.71,0 -1.64,0 -1.64,-1 0,-0.98 0.93,-0.98 1.68,-0.98 z"
           inkscape:connector-curvature="0"
           style="fill:#000000;stroke-width:0" /><path
           id="path4060"
           d="m 576.08,412.82 0.07,0 0.06,0 0.14,0.01 0.14,0 0.07,0 0.07,0.01 0.07,0.01 0.07,0 0.07,0.01 0.06,0.02 0.07,0.01 0.07,0.02 0.06,0.02 0.06,0.02 0.06,0.02 0.06,0.03 0.05,0.03 0.06,0.04 0.04,0.04 0.05,0.04 0.04,0.05 0.02,0.02 0.02,0.03 0.02,0.02 0.02,0.03 0.02,0.03 0.01,0.03 0.01,0.03 0.02,0.03 0.01,0.04 0.01,0.03 0.01,0.04 0.01,0.04 0.01,0.04 0,0.04 0.01,0.04 0,0.04 0,0.05 0,0.04 c 0,1 -0.95,1 -1.69,1 h -29.75 c -0.75,0 -1.68,0 -1.68,-1 0,-1 0.93,-1 1.64,-1 z"
           inkscape:connector-curvature="0"
           style="fill:#000000;stroke-width:0" /><path
           id="path4062"
           d="m 627.19,417.65 0.16,0 0.16,0 0.15,0.01 0.08,0 0.08,0.01 0.07,0 0.08,0.01 0.07,0.01 0.07,0.01 0.07,0.02 0.07,0.02 0.07,0.02 0.06,0.02 0.06,0.02 0.06,0.03 0.05,0.03 0.06,0.04 0.05,0.03 0.04,0.05 0.04,0.04 0.04,0.05 0.02,0.03 0.02,0.03 0.01,0.03 0.02,0.03 0.01,0.03 0.02,0.03 0.01,0.04 0.01,0.03 0.01,0.04 0,0.04 0.01,0.04 0.01,0.04 0,0.04 0.01,0.04 0,0.05 0,0.04 c 0,1 -0.91,1 -1.75,1 h -26.96 c -0.84,0 -1.73,0 -1.73,-1 0,-1 0.89,-1 1.73,-1 z"
           inkscape:connector-curvature="0"
           style="fill:#000000;stroke-width:0" /><path
           id="path4064"
           d="m 655.79,431.11 0,0.31 -0.01,0.34 -0.02,0.36 -0.02,0.37 -0.03,0.39 -0.04,0.39 -0.05,0.41 -0.05,0.41 -0.07,0.42 -0.08,0.43 -0.08,0.42 -0.11,0.43 -0.11,0.42 -0.12,0.42 -0.14,0.41 -0.16,0.41 -0.17,0.4 -0.18,0.38 -0.2,0.37 -0.22,0.36 -0.23,0.34 -0.26,0.32 -0.27,0.3 -0.29,0.27 -0.31,0.25 -0.16,0.12 -0.17,0.1 -0.17,0.1 -0.18,0.1 -0.18,0.08 -0.19,0.08 -0.19,0.07 -0.2,0.06 -0.21,0.05 -0.21,0.05 -0.22,0.03 -0.22,0.02 -0.23,0.02 -0.24,0 -0.04,-1.09 c 2.44,0 2.73,-3.19 2.73,-6.03 0,-2.44 -0.39,-4.99 -1.59,-9.92 h -10.41 c 0.85,3.2 1.85,7.18 3.83,10.72 1.36,2.43 3.19,5.23 5.44,5.23 l 0.04,1.09 c -6.92,0 -14.59,-14.04 -14.59,-25.45 0,-4.69 1.44,-10.22 5.99,-10.22 v 1.1 c -1.66,0 -2.71,1.45 -2.71,6.07 0,2.1 0.3,4.99 1.6,9.86 h 10.37 c -0.55,-2.28 -1.59,-6.51 -3.5,-10.11 -1.73,-3.39 -3.62,-5.82 -5.76,-5.82 v -1.1 c 7.01,0 14.59,14.3 14.59,25.46 z"
           inkscape:connector-curvature="0"
           style="fill:#000000;stroke-width:0" /><path
           id="path4066"
           d="m 667.82,420.54 -0.01,0.05 0,0.06 -0.01,0.05 0,0.06 -0.02,0.05 -0.01,0.06 -0.02,0.05 -0.02,0.06 -0.02,0.06 -0.02,0.05 -0.03,0.06 -0.03,0.05 -0.03,0.06 -0.04,0.05 -0.04,0.05 -0.04,0.05 -0.04,0.05 -0.05,0.05 -0.05,0.04 -0.05,0.05 -0.06,0.04 -0.06,0.03 -0.06,0.04 -0.06,0.03 -0.07,0.03 -0.07,0.03 -0.08,0.02 -0.08,0.02 -0.08,0.01 -0.08,0.01 -0.09,0.01 -0.09,0 c -0.94,0 -1.95,-0.91 -1.95,-1.92 0,-0.59 0.45,-1.33 1.4,-1.33 1,0 1.96,0.99 1.96,1.92 z"
           inkscape:connector-curvature="0"
           style="fill:#000000;stroke-width:0" /><path
           id="path4068"
           d="m 660.71,402.84 -0.06,-0.17 -0.05,-0.17 -0.03,-0.08 -0.02,-0.09 -0.03,-0.08 -0.02,-0.09 -0.02,-0.09 -0.02,-0.09 -0.02,-0.1 -0.02,-0.09 -0.01,-0.1 0,-0.05 -0.01,-0.05 0,-0.06 0,-0.05 0,-0.05 0,-0.06 c 0,-1.64 1.38,-2.95 3.29,-2.95 3.49,0 5.03,4.79 5.03,5.33 0,0.45 -0.45,0.45 -0.56,0.45 -0.48,0 -0.53,-0.2 -0.67,-0.59 -0.8,-2.79 -2.33,-4.22 -3.69,-4.22 -0.7,0 -0.87,0.45 -0.87,1.22 0,0.79 0.25,1.46 0.56,2.23 0.34,0.94 0.73,1.87 1.11,2.78 0.31,0.84 1.58,4.02 1.72,4.44 0.09,0.34 0.2,0.76 0.2,1.11 0,1.64 -1.39,2.95 -3.31,2.95 -3.46,0 -5.05,-4.73 -5.05,-5.33 0,-0.45 0.49,-0.45 0.59,-0.45 0.49,0 0.52,0.17 0.63,0.56 0.9,3 2.44,4.25 3.72,4.25 0.56,0 0.87,-0.28 0.87,-1.22 0,-0.79 -0.2,-1.32 -1.07,-3.48 z"
           inkscape:connector-curvature="0"
           style="fill:#000000;stroke-width:0" /></g>    </g>
  </g>
</svg>
