<?xml version="1.0" encoding="UTF-8" standalone="no"?>
<!-- Created with Inkscape (http://www.inkscape.org/) -->
<svg
   xmlns:dc="http://purl.org/dc/elements/1.1/"
   xmlns:cc="http://creativecommons.org/ns#"
   xmlns:rdf="http://www.w3.org/1999/02/22-rdf-syntax-ns#"
   xmlns:svg="http://www.w3.org/2000/svg"
   xmlns="http://www.w3.org/2000/svg"
   xmlns:xlink="http://www.w3.org/1999/xlink"
   xmlns:sodipodi="http://sodipodi.sourceforge.net/DTD/sodipodi-0.dtd"
   xmlns:inkscape="http://www.inkscape.org/namespaces/inkscape"
   width="744.09448819"
   height="1052.3622047"
   id="svg8488"
   sodipodi:version="0.32"
   inkscape:version="0.46"
   sodipodi:docbase="/home/schmu20mol/TU-Berlin/job/script/MI1/figures/svg"
   sodipodi:docname="section1_fig31.svg"
   inkscape:output_extension="org.inkscape.output.svg.inkscape">
  <defs
     id="defs8490">
    <inkscape:perspective
       sodipodi:type="inkscape:persp3d"
       inkscape:vp_x="0 : 526.18109 : 1"
       inkscape:vp_y="0 : 1000 : 0"
       inkscape:vp_z="744.09448 : 526.18109 : 1"
       inkscape:persp3d-origin="372.04724 : 350.78739 : 1"
       id="perspective2520" />
    <marker
       inkscape:stockid="Arrow1Mstart"
       orient="auto"
       refY="0.0"
       refX="0.0"
       id="Arrow1Mstart"
       style="overflow:visible">
      <path
         id="path3027"
         d="M 0.0,0.0 L 5.0,-5.0 L -12.5,0.0 L 5.0,5.0 L 0.0,0.0 z "
         style="fill-rule:evenodd;stroke:#000000;stroke-width:1.0pt;marker-start:none"
         transform="scale(0.4) translate(10,0)" />
    </marker>
    <marker
       inkscape:stockid="Arrow1Lstart"
       orient="auto"
       refY="0.0"
       refX="0.0"
       id="Arrow1Lstart"
       style="overflow:visible">
      <path
         id="path3033"
         d="M 0.0,0.0 L 5.0,-5.0 L -12.5,0.0 L 5.0,5.0 L 0.0,0.0 z "
         style="fill-rule:evenodd;stroke:#000000;stroke-width:1.0pt;marker-start:none"
         transform="scale(0.8) translate(12.5,0)" />
    </marker>
    <marker
       inkscape:stockid="Arrow2Lend"
       orient="auto"
       refY="0.0"
       refX="0.0"
       id="Arrow2Lend"
       style="overflow:visible;">
      <path
         id="path4806"
         style="font-size:12.0;fill-rule:evenodd;stroke-width:0.62500000;stroke-linejoin:round;"
         d="M 8.7185878,4.0337352 L -2.2072895,0.016013256 L 8.7185884,-4.0017078 C 6.9730900,-1.6296469 6.9831476,1.6157441 8.7185878,4.0337352 z "
         transform="scale(1.1) rotate(180) translate(1,0)" />
    </marker>
    <marker
       inkscape:stockid="Arrow1Mend"
       orient="auto"
       refY="0.0"
       refX="0.0"
       id="Arrow1Mend"
       style="overflow:visible;">
      <path
         id="path4818"
         d="M 0.0,0.0 L 5.0,-5.0 L -12.5,0.0 L 5.0,5.0 L 0.0,0.0 z "
         style="fill-rule:evenodd;stroke:#000000;stroke-width:1.0pt;marker-start:none;"
         transform="scale(0.4) rotate(180) translate(10,0)" />
    </marker>
    <marker
       inkscape:stockid="Arrow1Lend"
       orient="auto"
       refY="0.0"
       refX="0.0"
       id="Arrow1Lend"
       style="overflow:visible;">
      <path
         id="path4824"
         d="M 0.0,0.0 L 5.0,-5.0 L -12.5,0.0 L 5.0,5.0 L 0.0,0.0 z "
         style="fill-rule:evenodd;stroke:#000000;stroke-width:1.0pt;marker-start:none;"
         transform="scale(0.8) rotate(180) translate(12.5,0)" />
    </marker>
    <inkscape:perspective
       id="perspective2748"
       inkscape:persp3d-origin="372.04724 : 350.78739 : 1"
       inkscape:vp_z="744.09448 : 526.18109 : 1"
       inkscape:vp_y="0 : 1000 : 0"
       inkscape:vp_x="0 : 526.18109 : 1"
       sodipodi:type="inkscape:persp3d" />
    <inkscape:perspective
       id="perspective2815"
       inkscape:persp3d-origin="372.04724 : 350.78739 : 1"
       inkscape:vp_z="744.09448 : 526.18109 : 1"
       inkscape:vp_y="0 : 1000 : 0"
       inkscape:vp_x="0 : 526.18109 : 1"
       sodipodi:type="inkscape:persp3d" />
  </defs>
  <sodipodi:namedview
     id="base"
     pagecolor="#ffffff"
     bordercolor="#666666"
     borderopacity="1.0"
     gridtolerance="10000"
     guidetolerance="10"
     objecttolerance="10"
     inkscape:pageopacity="0.0"
     inkscape:pageshadow="2"
     inkscape:zoom="2.5714906"
     inkscape:cx="484.83885"
     inkscape:cy="860.55101"
     inkscape:document-units="px"
     inkscape:current-layer="layer1"
     inkscape:window-width="1398"
     inkscape:window-height="878"
     inkscape:window-x="0"
     inkscape:window-y="0"
     showgrid="false" />
  <metadata
     id="metadata8493">
    <rdf:RDF>
      <cc:Work
         rdf:about="">
        <dc:format>image/svg+xml</dc:format>
        <dc:type
           rdf:resource="http://purl.org/dc/dcmitype/StillImage" />
      </cc:Work>
    </rdf:RDF>
  </metadata>
  <g
     inkscape:label="Layer 1"
     inkscape:groupmode="layer"
     id="layer1">
    <path
       style="fill:none;fill-rule:evenodd;stroke:black;stroke-width:1;stroke-linecap:butt;stroke-linejoin:miter;marker-end:url(#Arrow2Lend);stroke-miterlimit:4;stroke-dasharray:none;stroke-opacity:1"
       d="M 274.57366,290.00771 C 705.18911,290.00771 705.18911,290.00771 705.18911,290.00771"
       id="path12056" />
    <path
       style="fill:none;fill-rule:evenodd;stroke:black;stroke-width:1;stroke-linecap:butt;stroke-linejoin:miter;marker-end:url(#Arrow2Lend);stroke-miterlimit:4;stroke-dasharray:none;stroke-opacity:1"
       d="M 286.23081,299.41093 C 286.23081,82.256998 286.23081,82.256998 286.23081,82.256998"
       id="path12058" />
    <path
       style="fill:none;fill-rule:evenodd;stroke:black;stroke-width:1px;stroke-linecap:butt;stroke-linejoin:miter;stroke-opacity:1"
       d="M 297.10394,84.052207 C 502.04344,479.54267 684.03906,84.829966 684.03906,84.829966"
       id="path1962"
       sodipodi:nodetypes="cc" />
    <path
       style="fill:none;fill-rule:evenodd;stroke:black;stroke-width:1;stroke-linecap:butt;stroke-linejoin:miter;stroke-opacity:1;stroke-miterlimit:4;stroke-dasharray:4,4;stroke-dashoffset:0"
       d="M 299.43722,196.04951 C 397.04598,180.8832 463.54437,198.38278 467.82205,199.16054 C 472.09972,199.9383 524.98734,213.54908 573.98615,194.10511 C 622.98497,174.66113 634.65136,174.27225 663.81732,180.49433 C 692.98328,186.7164 692.98328,187.10528 692.98328,187.10528"
       id="path1964" />
    <path
       style="fill:none;fill-rule:evenodd;stroke:black;stroke-width:1;stroke-linecap:butt;stroke-linejoin:miter;stroke-opacity:1;stroke-miterlimit:4;stroke-dasharray:4,4;stroke-dashoffset:0"
       d="M 303.7149,183.60536 C 389.26839,208.10477 435.15617,200.32718 435.15617,200.32718 C 435.15617,200.32718 462.76661,190.21631 499.32129,188.66079 C 535.87596,187.10528 555.31994,200.71606 584.09702,199.16054 C 612.87411,197.60502 626.09601,194.49399 654.48421,187.88304 C 682.87242,181.27208 693.37216,182.04984 693.37216,182.04984"
       id="path1966" />
    <path
       style="fill:none;fill-rule:evenodd;stroke:black;stroke-width:1;stroke-linecap:butt;stroke-linejoin:miter;stroke-opacity:1;stroke-miterlimit:4;stroke-dasharray:4,4;stroke-dashoffset:0"
       d="M 304.88153,189.82743 C 358.15803,200.32718 327.82543,202.27158 362.04682,199.54942 C 396.26822,196.82726 403.26805,185.93864 431.65625,187.10528 C 460.04446,188.27192 476.3774,200.71606 505.54336,197.9939 C 534.70932,195.27175 542.87579,187.88304 574.76391,187.88304 C 606.65203,187.88304 621.04057,194.88287 642.81783,194.10511 C 664.59508,193.32735 692.98328,184.38312 692.98328,184.38312"
       id="path1968" />
    <path
       style="fill:none;fill-rule:evenodd;stroke:black;stroke-width:1;stroke-linecap:butt;stroke-linejoin:miter;stroke-opacity:1;stroke-miterlimit:4;stroke-dasharray:4,4;stroke-dashoffset:0"
       d="M 318.49232,200.32718 C 373.32433,183.60536 388.10175,195.27175 413.37892,198.38278 C 438.65609,201.49382 494.65473,200.32718 508.6544,192.54959 C 522.65406,184.772 549.09787,177.38329 578.26383,182.04984 C 607.42979,186.7164 615.59626,190.99407 638.54015,183.99424 C 661.48404,176.99441 691.03889,176.21665 691.03889,176.21665"
       id="path1970" />
    <path
       style="fill:none;fill-rule:evenodd;stroke:black;stroke-width:1px;stroke-linecap:butt;stroke-linejoin:miter;stroke-opacity:1;marker-start:url(#Arrow1Mstart);marker-end:url(#Arrow1Mend)"
       d="M 414.93444,182.43872 C 414.93444,206.54925 414.93444,206.54925 414.93444,206.54925"
       id="path1972" />
    <path
       style="fill:none;fill-rule:evenodd;stroke:#000000;stroke-width:1.07484186;stroke-linecap:butt;stroke-linejoin:miter;marker-start:url(#Arrow1Mstart);marker-end:url(#Arrow1Mend);stroke-miterlimit:4;stroke-dasharray:none;stroke-opacity:1"
       d="M 489.21042,196.11367 C 489.21042,257.42831 489.21042,257.42831 489.21042,257.42831"
       id="path3042" />
    <image
       y="60.265842"
       x="279.27057"
       id="image4002"
       height="20.922188"
       width="16.563398"
       sodipodi:absref="/home/schmu20mol/TU-Berlin/job/script/MI1/figures/png/standards/y.png"
       xlink:href="/Users/schmu20mol/Documents/TU-Berlin/job/script/MI1/figures/png/standards/y.png" />
    <image
       y="281.44156"
       x="707.47662"
       id="image4090"
       height="20.05043"
       width="18.306913"
       sodipodi:absref="/home/schmu20mol/TU-Berlin/job/script/MI1/figures/png/standards/vecX.png"
       xlink:href="/Users/schmu20mol/Documents/TU-Berlin/job/script/MI1/figures/png/standards/vecX.png" />
    <image
       y="156.27206"
       x="371.05707"
       id="image4294"
       height="21.793945"
       width="90.662811"
       sodipodi:absref="/home/schmu20mol/TU-Berlin/job/script/MI1/figures/png/section1_fig31_00.png"
       xlink:href="/Users/schmu20mol/Documents/TU-Berlin/job/script/MI1/figures/png/section1_fig31_00.png" />
    <image
       y="222.01764"
       x="491.71127"
       id="image4352"
       height="18.306913"
       width="36.177948"
       sodipodi:absref="/home/schmu20mol/TU-Berlin/job/script/MI1/figures/png/section1_fig31_01.png"
       xlink:href="/Users/schmu20mol/Documents/TU-Berlin/job/script/MI1/figures/png/section1_fig31_01.png" />
    <image
       y="216.47008"
       x="685.40088"
       id="image4395"
       height="20.05043"
       width="48.818436"
       sodipodi:absref="/home/schmu20mol/TU-Berlin/job/script/MI1/figures/png/section1_fig31_02.png"
       xlink:href="/Users/schmu20mol/Documents/TU-Berlin/job/script/MI1/figures/png/section1_fig31_02.png" />
    <path
       style="fill:none;fill-rule:evenodd;stroke:black;stroke-width:1;stroke-linecap:butt;stroke-linejoin:miter;stroke-opacity:1;stroke-miterlimit:4;stroke-dasharray:1,1;stroke-dashoffset:0;marker-end:url(#Arrow1Mend)"
       d="M 685.59457,224.04883 C 652.53981,216.27124 652.53981,195.66063 652.53981,195.66063"
       id="path4400" />
    <image
       y="73.053757"
       x="686.20502"
       id="image2750"
       height="19.276636"
       width="16.192373"
       sodipodi:absref="/Users/schmu20mol/Documents/TU-Berlin/job/script/MI1/figures/png/standards/YWOG7H~A.PNG"
       xlink:href="/Users/schmu20mol/Documents/TU-Berlin/job/script/MI1/figures/png/standards/YWOG7H~A.PNG" />
    <image
       y="173.66054"
       x="696.25952"
       id="image2817"
       height="19.662169"
       width="46.649456"
       sodipodi:absref="/Users/schmu20mol/Documents/TU-Berlin/job/script/MI1/figures/png/standards/_DFU83~Y.PNG"
       xlink:href="/Users/schmu20mol/Documents/TU-Berlin/job/script/MI1/figures/png/standards/_DFU83~Y.PNG" />
    <path
       style="fill:none;fill-rule:evenodd;stroke:#000000;stroke-width:2;stroke-linecap:butt;stroke-linejoin:miter;stroke-opacity:1;stroke-miterlimit:4;stroke-dasharray:none"
       d="M 303.7149,190.60519 C 312.65912,191.77183 343.38061,196.04951 353.10259,195.27175 C 362.82458,194.49399 403.65693,192.93847 411.8234,194.10511 C 419.98987,195.27175 466.65541,195.66063 475.59964,194.88287 C 484.54387,194.10511 520.32078,192.16071 528.48725,193.71623 C 536.65372,195.27175 584.09702,189.82743 592.65237,190.60519 C 601.20772,191.38295 680.92802,182.43872 688.70561,182.43872 C 696.4832,182.43872 696.4832,182.43872 696.4832,182.43872"
       id="path3623" />
  </g>
</svg>
