<?xml version="1.0" encoding="UTF-8" standalone="no"?>
<!-- Created with Inkscape (http://www.inkscape.org/) -->

<svg
   xmlns:dc="http://purl.org/dc/elements/1.1/"
   xmlns:cc="http://creativecommons.org/ns#"
   xmlns:rdf="http://www.w3.org/1999/02/22-rdf-syntax-ns#"
   xmlns:svg="http://www.w3.org/2000/svg"
   xmlns="http://www.w3.org/2000/svg"
   xmlns:sodipodi="http://sodipodi.sourceforge.net/DTD/sodipodi-0.dtd"
   xmlns:inkscape="http://www.inkscape.org/namespaces/inkscape"
   id="svg2"
   version="1.1"
   inkscape:version="0.48.4 r9939"
   width="180.63875"
   height="127.99971"
   xml:space="preserve"
   sodipodi:docname="rnn_mlp_rnn.pdf"><metadata
     id="metadata8"><rdf:RDF><cc:Work
         rdf:about=""><dc:format>image/svg+xml</dc:format><dc:type
           rdf:resource="http://purl.org/dc/dcmitype/StillImage" /><dc:title></dc:title></cc:Work></rdf:RDF></metadata><defs
     id="defs6" /><sodipodi:namedview
     pagecolor="#ffffff"
     bordercolor="#666666"
     borderopacity="1"
     objecttolerance="10"
     gridtolerance="10"
     guidetolerance="10"
     inkscape:pageopacity="0"
     inkscape:pageshadow="2"
     inkscape:window-width="1637"
     inkscape:window-height="1026"
     id="namedview4"
     showgrid="false"
     inkscape:zoom="3.6875084"
     inkscape:cx="142.72943"
     inkscape:cy="78.707685"
     inkscape:window-x="1409"
     inkscape:window-y="24"
     inkscape:window-maximized="1"
     inkscape:current-layer="g12" /><g
     id="g10"
     inkscape:groupmode="layer"
     inkscape:label="rnn_mlp_rnn"
     transform="matrix(1.25,0,0,-1.25,0,127.99971)"><g
       id="g12"><path
         d="M 126.285,80.611 79.684,91.509"
         style="fill:none;stroke:#00c000;stroke-opacity:1;stroke-width:0.8;stroke-linecap:butt;stroke-linejoin:miter;stroke-miterlimit:4;stroke-dasharray:none"
         id="path14" /><g
         id="g16"
         transform="matrix(1,-0.233826,0.233826,1,0,102.39977)"><path
           d="m 126.366,7.341 -2.696,1.557 0.002,-3.117 2.694,1.56 z"
           style="fill:#00c000;fill-opacity:1;fill-rule:evenodd;stroke:#00c000;stroke-opacity:1;stroke-width:0.389494;stroke-linecap:butt;stroke-linejoin:miter;stroke-miterlimit:4;stroke-dasharray:none"
           id="path18" /></g><path
         d="M 125.867,75.236 79.715,63.533"
         style="fill:none;stroke:#00c000;stroke-opacity:1;stroke-width:0.8;stroke-linecap:butt;stroke-linejoin:miter;stroke-miterlimit:4;stroke-dasharray:none"
         id="path20" /><g
         id="g22"
         transform="matrix(1,0.253511,-0.253511,1,0,102.39977)"><path
           d="m 113.589,-55.507 -2.685,1.552 -10e-4,-3.101 2.686,1.549 z"
           style="fill:#00c000;fill-opacity:1;fill-rule:evenodd;stroke:#00c000;stroke-opacity:1;stroke-width:0.387735;stroke-linecap:butt;stroke-linejoin:miter;stroke-miterlimit:4;stroke-dasharray:none"
           id="path24" /></g><path
         d="M 128.312,70.408 78.613,33.771"
         style="fill:none;stroke:#00c000;stroke-opacity:1;stroke-width:0.8;stroke-linecap:butt;stroke-linejoin:miter;stroke-miterlimit:4;stroke-dasharray:none"
         id="path26" /><g
         id="g28"
         transform="matrix(1,0.737196,-0.737196,1,0,102.39977)"><path
           d="m 69.339,-82.015 -2.228,1.291 -0.001,-2.577 2.229,1.286 z"
           style="fill:#00c000;fill-opacity:1;fill-rule:evenodd;stroke:#00c000;stroke-opacity:1;stroke-width:0.321968;stroke-linecap:butt;stroke-linejoin:miter;stroke-miterlimit:4;stroke-dasharray:none"
           id="path30" /></g><path
         d="M 125.863,42.947 79.789,31.267"
         style="fill:none;stroke:#00c000;stroke-opacity:1;stroke-width:0.8;stroke-linecap:butt;stroke-linejoin:miter;stroke-miterlimit:4;stroke-dasharray:none"
         id="path32" /><g
         id="g34"
         transform="matrix(1,0.253521,-0.253521,1,0,102.39977)"><path
           d="m 105.889,-85.845 -2.685,1.552 0.003,-3.103 2.682,1.551 z"
           style="fill:#00c000;fill-opacity:1;fill-rule:evenodd;stroke:#00c000;stroke-opacity:1;stroke-width:0.387734;stroke-linecap:butt;stroke-linejoin:miter;stroke-miterlimit:4;stroke-dasharray:none"
           id="path36" /></g><path
         d="M 125.93,47.536 79.699,59.103"
         style="fill:none;stroke:#00c000;stroke-opacity:1;stroke-width:0.8;stroke-linecap:butt;stroke-linejoin:miter;stroke-miterlimit:4;stroke-dasharray:none"
         id="path38" /><g
         id="g40"
         transform="matrix(1,-0.250162,0.250162,1,0,102.39977)"><path
           d="m 133.218,-21.982 -2.685,1.551 0.003,-3.105 2.682,1.554 z"
           style="fill:#00c000;fill-opacity:1;fill-rule:evenodd;stroke:#00c000;stroke-opacity:1;stroke-width:0.388042;stroke-linecap:butt;stroke-linejoin:miter;stroke-miterlimit:4;stroke-dasharray:none"
           id="path42" /></g><path
         d="M 128.676,53.408 78.734,88.595"
         style="fill:none;stroke:#00c000;stroke-opacity:1;stroke-width:0.8;stroke-linecap:butt;stroke-linejoin:miter;stroke-miterlimit:4;stroke-dasharray:none"
         id="path44" /><g
         id="g46"
         transform="matrix(1,-0.704654,0.704654,1,0,102.39977)"><path
           d="m 110.56,27.848 -2.262,1.309 -0.001,-2.615 2.263,1.306 z"
           style="fill:#00c000;fill-opacity:1;fill-rule:evenodd;stroke:#00c000;stroke-opacity:1;stroke-width:0.326976;stroke-linecap:butt;stroke-linejoin:miter;stroke-miterlimit:4;stroke-dasharray:none"
           id="path48" /></g><path
         d="m 16.109,77.345 c 0,-4.34 -3.511,-7.855 -7.851,-7.855 -4.336,0 -7.86,3.515 -7.86,7.855 0,4.336 3.524,7.859 7.86,7.859 4.34,0 7.851,-3.523 7.851,-7.859 z"
         style="fill:#ffffff;fill-opacity:1;fill-rule:nonzero;stroke:#000000;stroke-opacity:1;stroke-width:0.8;stroke-linecap:square;stroke-linejoin:miter;stroke-miterlimit:4;stroke-dasharray:none"
         id="path50" /><path
         d="m 16.109,45.345 c 0,-4.34 -3.511,-7.855 -7.851,-7.855 -4.336,0 -7.86,3.515 -7.86,7.855 0,4.336 3.524,7.859 7.86,7.859 4.34,0 7.851,-3.523 7.851,-7.859 z"
         style="fill:#ffffff;fill-opacity:1;fill-rule:nonzero;stroke:#000000;stroke-opacity:1;stroke-width:0.8;stroke-linecap:square;stroke-linejoin:miter;stroke-miterlimit:4;stroke-dasharray:none"
         id="path52" /><path
         d="m 144.109,77.345 c 0,-4.34 -3.511,-7.855 -7.851,-7.855 -4.336,0 -7.86,3.515 -7.86,7.855 0,4.336 3.524,7.859 7.86,7.859 4.34,0 7.851,-3.523 7.851,-7.859 z"
         style="fill:#ffffff;fill-opacity:1;fill-rule:nonzero;stroke:#000000;stroke-opacity:1;stroke-width:0.8;stroke-linecap:square;stroke-linejoin:miter;stroke-miterlimit:4;stroke-dasharray:none"
         id="path54" /><path
         d="m 144.109,45.345 c 0,-4.34 -3.511,-7.855 -7.851,-7.855 -4.336,0 -7.86,3.515 -7.86,7.855 0,4.336 3.524,7.859 7.86,7.859 4.34,0 7.851,-3.523 7.851,-7.859 z"
         style="fill:#ffffff;fill-opacity:1;fill-rule:nonzero;stroke:#000000;stroke-opacity:1;stroke-width:0.8;stroke-linecap:square;stroke-linejoin:miter;stroke-miterlimit:4;stroke-dasharray:none"
         id="path56" /><path
         d="m 15.945,79.466 46.524,9.508"
         style="fill:none;stroke:#0000ff;stroke-opacity:1;stroke-width:0.8;stroke-linecap:butt;stroke-linejoin:miter;stroke-miterlimit:4;stroke-dasharray:none"
         id="path58" /><g
         id="g60"
         transform="matrix(1,0.204391,-0.204391,1,0,102.39977)"><path
           d="m 59.139,-25.142 -2.715,1.567 0.004,-3.134 2.711,1.567 z"
           style="fill:#0000ff;fill-opacity:1;fill-rule:evenodd;stroke:#0000ff;stroke-opacity:1;stroke-width:0.391898;stroke-linecap:butt;stroke-linejoin:miter;stroke-miterlimit:4;stroke-dasharray:none"
           id="path62" /></g><path
         d="m 15.816,75.115 50.153,-6"
         style="fill:none;stroke:#0000ff;stroke-opacity:1;stroke-width:0.8;stroke-linecap:butt;stroke-linejoin:miter;stroke-miterlimit:4;stroke-dasharray:none"
         id="path64" /><g
         id="g66"
         transform="matrix(1,-0.119678,0.119678,1,0,102.39977)"><path
           d="m 70.797,-25.035 -2.749,1.589 0.001,-3.176 2.748,1.587 z"
           style="fill:#0000ff;fill-opacity:1;fill-rule:evenodd;stroke:#0000ff;stroke-opacity:1;stroke-width:0.397166;stroke-linecap:butt;stroke-linejoin:miter;stroke-miterlimit:4;stroke-dasharray:none"
           id="path68" /></g><path
         d="M 14.578,73.001 36.39559,58.197417 66.086,38.052"
         style="fill:none;stroke:#0000ff;stroke-width:0.80000001;stroke-linecap:butt;stroke-linejoin:miter;stroke-miterlimit:4;stroke-opacity:1;stroke-dasharray:none"
         id="path70"
         inkscape:connector-curvature="0"
         sodipodi:nodetypes="ccc" /><g
         id="g72"
         transform="matrix(1,-0.67852,0.67852,1,0,102.39977)"><path
           d="m 76.678,-13.359 -2.29,1.325 0,-2.648 2.29,1.323 z"
           style="fill:#0000ff;fill-opacity:1;fill-rule:evenodd;stroke:#0000ff;stroke-opacity:1;stroke-width:0.330998;stroke-linecap:butt;stroke-linejoin:miter;stroke-miterlimit:4;stroke-dasharray:none"
           id="path74" /></g><path
         d="M 15.945,43.068 62.707,34.462"
         style="fill:none;stroke:#0000ff;stroke-opacity:1;stroke-width:0.8;stroke-linecap:butt;stroke-linejoin:miter;stroke-miterlimit:4;stroke-dasharray:none"
         id="path76" /><g
         id="g78"
         transform="matrix(1,-0.183993,0.183993,1,0,102.39977)"><path
           d="m 74.561,-54.555 -2.723,1.573 0,-3.144 2.723,1.571 z"
           style="fill:#0000ff;fill-opacity:1;fill-rule:evenodd;stroke:#0000ff;stroke-opacity:1;stroke-width:0.393397;stroke-linecap:butt;stroke-linejoin:miter;stroke-miterlimit:4;stroke-dasharray:none"
           id="path80" /></g><path
         d="M 15.816,47.415 64.941,53.9"
         style="fill:none;stroke:#0000ff;stroke-opacity:1;stroke-width:0.8;stroke-linecap:butt;stroke-linejoin:miter;stroke-miterlimit:4;stroke-dasharray:none"
         id="path82" /><g
         id="g84"
         transform="matrix(1,0.131997,-0.131997,1,0,102.39977)"><path
           d="m 59.369,-56.094 -2.743,1.588 -10e-4,-3.171 2.744,1.583 z"
           style="fill:#0000ff;fill-opacity:1;fill-rule:evenodd;stroke:#0000ff;stroke-opacity:1;stroke-width:0.39656;stroke-linecap:butt;stroke-linejoin:miter;stroke-miterlimit:4;stroke-dasharray:none"
           id="path86" /></g><path
         d="M 14.578,49.533 65.18,85.083"
         style="fill:none;stroke:#0000ff;stroke-opacity:1;stroke-width:0.8;stroke-linecap:butt;stroke-linejoin:miter;stroke-miterlimit:4;stroke-dasharray:none"
         id="path88" /><g
         id="g90"
         transform="matrix(1,0.702567,-0.702567,1,0,102.39977)"><path
           d="m 37.006,-42.253 -2.264,1.309 -10e-4,-2.62 2.265,1.311 z"
           style="fill:#0000ff;fill-opacity:1;fill-rule:evenodd;stroke:#0000ff;stroke-opacity:1;stroke-width:0.327298;stroke-linecap:butt;stroke-linejoin:miter;stroke-miterlimit:4;stroke-dasharray:none"
           id="path92" /></g><path
         d="m 9.852,66.306 c 0,-0.887 -0.719,-1.602 -1.602,-1.602 -0.883,0 -1.598,0.715 -1.598,1.602 0,0.883 0.715,1.598 1.598,1.598 0.883,0 1.602,-0.715 1.602,-1.598 z"
         style="fill:#000000;fill-opacity:1;fill-rule:nonzero;stroke:none"
         id="path94" /><path
         d="m 9.852,61.505 c 0,-0.883 -0.719,-1.601 -1.602,-1.601 -0.883,0 -1.598,0.718 -1.598,1.601 0,0.883 0.715,1.602 1.598,1.602 0.883,0 1.602,-0.719 1.602,-1.602 z"
         style="fill:#000000;fill-opacity:1;fill-rule:nonzero;stroke:none"
         id="path96" /><path
         d="m 9.852,56.704 c 0,-0.882 -0.719,-1.597 -1.602,-1.597 -0.883,0 -1.598,0.715 -1.598,1.597 0,0.883 0.715,1.602 1.598,1.602 0.883,0 1.602,-0.719 1.602,-1.602 z"
         style="fill:#000000;fill-opacity:1;fill-rule:nonzero;stroke:none"
         id="path98" /><path
         d="m 137.852,66.306 c 0,-0.887 -0.719,-1.602 -1.602,-1.602 -0.883,0 -1.598,0.715 -1.598,1.602 0,0.883 0.715,1.598 1.598,1.598 0.883,0 1.602,-0.715 1.602,-1.598 z"
         style="fill:#000000;fill-opacity:1;fill-rule:nonzero;stroke:none"
         id="path100" /><path
         d="m 137.852,61.505 c 0,-0.883 -0.719,-1.601 -1.602,-1.601 -0.883,0 -1.598,0.718 -1.598,1.601 0,0.883 0.715,1.602 1.598,1.602 0.883,0 1.602,-0.719 1.602,-1.602 z"
         style="fill:#000000;fill-opacity:1;fill-rule:nonzero;stroke:none"
         id="path102" /><path
         d="m 137.852,56.704 c 0,-0.882 -0.719,-1.597 -1.602,-1.597 -0.883,0 -1.598,0.715 -1.598,1.597 0,0.883 0.715,1.602 1.598,1.602 0.883,0 1.602,-0.719 1.602,-1.602 z"
         style="fill:#000000;fill-opacity:1;fill-rule:nonzero;stroke:none"
         id="path104" /><path
         d="m 7.82,78.189 0.004,0.027 0.008,0.031 0.012,0.039 0.008,0.04 0.015,0.043 0.024,0.093 0.015,0.051 0.039,0.102 0.02,0.054 0.047,0.11 0.054,0.109 0.032,0.055 0.035,0.054 0.031,0.051 0.078,0.102 0.039,0.047 0.043,0.043 0.047,0.043 0.051,0.039 0.051,0.035 0.109,0.062 0.027,0.008 0.063,0.024 0.094,0.023 0.07,0.008 0.07,0 c 0.055,0 0.321,0 0.551,-0.141 C 9.148,79.286 8.93,79.013 8.93,78.747 c 0,-0.175 0.117,-0.382 0.414,-0.382 0.242,0 0.594,0.199 0.594,0.636 0,0.571 -0.649,0.727 -1.02,0.727 -0.637,0 -1.023,-0.582 -1.152,-0.836 -0.278,0.723 -0.871,0.836 -1.188,0.836 -1.144,0 -1.769,-1.418 -1.769,-1.692 0,-0.113 0.109,-0.113 0.132,-0.113 0.086,0 0.118,0.024 0.141,0.121 0.375,1.164 1.098,1.438 1.473,1.438 0.211,0 0.593,-0.098 0.593,-0.735 0,-0.339 -0.187,-1.078 -0.593,-2.613 C 6.379,75.451 5.996,74.99 5.512,74.99 c -0.067,0 -0.321,0 -0.547,0.144 0.273,0.055 0.515,0.285 0.515,0.594 0,0.297 -0.242,0.383 -0.41,0.383 -0.328,0 -0.601,-0.285 -0.601,-0.637 0,-0.504 0.547,-0.727 1.031,-0.727 0.723,0 1.121,0.77 1.156,0.836 0.129,-0.406 0.524,-0.836 1.184,-0.836 1.133,0 1.758,1.418 1.758,1.692 0,0.113 -0.098,0.113 -0.133,0.113 -0.098,0 -0.121,-0.047 -0.141,-0.121 C 8.961,75.255 8.215,74.99 7.863,74.99 c -0.429,0 -0.605,0.351 -0.605,0.726 0,0.242 0.066,0.485 0.187,0.965 l 0.375,1.508 z"
         style="fill:#000000;fill-opacity:1;fill-rule:evenodd;stroke:none"
         id="path106" /><path
         d="m 12.898,78.216 0,0.098 -0.003,0.004 0,0.031 -0.004,0.012 -0.012,0.023 -0.004,0.004 -0.004,0.008 -0.016,0.015 -0.011,0.004 -0.004,0.004 -0.012,0 -0.008,0.004 -0.011,0 -0.004,0.004 -0.008,0 -0.008,0.004 -0.117,0 c -0.496,-0.48 -1.195,-0.492 -1.508,-0.492 l 0,-0.274 c 0.184,0 0.691,0 1.113,0.211 l 0,-3.918 c 0,-0.254 0,-0.355 -0.769,-0.355 l -0.293,0 0,-0.277 2.746,0 0,0.277 -0.293,0 c -0.77,0 -0.77,0.101 -0.77,0.355 l 0,4.258 z"
         style="fill:#000000;fill-opacity:1;fill-rule:evenodd;stroke:none"
         id="path108" /><path
         d="m 7.508,46.482 0.008,0.031 0.004,0.031 0.011,0.039 0.008,0.039 0.016,0.043 0.011,0.043 0.016,0.047 0.031,0.102 0.02,0.054 0.023,0.055 0.02,0.051 0.027,0.059 0.024,0.054 0.062,0.11 0.031,0.05 0.035,0.055 0.036,0.051 0.039,0.047 0.043,0.051 0.043,0.042 0.046,0.043 0.047,0.04 0.051,0.035 0.082,0.047 0.028,0.011 0.093,0.035 0.028,0.008 0.031,0.008 0.035,0.004 0.031,0.008 0.035,0.004 0.071,0 c 0.054,0 0.32,0 0.551,-0.141 -0.309,-0.059 -0.528,-0.332 -0.528,-0.594 0,-0.175 0.117,-0.386 0.418,-0.386 0.242,0 0.594,0.199 0.594,0.64 0,0.571 -0.649,0.723 -1.024,0.723 -0.636,0 -1.023,-0.582 -1.152,-0.836 -0.277,0.726 -0.871,0.836 -1.187,0.836 -1.141,0 -1.77,-1.418 -1.77,-1.692 0,-0.109 0.113,-0.109 0.133,-0.109 0.086,0 0.121,0.024 0.141,0.121 0.375,1.164 1.101,1.438 1.476,1.438 0.207,0 0.59,-0.098 0.59,-0.735 0,-0.34 -0.188,-1.078 -0.59,-2.613 -0.18,-0.684 -0.562,-1.145 -1.047,-1.145 -0.062,0 -0.316,0 -0.547,0.145 0.274,0.055 0.516,0.285 0.516,0.594 0,0.293 -0.242,0.383 -0.406,0.383 -0.332,0 -0.606,-0.286 -0.606,-0.637 0,-0.504 0.547,-0.727 1.035,-0.727 0.723,0 1.118,0.77 1.153,0.836 0.133,-0.406 0.527,-0.836 1.187,-0.836 1.129,0 1.758,1.418 1.758,1.692 0,0.109 -0.101,0.109 -0.133,0.109 -0.101,0 -0.121,-0.043 -0.144,-0.121 -0.364,-1.176 -1.11,-1.438 -1.461,-1.438 -0.43,0 -0.602,0.352 -0.602,0.727 0,0.242 0.063,0.484 0.188,0.965 l 0.371,1.504 z"
         style="fill:#000000;fill-opacity:1;fill-rule:evenodd;stroke:none"
         id="path110" /><path
         d="m 13.422,44.986 0.012,0.039 0.023,0.058 0.004,0.024 0.008,0.015 0.011,0.02 0.008,0.019 0.012,0.016 0.012,0.02 0.023,0.031 0.016,0.019 0.011,0.016 0.016,0.012 0.02,0.015 0.019,0.012 0.02,0.016 0.019,0.011 0.047,0.024 0.055,0.016 0.031,0.011 0.027,0.004 0.036,0.008 0.035,0.004 0.035,0.008 0.019,0 0.02,0.004 0.039,0 0.023,0.003 0.02,0 c 0.031,0 0.117,0.004 0.117,0.129 0,0.036 -0.027,0.082 -0.086,0.082 l -1.23,0 c -0.032,0 -0.117,0 -0.117,-0.128 0,-0.079 0.078,-0.083 0.128,-0.083 0.278,-0.003 0.375,-0.093 0.375,-0.242 0,-0.047 -0.007,-0.074 -0.023,-0.14 l -0.637,-2.551 -1.488,3.043 c -0.047,0.101 -0.059,0.101 -0.199,0.101 l -0.805,0 c -0.109,0 -0.187,0 -0.187,-0.128 0,-0.083 0.07,-0.083 0.195,-0.083 0.125,0 0.25,-0.003 0.375,-0.027 L 9.676,42.247 c -0.051,-0.218 -0.153,-0.394 -0.61,-0.414 -0.043,0 -0.121,-0.004 -0.121,-0.125 0,-0.062 0.043,-0.086 0.086,-0.086 l 1.231,0 c 0.058,0 0.117,0.032 0.117,0.122 0,0.085 -0.07,0.089 -0.133,0.089 -0.371,0.012 -0.371,0.164 -0.371,0.246 0,0.024 0,0.055 0.023,0.145 l 0.75,3 1.707,-3.504 c 0.047,-0.09 0.071,-0.098 0.129,-0.098 0.098,0 0.098,0.02 0.125,0.122 l 0.813,3.242 z"
         style="fill:#000000;fill-opacity:1;fill-rule:evenodd;stroke:none"
         id="path112" /><path
         d="m 136.754,79.771 0,0.008 0.004,0.004 0.004,0.007 0,0.008 0.008,0.024 0,0.015 0.003,0.008 0.004,0.012 0.004,0.008 0,0.007 0.004,0.012 0,0.016 0.004,0.008 0,0.007 0.004,0.004 0,0.02 0.004,0.008 0,0.078 c 0,0.203 -0.156,0.301 -0.324,0.301 -0.11,0 -0.285,-0.067 -0.387,-0.235 -0.024,-0.051 -0.113,-0.398 -0.156,-0.601 -0.078,-0.286 -0.157,-0.59 -0.223,-0.887 l -0.5,-2.004 c -0.043,-0.164 -0.523,-0.945 -1.258,-0.945 -0.566,0 -0.691,0.488 -0.691,0.898 0,0.516 0.187,1.203 0.57,2.184 0.176,0.457 0.223,0.578 0.223,0.8 0,0.504 -0.36,0.915 -0.914,0.915 -1.059,0 -1.469,-1.618 -1.469,-1.715 0,-0.11 0.109,-0.11 0.133,-0.11 0.113,0 0.121,0.02 0.179,0.2 0.297,1.046 0.747,1.378 1.122,1.378 0.089,0 0.281,0 0.281,-0.355 0,-0.281 -0.113,-0.566 -0.192,-0.781 -0.445,-1.18 -0.644,-1.813 -0.644,-2.336 0,-0.988 0.703,-1.324 1.359,-1.324 0.434,0 0.809,0.191 1.121,0.503 -0.144,-0.582 -0.277,-1.128 -0.722,-1.714 -0.289,-0.379 -0.711,-0.703 -1.223,-0.703 -0.156,0 -0.66,0.035 -0.848,0.468 0.18,0 0.325,0 0.481,0.133 0.109,0.102 0.219,0.246 0.219,0.457 0,0.344 -0.297,0.391 -0.411,0.391 -0.257,0 -0.621,-0.18 -0.621,-0.727 0,-0.555 0.489,-0.965 1.18,-0.965 1.145,0 2.289,1.012 2.602,2.27 l 1.07,4.25 z"
         style="fill:#000000;fill-opacity:1;fill-rule:evenodd;stroke:none"
         id="path114" /><path
         d="m 139.316,78.923 0,0.067 -0.004,0.007 0,0.039 -0.003,0.008 0,0.008 -0.008,0.024 0,0.007 -0.004,0.008 -0.008,0.004 -0.008,0.016 -0.008,0.004 -0.003,0.004 -0.012,0.003 -0.004,0.004 -0.012,0 -0.008,0.004 -0.011,0 -0.004,0.004 -0.008,0 -0.008,0.004 -0.121,0 c -0.5,-0.488 -1.207,-0.496 -1.527,-0.496 l 0,-0.281 c 0.187,0 0.703,0 1.129,0.218 l 0,-3.972 c 0,-0.258 0,-0.36 -0.778,-0.36 l -0.297,0 0,-0.281 2.782,0 0,0.281 -0.297,0 c -0.778,0 -0.778,0.102 -0.778,0.36 l 0,4.316 z"
         style="fill:#000000;fill-opacity:1;fill-rule:evenodd;stroke:none"
         id="path116" /><path
         d="m 136.812,47.88 0,0.008 0.004,0.008 0,0.004 0.004,0.008 0.004,0.015 0.004,0.008 0,0.016 0.004,0.007 0.004,0.012 0.004,0.008 0,0.012 0.004,0.008 0,0.015 0.004,0.008 0,0.016 0.004,0.003 0,0.016 0.003,0.004 0,0.078 c 0,0.203 -0.156,0.305 -0.324,0.305 -0.109,0 -0.289,-0.07 -0.386,-0.235 -0.024,-0.054 -0.114,-0.402 -0.157,-0.601 -0.078,-0.289 -0.156,-0.59 -0.222,-0.891 l -0.5,-2.004 c -0.043,-0.164 -0.524,-0.945 -1.258,-0.945 -0.567,0 -0.692,0.488 -0.692,0.902 0,0.512 0.188,1.2 0.571,2.18 0.175,0.457 0.222,0.582 0.222,0.801 0,0.504 -0.359,0.914 -0.914,0.914 -1.058,0 -1.468,-1.613 -1.468,-1.715 0,-0.109 0.109,-0.109 0.132,-0.109 0.11,0 0.121,0.023 0.18,0.199 0.297,1.047 0.746,1.379 1.121,1.379 0.09,0 0.281,0 0.281,-0.356 0,-0.277 -0.113,-0.566 -0.191,-0.777 -0.445,-1.18 -0.645,-1.816 -0.645,-2.34 0,-0.988 0.7,-1.324 1.36,-1.324 0.433,0 0.808,0.191 1.121,0.504 -0.145,-0.582 -0.277,-1.125 -0.723,-1.715 -0.289,-0.379 -0.715,-0.703 -1.222,-0.703 -0.157,0 -0.661,0.035 -0.848,0.469 0.18,0 0.324,0 0.48,0.132 0.11,0.102 0.219,0.247 0.219,0.457 0,0.344 -0.297,0.391 -0.41,0.391 -0.258,0 -0.621,-0.18 -0.621,-0.723 0,-0.558 0.488,-0.968 1.18,-0.968 1.144,0 2.289,1.011 2.601,2.269 l 1.07,4.25 z"
         style="fill:#000000;fill-opacity:1;fill-rule:evenodd;stroke:none"
         id="path118" /><path
         d="m 141.285,45.603 0.004,0.019 0.008,0.02 0.004,0.016 0.004,0.019 0.007,0.031 0.008,0.012 0.004,0.016 0.016,0.023 0.004,0.012 0.035,0.035 0.012,0.008 0.015,0.008 0.012,0.007 0.031,0.008 0.02,0.008 0.008,0 0.011,0.004 0.008,0 0.012,0.004 0.012,0 0.011,0.004 0.051,0 0.012,0.004 0.047,0 0.015,0.004 0.129,0 c 0.121,0 0.199,0 0.199,0.125 0,0.086 -0.07,0.086 -0.179,0.086 l -0.793,0 c -0.172,0 -0.176,-0.004 -0.25,-0.118 l -2.262,-3.336 -0.582,3.297 c -0.027,0.153 -0.027,0.157 -0.203,0.157 l -0.84,0 c -0.113,0 -0.191,0 -0.191,-0.129 0,-0.082 0.07,-0.082 0.199,-0.082 0.094,0 0.117,0 0.222,-0.012 0.118,-0.012 0.129,-0.024 0.129,-0.082 0,-0.004 0,-0.039 -0.023,-0.129 l -0.738,-2.938 c -0.055,-0.199 -0.141,-0.398 -0.61,-0.418 -0.043,0 -0.121,-0.003 -0.121,-0.128 0,-0.004 0.004,-0.082 0.086,-0.082 l 1.231,0 c 0.031,0 0.117,0 0.117,0.128 0,0.079 -0.074,0.082 -0.129,0.082 -0.375,0.012 -0.375,0.165 -0.375,0.247 0,0.023 0,0.054 0.023,0.148 l 0.778,3.113 0.007,0 0.625,-3.558 c 0.02,-0.106 0.032,-0.16 0.118,-0.16 0.082,0 0.129,0.066 0.172,0.128 l 2.457,3.649 0.007,-0.004 -0.824,-3.316 c -0.047,-0.2 -0.062,-0.247 -0.515,-0.247 -0.11,0 -0.18,0 -0.18,-0.128 0,-0.004 0,-0.082 0.094,-0.082 0.113,0 0.25,0.019 0.367,0.019 0.113,0 0.25,0.004 0.367,0.004 0.164,0 0.582,-0.023 0.742,-0.023 0.035,0 0.125,0 0.125,0.128 0,0.082 -0.07,0.082 -0.187,0.082 -0.008,0 -0.118,0 -0.223,0.012 -0.137,0.012 -0.137,0.031 -0.137,0.09 0,0.035 0.02,0.094 0.024,0.129 l 0.773,3.086 z"
         style="fill:#000000;fill-opacity:1;fill-rule:evenodd;stroke:none"
         id="path120" /><path
         d="m 79.656,93.927 6.582,0 0.086,-78.324 -29.863,-0.141 0.008,84.992 7.828,0"
         style="fill:none;stroke:#ff0000;stroke-opacity:1;stroke-width:0.8;stroke-linecap:butt;stroke-linejoin:miter;stroke-miterlimit:4;stroke-dasharray:none"
         id="path122" /><g
         id="g124"
         transform="translate(0,102.39977)"><path
           d="m 66.145,-1.945 -2.77,1.597 0,-3.199 2.77,1.602 z"
           style="fill:#ff0000;fill-opacity:1;fill-rule:evenodd;stroke:#ff0000;stroke-opacity:1;stroke-width:0.4;stroke-linecap:butt;stroke-linejoin:miter;stroke-miterlimit:4;stroke-dasharray:none"
           id="path126" /></g><path
         d="m 56.641,66.423 6.609,0"
         style="fill:none;stroke:#ff0000;stroke-opacity:1;stroke-width:0.8;stroke-linecap:butt;stroke-linejoin:miter;stroke-miterlimit:4;stroke-dasharray:none"
         id="path128" /><g
         id="g130"
         transform="translate(0,102.39977)"><path
           d="m 65.098,-35.977 -2.77,1.598 0,-3.199 2.77,1.601 z"
           style="fill:#ff0000;fill-opacity:1;fill-rule:evenodd;stroke:#ff0000;stroke-opacity:1;stroke-width:0.4;stroke-linecap:butt;stroke-linejoin:miter;stroke-miterlimit:4;stroke-dasharray:none"
           id="path132" /></g><path
         d="M 56.367,29.775 61.5,29.654"
         style="fill:none;stroke:#ff0000;stroke-opacity:1;stroke-width:0.8;stroke-linecap:butt;stroke-linejoin:miter;stroke-miterlimit:4;stroke-dasharray:none"
         id="path134" /><g
         id="g136"
         transform="matrix(1,-0.0234996,0.0234996,1,0,102.39977)"><path
           d="m 65.022,-71.261 -2.768,1.599 0.001,-3.199 2.767,1.6 z"
           style="fill:#ff0000;fill-opacity:1;fill-rule:evenodd;stroke:#ff0000;stroke-opacity:1;stroke-width:0.39989;stroke-linecap:butt;stroke-linejoin:miter;stroke-miterlimit:4;stroke-dasharray:none"
           id="path138" /></g><path
         d="m 69.543,17.591 4.395,0 0,-4.391 -4.395,0 0,4.391 z"
         style="fill:#ff0000;fill-opacity:1;fill-rule:nonzero;stroke:#ff0000;stroke-opacity:1;stroke-width:0.8;stroke-linecap:square;stroke-linejoin:miter;stroke-miterlimit:4;stroke-dasharray:none"
         id="path140" /><path
         d="m 69.543,11.193 4.395,0 0,-4.395 -4.395,0 0,4.395 z"
         style="fill:#ff0000;fill-opacity:1;fill-rule:nonzero;stroke:#ff0000;stroke-opacity:1;stroke-width:0.8;stroke-linecap:square;stroke-linejoin:miter;stroke-miterlimit:4;stroke-dasharray:none"
         id="path142" /><path
         d="m 79.656,61.927 12.985,0 0.082,-52.723 -42.664,-0.14 0.007,87.555 11.821,0.058"
         style="fill:none;stroke:#ff0000;stroke-opacity:1;stroke-width:0.8;stroke-linecap:butt;stroke-linejoin:miter;stroke-miterlimit:4;stroke-dasharray:none"
         id="path144" /><g
         id="g146"
         transform="matrix(1,0.00510293,-0.00510293,1,0,102.39977)"><path
           d="m 63.7,-6.036 -2.766,1.6 0,-3.199 2.766,1.599 z"
           style="fill:#ff0000;fill-opacity:1;fill-rule:evenodd;stroke:#ff0000;stroke-opacity:1;stroke-width:0.399995;stroke-linecap:butt;stroke-linejoin:miter;stroke-miterlimit:4;stroke-dasharray:none"
           id="path148" /></g><path
         d="m 50.121,62.345 11.5,0"
         style="fill:none;stroke:#ff0000;stroke-opacity:1;stroke-width:0.8;stroke-linecap:butt;stroke-linejoin:miter;stroke-miterlimit:4;stroke-dasharray:none"
         id="path150" /><g
         id="g152"
         transform="translate(0,102.39977)"><path
           d="m 63.469,-40.055 -2.77,1.602 0,-3.199 2.77,1.597 z"
           style="fill:#ff0000;fill-opacity:1;fill-rule:evenodd;stroke:#ff0000;stroke-opacity:1;stroke-width:0.4;stroke-linecap:butt;stroke-linejoin:miter;stroke-miterlimit:4;stroke-dasharray:none"
           id="path154" /></g><path
         d="M 49.668,25.88 62.285,25.818"
         style="fill:none;stroke:#ff0000;stroke-opacity:1;stroke-width:0.8;stroke-linecap:butt;stroke-linejoin:miter;stroke-miterlimit:4;stroke-dasharray:none"
         id="path156" /><g
         id="g158"
         transform="matrix(1,-0.0047796,0.0047796,1,0,102.39977)"><path
           d="m 64.497,-76.282 -2.769,1.6 0,-3.199 2.769,1.599 z"
           style="fill:#ff0000;fill-opacity:1;fill-rule:evenodd;stroke:#ff0000;stroke-opacity:1;stroke-width:0.399995;stroke-linecap:butt;stroke-linejoin:miter;stroke-miterlimit:4;stroke-dasharray:none"
           id="path160" /></g><path
         d="m 80.109,29.345 c 0,-4.34 -3.511,-7.855 -7.851,-7.855 -4.336,0 -7.86,3.515 -7.86,7.855 0,4.336 3.524,7.859 7.86,7.859 4.34,0 7.851,-3.523 7.851,-7.859 z"
         style="fill:#ffffff;fill-opacity:1;fill-rule:nonzero;stroke:#000000;stroke-opacity:1;stroke-width:0.8;stroke-linecap:square;stroke-linejoin:miter;stroke-miterlimit:4;stroke-dasharray:none"
         id="path162" /><path
         d="m 73.852,82.306 c 0,-0.887 -0.719,-1.602 -1.602,-1.602 -0.883,0 -1.598,0.715 -1.598,1.602 0,0.883 0.715,1.598 1.598,1.598 0.883,0 1.602,-0.715 1.602,-1.598 z"
         style="fill:#000000;fill-opacity:1;fill-rule:nonzero;stroke:none"
         id="path164" /><path
         d="m 73.852,77.505 c 0,-0.883 -0.719,-1.601 -1.602,-1.601 -0.883,0 -1.598,0.718 -1.598,1.601 0,0.883 0.715,1.602 1.598,1.602 0.883,0 1.602,-0.719 1.602,-1.602 z"
         style="fill:#000000;fill-opacity:1;fill-rule:nonzero;stroke:none"
         id="path166" /><path
         d="m 73.852,72.704 c 0,-0.882 -0.719,-1.597 -1.602,-1.597 -0.883,0 -1.598,0.715 -1.598,1.597 0,0.883 0.715,1.602 1.598,1.602 0.883,0 1.602,-0.719 1.602,-1.602 z"
         style="fill:#000000;fill-opacity:1;fill-rule:nonzero;stroke:none"
         id="path168" /><path
         d="m 73.852,50.306 c 0,-0.887 -0.719,-1.602 -1.602,-1.602 -0.883,0 -1.598,0.715 -1.598,1.602 0,0.883 0.715,1.598 1.598,1.598 0.883,0 1.602,-0.715 1.602,-1.598 z"
         style="fill:#000000;fill-opacity:1;fill-rule:nonzero;stroke:none"
         id="path170" /><path
         d="m 73.852,45.505 c 0,-0.883 -0.719,-1.601 -1.602,-1.601 -0.883,0 -1.598,0.718 -1.598,1.601 0,0.883 0.715,1.602 1.598,1.602 0.883,0 1.602,-0.719 1.602,-1.602 z"
         style="fill:#000000;fill-opacity:1;fill-rule:nonzero;stroke:none"
         id="path172" /><path
         d="m 73.852,40.704 c 0,-0.882 -0.719,-1.597 -1.602,-1.597 -0.883,0 -1.598,0.715 -1.598,1.597 0,0.883 0.715,1.602 1.598,1.602 0.883,0 1.602,-0.719 1.602,-1.602 z"
         style="fill:#000000;fill-opacity:1;fill-rule:nonzero;stroke:none"
         id="path174" /><path
         d="m 71.18,33.161 0,0.012 -0.004,0 0,0.024 -0.004,0.004 0,0.003 -0.004,0.004 0,0.008 -0.004,0.004 0,0.004 -0.016,0.016 -0.003,0.007 -0.004,0.004 -0.004,0 -0.004,0.004 -0.004,0 0,0.004 -0.004,0 -0.004,0.004 -0.004,0 -0.004,0.004 -0.008,0 -0.007,0.008 -0.016,0 -0.008,0.004 -0.031,0 c -0.246,0 -1.012,-0.082 -1.289,-0.106 -0.086,-0.012 -0.199,-0.019 -0.199,-0.211 0,-0.125 0.093,-0.125 0.254,-0.125 0.503,0 0.527,-0.074 0.527,-0.179 l -0.035,-0.211 -1.528,-6.075 c -0.043,-0.148 -0.043,-0.168 -0.043,-0.23 0,-0.246 0.211,-0.297 0.305,-0.297 0.172,0 0.34,0.125 0.395,0.274 l 0.199,0.8 0.23,0.953 c 0.063,0.231 0.129,0.461 0.18,0.707 0.023,0.059 0.106,0.411 0.117,0.469 0.032,0.098 0.36,0.688 0.715,0.973 0.234,0.172 0.559,0.367 1.012,0.367 0.457,0 0.57,-0.355 0.57,-0.738 0,-0.567 -0.398,-1.715 -0.652,-2.36 -0.086,-0.242 -0.137,-0.371 -0.137,-0.578 0,-0.496 0.367,-0.867 0.863,-0.867 0.993,0 1.383,1.539 1.383,1.625 0,0.106 -0.094,0.106 -0.129,0.106 -0.105,0 -0.105,-0.032 -0.156,-0.192 -0.156,-0.558 -0.496,-1.305 -1.078,-1.305 -0.176,0 -0.25,0.106 -0.25,0.344 0,0.266 0.094,0.52 0.187,0.75 0.172,0.453 0.645,1.711 0.645,2.321 0,0.687 -0.422,1.128 -1.211,1.128 -0.668,0 -1.172,-0.328 -1.563,-0.812 l 0.825,3.351 z"
         style="fill:#000000;fill-opacity:1;fill-rule:evenodd;stroke:none"
         id="path176" /><path
         d="m 77.508,28.005 0.004,0.02 0.008,0.019 0.003,0.016 0.004,0.019 0.008,0.032 0.008,0.011 0.004,0.016 0.008,0.012 0.004,0.011 0.007,0.012 0.008,0.008 0.008,0.012 0.059,0.039 0.031,0.008 0.019,0.007 0.008,0 0.012,0.004 0.008,0 0.011,0.004 0.012,0 0.012,0.004 0.023,0 0.012,0.004 0.074,0 0.016,0.004 0.129,0 c 0.125,0 0.199,0 0.199,0.129 0,0.023 -0.019,0.082 -0.094,0.082 l -1.539,0 c -0.035,0 -0.125,0 -0.125,-0.129 0,-0.082 0.071,-0.082 0.188,-0.082 0.004,0 0.117,0 0.222,-0.012 0.125,-0.011 0.137,-0.023 0.137,-0.082 0,-0.004 0,-0.039 -0.023,-0.129 l -0.348,-1.379 -1.961,0 0.34,1.36 c 0.051,0.195 0.062,0.242 0.516,0.242 0.097,0 0.175,0 0.175,0.129 0,0.023 -0.019,0.082 -0.093,0.082 l -1.54,0 c -0.035,0 -0.124,0 -0.124,-0.129 0,-0.082 0.07,-0.082 0.187,-0.082 0.008,0 0.117,0 0.223,-0.012 0.121,-0.011 0.132,-0.023 0.132,-0.082 0,-0.012 0,-0.039 -0.023,-0.129 L 73.68,24.935 c -0.047,-0.195 -0.059,-0.246 -0.516,-0.246 -0.098,0 -0.176,0 -0.176,-0.121 0,-0.059 0.043,-0.09 0.094,-0.09 l 1.539,0 c 0.031,0 0.125,0 0.125,0.125 0,0.086 -0.058,0.086 -0.195,0.086 -0.094,0 -0.117,0 -0.223,0.012 -0.129,0.019 -0.129,0.031 -0.129,0.089 0,0.004 0,0.039 0.024,0.129 l 0.39,1.535 1.961,0 -0.383,-1.519 c -0.046,-0.195 -0.058,-0.246 -0.515,-0.246 -0.098,0 -0.176,0 -0.176,-0.121 0,-0.059 0.043,-0.09 0.094,-0.09 l 1.539,0 c 0.031,0 0.125,0 0.125,0.125 0,0.086 -0.059,0.086 -0.192,0.086 -0.093,0 -0.117,0 -0.226,0.012 -0.129,0.019 -0.129,0.031 -0.129,0.089 0,0.036 0.019,0.094 0.023,0.129 l 0.774,3.086 z"
         style="fill:#000000;fill-opacity:1;fill-rule:evenodd;stroke:none"
         id="path178" /><path
         d="m 80.109,61.345 c 0,-4.34 -3.511,-7.855 -7.851,-7.855 -4.336,0 -7.86,3.515 -7.86,7.855 0,4.336 3.524,7.859 7.86,7.859 4.34,0 7.851,-3.523 7.851,-7.859 z"
         style="fill:#ffffff;fill-opacity:1;fill-rule:nonzero;stroke:#000000;stroke-opacity:1;stroke-width:0.8;stroke-linecap:square;stroke-linejoin:miter;stroke-miterlimit:4;stroke-dasharray:none"
         id="path180" /><path
         d="m 71.039,65.369 0,0.007 -0.004,0 0,0.024 -0.004,0.004 0,0.007 -0.004,0.004 0,0.004 -0.007,0.008 -0.004,0.008 -0.004,0.004 -0.004,0.008 -0.008,0.007 -0.004,0 -0.004,0.004 -0.004,0 0,0.004 -0.004,0 -0.007,0.008 -0.004,0 -0.004,0.004 -0.008,0 -0.004,0.004 -0.016,0 -0.007,0.004 -0.032,0 c -0.242,0 -1.004,-0.082 -1.277,-0.106 -0.082,-0.007 -0.199,-0.019 -0.199,-0.207 0,-0.125 0.094,-0.125 0.25,-0.125 0.504,0 0.523,-0.074 0.523,-0.179 l -0.031,-0.207 -1.516,-6.024 c -0.043,-0.144 -0.043,-0.168 -0.043,-0.23 0,-0.243 0.211,-0.293 0.305,-0.293 0.168,0 0.336,0.125 0.387,0.273 l 0.199,0.793 0.23,0.942 c 0.063,0.23 0.125,0.46 0.18,0.703 0.02,0.058 0.102,0.406 0.113,0.468 0.032,0.094 0.356,0.68 0.711,0.961 0.231,0.168 0.555,0.368 1.004,0.368 0.45,0 0.563,-0.356 0.563,-0.735 0,-0.562 -0.395,-1.703 -0.649,-2.34 -0.082,-0.242 -0.132,-0.367 -0.132,-0.574 0,-0.492 0.363,-0.859 0.855,-0.859 0.984,0 1.371,1.527 1.371,1.609 0,0.106 -0.094,0.106 -0.125,0.106 -0.105,0 -0.105,-0.032 -0.16,-0.188 -0.152,-0.555 -0.488,-1.297 -1.066,-1.297 -0.176,0 -0.25,0.106 -0.25,0.344 0,0.262 0.093,0.512 0.187,0.742 0.168,0.449 0.641,1.695 0.641,2.301 0,0.683 -0.418,1.121 -1.203,1.121 -0.661,0 -1.161,-0.324 -1.547,-0.805 l 0.816,3.325 z"
         style="fill:#000000;fill-opacity:1;fill-rule:evenodd;stroke:none"
         id="path182" /><path
         d="m 76.285,61.329 0,0.036 -0.004,0.011 0,0.012 -0.008,0.023 -0.003,0.016 -0.008,0.008 -0.008,0.023 -0.016,0.024 -0.004,0.012 -0.007,0.007 -0.008,0.012 -0.031,0.031 -0.047,0.032 -0.016,0.007 -0.016,0.004 -0.015,0.008 -0.012,0.004 -0.02,0.004 -0.015,0.004 -0.035,0 -0.02,0.004 c -0.199,0 -0.41,-0.192 -0.41,-0.403 0,-0.125 0.094,-0.277 0.293,-0.277 0.215,0 0.41,0.203 0.41,0.398 z"
         style="fill:#000000;fill-opacity:1;fill-rule:evenodd;stroke:none"
         id="path184" /><path
         d="m 74.793,57.615 -0.012,-0.039 -0.011,-0.036 -0.004,-0.015 -0.008,-0.02 -0.004,-0.015 -0.008,-0.02 -0.008,-0.039 0,-0.02 -0.008,-0.039 -0.003,-0.011 0,-0.055 c 0,-0.344 0.293,-0.621 0.695,-0.621 0.73,0 1.055,1.008 1.055,1.117 0,0.098 -0.098,0.098 -0.118,0.098 -0.101,0 -0.109,-0.047 -0.14,-0.125 -0.168,-0.586 -0.489,-0.887 -0.774,-0.887 -0.148,0 -0.187,0.094 -0.187,0.258 0,0.168 0.054,0.305 0.121,0.469 0.07,0.195 0.152,0.394 0.234,0.586 0.063,0.175 0.328,0.839 0.36,0.929 0.019,0.071 0.043,0.16 0.043,0.231 0,0.343 -0.293,0.625 -0.696,0.625 -0.726,0 -1.062,-0.996 -1.062,-1.121 0,-0.094 0.101,-0.094 0.125,-0.094 0.101,0 0.109,0.035 0.133,0.117 0.191,0.625 0.511,0.891 0.781,0.891 0.117,0 0.183,-0.059 0.183,-0.254 0,-0.168 -0.042,-0.278 -0.226,-0.731 l -0.461,-1.179 z"
         style="fill:#000000;fill-opacity:1;fill-rule:evenodd;stroke:none"
         id="path186" /><path
         d="m 80.109,93.345 c 0,-4.34 -3.511,-7.855 -7.851,-7.855 -4.336,0 -7.86,3.515 -7.86,7.855 0,4.336 3.524,7.859 7.86,7.859 4.34,0 7.851,-3.523 7.851,-7.859 z"
         style="fill:#ffffff;fill-opacity:1;fill-rule:nonzero;stroke:#000000;stroke-opacity:1;stroke-width:0.8;stroke-linecap:square;stroke-linejoin:miter;stroke-miterlimit:4;stroke-dasharray:none"
         id="path188" /><path
         d="m 70.816,97.81 0,0.023 -0.004,0.004 0,0.012 -0.003,0.004 0,0.004 -0.004,0.008 -0.004,0.004 0,0.003 -0.004,0.008 -0.008,0.008 -0.004,0.008 -0.004,0 -0.004,0.004 -0.004,0 0,0.004 -0.003,0 -0.004,0.004 -0.004,0 -0.004,0.003 -0.004,0 -0.008,0.008 -0.008,0 -0.004,0.004 -0.015,0 -0.004,0.004 -0.035,0 c -0.242,0 -1.012,-0.082 -1.289,-0.105 -0.082,-0.012 -0.2,-0.02 -0.2,-0.211 0,-0.125 0.094,-0.125 0.254,-0.125 0.508,0 0.528,-0.075 0.528,-0.18 l -0.032,-0.211 -1.527,-6.074 c -0.043,-0.145 -0.043,-0.168 -0.043,-0.231 0,-0.242 0.207,-0.296 0.305,-0.296 0.168,0 0.336,0.125 0.39,0.273 l 0.2,0.801 0.234,0.953 c 0.062,0.23 0.125,0.461 0.18,0.707 0.019,0.058 0.101,0.41 0.113,0.469 0.031,0.097 0.359,0.687 0.719,0.972 0.23,0.172 0.558,0.367 1.011,0.367 0.454,0 0.567,-0.355 0.567,-0.738 0,-0.566 -0.399,-1.715 -0.652,-2.359 -0.083,-0.242 -0.137,-0.371 -0.137,-0.578 0,-0.496 0.371,-0.867 0.863,-0.867 0.996,0 1.383,1.539 1.383,1.625 0,0.105 -0.094,0.105 -0.125,0.105 -0.106,0 -0.106,-0.031 -0.16,-0.191 -0.157,-0.559 -0.496,-1.305 -1.074,-1.305 -0.18,0 -0.254,0.105 -0.254,0.344 0,0.265 0.093,0.519 0.191,0.75 0.168,0.453 0.641,1.711 0.641,2.32 0,0.687 -0.422,1.129 -1.211,1.129 -0.664,0 -1.172,-0.328 -1.563,-0.813 l 0.824,3.352 z"
         style="fill:#000000;fill-opacity:1;fill-rule:evenodd;stroke:none"
         id="path190" /><path
         d="m 76.191,93.822 0,0.066 -0.003,0.008 0,0.039 -0.004,0.004 0,0.008 -0.004,0.011 -0.004,0.008 0,0.008 -0.008,0.016 -0.016,0.015 -0.023,0.012 -0.008,0 -0.008,0.004 -0.011,0 -0.004,0.004 -0.039,0 -0.008,0.004 -0.082,0 c -0.473,-0.465 -1.145,-0.473 -1.446,-0.473 l 0,-0.266 c 0.176,0 0.665,0 1.071,0.207 l 0,-3.765 c 0,-0.242 0,-0.34 -0.739,-0.34 l -0.281,0 0,-0.266 2.633,0 0,0.266 -0.277,0 c -0.739,0 -0.739,0.098 -0.739,0.34 l 0,4.09 z"
         style="fill:#000000;fill-opacity:1;fill-rule:evenodd;stroke:none"
         id="path192" /><path
         d="m 79.898,29.927 19.141,0 L 99.125,2.802 43.66,2.661 43.637,92.634 61.086,92.693"
         style="fill:none;stroke:#ff0000;stroke-opacity:1;stroke-width:0.8;stroke-linecap:butt;stroke-linejoin:miter;stroke-miterlimit:4;stroke-dasharray:none"
         id="path194" /><g
         id="g196"
         transform="matrix(1,0.00345594,-0.00345594,1,0,102.39977)"><path
           d="m 62.899,-9.917 -2.768,1.6 10e-4,-3.199 2.767,1.599 z"
           style="fill:#ff0000;fill-opacity:1;fill-rule:evenodd;stroke:#ff0000;stroke-opacity:1;stroke-width:0.399998;stroke-linecap:butt;stroke-linejoin:miter;stroke-miterlimit:4;stroke-dasharray:none"
           id="path198" /></g><path
         d="M 43.359,57.759 61.984,57.728"
         style="fill:none;stroke:#ff0000;stroke-opacity:1;stroke-width:0.8;stroke-linecap:butt;stroke-linejoin:miter;stroke-miterlimit:4;stroke-dasharray:none"
         id="path200" /><g
         id="g202"
         transform="matrix(1,-0.00161922,0.00161922,1,0,102.39977)"><path
           d="m 63.904,-44.568 -2.768,1.597 -0.003,-3.2 2.771,1.603 z"
           style="fill:#ff0000;fill-opacity:1;fill-rule:evenodd;stroke:#ff0000;stroke-opacity:1;stroke-width:0.399999;stroke-linecap:butt;stroke-linejoin:miter;stroke-miterlimit:4;stroke-dasharray:none"
           id="path204" /></g><path
         d="M 43.418,22.38 65.273,22.318"
         style="fill:none;stroke:#ff0000;stroke-opacity:1;stroke-width:0.8;stroke-linecap:butt;stroke-linejoin:miter;stroke-miterlimit:4;stroke-dasharray:none"
         id="path206" /><g
         id="g208"
         transform="matrix(1,-0.00275938,0.00275938,1,0,102.39977)"><path
           d="m 67.342,-79.9 -2.767,1.598 -0.002,-3.2 2.769,1.602 z"
           style="fill:#ff0000;fill-opacity:1;fill-rule:evenodd;stroke:#ff0000;stroke-opacity:1;stroke-width:0.399998;stroke-linecap:butt;stroke-linejoin:miter;stroke-miterlimit:4;stroke-dasharray:none"
           id="path210" /></g><path
         d="m 69.543,4.79 4.395,0 0,-4.391 -4.395,0 0,4.391 z"
         style="fill:#ff0000;fill-opacity:1;fill-rule:nonzero;stroke:#ff0000;stroke-opacity:1;stroke-width:0.8;stroke-linecap:square;stroke-linejoin:miter;stroke-miterlimit:4;stroke-dasharray:none"
         id="path212" /></g></g></svg>