<?xml version="1.0" encoding="UTF-8" standalone="no"?>
<!-- Created with Inkscape (http://www.inkscape.org/) -->
<svg
   xmlns:dc="http://purl.org/dc/elements/1.1/"
   xmlns:cc="http://web.resource.org/cc/"
   xmlns:rdf="http://www.w3.org/1999/02/22-rdf-syntax-ns#"
   xmlns:svg="http://www.w3.org/2000/svg"
   xmlns="http://www.w3.org/2000/svg"
   xmlns:xlink="http://www.w3.org/1999/xlink"
   xmlns:sodipodi="http://sodipodi.sourceforge.net/DTD/sodipodi-0.dtd"
   xmlns:inkscape="http://www.inkscape.org/namespaces/inkscape"
   width="744.09448819"
   height="1052.3622047"
   id="svg4403"
   sodipodi:version="0.32"
   inkscape:version="0.44"
   sodipodi:docbase="/home/schmu20mol/TU-Berlin/job/script/MI1/figures/svg"
   sodipodi:docname="section2_fig19.svg">
  <defs
     id="defs4405">
    <marker
       inkscape:stockid="Arrow1Lend"
       orient="auto"
       refY="0.0"
       refX="0.0"
       id="Arrow1Lend"
       style="overflow:visible;">
      <path
         id="path4057"
         d="M 0.0,0.0 L 5.0,-5.0 L -12.5,0.0 L 5.0,5.0 L 0.0,0.0 z "
         style="fill-rule:evenodd;stroke:#000000;stroke-width:1.0pt;marker-start:none;"
         transform="scale(0.8) rotate(180) translate(12.5,0)" />
    </marker>
    <marker
       inkscape:stockid="Arrow2Lend"
       orient="auto"
       refY="0.0"
       refX="0.0"
       id="Arrow2Lend"
       style="overflow:visible;">
      <path
         id="path4806"
         style="font-size:12.0;fill-rule:evenodd;stroke-width:0.62500000;stroke-linejoin:round;"
         d="M 8.7185878,4.0337352 L -2.2072895,0.016013256 L 8.7185884,-4.0017078 C 6.9730900,-1.6296469 6.9831476,1.6157441 8.7185878,4.0337352 z "
         transform="scale(1.1) rotate(180) translate(1,0)" />
    </marker>
  </defs>
  <sodipodi:namedview
     id="base"
     pagecolor="#ffffff"
     bordercolor="#666666"
     borderopacity="1.0"
     gridtolerance="10000"
     guidetolerance="10"
     objecttolerance="10"
     inkscape:pageopacity="0.0"
     inkscape:pageshadow="2"
     inkscape:zoom="2.6590116"
     inkscape:cx="211.42858"
     inkscape:cy="862.85714"
     inkscape:document-units="px"
     inkscape:current-layer="layer1"
     inkscape:window-width="1398"
     inkscape:window-height="975"
     inkscape:window-x="0"
     inkscape:window-y="25" />
  <metadata
     id="metadata4408">
    <rdf:RDF>
      <cc:Work
         rdf:about="">
        <dc:format>image/svg+xml</dc:format>
        <dc:type
           rdf:resource="http://purl.org/dc/dcmitype/StillImage" />
      </cc:Work>
    </rdf:RDF>
  </metadata>
  <g
     inkscape:label="Layer 1"
     inkscape:groupmode="layer"
     id="layer1">
    <g
       id="g4417"
       transform="translate(-294.2857,-240)">
      <path
         id="path8498"
         d="M 364.49471,442.93218 C 619.61923,442.93218 619.61923,442.93218 619.61923,442.93218"
         style="fill:none;fill-rule:evenodd;stroke:black;stroke-width:1.20350218px;stroke-linecap:butt;stroke-linejoin:miter;marker-end:url(#Arrow2Lend);stroke-opacity:1" />
      <path
         id="path9391"
         d="M 488.65535,571.07096 C 488.65535,311.35828 488.65535,311.35828 488.65535,311.35828"
         style="fill:none;fill-rule:evenodd;stroke:black;stroke-width:1.18433654px;stroke-linecap:butt;stroke-linejoin:miter;marker-end:url(#Arrow2Lend);stroke-opacity:1" />
      <image
         xlink:href="/home/schmu20mol/TU-Berlin/job/script/MI1/figures/png/standards/x_1.png"
         sodipodi:absref="/home/schmu20mol/TU-Berlin/job/script/MI1/figures/png/standards/x_1.png"
         width="23.225061"
         height="21.113691"
         id="image16197"
         x="624.31055"
         y="432.70233" />
      <image
         xlink:href="/home/schmu20mol/TU-Berlin/job/script/MI1/figures/png/standards/x_2.png"
         sodipodi:absref="/home/schmu20mol/TU-Berlin/job/script/MI1/figures/png/standards/x_2.png"
         width="27.4478"
         height="22.169376"
         id="image16255"
         x="475.10535"
         y="287.34695" />
    </g>
    <path
       style="fill:none;fill-rule:evenodd;stroke:black;stroke-width:1px;stroke-linecap:butt;stroke-linejoin:miter;stroke-opacity:1;marker-end:url(#Arrow1Lend)"
       d="M 194.65465,202.27209 C 248.88889,124.49431 248.88889,124.49431 248.88889,124.49431"
       id="path4423" />
    <path
       style="fill:none;fill-rule:evenodd;stroke:black;stroke-width:1px;stroke-linecap:butt;stroke-linejoin:miter;stroke-opacity:1;marker-end:url(#Arrow1Lend)"
       d="M 194.23423,202.69251 C 300.6006,153.50332 300.6006,153.50332 300.6006,153.50332"
       id="path5312" />
    <image
       y="138.57541"
       x="306.23209"
       id="image6419"
       height="21.498116"
       width="17.088245"
       sodipodi:absref="/home/schmu20mol/TU-Berlin/job/script/MI1/figures/png/standards/vecZ.png"
       xlink:href="/home/schmu20mol/TU-Berlin/job/script/MI1/figures/png/standards/vecZ.png" />
    <image
       y="98.971786"
       x="251.10846"
       id="image6507"
       height="25.356752"
       width="23.151817"
       sodipodi:absref="/home/schmu20mol/TU-Berlin/job/script/MI1/figures/png/standards/vecX.png"
       xlink:href="/home/schmu20mol/TU-Berlin/job/script/MI1/figures/png/standards/vecX.png" />
    <image
       y="203.66547"
       x="234.03259"
       id="image6565"
       height="27.561686"
       width="47.406101"
       sodipodi:absref="/home/schmu20mol/TU-Berlin/job/script/MI1/figures/png/standards/K_betaalpha.png"
       xlink:href="/home/schmu20mol/TU-Berlin/job/script/MI1/figures/png/standards/K_betaalpha.png" />
    <path
       style="font-size:63.74376297px;font-style:normal;font-weight:normal;fill:black;fill-opacity:1;stroke:none;stroke-width:1px;stroke-linecap:butt;stroke-linejoin:miter;stroke-opacity:1;font-family:Bitstream Vera Sans"
       d="M 268.63517,167.84126 C 273.13077,173.3733 273.33739,181.68933 266.22397,184.25971 C 259.69386,188.9656 247.04875,189.30286 244.5299,197.53346 C 244.4103,200.72734 245.14586,202.41384 246.22948,198.63452 C 252.41051,189.17964 270.18426,190.66124 274.05621,179.71203 C 273.70932,175.81906 271.49118,169.87111 268.63517,167.84126 z M 248.11546,211.63532 C 248.37793,211.5908 247.61946,210.99861 248.11546,211.63532 z M 238.9305,203.15919 C 231.01197,195.83321 221.25883,205.55469 213.91535,207.33484 C 207.81729,211.51731 198.20787,209.69575 195.00023,202.3396 C 191.46919,198.01427 197.25529,207.89576 199.42519,209.264 C 207.40459,217.00791 217.94338,207.19512 225.49542,205.20566 C 229.65457,203.3487 234.90875,201.7524 239.69815,203.98333 L 238.9305,203.15919 z "
       id="text15618" />
    <g
       id="g4067"
       transform="matrix(-0.945169,-0.326583,0.326583,-0.945169,659.9179,459.7346)">
      <path
         id="path11839"
         d="M 471.56608,141.4232 L 465.25358,147.7357 L 472.50358,156.3607 C 475.28496,155.09905 477.22232,152.29758 477.22233,149.0482 C 477.22233,145.45731 474.85584,142.43741 471.59733,141.4232 C 471.58803,141.42031 471.57539,141.42606 471.56608,141.4232 z "
         style="fill:white;fill-opacity:1;stroke:black;stroke-width:1;stroke-miterlimit:4;stroke-dasharray:none;stroke-dashoffset:0;stroke-opacity:1" />
      <path
         transform="translate(315.3364,19.69912)"
         d="M 158.16143 128.77675 A 1.8086283 1.8086283 0 1 1  154.54417,128.77675 A 1.8086283 1.8086283 0 1 1  158.16143 128.77675 z"
         sodipodi:ry="1.8086283"
         sodipodi:rx="1.8086283"
         sodipodi:cy="128.77675"
         sodipodi:cx="156.3528"
         id="path11847"
         style="fill:black;fill-opacity:1;stroke:black;stroke-width:1;stroke-miterlimit:4;stroke-dasharray:none;stroke-dashoffset:0;stroke-opacity:1"
         sodipodi:type="arc" />
    </g>
    <path
       style="fill:none;fill-rule:evenodd;stroke:black;stroke-width:1;stroke-linecap:butt;stroke-linejoin:miter;stroke-opacity:1;stroke-miterlimit:4;stroke-dasharray:4,4;stroke-dashoffset:0"
       d="M 249.70526,123.38876 C 268.73874,167.91663 268.73874,167.91663 268.73874,167.91663"
       id="path6950" />
  </g>
</svg>
